<?xml version="1.0" encoding="UTF-8" standalone="no"?>
<svg
   width="512"
   height="512"
   viewBox="0 0 512 512"
   fill="none"
   version="1.1"
   id="svg6"
   sodipodi:docname="android.svg"
   inkscape:version="1.1.1 (3bf5ae0d25, 2021-09-20)"
   xmlns:inkscape="http://www.inkscape.org/namespaces/inkscape"
   xmlns:sodipodi="http://sodipodi.sourceforge.net/DTD/sodipodi-0.dtd"
   xmlns="http://www.w3.org/2000/svg"
   xmlns:svg="http://www.w3.org/2000/svg">
  <defs
     id="defs10" />
  <sodipodi:namedview
     id="namedview8"
     pagecolor="#ffffff"
     bordercolor="#666666"
     borderopacity="1.0"
     inkscape:pageshadow="2"
     inkscape:pageopacity="0.0"
     inkscape:pagecheckerboard="0"
     showgrid="false"
     inkscape:zoom="1.7050781"
     inkscape:cx="251.30813"
     inkscape:cy="256"
     inkscape:window-width="3440"
     inkscape:window-height="1417"
     inkscape:window-x="0"
     inkscape:window-y="0"
     inkscape:window-maximized="1"
     inkscape:current-layer="svg6" />
  <circle
     cx="256"
     cy="256"
     r="256"
     fill="white"
     id="circle2" />
  <path
     d="m 345.91707,304.57979 c -3.129,10e-4 -6.189,-0.927 -8.792,-2.665 -2.603,-1.738 -4.631,-4.21 -5.83,-7.101 -1.198,-2.891 -1.512,-6.073 -0.902,-9.143 0.61,-3.07 2.117,-5.89 4.33,-8.103 2.212,-2.214 5.032,-3.721 8.101,-4.333 3.07,-0.611 6.252,-0.298 9.144,0.899 2.891,1.197 5.363,3.225 7.103,5.827 1.739,2.602 2.668,5.662 2.668,8.791 -0.005,4.196 -1.673,8.218 -4.639,11.185 -2.966,2.967 -6.987,4.637 -11.183,4.643 z m -174.898,0 c -3.13,10e-4 -6.189,-0.927 -8.792,-2.665 -2.603,-1.738 -4.632,-4.21 -5.83,-7.101 -1.198,-2.891 -1.512,-6.073 -0.902,-9.143 0.61,-3.07 2.116,-5.89 4.329,-8.103 2.213,-2.214 5.032,-3.721 8.102,-4.333 3.07,-0.611 6.251,-0.298 9.143,0.899 2.892,1.197 5.364,3.225 7.103,5.827 1.74,2.602 2.668,5.662 2.669,8.791 -0.004,4.196 -1.672,8.219 -4.638,11.186 -2.966,2.967 -6.988,4.637 -11.184,4.642 z m 180.573,-95.315 31.623,-54.771 c 0.432,-0.7481 0.713,-1.5741 0.826,-2.4308 0.114,-0.8567 0.057,-1.7273 -0.166,-2.5621 -0.223,-0.8349 -0.609,-1.6176 -1.134,-2.3034 -0.526,-0.6859 -1.182,-1.2615 -1.93,-1.694 -0.748,-0.4325 -1.574,-0.7135 -2.431,-0.8267 -0.856,-0.1133 -1.727,-0.0568 -2.562,0.1664 -0.835,0.2232 -1.617,0.6086 -2.303,1.1343 -0.686,0.5256 -1.262,1.1812 -1.694,1.9294 l -32.022,55.4629 c -24.487,-11.1763 -51.989,-17.3994 -81.334,-17.3994 -29.344,0 -56.843,6.2321 -81.33,17.3994 l -32.019,-55.4629 c -0.432,-0.7484 -1.007,-1.4043 -1.693,-1.9303 -0.685,-0.5261 -1.468,-0.912 -2.302,-1.1358 -0.835,-0.2237 -1.705,-0.2809 -2.562,-0.1682 -0.856,0.1127 -1.682,0.393 -2.431,0.8249 -0.748,0.4319 -1.404,1.007 -1.93,1.6924 -0.526,0.6854 -0.912,1.4677 -1.136,2.3023 -0.223,0.8345 -0.281,1.705 -0.168,2.5616 0.113,0.8567 0.393,1.6827 0.825,2.431 l 31.626,54.78 c -54.303,29.535 -91.445301,84.509 -96.878201,149.46 H 448.47007 c -5.439,-64.951 -42.578,-119.925 -96.878,-149.46"
     fill="#3ddc84"
     id="path4" />
</svg>
