<?xml version="1.0" encoding="UTF-8" standalone="no"?>
<svg
   width="512"
   height="512"
   version="1.1"
   id="svg18"
   sodipodi:docname="kaos.svg"
   inkscape:version="1.1.1 (3bf5ae0d25, 2021-09-20)"
   xmlns:inkscape="http://www.inkscape.org/namespaces/inkscape"
   xmlns:sodipodi="http://sodipodi.sourceforge.net/DTD/sodipodi-0.dtd"
   xmlns="http://www.w3.org/2000/svg"
   xmlns:svg="http://www.w3.org/2000/svg">
  <defs
     id="defs22" />
  <sodipodi:namedview
     id="namedview20"
     pagecolor="#ffffff"
     bordercolor="#666666"
     borderopacity="1.0"
     inkscape:pageshadow="2"
     inkscape:pageopacity="0.0"
     inkscape:pagecheckerboard="0"
     showgrid="false"
     inkscape:zoom="1.6697111"
     inkscape:cx="545.00445"
     inkscape:cy="235.66951"
     inkscape:window-width="3440"
     inkscape:window-height="1417"
     inkscape:window-x="0"
     inkscape:window-y="0"
     inkscape:window-maximized="1"
     inkscape:current-layer="svg18" />
  <path
     style="opacity:0.2;stroke-width:8.62069"
     d="m 320.42255,46.825358 c -8.86888,0.21381 -17.93767,1.22788 -27.12228,3.06398 -48.00362,9.59844 -81.5742,40.26438 -110.13795,74.680122 -1.26969,-8.11446 -3.15866,-16.30471 -7.70597,-24.915832 -10.48348,-19.85231 -37.53131,-35.56348 -58.72004,-35.58921 -27.2259,-0.0328 -43.94236,11.71169 -58.31626,24.30975 C 44.04616,100.97224 32.27093,116.77507 23.22167,135.68057 -6.1537006,197.05392 8.3349194,262.48539 30.25462,318.03745 52.17431,373.5895 84.18878,422.84968 109.23225,456.79164 a 51.692279,51.722334 0 0 0 89.27469,-50.63972 c -1.65,-3.95017 -1.94855,-6.44788 -3.43237,-10.20202 101.25869,-7.17333 140.51701,-17.24438 236.66369,31.44781 a 51.692279,51.722334 0 0 0 57.10485,-85.28619 C 446.68197,305.75093 381.02825,254.44498 304.10207,232.11154 c 21.18385,-12.42486 38.5566,-23.33765 69.1517,-41.01008 15.8431,-9.15026 30.42992,-19.96366 40.17865,-40.06736 9.74872,-20.10369 6.63531,-51.285072 -5.98977,-68.585852 -25.25019,-34.60156 -56.01171,-36.37043 -87.0201,-35.62289 z"
     id="path2" />
  <path
     style="fill:#124364;stroke-width:8.62069"
     d="m 320.42255,38.204668 c -8.86888,0.21382 -17.93767,1.22789 -27.12228,3.06398 -48.00362,9.59845 -81.5742,40.26438 -110.13795,74.680122 -1.26969,-8.11446 -3.15866,-16.304702 -7.70597,-24.915822 -10.48348,-19.85231 -37.53131,-35.56349 -58.72004,-35.58922 -27.2259,-0.0331 -43.94236,11.7117 -58.31626,24.30976 -14.37389,12.59807 -26.14912,28.400892 -35.19838,47.306402 -29.3753706,61.37334 -14.8867506,126.80481 7.03295,182.35688 21.91969,55.55204 53.93416,104.81222 78.97763,138.75419 a 51.692279,51.722334 0 0 0 89.27469,-50.63973 c -1.65,-3.95017 -1.94855,-6.44788 -3.43237,-10.20202 101.25869,-7.17333 140.51701,-17.24438 236.66369,31.44781 a 51.692279,51.722334 0 0 0 57.10485,-85.28619 C 446.68197,297.13025 381.02825,245.82428 304.10207,223.49085 c 21.18385,-12.42486 38.5566,-23.33765 69.1517,-41.01008 15.8431,-9.15026 30.42992,-19.96366 40.17865,-40.06735 9.74872,-20.10369 6.63531,-51.285072 -5.98977,-68.585862 -25.25019,-34.60155 -56.01171,-36.37043 -87.0201,-35.62289 z"
     id="path4" />
  <path
     style="opacity:0.2;stroke-width:8.62069"
     d="m 321.45008,98.430558 c -5.85579,0.14112 -11.98412,0.80198 -18.2516,2.054152 -89.7197,17.92927 -147.04132,153.1077 -170.79741,228.98707 63.94985,-106.65067 116.48679,-126.49613 214.81006,-183.257 42.18915,-24.35236 15.22954,-48.771832 -25.76105,-47.784222 z M 116.30463,115.67195 c -14.2867,-0.0172 -34.60814,16.61515 -46.87501,42.2279 -39.01498,81.46581 34.67222,205.29029 81.0547,268.11691 -47.0292,-112.52036 -31.59961,-165.65696 -18.42,-276.4682 2.82573,-23.76909 -4.64782,-33.86313 -15.75969,-33.87661 z m 124.09078,156.14897 c -17.69929,-0.75534 -34.75325,1.70328 -50.54552,8.38497 -47.07367,19.92379 -67.06708,68.14801 -12.02183,64.75619 112.26821,-6.9118 166.62869,-19.70143 277.14169,36.23384 C 405.76913,338.789 317.09227,275.09442 240.39541,271.82092 Z"
     id="path6" />
  <path
     style="fill:#3eb9ff;stroke-width:8.62069"
     d="M 454.96975,372.56849 C 394.41515,320.37536 274.07784,235.96413 189.85233,271.59968 c -47.07366,19.9238 -67.07167,68.12701 -12.02643,64.73519 112.26822,-6.9118 166.63085,-19.70164 277.14385,36.23362"
     id="path8" />
  <path
     style="fill:#007ae0;stroke-width:8.62069"
     d="m 132.38777,320.84434 c 23.75608,-75.87937 81.08336,-211.055 170.80306,-228.984272 50.13987,-10.0176 92.2492,17.896232 44.03302,45.727492 -98.32327,56.76086 -150.88624,76.60612 -214.83608,183.25678"
     id="path10" />
  <path
     style="fill:#0055b2;stroke-width:8.62069"
     d="M 150.48311,417.39607 C 104.10063,354.56946 30.40934,230.74627 69.42433,149.28046 c 21.80775,-45.53378 69.0825,-62.689572 62.62369,-8.36023 -13.17962,110.81124 -28.5941,163.95549 18.43509,276.47584"
     id="path12" />
  <path
     style="opacity:0.2;fill:#ffffff;stroke-width:8.62069"
     d="m 321.4501,89.809858 c -5.85579,0.14112 -11.98414,0.80198 -18.25162,2.05414 -89.7197,17.929272 -147.04132,153.107712 -170.79741,228.987082 2.13946,-3.56802 4.22207,-6.69642 6.33081,-10.05186 26.64364,-77.49826 81.52494,-193.73976 164.4666,-210.31453 6.26748,-1.252162 12.39583,-1.913032 18.25162,-2.054152 23.53563,-0.56705 42.36887,7.258592 46.20151,18.622042 4.81452,-15.8107 -17.08019,-27.944372 -46.20151,-27.242722 z M 116.30463,107.05123 c -14.2867,-0.0172 -34.60814,16.61516 -46.87501,42.22793 -7.7795,16.24409 -10.72211,34.25331 -10.60749,53.05427 0.77348,-15.68735 4.01886,-30.67611 10.60749,-44.43359 12.26687,-25.61276 32.58831,-42.24516 46.87501,-42.22791 8.66283,0.0105 15.02916,6.25439 16.11327,20.22158 1.20078,-20.06303 -5.84547,-28.82982 -16.11327,-28.84228 z m 124.09078,156.14899 c -17.69931,-0.75535 -34.75325,1.70328 -50.54552,8.38497 -29.6262,12.53919 -48.45047,36.26963 -44.66932,51.3032 3.16136,-14.40826 20.26168,-32.35206 44.66932,-42.68251 15.79227,-6.68169 32.84621,-9.14032 50.54552,-8.38497 65.05017,2.77641 138.47737,48.964 189.36894,88.81668 8.09442,3.57796 16.43394,7.49802 25.20541,11.93763 -49.20062,-42.40691 -137.87749,-106.1015 -214.57435,-109.375 z M 119.03226,284.5499 c -0.10601,4.78652 -0.11606,9.56188 -0.0337,14.34536 0.0136,-1.9081 -0.009,-3.81397 0.0337,-5.72467 0.93386,34.26005 7.16948,69.13029 23.60587,113.02869 2.64815,3.81048 5.37167,7.84499 7.84619,11.19679 -22.37718,-53.53881 -30.38186,-93.58444 -31.45206,-132.84617 z"
     id="path14" />
  <path
     style="opacity:0.1;fill:#ffffff;stroke-width:8.62069"
     d="m 332.02391,38.102558 c -3.85805,-0.0444 -7.72483,0.008 -11.60089,0.10102 -8.86888,0.21381 -17.94026,1.22829 -27.12486,3.06438 -48.00362,9.59846 -81.56892,40.25762 -110.13268,74.673362 -1.26969,-8.11446 -3.16416,-16.291232 -7.71147,-24.902352 -10.48349,-19.85231 -37.52289,-35.56827 -58.71162,-35.59401 -27.22589,-0.0332 -43.95045,11.71496 -58.32435,24.31303 -14.3739,12.59808 -26.14068,28.390442 -35.18992,47.295932 -12.30226,25.70286 -16.8582406,52.12343 -16.4500306,78.22604 0.64726,-23.2832 5.5001406,-46.72799 16.4500306,-69.60534 9.04924,-18.9055 20.81602,-34.69787 35.18992,-47.295942 14.3739,-12.59806 31.09846,-24.34579 58.32435,-24.31303 21.18873,0.0258 48.22813,15.74171 58.71162,35.59402 4.54731,8.611122 6.44178,16.787882 7.71147,24.902342 28.56376,-34.415742 62.12906,-65.074912 110.13268,-74.673362 9.1846,-1.83609 18.25598,-2.85057 27.12486,-3.06438 31.0084,-0.74754 61.76491,1.02613 87.01509,35.62769 6.87352,9.41913 10.80569,22.950452 11.49987,36.570592 0.91669,-16.33517 -3.16774,-33.773352 -11.49987,-45.191282 -22.0939,-30.27636 -48.40783,-35.41787 -75.4142,-35.72871 z M 313.55341,226.4781 c -3.10607,1.84921 -6.22322,3.75042 -9.44571,5.64049 76.92618,22.33344 142.57754,73.6374 184.73869,109.99799 a 51.692279,51.722334 0 0 1 17.61179,34.66796 51.692279,51.722334 0 0 0 -17.61179,-43.28866 C 448.42823,298.63848 386.38587,250.11277 313.55341,226.4781 Z m -115.6553,169.24839 c -1.06808,0.0772 -1.74658,0.14223 -2.82867,0.21889 1.48381,3.75413 1.78481,6.25322 3.43481,10.20338 a 51.692279,51.722334 0 0 1 3.75471,15.37246 51.692279,51.722334 0 0 0 -3.75471,-23.99315 c -0.28705,-0.6872 -0.38755,-1.18803 -0.60614,-1.80158 z"
     id="path16" />
</svg>
