<?xml version="1.0" encoding="UTF-8" standalone="no"?>
<svg
   width="512"
   height="512"
   version="1.1"
   id="svg48"
   sodipodi:docname="knoppix.svg"
   inkscape:version="1.1.1 (3bf5ae0d25, 2021-09-20)"
   xmlns:inkscape="http://www.inkscape.org/namespaces/inkscape"
   xmlns:sodipodi="http://sodipodi.sourceforge.net/DTD/sodipodi-0.dtd"
   xmlns="http://www.w3.org/2000/svg"
   xmlns:svg="http://www.w3.org/2000/svg">
  <defs
     id="defs52" />
  <sodipodi:namedview
     id="namedview50"
     pagecolor="#ffffff"
     bordercolor="#666666"
     borderopacity="1.0"
     inkscape:pageshadow="2"
     inkscape:pageopacity="0.0"
     inkscape:pagecheckerboard="0"
     showgrid="false"
     inkscape:zoom="1.7050781"
     inkscape:cx="251.30813"
     inkscape:cy="256"
     inkscape:window-width="3440"
     inkscape:window-height="1417"
     inkscape:window-x="0"
     inkscape:window-y="0"
     inkscape:window-maximized="1"
     inkscape:current-layer="svg48" />
  <path
     style="opacity:0.2;stroke-width:8.77193"
     d="m 133.98859,241.95381 h 245.61403 c 0,0 17.54386,-68.22807 87.7193,-122.80702 0,-17.54386 0,-26.315788 -43.85965,-8.77193 -35.08772,27.28947 -157.89474,105.26316 -157.89474,105.26316 h -17.54386 c 0,0 -114.03508,-77.97369 -149.122806,-105.26316 -52.63158,-17.543858 -52.63158,-8.77193 -52.63158,8.77193 70.175436,54.57895 87.719306,122.80702 87.719306,122.80702 z"
     id="path2" />
  <path
     style="opacity:0.2;stroke-width:8.77193"
     d="m 125.21666,364.76082 h 263.15789 l 26.31579,62 26.31579,-0.59649 c 22.49122,-0.50877 43.85965,23.02632 43.85965,35.08772 -26.57895,12.0614 -78.94737,17.54386 -78.94737,17.54386 l -78.94737,8.77193 -65.78947,-48.24561 -65.78947,48.24561 -87.71931,-8.77193 c 0,0 -56.322796,-5.48246 -78.947366,-17.54386 0,-12.0614 21.36229,-35.08772 43.85965,-35.08772 h 26.31579 z"
     id="path4" />
  <path
     style="fill:#f77d00;stroke-width:8.77193"
     d="m 125.21666,355.98889 h 263.15789 l 26.31579,62 26.31579,-0.59649 c 22.49122,-0.50877 43.85965,23.02632 43.85965,35.08772 -26.57895,12.0614 -78.94737,17.54386 -78.94737,17.54386 l -78.94737,8.77193 -65.78947,-48.24561 -65.78947,48.24561 -87.71931,-8.77193 c 0,0 -56.322796,-5.48246 -78.947366,-17.54386 0,-12.0614 21.36229,-35.08772 43.85965,-35.08772 h 26.31579 z"
     id="path6" />
  <path
     style="opacity:0.2;fill:#ffffff;stroke-width:8.77193"
     d="M 125.21666,355.98889 98.900864,417.3924 h -26.31579 c -22.49736,0 -43.85965,23.02632 -43.85965,35.08772 0.66667,0.35965 1.60702,0.64912 2.32983,0.99123 5.93596,-12.16667 23.25614,-27.30702 41.52982,-27.30702 h 26.31579 l 26.315796,-61.40351 h 263.15789 l 26.31579,62 26.31579,-0.59649 c 18.24561,-0.41228 35.55263,14.9386 41.50877,27.21053 0.74561,-0.31579 1.64035,-0.57018 2.35088,-0.89474 0,-12.0614 -21.36843,-35.59649 -43.85965,-35.08772 l -26.31579,0.59649 -26.31579,-62 z"
     id="path8" />
  <path
     style="opacity:0.2;stroke-width:8.77193"
     d="m 298.46227,505.1117 h 125 c 0,-46.36842 -48.75439,-66.07895 -83.33334,-69.54386 -30.92982,-3.10526 -83.33333,27.60526 -83.33333,27.60526 0,0 -67.53508,-35.97368 -104.16666,-27.60526 -28.85966,6.58772 -62.500006,23.17544 -62.500006,69.54386 H 215.12894 c 26.51754,0 41.66666,-27.95614 41.66666,-27.95614 0,0 15.14913,27.95614 41.66667,27.95614 z"
     id="path10" />
  <path
     style="fill:#eab108;stroke-width:8.77193"
     d="m 298.46227,496.33977 h 125 c 0,-46.36842 -48.75439,-66.07895 -83.33334,-69.54386 -30.92982,-3.10526 -83.33333,27.60526 -83.33333,27.60526 0,0 -67.53508,-35.97368 -104.16666,-27.60526 -28.85966,6.58772 -62.500006,23.17544 -62.500006,69.54386 H 215.12894 c 26.51754,0 41.66666,-27.95614 41.66666,-27.95614 0,0 15.14913,27.95614 41.66667,27.95614 z"
     id="path12" />
  <path
     style="opacity:0.2;fill:#ffffff;stroke-width:8.77193"
     d="m 167.62017,425.58538 c -5.35088,-0.18421 -10.41228,0.16667 -14.99123,1.21053 -28.85966,6.58772 -62.500006,23.17544 -62.500006,69.54386 h 0.44737 c 3.99123,-39.7193 35.096496,-54.61403 62.052636,-60.77193 36.63158,-8.36842 104.16666,27.60526 104.16666,27.60526 0,0 52.40351,-30.71052 83.33333,-27.60526 32.30702,3.23684 76.97369,20.67544 82.70176,60.77193 h 0.63158 c 0,-46.36842 -48.75439,-66.07895 -83.33334,-69.54386 -30.92982,-3.10526 -83.33333,27.60526 -83.33333,27.60526 0,0 -51.71052,-27.54386 -89.17543,-28.81579 z"
     id="path14" />
  <path
     style="fill:#4f4f4f;stroke-width:8.77193"
     d="m 133.98859,233.18188 h 245.61403 c 0,0 17.54386,-68.22807 87.7193,-122.80702 0,-17.543858 0,-26.315788 -43.85965,-8.77193 -35.08772,27.28947 -157.89474,105.26316 -157.89474,105.26316 h -17.54386 c 0,0 -114.03508,-77.97369 -149.122806,-105.26316 -52.63158,-17.543858 -52.63158,-8.771928 -52.63158,8.77193 70.175436,54.57895 87.719306,122.80702 87.719306,122.80702 z"
     id="path16" />
  <path
     style="opacity:0.1;fill:#ffffff;stroke-width:8.77193"
     d="m 59.118414,92.041522 c -12.84913,-0.16666 -12.84913,7.36843 -12.84913,18.333338 0.15088,0.11403 0.27807,0.24561 0.42807,0.35965 1.40965,-11.307018 9.08772,-14.728068 52.20351,-0.35965 35.087726,27.28947 149.122806,105.26316 149.122806,105.26316 h 17.54386 c 0,0 122.80702,-77.97369 157.89474,-105.26316 35.85965,-14.342108 42.30701,-10.956138 43.5,0.28947 0.1228,-0.0965 0.23684,-0.19298 0.35965,-0.28947 0,-17.543858 0,-26.315788 -43.85965,-8.77193 -35.08772,27.28947 -157.89474,105.26316 -157.89474,105.26316 h -17.54386 c 0,0 -114.03508,-77.97369 -149.122806,-105.26316 -19.73684,-6.578948 -32.07017,-9.456138 -39.78245,-9.561408 z"
     id="path18" />
  <path
     style="opacity:0.2;stroke-width:8.77193"
     d="m 256.7956,13.883632 c -47.10526,0 -87.71929,43.82807 -87.71929,98.254388 0,32.29824 -4.91228,56.82456 -12.06141,77.18421 H 81.357004 c -26.31403,0.2807 -70.17544,17.54386 -70.17544,26.31579 44.77457,5.97368 79.62281,17.04386 117.868426,29.02631 -15.71053,25.76316 -30.149126,49.64913 -30.149126,88.51755 0,94.95614 70.692986,171.92982 157.894736,171.92982 87.20175,0 157.89474,-76.97368 157.89474,-171.92982 0,-39.57895 -14.95614,-63.62281 -31.00878,-89.94737 34.55264,-11.42105 81.45615,-21.85965 118.72808,-27.59649 0,-8.77193 -43.85965,-26.31579 -70.17544,-26.31579 h -75.6579 c -7.14912,-20.35965 -12.0614,-44.88597 -12.0614,-77.18421 0,-54.426318 -40.61403,-98.254388 -87.7193,-98.254388 z"
     id="path20" />
  <path
     style="fill:#cbcbcb;stroke-width:8.77193"
     d="m 256.7956,5.1117017 c -47.10526,0 -87.71929,43.8596503 -87.71929,96.4912283 0,35.08772 -4.91228,58.58772 -12.06141,78.94737 H 81.357004 c -26.31403,0.2807 -70.17544,17.54386 -70.17544,26.31579 44.77457,5.97368 79.62281,17.04386 117.868426,29.02631 -15.71053,25.76316 -30.149126,49.64913 -30.149126,88.51755 0,94.95614 70.692986,171.92982 157.894736,171.92982 87.20175,0 157.89474,-76.97368 157.89474,-171.92982 0,-39.57895 -14.95614,-63.62281 -31.00878,-89.94737 34.55264,-11.42105 81.45615,-21.85965 118.72808,-27.59649 0,-8.77193 -43.85965,-26.31579 -70.17544,-26.31579 h -75.6579 c -7.14912,-20.35965 -12.0614,-43.85965 -12.0614,-78.94737 0,-52.631578 -40.61403,-96.4912283 -87.7193,-96.4912283 z"
     id="path22" />
  <path
     style="opacity:0.1;stroke-width:8.77193"
     d="m 256.7956,154.23451 c -31.4035,0 -52.63157,28.35965 -52.63157,61.40351 0,74.57017 -52.63158,78.94737 -52.63158,131.57894 0,57.64913 47.13158,105.26316 105.26315,105.26316 58.13158,0 105.26316,-47.61403 105.26316,-105.26316 0,-52.63157 -52.63158,-57.00877 -52.63158,-131.57894 0,-33.04386 -21.22807,-61.40351 -52.63158,-61.40351 z"
     id="path24" />
  <path
     style="fill:#ffffff;stroke-width:8.77193"
     d="m 256.7956,145.46258 c -31.4035,0 -52.63157,28.35965 -52.63157,61.40351 0,74.57017 -52.63158,78.94737 -52.63158,131.57894 0,57.64913 47.13158,105.26316 105.26315,105.26316 58.13158,0 105.26316,-47.61403 105.26316,-105.26316 0,-52.63157 -52.63158,-57.00877 -52.63158,-131.57894 0,-33.04386 -21.22807,-61.40351 -52.63158,-61.40351 z"
     id="path26" />
  <circle
     style="opacity:0.1;stroke-width:8.77193"
     cx="221.70789"
     cy="101.60293"
     r="35.087719"
     id="circle28" />
  <circle
     style="fill:#ffffff;stroke-width:8.77193"
     cx="221.70789"
     cy="92.831001"
     r="35.087719"
     id="circle30" />
  <circle
     style="fill:#323232;stroke-width:8.77193"
     cx="221.70789"
     cy="92.831001"
     r="17.543859"
     id="circle32" />
  <path
     style="opacity:0.1;stroke-width:8.77193"
     d="m 309.42718,147.21696 c 0,33.91229 -23.5614,59.64913 -52.63158,59.64913 -29.07017,0 -52.63157,-25.73684 -52.63157,-59.64913 z"
     id="path34" />
  <path
     style="fill:#f77d00;stroke-width:8.77193"
     d="m 309.42718,138.44503 c 0,33.91229 -23.5614,59.64913 -52.63158,59.64913 -29.07017,0 -52.63157,-25.73684 -52.63157,-59.64913 z"
     id="path36" />
  <circle
     style="opacity:0.1;stroke-width:8.77193"
     cx="291.88333"
     cy="101.60293"
     r="35.087719"
     id="circle38" />
  <circle
     style="fill:#ffffff;stroke-width:8.77193"
     cx="291.88333"
     cy="92.831001"
     r="35.087719"
     id="circle40" />
  <circle
     style="fill:#323232;stroke-width:8.77193"
     cx="291.88333"
     cy="92.831001"
     r="17.543859"
     id="circle42" />
  <path
     style="fill:#eab108;stroke-width:8.77193"
     d="m 309.42718,139.6117 c 0,5.85088 -23.5614,40.9386 -52.63158,40.9386 -29.07017,0 -52.63157,-35.08772 -52.63157,-40.9386 0,-16.14912 23.5614,-29.23684 52.63157,-29.23684 29.07018,0 52.63158,13.08772 52.63158,29.23684 z"
     id="path44" />
  <path
     style="opacity:0.2;fill:#ffffff;stroke-width:8.77193"
     d="m 256.7956,5.1117017 c -47.10526,0 -87.71929,43.8596503 -87.71929,96.4912283 0,35.08772 -4.91228,58.58772 -12.06141,78.94737 H 81.357004 c -26.31403,0.2807 -70.17544,17.54386 -70.17544,26.31579 2.45264,0.32456 4.76667,0.7193 7.16141,1.07894 13.50789,-8.58771 43.21316,-18.41228 63.01403,-18.6228 H 157.0149 c 7.14913,-20.35965 12.06141,-43.85965 12.06141,-78.94737 0,-52.631578 40.61403,-96.491228 87.71929,-96.491228 47.10527,0 87.7193,43.85965 87.7193,96.491228 0,35.08772 4.91228,58.58772 12.0614,78.94737 h 75.6579 c 19.93859,0 49.85965,10.0614 63.23684,18.76316 2.26316,-0.3772 4.73684,-0.8772 6.9386,-1.2193 0,-8.77193 -43.85965,-26.31579 -70.17544,-26.31579 h -75.6579 c -7.14912,-20.35965 -12.0614,-43.85965 -12.0614,-78.94737 0,-52.631578 -40.61403,-96.4912283 -87.7193,-96.4912283 z M 388.10262,241.91872 c -1.41228,0.44737 -3.05263,0.86842 -4.42106,1.31579 15.42983,25.31579 29.71053,48.65789 30.80702,85.57894 0.0263,-1.47368 0.20176,-2.91228 0.20176,-4.4035 0,-35.80702 -12.36842,-58.92106 -26.58772,-82.49123 z m -263.42106,1.38596 c -13.85964,23.0965 -25.780696,45.98246 -25.780696,81.10527 0,1.48245 0.17544,2.92105 0.20176,4.38596 1.078936,-36.22807 14.859646,-59.38596 29.956136,-84.13158 -1.48245,-0.46491 -2.90351,-0.89473 -4.3772,-1.35965 z"
     id="path46" />
</svg>
