<?xml version="1.0" encoding="UTF-8" standalone="no"?>
<svg
   width="512"
   height="512"
   version="1.1"
   id="svg12"
   sodipodi:docname="smartos.svg"
   inkscape:version="1.1.1 (3bf5ae0d25, 2021-09-20)"
   xmlns:inkscape="http://www.inkscape.org/namespaces/inkscape"
   xmlns:sodipodi="http://sodipodi.sourceforge.net/DTD/sodipodi-0.dtd"
   xmlns="http://www.w3.org/2000/svg"
   xmlns:svg="http://www.w3.org/2000/svg">
  <defs
     id="defs16" />
  <sodipodi:namedview
     id="namedview14"
     pagecolor="#ffffff"
     bordercolor="#666666"
     borderopacity="1.0"
     inkscape:pageshadow="2"
     inkscape:pageopacity="0.0"
     inkscape:pagecheckerboard="0"
     showgrid="false"
     inkscape:zoom="1.7050781"
     inkscape:cx="251.30813"
     inkscape:cy="256"
     inkscape:window-width="3440"
     inkscape:window-height="1417"
     inkscape:window-x="0"
     inkscape:window-y="0"
     inkscape:window-maximized="1"
     inkscape:current-layer="svg12" />
  <rect
     x="11.41647"
     y="14.087953"
     width="491.22806"
     height="491.22806"
     rx="43.85965"
     ry="43.85965"
     style="opacity:0.2;stroke-width:8.77193"
     id="rect2" />
  <rect
     x="11.41647"
     y="5.3160257"
     width="491.22806"
     height="491.22806"
     rx="43.85965"
     ry="43.85965"
     style="fill:#24b8eb;stroke-width:8.77193"
     id="rect4" />
  <path
     d="m 100.33505,75.491466 c -15.241632,0 -27.515082,12.27345 -27.515082,27.515084 v 146.72422 c 0,15.24163 12.27345,27.51508 27.515082,27.51508 H 414.92524 V 417.59673 H 265.80243 V 303.56164 h -26.31579 v 112.8358 c 0,15.24163 12.27345,27.51508 27.51508,27.51508 h 146.72423 c 15.24163,0 27.51508,-12.27345 27.51508,-27.51508 V 277.24585 c 0,-15.24163 -11.07416,-26.31579 -26.31579,-26.31579 H 99.135758 V 101.80726 H 248.25857 v 122.80701 h 26.31579 V 103.00655 c 0,-15.241634 -12.27345,-27.515084 -27.51508,-27.515084 z"
     style="opacity:0.2;stroke-width:8.77193"
     id="path6" />
  <path
     d="m 100.33505,66.719536 c -15.241632,0 -27.515082,12.27345 -27.515082,27.51508 V 240.95884 c 0,15.24163 12.27345,27.51508 27.515082,27.51508 H 414.92524 V 408.8248 H 265.80243 V 294.78971 h -26.31579 v 112.8358 c 0,15.24163 12.27345,27.51508 27.51508,27.51508 h 146.72423 c 15.24163,0 27.51508,-12.27345 27.51508,-27.51508 V 268.47392 c 0,-15.24163 -11.07416,-26.31579 -26.31579,-26.31579 H 99.135758 V 93.035326 H 248.25857 V 215.84234 h 26.31579 V 94.234616 c 0,-15.24163 -12.27345,-27.51508 -27.51508,-27.51508 z"
     style="fill:#3f3f3f;stroke-width:8.77193"
     id="path8" />
  <path
     d="m 55.276108,5.3160259 c -24.29824,0 -43.85965,19.5614001 -43.85965,43.8596501 v 8.77193 c 0,-24.29825 19.56141,-43.85965 43.85965,-43.85965 H 458.78489 c 24.29824,0 43.85965,19.5614 43.85965,43.85965 v -8.77193 c 0,-24.29825 -19.56141,-43.8596501 -43.85965,-43.8596501 z"
     style="opacity:0.2;fill:#ffffff;stroke-width:8.77193"
     id="path10" />
</svg>
