<?xml version="1.0" encoding="UTF-8" standalone="no"?>
<!-- Created with Inkscape (http://www.inkscape.org/) -->

<svg
   width="560"
   height="560"
   viewBox="0 0 560 560"
   version="1.1"
   id="SVGRoot"
   sodipodi:docname="hopB.svg"
   inkscape:version="1.1.1 (3bf5ae0d25, 2021-09-20)"
   xmlns:inkscape="http://www.inkscape.org/namespaces/inkscape"
   xmlns:sodipodi="http://sodipodi.sourceforge.net/DTD/sodipodi-0.dtd"
   xmlns="http://www.w3.org/2000/svg"
   xmlns:svg="http://www.w3.org/2000/svg">
  <sodipodi:namedview
     id="namedview460"
     pagecolor="#505050"
     bordercolor="#eeeeee"
     borderopacity="1"
     inkscape:pageshadow="0"
     inkscape:pageopacity="0"
     inkscape:pagecheckerboard="0"
     inkscape:document-units="px"
     showgrid="true"
     inkscape:zoom="0.27496365"
     inkscape:cx="-158.20273"
     inkscape:cy="1214.706"
     inkscape:window-width="3440"
     inkscape:window-height="1440"
     inkscape:window-x="0"
     inkscape:window-y="0"
     inkscape:window-maximized="1"
     inkscape:current-layer="layer1">
    <inkscape:grid
       type="xygrid"
       id="grid466" />
  </sodipodi:namedview>
  <defs
     id="defs455" />
  <g
     inkscape:label="Vrstva 1"
     inkscape:groupmode="layer"
     id="layer1">
    <g
       id="g236"
       transform="matrix(1.4002461,0,0,1.4002461,24.902044,64.835941)">
      <g
         id="g238">
        <g
           id="g240">
          <path
             id="path242"
             style="fill:#8bc53f;stroke:#000000;stroke-width:3;stroke-linecap:round;stroke-linejoin:round"
             d="m 1.5,236.16 c -0.004,-12.97 10.514,-23.49 23.49,-23.5 12.977,0 23.496,10.53 23.493,23.5 z" />
          <g
             id="g244">
            <path
               id="path246"
               style="fill:#8bc53f"
               d="m 32.152,229.69 c 0,0 19.769,-113.59 23.814,-137.78 3.201,-19.139 15.393,-18.975 22.186,-13.222 17.223,14.586 51.998,61.002 51.998,61.002 l 18,-14 c 0,0 -55.121634,-49.760407 -71.080634,-65.720407 C 67.466366,50.366593 51.322,58.771 44.966,77.914 37.237,101.19 16.152,215.694 16.152,215.694 l 16,14 z"
               sodipodi:nodetypes="cccccccccc" />
            <g
               id="g248">
              <path
                 id="path250"
                 style="fill:none;stroke:#000000;stroke-width:3;stroke-linecap:round;stroke-linejoin:round"
                 d="m 14.152,220.69 c 0,0 24.769,-112.59 28.814,-136.78 3.201,-19.139 19.686,-38.722 36.186,-22.222 15.959,15.959 68.998,64.002 68.998,64.002" />
              <path
                 id="path252"
                 style="fill:none;stroke:#000000;stroke-width:3;stroke-linecap:round;stroke-linejoin:round"
                 d="M 34.152,219.69 C 49.121,121.36 50.043,126.36 54.966,96.91 58.932,73.2 68.554,70.091 83.152,84.688 99.111,100.65 131.15,139.69 131.15,139.69" />
            </g>
          </g>
        </g>
        <g
           id="g254">
          <path
             id="path256"
             style="fill:#8bc53f;stroke:#000000;stroke-width:3;stroke-linecap:round;stroke-linejoin:round"
             d="m 364.15,236.16 c 0.01,-12.97 -10.51,-23.49 -23.49,-23.5 -12.98,0 -23.49,10.53 -23.49,23.5 z" />
          <g
             id="g258">
            <path
               id="path260"
               style="fill:#8bc53f"
               d="m 333.5,229.69 c 0,0 -19.77,-113.59 -23.81,-137.78 -3.21,-19.139 -15.4,-18.975 -22.19,-13.222 -17.22,14.586 -52,61.002 -52,61.002 l -18,-14 c 0,0 55.41772,-51.621245 71.37772,-67.581245 9.6,-9.603 25.45228,0.662245 31.81228,19.805245 7.73,23.276 28.81,137.78 28.81,137.78 l -16,14 z"
               sodipodi:nodetypes="cccccccccc" />
            <g
               id="g262">
              <path
                 id="path264"
                 style="fill:none;stroke:#000000;stroke-width:3;stroke-linecap:round;stroke-linejoin:round"
                 d="m 351.5,220.69 c 0,0 -24.77,-112.59 -28.81,-136.78 C 319.48,64.771 303,45.188 286.5,61.688 c -15.96,15.959 -69,64.002 -69,64.002" />
              <path
                 id="path266"
                 style="fill:none;stroke:#000000;stroke-width:3;stroke-linecap:round;stroke-linejoin:round"
                 d="M 331.5,219.69 C 316.53,121.36 315.61,126.36 310.69,96.91 306.72,73.2 297.1,70.091 282.5,84.688 c -15.96,15.962 -48,55.002 -48,55.002" />
            </g>
          </g>
        </g>
      </g>
      <g
         id="g268">
        <g
           id="g270">
          <path
             id="path272"
             style="fill:#f7a03a;stroke:#000000;stroke-width:3;stroke-linecap:round;stroke-linejoin:round"
             d="m 105.9,190.62 c -0.01,42.44 34.39,76.86 76.83,76.86 42.45,0 76.85,-34.41 76.85,-76.86 z" />
          <path
             id="path274"
             style="fill:#d37d1a;stroke:#000000;stroke-width:3;stroke-linecap:round;stroke-linejoin:round"
             d="m 105.9,190.62 c -0.01,25.67 34.39,63.07 76.83,63.07 42.45,0 76.85,-37.4 76.85,-63.07 z" />
          <path
             id="path276"
             style="display:none;fill:#b06815;stroke:#000000;stroke-width:3;stroke-linecap:round;stroke-linejoin:round"
             d="m 105.9,190.62 c -0.01,17.88 34.39,48.97 76.83,48.97 42.45,0 76.85,-31.08 76.85,-48.97 z" />
        </g>
        <g
           id="g278">
          <path
             id="path280"
             style="fill:#8bc53f;stroke:#000000;stroke-width:3;stroke-linecap:round;stroke-linejoin:round"
             d="m 182.94,113.83 c -42.56,0 -77.05,34.57 -77.04,77.19 h 77.04 z" />
          <path
             id="path282"
             style="fill:#8bc53f;stroke:#000000;stroke-width:3;stroke-linecap:round;stroke-linejoin:round"
             d="m 259.75,191.02 c 0.01,-42.63 -34.48,-77.19 -77.03,-77.19 v 77.19 z" />
        </g>
      </g>
      <g
         id="g284">
        <g
           id="g286">
          <path
             id="path288"
             style="fill:#8bc53f;stroke:#000000;stroke-width:3;stroke-linecap:round;stroke-linejoin:round"
             d="m 36.584,267.68 c -0.004,-12.97 10.515,-23.5 23.49,-23.5 12.978,0 23.496,10.52 23.493,23.5 z" />
          <g
             id="g290">
            <path
               id="path292"
               style="fill:#8bc53f"
               d="M 71.655,251.69 71.47,147.91 c 2.303,-27.62 7.436,-35.72 25.186,-19.22 16.534,15.36 23.004,32 23.004,32 l 2,-23 c 0,0 -11.47,-9.64 -28.004,-25 -17.75,-16.503 -29.883,-7.4 -32.186,20.22 l -7.814,115.78 z" />
            <g
               id="g294">
              <path
                 id="path296"
                 style="fill:none;stroke:#000000;stroke-width:3;stroke-linecap:round;stroke-linejoin:round"
                 d="m 53.655,249.69 7.814,-116.78 c 2.303,-27.62 14.436,-36.722 32.186,-20.22 16.535,15.36 28.005,25 28.005,25" />
              <path
                 id="path298"
                 style="fill:none;stroke:#000000;stroke-width:3;stroke-linecap:round;stroke-linejoin:round"
                 d="M 71.655,251.69 71.47,147.91 c 2.303,-27.62 7.436,-35.72 25.186,-19.22 16.534,15.36 22.004,34 22.004,34" />
            </g>
          </g>
        </g>
        <g
           id="g300">
          <path
             id="path302"
             style="fill:#8bc53f;stroke:#000000;stroke-width:3;stroke-linecap:round;stroke-linejoin:round"
             d="m 329.07,267.68 c 0,-12.97 -10.52,-23.5 -23.49,-23.5 -12.98,0 -23.5,10.52 -23.5,23.5 z" />
          <g
             id="g304">
            <path
               id="path306"
               style="fill:#8bc53f"
               d="m 294,251.69 0.18,-103.78 c -2.3,-27.62 -7.43,-35.72 -25.18,-19.22 -16.53,15.36 -23,32 -23,32 l -2,-23 c 0,0 11.47,-9.64 28,-25 17.75,-16.502 29.88,-7.4 32.18,20.22 L 312,248.69 Z" />
            <g
               id="g308">
              <path
                 id="path310"
                 style="fill:none;stroke:#000000;stroke-width:3;stroke-linecap:round;stroke-linejoin:round"
                 d="m 312,249.69 -7.82,-116.78 c -2.3,-27.62 -14.43,-36.722 -32.18,-20.22 -16.53,15.36 -28,25 -28,25" />
              <path
                 id="path312"
                 style="fill:none;stroke:#000000;stroke-width:3;stroke-linecap:round;stroke-linejoin:round"
                 d="m 294,251.69 0.18,-103.78 c -2.3,-27.62 -7.43,-35.72 -25.18,-19.22 -16.53,15.36 -22,34 -22,34" />
            </g>
          </g>
        </g>
      </g>
      <g
         id="g314">
        <path
           id="path2383"
           style="fill:#8bc53f;stroke:#000000;stroke-width:3;stroke-linecap:round;stroke-linejoin:round"
           d="m 240.49,185.01 c 0.01,31.85 -25.81,57.68 -57.67,57.68 -31.85,0 -57.67,-25.83 -57.66,-57.69 -0.01,-31.85 25.82,-57.68 57.67,-57.68 31.85,0.01 57.67,25.84 57.66,57.69 z" />
        <g
           id="g317">
          <g
             id="g319">
            <g
               id="g321">
              <path
                 id="path323"
                 style="fill:none;stroke:#000000;stroke-width:3;stroke-linecap:round;stroke-linejoin:round"
                 d="m 171.09,141.5 c 0,0 14,-135.5 -110.5,-135.5" />
              <circle
                 id="circle325"
                 cy="6"
                 cx="60.591"
                 r="6" />
            </g>
            <g
               id="g327">
              <path
                 id="path329"
                 style="fill:none;stroke:#000000;stroke-width:3;stroke-linecap:round;stroke-linejoin:round"
                 d="m 194.56,143.69 c 0,0 -14,-135.5 110.5,-135.5" />
              <circle
                 id="circle331"
                 cy="8.1870003"
                 cx="305.06"
                 r="6" />
            </g>
          </g>
          <path
             id="path333"
             style="fill:none;stroke:#000000;stroke-width:3;stroke-linecap:round;stroke-linejoin:round"
             d="m 145.2,193.86 c -0.01,20.78 16.84,37.63 37.62,37.63 20.79,0.01 37.64,-16.85 37.63,-37.63" />
          <g
             id="g335">
            <g
               id="g337">
              <path
                 id="path3159_1_"
                 style="fill:#ffffff;stroke:#000000;stroke-width:3;stroke-linecap:round;stroke-linejoin:round"
                 d="m 246.72,146.52 c 0.01,16.48 -13.35,29.85 -29.84,29.85 -16.49,0 -29.85,-13.37 -29.84,-29.85 -0.01,-16.49 13.36,-29.85 29.84,-29.85 16.49,0 29.85,13.37 29.84,29.85 z" />
              <path
                 id="path3161_1_"
                 d="m 220.2,151.79 c 0,5.49 -4.46,9.95 -9.95,9.95 -5.49,0 -9.95,-4.46 -9.95,-9.95 0,-5.5 4.46,-9.95 9.95,-9.95 5.5,0 9.95,4.45 9.95,9.95 z" />
            </g>
            <g
               id="g341">
              <path
                 id="path3157_1_"
                 style="fill:#ffffff;stroke:#000000;stroke-width:3;stroke-linecap:round;stroke-linejoin:round"
                 d="m 178.61,146.52 c 0.01,16.48 -13.35,29.85 -29.84,29.85 -16.49,0 -29.85,-13.37 -29.84,-29.86 -0.01,-16.48 13.36,-29.85 29.84,-29.85 16.49,0 29.85,13.37 29.84,29.86 z" />
              <path
                 id="path3163_1_"
                 d="m 166.18,151.78 c 0,5.5 -4.45,9.95 -9.95,9.95 -5.49,0 -9.95,-4.45 -9.94,-9.95 -0.01,-5.49 4.45,-9.95 9.94,-9.95 5.5,0 9.95,4.46 9.95,9.95 z" />
            </g>
          </g>
        </g>
      </g>
      <g
         id="g345">
        <g
           id="g347">
          <path
             id="path349"
             style="fill:#8bc53f;stroke:#000000;stroke-width:3;stroke-linecap:round;stroke-linejoin:round"
             d="m 89.5,297.41 c -0.004,-12.97 10.51,-23.49 23.49,-23.49 12.98,0 23.5,10.52 23.49,23.49 z" />
          <path
             id="path351"
             style="fill:#8bc53f"
             d="m 119.35,279.79 -18.07,-75.07 c -10.25,-39.95 -1.19,-48.26 12.07,-21.93 l 4,-13 C 98.655,138.15 76.405,141.1 82.276,168.72 l 22.074,115.07 z" />
          <g
             id="g353">
            <path
               id="path355"
               style="fill:none;stroke:#000000;stroke-width:3;stroke-linecap:round;stroke-linejoin:round"
               d="M 104.35,283.79 82.276,168.72 c -5.395,-25.38 11.307,-32.32 31.794,-5.6 5.96,7.78 10.96,7.65 10.96,7.65" />
            <path
               id="path357"
               style="fill:none;stroke:#000000;stroke-width:3;stroke-linecap:round;stroke-linejoin:round"
               d="m 119.35,279.79 -18.07,-75.07 c -9.672,-36.09 -4.625,-46.53 8.68,-25.25 1.47,2.35 1.2,7.68 1.2,7.68" />
          </g>
        </g>
        <g
           id="g359">
          <path
             id="path361"
             style="fill:#8bc53f;stroke:#000000;stroke-width:3;stroke-linecap:round;stroke-linejoin:round"
             d="m 276.15,297.41 c 0.01,-12.97 -10.51,-23.49 -23.49,-23.49 -12.98,0 -23.49,10.52 -23.49,23.49 z" />
          <path
             id="path363"
             style="fill:#8bc53f"
             d="m 246.3,279.79 18.08,-75.07 c 10.24,-39.95 1.18,-48.26 -12.08,-21.93 l -4,-13 c 18.7,-31.64 40.95,-28.69 35.08,-1.07 L 261.3,283.79 Z" />
          <g
             id="g365">
            <path
               id="path367"
               style="fill:none;stroke:#000000;stroke-width:3;stroke-linecap:round;stroke-linejoin:round"
               d="m 261.3,283.79 22.08,-115.07 c 5.39,-25.38 -11.31,-32.32 -31.8,-5.6 -5.96,7.78 -10.96,7.65 -10.96,7.65" />
            <path
               id="path369"
               style="fill:none;stroke:#000000;stroke-width:3;stroke-linecap:round;stroke-linejoin:round"
               d="m 246.3,279.79 18.08,-75.07 c 9.66,-36.09 4.62,-46.53 -8.69,-25.25 -1.47,2.35 -1.19,7.68 -1.19,7.68" />
          </g>
        </g>
      </g>
    </g>
  </g>
</svg>
