<?xml version="1.0" encoding="UTF-8" standalone="no"?>
<svg
   width="512"
   height="512"
   version="1.1"
   id="svg16"
   sodipodi:docname="academix.svg"
   inkscape:version="1.1.1 (3bf5ae0d25, 2021-09-20)"
   xmlns:inkscape="http://www.inkscape.org/namespaces/inkscape"
   xmlns:sodipodi="http://sodipodi.sourceforge.net/DTD/sodipodi-0.dtd"
   xmlns="http://www.w3.org/2000/svg"
   xmlns:svg="http://www.w3.org/2000/svg">
  <defs
     id="defs20" />
  <sodipodi:namedview
     id="namedview18"
     pagecolor="#ffffff"
     bordercolor="#666666"
     borderopacity="1.0"
     inkscape:pageshadow="2"
     inkscape:pageopacity="0.0"
     inkscape:pagecheckerboard="0"
     showgrid="false"
     inkscape:zoom="1.7050781"
     inkscape:cx="251.30813"
     inkscape:cy="256"
     inkscape:window-width="3440"
     inkscape:window-height="1417"
     inkscape:window-x="0"
     inkscape:window-y="0"
     inkscape:window-maximized="1"
     inkscape:current-layer="svg16" />
  <circle
     style="opacity:0.2;stroke-width:8.91008"
     cx="256.3941"
     cy="261.74213"
     r="249.48216"
     id="circle2" />
  <path
     style="fill:#ffab32;stroke-width:8.91008"
     d="M 259.16109,18.942506 92.810653,441.12701 c 43.802417,38.08748 100.979907,61.18717 163.583447,61.18717 64.57025,0 123.3721,-24.57453 167.67303,-64.82429 z"
     id="path4" />
  <path
     style="fill:#255f8a;stroke-width:8.91008"
     d="M 242.85496,3.8371409 A 249.48216,249.48216 0 0 0 6.9119416,252.83203 249.48216,249.48216 0 0 0 82.508377,431.39902 Z"
     id="path6" />
  <path
     style="fill:#df391e;stroke-width:8.91008"
     d="M 270.02025,4.0285686 430.36684,431.62525 A 249.48216,249.48216 0 0 0 505.87625,252.83203 249.48216,249.48216 0 0 0 270.02025,4.0285686 Z"
     id="path8" />
  <path
     style="opacity:0.2;fill:#ffffff;stroke-width:8.91008"
     d="M 256.3941,3.3498711 A 249.48216,249.48216 0 0 0 6.9119416,252.83203 249.48216,249.48216 0 0 0 7.1035083,258.05333 249.48216,249.48216 0 0 1 256.3941,12.259948 249.48216,249.48216 0 0 1 505.68914,256.5208 249.48216,249.48216 0 0 0 505.87625,252.83203 249.48216,249.48216 0 0 0 256.3941,3.3498711 Z"
     id="path10" />
  <path
     style="opacity:0.2;stroke-width:8.91008"
     d="m 256.3941,12.259948 a 249.48216,249.48216 0 0 0 -27.33932,1.809859 C 227.54482,18.719255 150.35209,255.93161 72.571556,430.02423 a 249.48216,249.48216 0 0 0 37.223934,33.27356 L 167.29333,341.9328 h 187.11161 l 55.21812,116.5619 a 249.48216,249.48216 0 0 0 36.23199,-34.56135 C 366.96344,250.21855 285.14311,17.985715 283.69861,13.878383 A 249.48216,249.48216 0 0 0 256.3941,12.259948 Z m 0,71.280616 71.28061,204.931776 H 185.11348 Z"
     id="path12" />
  <path
     style="fill:#ffffff;stroke-width:8.91008"
     d="M 256.3941,3.3498711 A 249.48216,249.48216 0 0 0 229.05478,5.1597305 C 227.54482,9.8091781 150.35209,247.02153 72.571556,421.11415 a 249.48216,249.48216 0 0 0 37.223934,33.27357 l 57.49784,-121.365 h 187.11161 l 55.21812,116.5619 a 249.48216,249.48216 0 0 0 36.23199,-34.56135 C 366.96344,241.30847 285.14311,9.0756381 283.69861,4.9683064 A 249.48216,249.48216 0 0 0 256.3941,3.3498711 Z m 0,71.2806159 71.28061,204.931773 H 185.11348 Z"
     id="path14" />
</svg>
