<?xml version="1.0" encoding="UTF-8" standalone="no"?>
<svg
   width="512"
   height="512"
   version="1.1"
   id="svg12"
   sodipodi:docname="aix.svg"
   inkscape:version="1.1.1 (3bf5ae0d25, 2021-09-20)"
   xmlns:inkscape="http://www.inkscape.org/namespaces/inkscape"
   xmlns:sodipodi="http://sodipodi.sourceforge.net/DTD/sodipodi-0.dtd"
   xmlns="http://www.w3.org/2000/svg"
   xmlns:svg="http://www.w3.org/2000/svg">
  <defs
     id="defs16" />
  <sodipodi:namedview
     id="namedview14"
     pagecolor="#ffffff"
     bordercolor="#666666"
     borderopacity="1.0"
     inkscape:pageshadow="2"
     inkscape:pageopacity="0.0"
     inkscape:pagecheckerboard="0"
     showgrid="false"
     inkscape:zoom="1.7050781"
     inkscape:cx="251.30813"
     inkscape:cy="256"
     inkscape:window-width="3440"
     inkscape:window-height="1417"
     inkscape:window-x="0"
     inkscape:window-y="0"
     inkscape:window-maximized="1"
     inkscape:current-layer="svg12" />
  <circle
     cx="256.72266"
     cy="260.85086"
     r="248.7115"
     style="opacity:0.2;stroke-width:8.88255"
     id="circle2" />
  <circle
     cx="256.72266"
     cy="251.96831"
     r="248.7115"
     style="fill:#95e000;stroke-width:8.88255"
     id="circle4" />
  <path
     d="M 256.72267,3.2568013 A 248.7115,248.7115 0 0 0 8.0111684,251.9683 248.7115,248.7115 0 0 0 8.2021433,257.17348 248.7115,248.7115 0 0 1 256.72267,12.139355 248.7115,248.7115 0 0 1 505.24764,255.64568 248.7115,248.7115 0 0 0 505.43417,251.9683 248.7115,248.7115 0 0 0 256.72267,3.2568013 Z"
     style="opacity:0.2;fill:#ffffff;stroke-width:8.88255"
     id="path6" />
  <path
     d="M 256.72267,38.787015 A 222.06384,222.06384 0 0 0 34.658829,260.85085 222.06384,222.06384 0 0 0 256.72267,482.91469 222.06384,222.06384 0 0 0 478.78651,260.85085 222.06384,222.06384 0 0 0 256.72267,38.787015 Z m 0,17.765108 A 204.29873,204.29873 0 0 1 461.0214,260.85085 204.29873,204.29873 0 0 1 256.72267,465.14959 204.29873,204.29873 0 0 1 52.423936,260.85085 204.29873,204.29873 0 0 1 256.72267,56.552123 Z M 150.13203,198.67298 105.71926,314.14618 h 26.64766 l 10.65213,-26.64766 h 43.52797 l 7.99778,26.64766 h 26.64766 l -35.53022,-115.4732 z m 88.82553,0 v 115.4732 h 26.64766 v -115.4732 z m 44.41277,0 44.41277,57.7366 -44.41277,57.7366 h 26.64766 l 31.08894,-40.42256 31.08894,40.42256 h 26.64766 l -44.41277,-57.7366 44.41277,-57.7366 h -26.64766 l -31.08894,40.42256 -31.08894,-40.42256 z m -115.4732,26.64766 10.65213,35.53021 h -24.86074 z"
     style="opacity:0.2;stroke-width:8.88255"
     id="path8" />
  <path
     d="M 256.72267,29.904462 A 222.06384,222.06384 0 0 0 34.658829,251.9683 222.06384,222.06384 0 0 0 256.72267,474.03214 222.06384,222.06384 0 0 0 478.78651,251.9683 222.06384,222.06384 0 0 0 256.72267,29.904462 Z m 0,17.765107 A 204.29873,204.29873 0 0 1 461.0214,251.9683 204.29873,204.29873 0 0 1 256.72267,456.26703 204.29873,204.29873 0 0 1 52.423936,251.9683 204.29873,204.29873 0 0 1 256.72267,47.669569 Z M 150.13203,189.79043 105.71926,305.26362 h 26.64766 l 10.65213,-26.64766 h 43.52797 l 7.99778,26.64766 h 26.64766 L 185.66224,189.79043 Z m 88.82553,0 v 115.47319 h 26.64766 V 189.79043 Z m 44.41277,0 44.41277,57.73659 -44.41277,57.7366 h 26.64766 l 31.08894,-40.42255 31.08894,40.42255 h 26.64766 l -44.41277,-57.7366 44.41277,-57.73659 h -26.64766 l -31.08894,40.42255 -31.08894,-40.42255 z m -115.4732,26.64766 10.65213,35.53021 h -24.86074 z"
     style="fill:#ffffff;stroke-width:8.88255"
     id="path10" />
</svg>
