<?xml version="1.0" encoding="UTF-8" standalone="no"?>
<svg
   width="512"
   height="512"
   version="1.1"
   id="svg14"
   sodipodi:docname="antix.svg"
   inkscape:version="1.1.1 (3bf5ae0d25, 2021-09-20)"
   xmlns:inkscape="http://www.inkscape.org/namespaces/inkscape"
   xmlns:sodipodi="http://sodipodi.sourceforge.net/DTD/sodipodi-0.dtd"
   xmlns="http://www.w3.org/2000/svg"
   xmlns:svg="http://www.w3.org/2000/svg">
  <defs
     id="defs18" />
  <sodipodi:namedview
     id="namedview16"
     pagecolor="#ffffff"
     bordercolor="#666666"
     borderopacity="1.0"
     inkscape:pageshadow="2"
     inkscape:pageopacity="0.0"
     inkscape:pagecheckerboard="0"
     showgrid="false"
     inkscape:zoom="1.7050781"
     inkscape:cx="251.30813"
     inkscape:cy="256"
     inkscape:window-width="3440"
     inkscape:window-height="1417"
     inkscape:window-x="0"
     inkscape:window-y="0"
     inkscape:window-maximized="1"
     inkscape:current-layer="svg14" />
  <circle
     style="opacity:0.2;stroke-width:8.86091"
     cx="256.57034"
     r="248.10544"
     cy="260.96634"
     id="circle2" />
  <circle
     style="fill:#acaeb5;stroke-width:8.86091"
     cx="256.57034"
     r="248.10544"
     cy="252.10544"
     id="circle4" />
  <path
     style="opacity:0.1;fill:#ffffff;stroke-width:8.86091"
     d="M 256.57035,4 A 248.10543,248.10543 0 0 0 8.4649198,252.10543 248.10543,248.10543 0 0 0 8.6206777,256.46666 248.10543,248.10543 0 0 1 256.57035,12.860908 248.10543,248.10543 0 0 1 504.4508,256.46666 248.10543,248.10543 0 0 0 504.67578,252.10543 248.10543,248.10543 0 0 0 256.57035,4 Z"
     id="path6" />
  <path
     style="opacity:0.2;stroke-width:8.86091"
     d="m 157.32819,12.860908 c -33.67146,0 -51.39328,0 -122.280545,53.16545 C 132.51764,39.443633 194.54399,83.748174 283.15308,190.07907 159.10036,322.9927 8.4649198,509.07177 8.4649198,509.07177 H 132.51764 L 327.45762,243.24452 c 44.30454,70.88727 79.74817,141.77454 79.74817,265.82725 h 72.65945 C 478.09306,411.60178 424.92761,296.40997 362.90125,198.93998 l 53.16545,-62.02636 c 0,0 26.58273,-35.44363 62.02636,0 0,-35.44363 26.58272,-53.165446 26.58272,-53.165446 h -97.46999 c -8.2887,0 -35.44363,26.582726 -79.74817,70.887266 C 265.43126,74.887266 203.4049,12.860908 157.32819,12.860908 Z"
     id="path8" />
  <path
     style="fill:#e4e4e4;stroke-width:8.86091"
     d="M 157.32819,4 C 123.65673,4 105.93491,4 35.047645,57.16545 132.51764,30.582725 194.54399,74.887266 283.15308,181.21817 159.10036,314.13179 8.4649198,500.21086 8.4649198,500.21086 H 132.51764 L 327.45762,234.38361 c 44.30454,70.88727 79.74817,141.77454 79.74817,265.82725 h 72.65945 C 478.09306,402.74087 424.92761,287.54906 362.90125,190.07907 l 53.16545,-62.02635 c 0,0 26.58273,-35.443637 62.02636,0 0,-35.443637 26.58272,-53.165454 26.58272,-53.165454 h -97.46999 c -8.2887,0 -35.44363,26.582724 -79.74817,70.887264 C 265.43126,66.026358 203.4049,4 157.32819,4 Z"
     id="path10" />
  <path
     style="opacity:0.2;fill:#ffffff;stroke-width:8.86091"
     d="M 157.3351,4 C 123.66364,4 105.93491,4 35.047645,57.16545 41.182571,55.492288 47.176803,54.108302 53.046365,52.994593 108.93669,13.305404 126.78991,12.860908 157.3351,12.860908 c 46.07671,0 108.09616,62.026358 170.12252,141.774532 44.30454,-44.30454 71.45947,-70.887266 79.74817,-70.887266 h 87.89952 c 5.18421,-5.806057 9.57047,-8.860908 9.57047,-8.860908 h -97.46999 c -8.2887,0 -35.44363,26.582724 -79.74817,70.887264 C 265.43126,66.026358 203.41181,4 157.3351,4 Z M 279.25912,185.49286 C 155.95966,318.09679 8.4649198,500.21086 8.4649198,500.21086 H 15.716328 C 34.788923,476.74613 167.9244,313.53837 283.15308,190.07907 c -1.32183,-1.5862 -2.58375,-3.02764 -3.89396,-4.58621 z m 86.79191,9.76084 -3.14978,3.68628 c 60.16796,94.54966 111.855,205.72196 116.52441,301.27088 h 0.43266 C 478.11684,404.42962 426.68845,291.62794 366.05103,195.2537 Z"
     id="path12" />
</svg>
