<?xml version="1.0" encoding="UTF-8" standalone="no"?>
<svg
   width="512"
   height="512"
   version="1.1"
   id="svg12"
   sodipodi:docname="archbang.svg"
   inkscape:version="1.1.1 (3bf5ae0d25, 2021-09-20)"
   xmlns:inkscape="http://www.inkscape.org/namespaces/inkscape"
   xmlns:sodipodi="http://sodipodi.sourceforge.net/DTD/sodipodi-0.dtd"
   xmlns="http://www.w3.org/2000/svg"
   xmlns:svg="http://www.w3.org/2000/svg">
  <defs
     id="defs16" />
  <sodipodi:namedview
     id="namedview14"
     pagecolor="#ffffff"
     bordercolor="#666666"
     borderopacity="1.0"
     inkscape:pageshadow="2"
     inkscape:pageopacity="0.0"
     inkscape:pagecheckerboard="0"
     showgrid="false"
     inkscape:zoom="1.7050781"
     inkscape:cx="251.30813"
     inkscape:cy="256"
     inkscape:window-width="3440"
     inkscape:window-height="1417"
     inkscape:window-x="0"
     inkscape:window-y="0"
     inkscape:window-maximized="1"
     inkscape:current-layer="svg12" />
  <path
     style="opacity:0.2;stroke-width:8.86679"
     d="M 256.24077,12.866785 C 167.57292,216.80284 167.57292,225.66963 7.9707904,509.40675 c 0,0 141.8685596,-79.80106 248.2699796,-79.80106 106.40142,0 248.26999,79.80106 248.26999,79.80106 C 344.90862,225.66963 344.90862,216.80284 256.24077,12.866785 Z"
     id="path2" />
  <path
     style="fill:#1793d1;stroke-width:8.86679"
     d="M 256.24077,4 C 167.57292,207.93606 167.57292,216.80284 7.9707904,500.53997 c 0,0 141.8685596,-79.80107 248.2699796,-79.80107 106.40142,0 248.26999,79.80107 248.26999,79.80107 C 344.90862,216.80284 344.90862,207.93606 256.24077,4 Z"
     id="path4" />
  <path
     style="opacity:0.2;stroke-width:8.86679"
     d="m 305.4603,126.24637 c 0,0 -22.61917,10.75541 -58.08631,10.75541 0,26.60035 8.86678,26.60035 8.86678,88.66785 0,53.20071 -8.86678,124.13499 -8.86678,124.13499 l 35.46714,-26.60036 34.27012,-170.54374 z m -53.65292,250.1586 a 31.033748,31.033748 0 0 0 -31.03375,31.03375 31.033748,31.033748 0 0 0 10.87955,23.58565 c 8.32591,-0.83348 16.58089,-1.41868 24.58759,-1.41868 5.39101,0 10.92388,0.33693 16.46562,0.72707 a 31.033748,31.033748 0 0 0 10.13474,-22.89404 31.033748,31.033748 0 0 0 -31.03375,-31.03375 z"
     id="path6" />
  <path
     style="fill:#ffffff;stroke-width:8.86679"
     d="m 305.4603,117.37958 c 0,0 -22.61917,10.75541 -58.08631,10.75541 0,26.60036 8.86678,26.60036 8.86678,88.66785 0,53.20071 -8.86678,124.13499 -8.86678,124.13499 l 35.46714,-26.60035 34.27012,-170.54375 z m -53.65292,250.15861 a 31.033748,31.033748 0 0 0 -31.03375,31.03375 31.033748,31.033748 0 0 0 10.87955,23.58565 c 8.32591,-0.83348 16.58089,-1.41869 24.58759,-1.41869 5.39101,0 10.92388,0.33694 16.46562,0.72708 a 31.033748,31.033748 0 0 0 10.13474,-22.89404 31.033748,31.033748 0 0 0 -31.03375,-31.03375 z"
     id="path8" />
  <path
     style="opacity:0.2;fill:#ffffff;stroke-width:8.86679"
     d="M 256.24077,4 C 167.57292,207.93606 167.57292,216.80284 7.9707904,500.53997 c 0,0 2.6609226,-1.47189 7.1173676,-3.84819 C 166.79264,226.69817 169.06254,213.3714 256.24077,12.866785 343.419,213.3714 345.6889,226.69817 497.39073,496.69178 c 4.45999,2.3763 7.12003,3.84819 7.12003,3.84819 C 344.90862,216.80284 344.90862,207.93606 256.24077,4 Z"
     id="path10" />
</svg>
