<?xml version="1.0" encoding="UTF-8" standalone="no"?>
<svg
   width="512"
   height="512"
   version="1.1"
   id="svg24"
   sodipodi:docname="archman.svg"
   inkscape:version="1.1.1 (3bf5ae0d25, 2021-09-20)"
   xmlns:inkscape="http://www.inkscape.org/namespaces/inkscape"
   xmlns:sodipodi="http://sodipodi.sourceforge.net/DTD/sodipodi-0.dtd"
   xmlns="http://www.w3.org/2000/svg"
   xmlns:svg="http://www.w3.org/2000/svg">
  <defs
     id="defs28" />
  <sodipodi:namedview
     id="namedview26"
     pagecolor="#ffffff"
     bordercolor="#666666"
     borderopacity="1.0"
     inkscape:pageshadow="2"
     inkscape:pageopacity="0.0"
     inkscape:pagecheckerboard="0"
     showgrid="false"
     inkscape:zoom="1.7050781"
     inkscape:cx="251.30813"
     inkscape:cy="256"
     inkscape:window-width="3440"
     inkscape:window-height="1417"
     inkscape:window-x="0"
     inkscape:window-y="0"
     inkscape:window-maximized="1"
     inkscape:current-layer="svg24" />
  <path
     style="opacity:0.2;fill-rule:evenodd;stroke-width:8.86676"
     d="m 256.14791,12.175969 c -22.1013,54.174607 -35.45006,89.617491 -60.05846,142.179921 15.08914,15.99208 30.01288,31.8211 60.09309,52.85422 -32.33867,-13.30459 -50.79533,-23.87499 -67.28001,-37.7357 C 157.40566,235.18552 108.05558,328.78631 7.9131987,508.68004 86.470311,463.33852 141.21189,435.35281 197.95978,424.61897 a 79.800862,97.534387 0 0 1 -21.61273,-66.63926 79.800862,97.534387 0 0 1 79.80086,-97.53439 79.800862,97.534387 0 0 1 79.80086,97.53439 79.800862,97.534387 0 0 1 -20.46975,65.04602 c -0.12689,0.61899 -0.17645,1.29274 -0.31176,1.90496 56.24442,11.00067 111.64124,38.9348 189.2846,83.74935 -15.31016,-28.17947 -28.98134,-53.58112 -42.03053,-77.77468 -20.55591,-15.92876 -38.37007,-32.7835 -82.10415,-55.22676 30.06033,7.80921 47.9578,12.94456 64.7343,23.01548 C 312.39098,151.74987 301.63804,118.89845 256.14791,12.175969 Z"
     id="path2" />
  <path
     style="fill:#af0500;fill-rule:evenodd;stroke-width:8.86676"
     d="M 256.14791,3.3092068 C 234.04661,57.483813 220.69785,92.926692 196.08945,145.48913 c 15.08914,15.99207 30.01288,31.8211 60.09309,52.85422 -32.33867,-13.30459 -50.79533,-23.87499 -67.28001,-37.7357 C 157.40566,226.31876 108.05558,319.91955 7.9131987,499.81327 86.470311,454.47175 141.21189,426.48605 197.95978,415.75221 a 79.800862,97.534387 0 0 1 -21.61273,-66.63926 79.800862,97.534387 0 0 1 79.80086,-97.53439 79.800862,97.534387 0 0 1 79.80086,97.53439 79.800862,97.534387 0 0 1 -20.46975,65.04601 c -0.12687,0.61902 -0.17648,1.29274 -0.31172,1.90497 56.24442,11.00067 111.64124,38.9348 189.28459,83.74934 -15.31016,-28.17946 -28.98133,-53.58112 -42.03053,-77.77467 -20.5559,-15.92877 -38.37007,-32.7835 -82.10414,-55.22676 30.06033,7.80921 47.9578,12.94456 64.7343,23.01548 C 312.39098,142.88311 301.63804,110.03169 256.14791,3.3092068 Z"
     id="path4" />
  <path
     style="opacity:0.2;stroke-width:8.86676"
     d="m 256.14791,260.44532 a 79.800862,97.534387 0 0 0 -79.80086,97.53439 79.800862,97.534387 0 0 0 22.32276,67.48783 c 5.13099,-0.91332 10.25053,-1.83547 15.48221,-2.52841 a 53.200575,84.234243 0 0 1 -11.20468,-51.65928 53.200575,84.234243 0 0 1 53.20057,-84.23424 53.200575,84.234243 0 0 1 53.20058,84.23424 53.200575,84.234243 0 0 1 -11.25663,51.64197 c 5.28512,0.69914 10.4557,1.63902 15.63806,2.56304 a 79.800862,97.534387 0 0 0 22.21885,-67.50515 79.800862,97.534387 0 0 0 -79.80086,-97.53439 z"
     id="path6" />
  <path
     style="fill:#c2c2c2;stroke-width:8.86676"
     d="m 256.14791,251.57856 a 79.800862,97.534387 0 0 0 -79.80086,97.53439 79.800862,97.534387 0 0 0 22.32276,67.48783 c 5.13099,-0.91332 10.25053,-1.83547 15.48221,-2.52841 a 53.200575,84.234243 0 0 1 -11.20468,-51.65928 53.200575,84.234243 0 0 1 53.20057,-84.23424 53.200575,84.234243 0 0 1 53.20058,84.23424 53.200575,84.234243 0 0 1 -11.25663,51.64197 c 5.28512,0.69917 10.4557,1.63902 15.63806,2.56304 a 79.800862,97.534387 0 0 0 22.21885,-67.50515 79.800862,97.534387 0 0 0 -79.80086,-97.53439 z"
     id="path8" />
  <path
     style="opacity:0.2;fill:#ffffff;stroke-width:8.86676"
     d="m 256.14791,251.57856 a 79.800862,97.534387 0 0 0 -79.80086,97.53439 79.800862,97.534387 0 0 0 0.15586,3.67138 79.800862,97.534387 0 0 1 79.645,-92.33901 79.800862,97.534387 0 0 1 79.66232,93.9669 79.800862,97.534387 0 0 0 0.13854,-5.29927 79.800862,97.534387 0 0 0 -79.80086,-97.53439 z m 53.07935,114.50592 a 53.200575,84.234243 0 0 1 -11.1354,47.97058 c 1.19357,0.15789 2.3495,0.39199 3.53284,0.57148 a 53.200575,84.234243 0 0 0 7.72379,-43.34669 53.200575,84.234243 0 0 0 -0.12123,-5.19537 z m -106.1587,1.5413 a 53.200575,84.234243 0 0 0 -0.12122,3.65407 53.200575,84.234243 0 0 0 7.6545,43.36401 c 1.18892,-0.18006 2.35096,-0.41265 3.55018,-0.57149 a 53.200575,84.234243 0 0 1 -11.08346,-46.44659 z"
     id="path10" />
  <path
     style="opacity:0.1;fill:#ffffff;fill-rule:evenodd;stroke-width:8.86676"
     d="M 256.14791,3.3092068 C 234.04661,57.483813 220.69785,92.926692 196.08945,145.48913 c 0.89189,0.94526 1.82501,1.91222 2.71891,2.85746 22.75278,-49.130996 36.14112,-84.209132 57.33955,-136.170621 44.62784,104.699511 56.51721,139.508501 182.18426,373.910681 2.27188,1.17176 4.51146,2.41528 6.71935,3.74067 C 312.39101,142.88311 301.63804,110.03169 256.14791,3.3092068 Z M 188.90253,160.60765 C 157.40566,226.31876 108.05558,319.91955 7.9131987,499.81327 10.384888,498.38666 12.640154,497.13581 15.065492,495.74356 109.85192,325.21134 158.25716,233.40905 188.90253,169.47441 c 16.48468,13.86071 34.94133,24.43111 67.28001,37.7357 -11.12848,-7.78141 -19.74543,-14.68971 -27.50081,-21.31833 -16.40833,-8.14843 -28.72965,-15.9934 -39.7792,-25.28413 z m 146.89038,192.17668 a 79.800862,97.534387 0 0 1 -20.31389,61.37463 c -0.12689,0.61898 -0.17641,1.29274 -0.31172,1.90497 1.41403,0.27657 2.82956,0.68915 4.24289,0.98712 a 79.800862,97.534387 0 0 0 16.53858,-59.07134 79.800862,97.534387 0 0 0 -0.15586,-5.19538 z m -159.30732,1.71448 a 79.800862,97.534387 0 0 0 -0.13854,3.4809 79.800862,97.534387 0 0 0 16.31346,58.98475 c 1.76781,-0.36858 3.52834,-0.87728 5.29927,-1.21225 a 79.800862,97.534387 0 0 1 -21.47419,-61.2534 z m 203.83163,21.17979 c 43.73407,22.44326 61.54824,39.298 82.10414,55.22676 10.89892,20.20688 22.74415,42.15248 35.10337,64.95943 2.34942,1.34799 4.53624,2.56848 6.92716,3.94848 -15.31016,-28.17946 -28.98133,-53.58112 -42.03053,-77.77467 -14.79235,-11.46259 -28.3157,-23.43803 -50.94925,-37.59715 -8.97129,-2.81558 -18.87861,-5.57366 -31.15489,-8.76285 z"
     id="path12" />
  <path
     style="opacity:0.2;stroke-width:8.86676"
     d="m 256.14791,331.37942 -15.20511,35.46705 h -37.99546 l 26.60028,26.60029 -26.60028,53.20057 53.20057,-26.60029 53.20058,26.60029 -26.60029,-53.20057 26.60029,-26.60029 h -37.99546 z"
     id="path14" />
  <path
     style="fill:#e6e6e6;stroke-width:8.86676"
     d="m 256.14791,322.51266 -15.20511,35.46705 h -37.99546 l 26.60028,26.60028 -26.60028,53.20058 53.20057,-26.60029 53.20058,26.60029 -26.60029,-53.20058 26.60029,-26.60028 h -37.99546 z"
     id="path16" />
  <path
     style="fill:#9f9f9f;stroke-width:8.86676"
     d="m 256.14791,375.71323 -53.20057,62.06734 53.20057,-26.60029 z"
     id="path18" />
  <path
     style="fill:#f4f4f4;stroke-width:8.86676"
     d="m 256.14791,322.51266 v 53.20057 l 53.20058,-17.73352 h -37.99546 z"
     id="path20" />
  <path
     style="opacity:0.2;fill:#ffffff;stroke-width:8.86676"
     d="m 256.14791,322.51266 -15.20511,35.46705 h -37.99546 l 8.86676,8.86676 h 29.1287 l 15.20511,-35.46705 15.20512,35.46705 h 29.12869 l 8.86677,-8.86676 h -37.99546 z m -29.56164,67.97274 -23.63893,47.29517 5.9054,-2.96136 20.69488,-41.37245 z m 59.12328,0 -2.96135,2.96136 20.69488,41.37245 5.90541,2.96136 z"
     id="path22" />
</svg>
