<?xml version="1.0" encoding="UTF-8" standalone="no"?>
<svg
   width="512"
   height="512"
   version="1.1"
   id="svg16"
   sodipodi:docname="aryalinux.svg"
   inkscape:version="1.1.1 (3bf5ae0d25, 2021-09-20)"
   xmlns:inkscape="http://www.inkscape.org/namespaces/inkscape"
   xmlns:sodipodi="http://sodipodi.sourceforge.net/DTD/sodipodi-0.dtd"
   xmlns="http://www.w3.org/2000/svg"
   xmlns:svg="http://www.w3.org/2000/svg">
  <defs
     id="defs20" />
  <sodipodi:namedview
     id="namedview18"
     pagecolor="#ffffff"
     bordercolor="#666666"
     borderopacity="1.0"
     inkscape:pageshadow="2"
     inkscape:pageopacity="0.0"
     inkscape:pagecheckerboard="0"
     showgrid="false"
     inkscape:zoom="1.7050781"
     inkscape:cx="251.30813"
     inkscape:cy="256"
     inkscape:window-width="3440"
     inkscape:window-height="1417"
     inkscape:window-x="0"
     inkscape:window-y="0"
     inkscape:window-maximized="1"
     inkscape:current-layer="svg16" />
  <rect
     style="opacity:0.2;stroke-width:8.93337"
     width="500.26877"
     height="500.26877"
     x="6.9523911"
     y="13.494582"
     rx="25.013437"
     ry="25.013437"
     id="rect2" />
  <rect
     style="fill:#4f4f4f;stroke-width:8.93337"
     width="500.26877"
     height="500.26877"
     x="6.9523911"
     y="4.5612111"
     rx="25.013437"
     ry="25.013437"
     id="rect4" />
  <path
     style="opacity:0.2;stroke-width:8.93337"
     d="m 203.48654,67.094806 -8.93337,24.566769 V 460.16311 H 248.1534 V 67.094806 Z m 62.5336,0 V 460.16311 h 35.73348 l 17.86674,-53.60022 V 67.094806 Z M 167.75306,165.36188 60.552615,460.16311 h 53.600225 l 53.60022,-154.85104 z m 178.66742,241.20101 -17.86675,53.60022 h 125.06719 v -53.60022 z"
     id="path6" />
  <path
     style="fill:#16ae16;stroke-width:8.93337"
     d="m 203.48654,58.161435 -8.93337,24.566769 V 451.22974 H 248.1534 V 58.161435 Z M 167.75306,156.42851 60.552615,451.22974 H 114.15284 L 167.75306,296.3787 Z"
     id="path8" />
  <path
     style="fill:#ff8416;stroke-width:8.93337"
     d="M 266.02014,58.161435 V 451.22974 h 35.73348 l 17.86674,-53.60022 V 58.161435 Z m 80.40034,339.468085 -17.86675,53.60022 h 125.06719 v -53.60022 z"
     id="path10" />
  <path
     style="opacity:0.2;fill:#ffffff;stroke-width:8.93337"
     d="m 203.48654,58.161435 -8.93337,24.566769 v 8.933371 l 8.93337,-24.566769 h 44.66686 v -8.933371 z m 62.5336,0 v 8.933371 h 53.60022 V 58.161435 Z M 167.75306,156.42851 60.552615,451.22974 h 3.242814 L 167.75306,165.36188 Z m 178.66742,241.20101 -17.86675,53.60022 h 2.98375 l 14.883,-44.66685 h 107.20044 v -8.93337 z"
     id="path12" />
  <path
     style="opacity:0.1;fill:#ffffff;stroke-width:8.93337"
     d="m 31.972976,4.5612113 c -13.857445,0 -25.0205848,11.1631397 -25.0205848,25.0205847 v 8.93337 c 0,-13.857444 11.1631398,-25.020584 25.0205848,-25.020584 H 482.19878 c 13.85565,0 25.02237,11.16314 25.02237,25.020584 v -8.93337 c 0,-13.857445 -11.16672,-25.0205847 -25.02237,-25.0205847 z"
     id="path14" />
</svg>
