<?xml version="1.0" encoding="UTF-8" standalone="no"?>
<svg
   width="512"
   height="512"
   version="1.1"
   id="svg14"
   sodipodi:docname="backbox.svg"
   inkscape:version="1.1.1 (3bf5ae0d25, 2021-09-20)"
   xmlns:inkscape="http://www.inkscape.org/namespaces/inkscape"
   xmlns:sodipodi="http://sodipodi.sourceforge.net/DTD/sodipodi-0.dtd"
   xmlns="http://www.w3.org/2000/svg"
   xmlns:svg="http://www.w3.org/2000/svg">
  <defs
     id="defs18" />
  <sodipodi:namedview
     id="namedview16"
     pagecolor="#ffffff"
     bordercolor="#666666"
     borderopacity="1.0"
     inkscape:pageshadow="2"
     inkscape:pageopacity="0.0"
     inkscape:pagecheckerboard="0"
     showgrid="false"
     inkscape:zoom="1.7050781"
     inkscape:cx="251.30813"
     inkscape:cy="256"
     inkscape:window-width="3440"
     inkscape:window-height="1417"
     inkscape:window-x="0"
     inkscape:window-y="0"
     inkscape:window-maximized="1"
     inkscape:current-layer="svg14" />
  <path
     d="m 159.2919,12.816813 c -4.46731,-0.003 -8.76929,1.689459 -12.037,4.735597 L 15.002757,140.98773 c -3.572818,3.33766 -5.5996708,8.00877 -5.5966113,12.89803 v 335.03876 c 9.698e-4,9.73838 7.8952413,17.63265 17.6336193,17.63362 H 353.2617 c 4.46731,0.003 8.7693,-1.68946 12.03701,-4.73559 L 497.55086,378.38722 c 3.57282,-3.33765 5.59967,-8.00877 5.59661,-12.89803 V 30.450441 c -9.7e-4,-9.738378 -7.89524,-17.632649 -17.63362,-17.633628 z"
     style="opacity:0.2;stroke-width:8.81681"
     id="path2" />
  <path
     d="m 159.2919,4.0000036 c -4.46731,-0.00303 -8.76929,1.6894585 -12.037,4.7355912 L 15.002757,132.17093 c -3.572817,3.33765 -5.5996672,8.00876 -5.5966078,12.89803 v 335.03876 c 9.734e-4,9.73837 7.8952438,17.63265 17.6336188,17.63362 H 353.26171 c 4.46731,0.003 8.7693,-1.68946 12.03701,-4.73559 L 497.55086,369.57042 c 3.57282,-3.33766 5.59967,-8.00877 5.59661,-12.89804 V 21.633626 C 503.1465,11.89525 495.25223,4.0009805 485.51386,4.0000071 Z"
     style="fill:#e4e4e4;stroke-width:8.81681"
     id="path4" />
  <path
     d="m 179.14694,48.084051 c -4.61749,5.83e-4 -9.05057,1.812149 -12.34698,5.045556 L 49.960022,167.74813 c -3.380867,3.31601 -5.286039,7.85242 -5.286638,12.58806 v 273.32109 c 9.7e-4,9.73838 7.895241,17.63265 17.633619,17.63362 H 333.40667 c 4.6175,-5.8e-4 9.05057,-1.81215 12.34698,-5.04556 L 462.5936,351.62682 c 3.38087,-3.31601 5.28603,-7.85243 5.28663,-12.58806 V 65.717666 c -9.7e-4,-9.738376 -7.89524,-17.632645 -17.63362,-17.633619 z"
     style="opacity:0.2;stroke-width:8.81681"
     id="path6" />
  <path
     d="m 179.14694,39.267241 c -4.61749,5.84e-4 -9.05057,1.812149 -12.34698,5.045557 L 49.960022,158.93132 c -3.380875,3.31601 -5.286043,7.85242 -5.286642,12.58806 v 273.32109 c 9.74e-4,9.73838 7.895243,17.63265 17.633619,17.63362 H 333.40667 c 4.61749,-5.8e-4 9.05057,-1.81215 12.34698,-5.04556 L 462.59359,342.81001 c 3.38088,-3.31601 5.28604,-7.85243 5.28664,-12.58806 V 56.900857 c -9.7e-4,-9.738376 -7.89524,-17.632646 -17.63362,-17.633619 z"
     style="fill:#489ad4;stroke-width:8.81681"
     id="path8" />
  <path
     d="m 179.14694,39.267241 c -4.61749,5.84e-4 -9.05057,1.812149 -12.34698,5.045557 L 49.960022,158.93132 c -3.380867,3.31601 -5.286042,7.85242 -5.286642,12.58806 v 8.81681 c 6e-4,-4.73564 1.905775,-9.27205 5.286642,-12.58806 L 166.79996,53.129607 c 3.29641,-3.233414 7.72949,-5.044974 12.34698,-5.045556 h 271.09967 c 9.73838,9.7e-4 17.63265,7.895241 17.63362,17.633619 v -8.81681 c -9.7e-4,-9.738376 -7.89524,-17.632645 -17.63362,-17.633619 z"
     style="opacity:0.2;fill:#ffffff;stroke-width:8.81681"
     id="path10" />
  <path
     d="m 159.2919,4.0000036 c -4.46731,-0.00302 -8.76929,1.6894541 -12.037,4.7355912 L 15.002757,132.17093 c -3.572818,3.33765 -5.5996672,8.00876 -5.5966078,12.89803 v 8.81681 c -0.00306,-4.88927 2.0237898,-9.56038 5.5966078,-12.89803 L 147.2549,17.552404 c 3.26771,-3.046137 7.56969,-4.738615 12.037,-4.735591 h 326.22195 c 9.73838,9.79e-4 17.63265,7.895246 17.63362,17.633619 v -8.81681 C 503.1465,11.895245 495.25223,4.0009823 485.51385,4.0000036 Z"
     style="opacity:0.2;fill:#ffffff;stroke-width:8.81681"
     id="path12" />
</svg>
