<?xml version="1.0" encoding="UTF-8" standalone="no"?>
<svg
   width="512"
   height="512"
   version="1.1"
   id="svg20"
   sodipodi:docname="bodhi-linux.svg"
   inkscape:version="1.1.1 (3bf5ae0d25, 2021-09-20)"
   xmlns:inkscape="http://www.inkscape.org/namespaces/inkscape"
   xmlns:sodipodi="http://sodipodi.sourceforge.net/DTD/sodipodi-0.dtd"
   xmlns="http://www.w3.org/2000/svg"
   xmlns:svg="http://www.w3.org/2000/svg">
  <defs
     id="defs24" />
  <sodipodi:namedview
     id="namedview22"
     pagecolor="#ffffff"
     bordercolor="#666666"
     borderopacity="1.0"
     inkscape:pageshadow="2"
     inkscape:pageopacity="0.0"
     inkscape:pagecheckerboard="0"
     showgrid="false"
     inkscape:zoom="1.7050781"
     inkscape:cx="251.30813"
     inkscape:cy="256"
     inkscape:window-width="3440"
     inkscape:window-height="1417"
     inkscape:window-x="0"
     inkscape:window-y="0"
     inkscape:window-maximized="1"
     inkscape:current-layer="svg20" />
  <circle
     style="opacity:0.2;stroke-width:16.9039"
     cx="257.39688"
     cy="264.66245"
     r="245.10686"
     id="circle2" />
  <circle
     style="fill:#ff6600;stroke-width:16.9039"
     cx="257.39688"
     cy="247.75853"
     r="245.10686"
     id="circle4" />
  <path
     style="opacity:0.2;fill:#ffffff;stroke-width:16.9039"
     d="M 257.39687,2.6516774 A 245.10685,245.10685 0 0 0 12.29002,247.75853 245.10685,245.10685 0 0 0 12.653191,257.56413 245.10685,245.10685 0 0 1 257.39687,19.555598 245.10685,245.10685 0 0 1 502.14057,254.85686 245.10685,245.10685 0 0 0 502.50373,247.75853 245.10685,245.10685 0 0 0 257.39687,2.6516774 Z"
     id="path6" />
  <circle
     style="opacity:0.2;stroke-width:16.9039"
     cx="257.39688"
     cy="264.66245"
     r="194.3951"
     id="circle8" />
  <circle
     style="fill:#ffffff;stroke-width:16.9039"
     cx="257.39688"
     cy="247.75853"
     r="194.3951"
     id="circle10" />
  <g
     style="opacity:0.1"
     transform="matrix(2.9451708,0,0,2.9567299,-88.984735,348.02313)"
     id="g14">
    <path
       d="M 186.56017,45.31822 C 169.54353,30.824731 163.17243,22.126838 145.15565,8.8368253 c -3.15476,-1.30232 -3.71374,-0.1462094 -7.5,2.0454607 -14.60684,8.45511 -17.35822,10.00604 -24.55233,10.00604 -6.12314,0 -7.87129,-0.45849 -13.972463,-3.66457 -3.835524,-2.01551 -7.630332,-4.60301 -8.432907,-5.75 -4.845162,-6.9244001 -5.459248,-9.246735 -8.747564,-15.6948549 -2.014792,-3.95084 -3.912143,-9.1258371 -4.216334,-11.4999971 -0.304192,-2.374159 -1.347466,-5.902078 -2.318387,-7.839821 -0.970921,-1.937742 -2.965576,-8.237742 -4.432568,-14 -2.102127,-8.257033 -2.534088,-13.414109 -2.038735,-18.171115 0.794682,-7.631544 -2.711578,-10.549938 -8.665695,-16.469331 -5.565005,-5.53255 -21.886299,-26.920684 -24.671105,-33.095537 -2.389232,-5.29773 -0.99227,-8.04207 1.781969,-3.50068 8.639069,14.142021 23.203099,31.068518 30.319588,35.239059 4.202392,2.462765 4.568877,1.67543 11.215999,0.487523 11.74418,-2.098802 31.583842,0.235823 37.779162,4.44565 2.10345,1.429331 4.40624,2.598784 5.1173,2.598784 0.71107,0 3.85351,0.9 6.98321,2 3.1297,1.1 6.76294,2 8.07388,2 3.55807,0 9.62047,2.680076 11.35064,5.531551 0.84105,1.386124 3.733,3.971076 6.42656,5.744338 3.96438,2.609893 5.61121,4.65292 8.64442,10.724111 4.24734,8.501356 4.49647,11.311387 2.26472,18.826489 -1.19912,4.037863 -2.91362,6.670709 -6.95425,10.679196 -7.01133,6.9555343 -8.96235,10.67067427 -4.91286,16.5249643 4.72019,6.8238797 15.06282,16.3700447 31.0052,30.4755747 8.23928,7.28998 15.23856,13.92696 15.55396,14.74887 2.38354,6.21142 -2.71278,4.01232 -13.69689,-5.91031 z"
       id="path12" />
  </g>
  <g
     transform="matrix(2.9451708,0,0,2.9567299,-88.984735,331.11921)"
     id="g18">
    <path
       style="fill:#5a860b"
       d="M 186.56017,45.31822 C 169.54353,30.824731 163.17243,22.126838 145.15565,8.8368253 c -3.15476,-1.30232 -3.71374,-0.1462094 -7.5,2.0454607 -14.60684,8.45511 -17.35822,10.00604 -24.55233,10.00604 -6.12314,0 -7.87129,-0.45849 -13.972463,-3.66457 -3.835524,-2.01551 -7.630332,-4.60301 -8.432907,-5.75 -4.845162,-6.9244001 -5.459248,-9.246735 -8.747564,-15.6948549 -2.014792,-3.95084 -3.912143,-9.1258371 -4.216334,-11.4999971 -0.304192,-2.374159 -1.347466,-5.902078 -2.318387,-7.839821 -0.970921,-1.937742 -2.965576,-8.237742 -4.432568,-14 -2.102127,-8.257033 -2.534088,-13.414109 -2.038735,-18.171115 0.794682,-7.631544 -2.711578,-10.549938 -8.665695,-16.469331 -5.565005,-5.53255 -21.886299,-26.920684 -24.671105,-33.095537 -2.389232,-5.29773 -0.99227,-8.04207 1.781969,-3.50068 8.639069,14.142021 23.203099,31.068518 30.319588,35.239059 4.202392,2.462765 4.568877,1.67543 11.215999,0.487523 11.74418,-2.098802 31.583842,0.235823 37.779162,4.44565 2.10345,1.429331 4.40624,2.598784 5.1173,2.598784 0.71107,0 3.85351,0.9 6.98321,2 3.1297,1.1 6.76294,2 8.07388,2 3.55807,0 9.62047,2.680076 11.35064,5.531551 0.84105,1.386124 3.733,3.971076 6.42656,5.744338 3.96438,2.609893 5.61121,4.65292 8.64442,10.724111 4.24734,8.501356 4.49647,11.311387 2.26472,18.826489 -1.19912,4.037863 -2.91362,6.670709 -6.95425,10.679196 -7.01133,6.9555343 -8.96235,10.67067427 -4.91286,16.5249643 4.72019,6.8238797 15.06282,16.3700447 31.0052,30.4755747 8.23928,7.28998 15.23856,13.92696 15.55396,14.74887 2.38354,6.21142 -2.71278,4.01232 -13.69689,-5.91031 z"
       id="path16" />
  </g>
</svg>
