<?xml version="1.0" encoding="UTF-8" standalone="no"?>
<svg xmlns:svg="http://www.w3.org/2000/svg" xmlns="http://www.w3.org/2000/svg" xmlns:xlink="http://www.w3.org/1999/xlink" version="1.0" width="440" height="418" id="svg1508">
  <defs id="defs1510"/>
  <path d="M 254.09532,85.160767 C 262.17062,106.0735 283.1187,125.58146 306.65546,125.81117 C 315.93234,125.34291 324.24619,122.47149 331.39381,116.77284 C 348.26006,136.75789 358.49997,159.34046 360.63807,185.26271 L 311.88586,185.26271 C 309.04095,162.90101 293.80919,141.74973 273.37356,130.58213 C 258.39802,122.94859 239.8531,119.62658 222.2447,123.66423 C 215.60069,110.8268 217.26169,93.483453 217.72995,77.78344 C 220.57486,48.530347 233.18258,23.341412 252.67286,0.74116707 C 252.45198,27.847324 249.12114,58.531707 254.09532,85.160767 z" id="path3112" style="fill:#f1480e"/>
  <path d="M 195.37709,137.70324 C 174.20813,155.76224 165.41719,180.49174 169.20746,208.075 C 172.52946,224.95008 181.34691,239.92562 195.37709,252.08275 L 171.35439,293.67851 C 149.72601,279.40095 134.26454,257.29547 126.41895,234.43901 C 137.81626,229.24395 149.0192,217.56392 151.6344,204.98271 C 154.96524,189.99834 150.90992,175.03164 140.21942,164.32347 C 136.41148,160.04727 131.42847,157.90917 126.89605,155.28514 C 134.26454,133.17083 149.23124,111.29506 170.64758,96.301857 C 179.43853,109.17463 187.06324,123.91162 195.37709,137.70324 z" id="path3116" style="fill:#f68b11"/>
  <path d="M 360.1698,206.18428 C 358.0052,231.88565 348.50744,255.1662 331.16409,274.65649 C 319.97883,266.34263 303.34229,262.77325 290.01009,268.71928 C 278.13569,273.23403 266.96809,285.12611 263.85813,297.48644 C 262.68306,302.46945 262.44451,307.94723 262.68306,313.64588 C 237.70616,318.66423 211.05943,315.08601 189.91698,305.09348 C 196.57867,291.08098 205.36078,276.80342 213.67463,262.78208 C 237.70616,272.27984 267.42752,267.04944 286.44954,250.89 C 301.17769,238.75938 308.33414,223.0682 312.1244,206.18428 L 360.1698,206.18428 L 360.1698,206.18428 z" id="path3120" style="fill:#d41308"/>
  <path d="M 89.095453,141.16769 A 26.516504,26.516504 0 1 1 36.062445,141.16769 A 26.516504,26.516504 0 1 1 89.095453,141.16769 z" transform="matrix(1.0996925,0,0,1.0996925,39.682611,39.857906)" id="path2580" style="fill:#f1480e"/>
  <path d="M 89.095453,141.16769 A 26.516504,26.516504 0 1 1 36.062445,141.16769 A 26.516504,26.516504 0 1 1 89.095453,141.16769 z" transform="matrix(1.0996925,0,0,1.0996925,237.18715,153.22924)" id="path2586" style="fill:#f68b11"/>
  <path d="M 89.095453,141.16769 A 26.516504,26.516504 0 1 1 36.062445,141.16769 A 26.516504,26.516504 0 1 1 89.095453,141.16769 z" transform="matrix(1.0996925,0,0,1.0996925,233.24173,-71.214954)" id="path2588" style="fill:#d41308"/>
  <path d="M 42.633469,392.04503 L 45.708043,390.30391 C 49.99797,385.29011 46.523358,378.54281 44.477452,373.63568 C 39.772248,365.04821 30.883794,360.44206 21.061919,361.26118 C 12.680179,361.88219 4.3974961,368.62568 1.9439323,376.70644 C -1.3249462,386.82168 -0.40676472,399.81338 6.3405358,407.98938 C 12.984969,415.15196 23.214502,416.58447 32.522043,414.64144 C 36.606236,413.21273 42.328678,411.47542 43.147803,406.15683 C 42.945879,404.31285 42.328678,402.57173 40.797106,401.23827 C 39.463647,400.21722 37.631094,400.12579 35.985225,400.43058 C 31.485755,403.38323 25.763313,406.05015 20.147547,403.59659 C 15.636647,401.96596 13.491684,397.05502 12.984969,392.55174 L 13.388817,392.14027 C 23.100205,392.14027 32.92589,392.34601 42.633469,392.04503 z M 20.551395,372.81655 C 25.664256,371.2926 31.283831,373.53281 33.741205,378.34088 L 35.276587,382.95084 L 13.186893,382.95084 C 13.903151,378.95046 16.150981,374.35194 20.551395,372.81655 z" id="e" style="fill:#f1480e"/>
  <path d="M 56.382152,392.63824 C 56.382152,368.48192 66.422792,362.79805 79.332152,362.79805 C 85.786842,362.79805 89.372782,365.63997 89.372782,365.63997 L 89.372782,349.29891 C 89.372782,340.77316 102.28215,340.77316 102.28215,349.29891 L 102.28215,392.63824 C 102.28215,409.68976 92.241522,416.79459 79.332152,416.79459 C 66.422792,416.79459 56.382152,409.68976 56.382152,392.63824 M 89.372782,391.21728 C 89.372782,376.2972 82.200902,374.87622 79.332152,374.87622 C 75.029032,374.87622 69.291532,378.42864 69.291532,391.21728 C 69.291532,399.74304 72.877472,405.4269 79.332152,405.4269 C 85.786842,405.4269 89.372782,399.74304 89.372782,391.21728" id="d" style="fill:#f1480e"/>
  <path d="M 160.45671,393.46882 L 160.45671,370.2657 C 160.45671,366.75008 157.64421,363.93757 154.12859,363.93757 C 150.61297,363.93757 147.80047,366.75008 147.80047,370.2657 L 147.80047,393.46882 C 147.80047,401.90631 144.28484,404.71882 137.95671,404.71882 C 131.62859,404.71882 128.11297,401.90631 128.11297,393.46882 L 128.11297,370.2657 C 128.11297,366.75008 125.30045,363.93757 121.78484,363.93757 C 118.26921,363.93757 115.45671,366.75008 115.45671,370.2657 L 115.45671,393.46882 C 115.45671,410.3438 125.30048,417.37508 137.95671,417.37508 C 150.61295,417.37508 160.45671,410.3438 160.45671,393.46882" id="u1" style="fill:#f1480e"/>
  <path d="M 220.56184,393.07447 C 220.56184,368.91815 210.5212,363.23428 197.61184,363.23428 C 191.15715,363.23428 187.57121,366.0762 187.57121,366.0762 L 187.57121,349.73514 C 187.57121,341.20939 174.66184,341.20939 174.66184,349.73514 L 174.66184,393.07447 C 174.66184,410.12599 184.70247,417.23082 197.61184,417.23082 C 210.5212,417.23082 220.56184,410.12599 220.56184,393.07447 M 187.57121,391.65351 C 187.57121,376.73343 194.74309,375.31245 197.61184,375.31245 C 201.91496,375.31245 207.65246,378.86487 207.65246,391.65351 C 207.65246,400.17927 204.06652,405.86313 197.61184,405.86313 C 191.15715,405.86313 187.57121,400.17927 187.57121,391.65351" id="b" style="fill:#d41308"/>
  <path d="M 278.59161,393.46882 L 278.59161,370.2657 C 278.59161,366.75008 275.77911,363.93757 272.26349,363.93757 C 268.74787,363.93757 265.93537,366.75008 265.93537,370.2657 L 265.93537,393.46882 C 265.93537,401.90631 262.41974,404.71882 256.09161,404.71882 C 249.76349,404.71882 246.24787,401.90631 246.24787,393.46882 L 246.24787,370.2657 C 246.24787,366.75008 243.43535,363.93757 239.91974,363.93757 C 236.40411,363.93757 233.59161,366.75008 233.59161,370.2657 L 233.59161,393.46882 C 233.59161,410.3438 243.43538,417.37508 256.09161,417.37508 C 268.74785,417.37508 278.59161,410.3438 278.59161,393.46882" id="u2" style="fill:#d41308"/>
  <use transform="matrix(-1,0,0,-1,571.88026,781.31265)" id="n" xlink:href="#u2"/>
  <path d="M 354.0363,363.32363 C 346.32452,363.32363 346.32452,374.67747 354.0363,374.67747 L 356.13951,374.67747 L 356.13951,399.3721 C 356.13951,412.85477 359.43455,417.25441 370.79189,417.25441 C 376.26023,417.25441 384.25244,416.26094 384.25244,410.58402 C 384.25244,407.03595 381.02752,406.11345 380.11613,406.11345 C 378.15314,406.11345 376.12002,406.96498 373.87659,406.96498 C 369.95061,406.96498 368.75878,404.97806 368.75878,398.30767 L 368.75878,374.67747 L 374.36734,374.67747 C 382.07912,374.67747 382.07912,363.32363 374.36734,363.32363 L 368.75878,363.32363 L 368.75878,349.84094 C 368.75878,341.32556 356.13951,341.32556 356.13951,349.84094 L 356.13951,363.32363 L 354.0363,363.32363" id="t" style="fill:#d41308"/>
  <use transform="translate(160.95798,0)" id="u3" xlink:href="#u2"/>
</svg>