<?xml version="1.0" encoding="UTF-8" standalone="no"?>
<svg
   width="512"
   height="512"
   version="1.1"
   id="svg16"
   sodipodi:docname="endeavouros.svg"
   inkscape:version="1.1.1 (3bf5ae0d25, 2021-09-20)"
   xmlns:inkscape="http://www.inkscape.org/namespaces/inkscape"
   xmlns:sodipodi="http://sodipodi.sourceforge.net/DTD/sodipodi-0.dtd"
   xmlns="http://www.w3.org/2000/svg"
   xmlns:svg="http://www.w3.org/2000/svg">
  <defs
     id="defs20" />
  <sodipodi:namedview
     id="namedview18"
     pagecolor="#ffffff"
     bordercolor="#666666"
     borderopacity="1.0"
     inkscape:pageshadow="2"
     inkscape:pageopacity="0.0"
     inkscape:pagecheckerboard="0"
     showgrid="false"
     inkscape:zoom="1.7050781"
     inkscape:cx="251.30813"
     inkscape:cy="256"
     inkscape:window-width="3440"
     inkscape:window-height="1417"
     inkscape:window-x="0"
     inkscape:window-y="0"
     inkscape:window-maximized="1"
     inkscape:current-layer="svg16" />
  <path
     style="opacity:0.2;stroke-width:8.33233"
     d="M 297.10187,53.385758 C 281.97363,55.46637 4.8747877,396.72906 4.8747877,396.72906 c 0,0 19.9145463,5.67507 65.2925913,12.27476 C 84.901144,397.50641 291.35266,48.051221 297.61979,53.545309 c -0.10666,-0.140483 -0.2778,-0.19221 -0.51811,-0.159314 z"
     id="path2" />
  <path
     style="opacity:0.2;stroke-width:8.33233"
     d="M 297.61979,53.545309 C 297.10185,53.385828 70.167379,409.00382 70.167379,409.00382 c -19.803997,32.66513 -35.636118,58.91885 -35.636118,58.91885 0,0 212.884959,9.6288 378.424199,-12.64263 C 648.51688,423.58782 364.54007,121.58944 297.61979,53.545309 Z"
     id="path4" />
  <path
     style="fill:#7f7fff;stroke-width:8.33233"
     d="M 297.61979,45.212977 C 297.10185,45.053497 70.167379,400.67148 70.167379,400.67148 c -19.803997,32.66514 -35.636118,58.91886 -35.636118,58.91886 0,0 212.884959,9.62879 378.424199,-12.64264 C 648.51688,415.25548 364.54007,113.25711 297.61979,45.212977 Z"
     id="path6" />
  <path
     style="opacity:0.1;stroke-width:8.33233"
     d="M 297.37358,53.42181 C 287.85066,51.867352 70.167379,409.00382 70.167379,409.00382 c 0,0 205.723281,12.36832 286.748551,10.99533 229.42935,-3.88775 -6.35275,-296.20232 -59.29614,-366.453841 -0.0683,-0.06982 -0.14998,-0.107654 -0.24614,-0.123485 z"
     id="path8" />
  <path
     style="fill:#ff7f7f;stroke-width:8.33233"
     d="M 297.10187,45.053427 C 281.97363,47.134039 4.8747877,388.39672 4.8747877,388.39672 c 0,0 19.9145463,5.67507 65.2925913,12.27476 C 84.901144,389.17408 291.35266,39.718889 297.61979,45.212977 c -0.10666,-0.140483 -0.2778,-0.19221 -0.51811,-0.159314 z"
     id="path10" />
  <path
     style="opacity:0.2;fill:#ffffff;stroke-width:8.33233"
     d="M 297.10865,45.060363 C 281.98041,47.140976 4.8747852,388.39486 4.8747852,388.39486 c 0,0 4.3477148,0.98452 5.7122058,1.33448 C 27.604117,368.79006 282.47649,55.405083 297.10865,53.392698 c 0.10124,-0.01391 0.1349,0.0486 0.21156,0.0651 0.0108,8.34e-4 0.0388,-0.0342 0.0488,-0.03255 0.0962,0.01583 0.17578,0.04409 0.24411,0.113918 C 344.84077,101.55992 500.15243,266.08404 504.68468,369.90749 508.6477,266.7874 346.12466,94.533025 297.61314,45.20683 c -0.0683,-0.06982 -0.14795,-0.09809 -0.24411,-0.113918 -0.0101,-0.0016 -0.0382,0.03339 -0.0488,0.03255 -0.077,-0.01649 -0.11032,-0.07896 -0.21156,-0.0651 z M 65.577145,408.26553 c -16.188011,26.72876 -31.050966,51.32848 -31.050965,51.32848 0,0 4.451267,0.14154 4.947323,0.16274 3.586676,-5.94529 13.63542,-22.62386 30.692936,-50.75888 -1.774152,-0.25804 -2.89266,-0.47744 -4.589294,-0.73234 z"
     id="path12" />
  <path
     style="fill:#7f3fbf;stroke-width:8.33233"
     d="M 297.37358,45.089479 C 287.85066,43.53502 70.167379,400.67148 70.167379,400.67148 c 0,0 205.723281,12.36832 286.748551,10.99533 229.42935,-3.88775 -6.35275,-296.20231 -59.29614,-366.453833 -0.0683,-0.06983 -0.14998,-0.107653 -0.24614,-0.123485 z"
     id="path14" />
</svg>
