<?xml version="1.0" encoding="UTF-8" standalone="no"?>
<svg
   width="512"
   height="512"
   version="1.1"
   id="svg12"
   sodipodi:docname="ghostbsd.svg"
   inkscape:version="1.1.1 (3bf5ae0d25, 2021-09-20)"
   xmlns:inkscape="http://www.inkscape.org/namespaces/inkscape"
   xmlns:sodipodi="http://sodipodi.sourceforge.net/DTD/sodipodi-0.dtd"
   xmlns="http://www.w3.org/2000/svg"
   xmlns:svg="http://www.w3.org/2000/svg">
  <defs
     id="defs16" />
  <sodipodi:namedview
     id="namedview14"
     pagecolor="#ffffff"
     bordercolor="#666666"
     borderopacity="1.0"
     inkscape:pageshadow="2"
     inkscape:pageopacity="0.0"
     inkscape:pagecheckerboard="0"
     showgrid="false"
     inkscape:zoom="1.7050781"
     inkscape:cx="299.10653"
     inkscape:cy="256"
     inkscape:window-width="3440"
     inkscape:window-height="1417"
     inkscape:window-x="0"
     inkscape:window-y="0"
     inkscape:window-maximized="1"
     inkscape:current-layer="svg12" />
  <circle
     cx="256.96085"
     cy="261.36014"
     r="245.61403"
     style="opacity:0.2;stroke-width:8.77192"
     id="circle2" />
  <circle
     cx="256.96085"
     cy="252.5882"
     r="245.61403"
     style="fill:#4d4d5b;stroke-width:8.77192"
     id="circle4" />
  <path
     d="M 256.96085,6.974164 A 245.61403,245.61403 0 0 0 11.346821,252.5882 245.61403,245.61403 0 0 0 11.535418,257.72855 245.61403,245.61403 0 0 1 256.96085,15.746093 245.61403,245.61403 0 0 1 502.39066,256.21977 245.61403,245.61403 0 0 0 502.57488,252.5882 245.61403,245.61403 0 0 0 256.96085,6.974164 Z"
     style="opacity:0.1;fill:#ffffff;stroke-width:8.77192"
     id="path6" />
  <path
     d="m 392.04857,77.151214 c -57.01679,0 -113.2025,24.858756 -162.32531,61.700856 -56.34272,42.25704 -121.6176,123.69908 -121.6176,172.82189 0,17.36754 12.2807,36.8421 36.8421,36.8421 61.40351,0 138.32888,-74.27891 138.32888,-74.27891 0,0 -66.18341,74.06734 -100,109.9316 -19.85779,21.06023 -35.24191,22.86871 -59.80331,59.71081 -10.13807,15.2071 14.92679,21.31223 19.45243,19.23656 41.94171,-19.23638 64.51617,-61.66572 83.33333,-78.94737 13.37188,-12.2807 55.27234,-41.30241 110.40639,-90.42521 3.14651,-2.80345 -15.41116,-7.66841 -18.30112,-5.70862 -36.84211,24.9841 -42.19094,34.73032 -42.19094,34.73032 0,0 53.94715,-66.73263 97.04837,-119.29824 8.67234,-10.57665 -6.26028,-12.2807 -6.26028,-12.2807 H 349.8117 c 0,0 78.20852,-43.05254 78.78162,-78.94736 0.27728,-17.365323 -11.98335,-35.087726 -36.54475,-35.087726 z m -6.88392,25.376916 c 8.64021,0.45675 11.64401,4.32504 6.88392,11.46519 -24.56141,36.8421 -49.12281,49.1228 -73.68421,49.1228 -3.37547,-3.07533 0,-12.2807 0,-12.2807 0,0 -26.3158,10.52632 -26.3158,22.80702 0,11.57836 14.0351,26.31579 26.3158,26.31579 9.15348,0 24.03575,-8.77193 24.03575,-8.77193 0,0 -65.84679,70.17544 -159.12347,119.29824 -24.29709,12.7957 -41.22347,-2.40751 -38.32888,-11.09129 12.2807,-36.8421 68.41334,-112.79097 121.61761,-148.26047 50.65789,-33.77193 99.59084,-49.60942 118.59928,-48.60465 z"
     style="opacity:0.2;stroke-width:8.77192"
     id="path8" />
  <path
     d="m 392.04857,68.37767 c -57.01679,0 -113.2025,24.858753 -162.32531,61.70087 -56.34272,42.25703 -121.6176,123.69907 -121.6176,172.82188 0,17.36754 12.2807,36.84209 36.8421,36.84209 61.40351,0 138.32888,-74.2789 138.32888,-74.2789 0,0 -66.18341,74.06734 -100,109.9316 -19.85779,21.06022 -35.24191,22.8687 -59.80331,59.7108 -10.13807,15.2071 14.92679,21.31223 19.45243,19.23656 41.94171,-19.23637 64.51617,-61.66572 83.33333,-78.94736 13.37188,-12.2807 55.27234,-41.30242 110.40639,-90.42522 3.14651,-2.80344 -15.41116,-7.66841 -18.30112,-5.70861 -36.84211,24.98409 -42.19094,34.73032 -42.19094,34.73032 0,0 53.94715,-66.73264 97.04837,-119.29824 8.67234,-10.57666 -6.26028,-12.28071 -6.26028,-12.28071 H 349.8117 c 0,0 78.20852,-43.05253 78.78162,-78.94735 0.27728,-17.365327 -11.98335,-35.08773 -36.54475,-35.08773 z m -6.88392,25.376911 c 8.64021,0.45672 11.64401,4.325036 6.88392,11.465199 -24.56141,36.8421 -49.12281,49.12281 -73.68421,49.12281 -3.37547,-3.07535 0,-12.28071 0,-12.28071 0,0 -26.3158,10.52632 -26.3158,22.80702 0,11.57836 14.0351,26.31579 26.3158,26.31579 9.15348,0 24.03575,-8.77194 24.03575,-8.77194 0,0 -65.84679,70.17545 -159.12347,119.29825 -24.29709,12.7957 -41.22347,-2.40752 -38.32888,-11.09128 12.2807,-36.84211 68.41334,-112.79099 121.61761,-148.26048 50.65789,-33.77194 99.59084,-49.609421 118.59928,-48.604659 z"
     style="fill:#00a4b9;stroke-width:8.77192"
     id="path10" />
</svg>
