<?xml version="1.0" encoding="UTF-8" standalone="no"?>
<!-- Created with Inkscape (http://www.inkscape.org/) -->

<svg
   width="180"
   height="180"
   viewBox="0 0 180 180"
   version="1.1"
   id="svg1"
   inkscape:version="1.3 (0e150ed6c4, 2023-07-21)"
   sodipodi:docname="holoiso.svg"
   xmlns:inkscape="http://www.inkscape.org/namespaces/inkscape"
   xmlns:sodipodi="http://sodipodi.sourceforge.net/DTD/sodipodi-0.dtd"
   xmlns="http://www.w3.org/2000/svg"
   xmlns:svg="http://www.w3.org/2000/svg">
  <sodipodi:namedview
     id="namedview1"
     pagecolor="#ffffff"
     bordercolor="#000000"
     borderopacity="0.25"
     inkscape:showpageshadow="2"
     inkscape:pageopacity="0.0"
     inkscape:pagecheckerboard="0"
     inkscape:deskcolor="#d1d1d1"
     inkscape:document-units="px"
     inkscape:zoom="4.9833333"
     inkscape:cx="90"
     inkscape:cy="90.100334"
     inkscape:window-width="3438"
     inkscape:window-height="1390"
     inkscape:window-x="0"
     inkscape:window-y="24"
     inkscape:window-maximized="1"
     inkscape:current-layer="layer1" />
  <defs
     id="defs1" />
  <g
     inkscape:label="Layer 1"
     inkscape:groupmode="layer"
     id="layer1">
    <g
       id="g64"
       transform="matrix(3.3766708,0,0,3.3636892,-264.64853,-408.75614)">
      <g
         id="g2">
        <path
           style="fill:#fcfcfa"
           d="m 78.592194,148.35708 c 0,-26.45834 0,-26.45834 26.458336,-26.45834 26.45833,0 26.45833,0 26.45833,26.45834 0,26.45833 0,26.45833 -26.45833,26.45833 -26.458336,0 -26.458336,0 -26.458336,-26.45833 z m 29.352896,14.22135 c 0.13056,-0.32742 0.30801,-0.81708 0.39434,-1.08813 0.11078,-0.34787 0.2533,-0.41674 0.48454,-0.23417 0.95277,0.75224 3.63489,0.51404 3.63489,-0.32282 0,-0.20336 0.23877,-0.44552 0.5306,-0.53814 1.00543,-0.31912 2.14283,-1.48017 1.97329,-2.01433 -0.17274,-0.54428 0.28966,-0.7068 0.47812,-0.16803 0.19689,0.5629 1.22305,-0.57243 1.40789,-1.55768 0.11852,-0.6318 0.3098,-0.88972 0.65984,-0.88972 0.77906,0 1.38217,-1.44193 1.17657,-2.81297 -0.14028,-0.93547 -0.0964,-1.15578 0.23046,-1.15578 0.78235,0 1.36129,-2.30643 1.05684,-4.21035 -0.14102,-0.88188 -0.25073,-1.0199 -0.74018,-0.93115 -0.40004,0.0726 -0.5854,-0.0349 -0.61012,-0.35371 -0.14874,-1.91879 -0.29946,-3.01663 -0.43238,-3.14955 -0.0858,-0.0858 -0.037,-0.37854 0.10852,-0.65045 0.35315,-0.65986 -0.13106,-1.59448 -0.71081,-1.37201 -0.51741,0.19855 -0.88589,-0.34106 -0.89125,-1.30518 -0.004,-0.74066 -0.066,-0.77585 -1.45926,-0.82939 -0.72299,-0.0278 -0.79463,-0.11309 -0.80361,-0.95687 -0.0137,-1.28923 -0.29429,-1.62803 -1.271,-1.53473 -0.73182,0.0699 -0.84592,-0.007 -0.91704,-0.6219 -0.13738,-1.18691 -4.16259,-1.81337 -4.9754,-0.77435 -0.30781,0.39348 -1.26116,0.66146 -1.03157,0.28997 0.0726,-0.1175 -0.0459,-0.2819 -0.26332,-0.36534 -0.30479,-0.11696 -0.39536,0.0625 -0.39536,0.78342 0,1.63316 1.06253,2.71841 1.39958,1.42951 0.17597,-0.6729 0.72558,-0.68614 0.89935,-0.0217 0.15749,0.60224 1.09759,1.02762 3.1814,1.43951 1.40054,0.27683 1.53894,0.36776 1.66382,1.09317 0.0904,0.52478 0.3805,0.9083 0.86166,1.13891 0.49137,0.23551 0.72544,0.55163 0.72544,0.97972 0,0.75295 0.88674,1.45111 1.60462,1.26338 0.55019,-0.14388 0.77949,1.05421 0.26288,1.37349 -0.2866,0.17713 -0.2361,1.70078 0.0727,2.19234 0.12227,0.19466 0.0801,0.33073 -0.10249,0.33073 -0.2097,0 -0.25322,0.27865 -0.1343,0.8599 0.72324,3.53502 0.61755,5.46591 -0.32205,5.88357 -0.43362,0.19275 -0.58757,0.48737 -0.58757,1.12448 0,0.79319 -0.0681,0.8633 -0.83906,0.8633 -1.19665,0 -1.79978,0.63182 -1.62591,1.70327 0.15354,0.94613 -0.34269,1.35939 -1.27647,1.06302 -0.27054,-0.0859 -0.49189,-0.0577 -0.49189,0.0626 0,0.42891 -1.19778,0.95633 -2.37528,1.04591 -3.04819,0.23191 -2.77538,0.0902 -2.86494,1.48786 -0.0445,0.69392 0.0151,1.24537 0.13229,1.22544 0.5536,-0.0941 0.8746,0.0613 0.8746,0.42331 0,0.62864 1.04023,0.47071 1.30706,-0.19844 z"
           id="path64" />
        <path
           style="fill:#f2f4f4"
           d="m 78.592194,148.35708 c 0,-26.45834 0,-26.45834 26.458336,-26.45834 26.45833,0 26.45833,0 26.45833,26.45834 0,26.45833 0,26.45833 -26.45833,26.45833 -26.458336,0 -26.458336,0 -26.458336,-26.45833 z m 31.338206,14.14363 c 8.35809,-2.87746 12.51845,-12.56411 8.74507,-20.36134 -1.29918,-2.6846 -4.47003,-6.21771 -5.58018,-6.21771 -0.20452,0 -0.37185,-0.12565 -0.37185,-0.27922 0,-0.61891 -4.82091,-2.31999 -6.68072,-2.35732 -1.38679,-0.0278 -0.54376,4.41354 0.8634,4.54875 11.7216,1.1263 11.40665,21.00754 -0.33424,21.09883 -0.99219,0.008 -0.99219,0.008 -0.99219,2.28671 0,2.5822 0.30829,2.67299 4.35071,1.2813 z"
           id="path63" />
        <path
           style="fill:#edf2f2"
           d="m 78.592194,148.35708 c 0,-26.45834 0,-26.45834 26.458336,-26.45834 26.45833,0 26.45833,0 26.45833,26.45834 0,26.45833 0,26.45833 -26.45833,26.45833 -26.458336,0 -26.458336,0 -26.458336,-26.45833 z m 30.011996,14.68767 c 16.24204,-3.8784 14.17553,-29.76892 -2.37606,-29.76892 -1.51852,0 -0.89666,4.39681 0.65089,4.6021 11.57618,1.53564 11.57618,19.42266 0,20.95829 -1.29933,0.17236 -1.29933,0.17236 -1.29933,2.38724 0,2.5539 -0.0123,2.54645 3.0245,1.82129 z"
           id="path62" />
        <path
           style="fill:#e6e8e9"
           d="m 78.592194,148.35708 c 0,-26.45834 0,-26.45834 26.458336,-26.45834 26.45833,0 26.45833,0 26.45833,26.45834 0,26.45833 0,26.45833 -26.45833,26.45833 -26.458336,0 -26.458336,0 -26.458336,-26.45833 z m 30.207346,14.69603 c 15.82108,-4.12086 14.47887,-28.00279 -1.66867,-29.69054 -2.4459,-0.25564 -2.45101,4.1653 -0.005,4.64645 11.33435,2.22989 11.31519,18.44886 -0.0245,20.69843 -1.52136,0.30181 -1.52136,0.30181 -1.52136,2.51634 0,2.53291 0.16302,2.62552 3.21985,1.82932 z"
           id="path61" />
        <path
           style="fill:#dde2e3"
           d="m 78.592194,148.35708 c 0,-26.45834 0,-26.45834 26.458336,-26.45834 26.45833,0 26.45833,0 26.45833,26.45834 0,26.45833 0,26.45833 -26.45833,26.45833 -26.458336,0 -26.458336,0 -26.458336,-26.45833 z m 30.529506,14.65664 c 14.61916,-3.5363 14.61916,-25.76132 0,-29.31516 -3.54244,-0.86115 -3.44824,-0.87928 -3.61917,0.6967 -0.30042,2.76975 0.005,3.47413 1.60879,3.70487 11.21534,1.61404 11.09176,18.92775 -0.14657,20.53533 -1.4362,0.20544 -1.75339,0.99683 -1.46542,3.65626 0.16777,1.54935 0.18659,1.5531 3.62237,0.722 z"
           id="path60" />
        <path
           style="fill:#dadde0"
           d="m 78.592194,148.35708 c 0,-26.45834 0,-26.45834 26.458336,-26.45834 26.45833,0 26.45833,0 26.45833,26.45834 0,26.45833 0,26.45833 -26.45833,26.45833 -26.458336,0 -26.458336,0 -26.458336,-26.45833 z m 29.447596,14.96748 c 16.15126,-3.09025 16.12452,-26.84983 -0.0337,-29.94141 -2.75837,-0.52776 -2.72618,-0.55468 -2.6352,2.20345 0.0765,2.31943 0.0765,2.31943 1.43729,2.48553 11.45289,1.39791 11.45289,19.17199 0,20.5699 -1.31352,0.16032 -2.0987,2.83643 -1.38098,4.70676 0.16833,0.43868 0.19445,0.43843 2.61259,-0.0242 z"
           id="path59" />
        <path
           style="fill:#d6d9d9"
           d="m 78.592194,148.35708 c 0,-26.45834 0,-26.45834 26.458336,-26.45834 26.45833,0 26.45833,0 26.45833,26.45834 0,26.45833 0,26.45833 -26.45833,26.45833 -26.458336,0 -26.458336,0 -26.458336,-26.45833 z m 29.645716,14.96943 c 16.07254,-3.40731 15.90532,-26.68724 -0.21531,-29.97471 -2.72422,-0.55555 -2.74324,-0.53954 -2.65171,2.2318 0.0765,2.31642 0.0765,2.31642 1.49768,2.52031 11.38136,1.63284 11.35816,18.8777 -0.0276,20.5102 -1.39359,0.19981 -1.39359,0.19981 -1.47163,2.29019 -0.11617,3.11157 -0.16976,3.06632 2.86855,2.42221 z"
           id="path58" />
        <path
           style="fill:#cdd2d4"
           d="m 78.592194,148.35708 c 0,-26.45834 0,-26.45834 26.458336,-26.45834 26.45833,0 26.45833,0 26.45833,26.45834 0,26.45833 0,26.45833 -26.45833,26.45833 -26.458336,0 -26.458336,0 -26.458336,-26.45833 z m 30.231056,14.83296 c 15.68412,-4.01132 15.17983,-26.38867 -0.67221,-29.82869 -2.82018,-0.61201 -2.87253,-0.57054 -2.78015,2.2027 0.0765,2.29689 0.0765,2.29689 1.68999,2.62536 11.23118,2.28641 11.23118,18.04959 0,20.33523 -1.61348,0.32835 -1.61348,0.32835 -1.69152,2.3992 -0.11851,3.14446 -0.0797,3.16994 3.45389,2.2662 z"
           id="path57" />
        <path
           style="fill:#c4c8c9"
           d="m 78.592194,148.35708 c 0,-26.45834 0,-26.45834 26.458336,-26.45834 26.45833,0 26.45833,0 26.45833,26.45834 0,26.45833 0,26.45833 -26.45833,26.45833 -26.458336,0 -26.458336,0 -26.458336,-26.45833 z m 30.135216,14.93905 c 16.57305,-3.90661 14.35642,-30.20407 -2.5524,-30.28098 -1.77555,-0.008 -1.2544,4.91291 0.54409,5.13762 11.42977,1.42806 11.37737,19.083 -0.0606,20.43767 -1.34334,0.1591 -1.34334,0.1591 -1.34334,2.63578 0,2.84469 0.0351,2.86598 3.4123,2.06991 z"
           id="path56" />
        <path
           style="fill:#c3c4be"
           d="m 78.592194,148.35708 c 0,-26.45834 0,-26.45834 26.458336,-26.45834 26.45833,0 26.45833,0 26.45833,26.45834 0,26.45833 0,26.45833 -26.45833,26.45833 -26.458336,0 -26.458336,0 -26.458336,-26.45833 z m 32.144246,14.30539 c 14.89692,-5.96501 11.29556,-29.65123 -4.50831,-29.65123 -1.76995,0 -1.36111,4.9158 0.42932,5.16205 11.46074,1.57625 11.46074,18.79132 0,20.36757 -1.34234,0.18462 -1.34234,0.18462 -1.34234,2.7116 0,2.86504 1.08367,3.14689 5.42133,1.41001 z"
           id="path55" />
        <path
           style="fill:#bcc2c4"
           d="m 78.592194,148.35708 c 0,-26.45834 0,-26.45834 26.458336,-26.45834 26.45833,0 26.45833,0 26.45833,26.45834 0,26.45833 0,26.45833 -26.45833,26.45833 -26.458336,0 -26.458336,0 -26.458336,-26.45833 z m 32.144246,14.30539 c 14.89692,-5.96501 11.29556,-29.65123 -4.50831,-29.65123 -1.76995,0 -1.36111,4.9158 0.42932,5.16205 11.4446,1.57403 11.4446,18.79354 0,20.36757 -1.34234,0.18462 -1.34234,0.18462 -1.34234,2.7116 0,2.86504 1.08367,3.14689 5.42133,1.41001 z"
           id="path54" />
        <path
           style="fill:#babdc1"
           d="m 78.592194,148.35708 c 0,-26.45834 0,-26.45834 26.458336,-26.45834 26.45833,0 26.45833,0 26.45833,26.45834 0,26.45833 0,26.45833 -26.45833,26.45833 -26.458336,0 -26.458336,0 -26.458336,-26.45833 z m 29.951036,15.05559 c 16.771,-3.47171 14.72027,-30.40143 -2.3151,-30.40143 -1.76995,0 -1.36111,4.9158 0.42932,5.16205 11.3247,1.55754 11.53232,18.29125 0.25159,20.27831 -1.59393,0.28077 -1.59393,0.28077 -1.59393,2.76604 0,2.80855 0.0617,2.8505 3.22812,2.19503 z"
           id="path53" />
        <path
           style="fill:#b4b8ba"
           d="m 78.592194,148.35708 c 0,-26.45834 0,-26.45834 26.458336,-26.45834 26.45833,0 26.45833,0 26.45833,26.45834 0,26.45833 0,26.45833 -26.45833,26.45833 -26.458336,0 -26.458336,0 -26.458336,-26.45833 z m 30.162496,15.05989 c 16.45948,-3.77404 14.44098,-30.40573 -2.30454,-30.40573 -2.10997,0 -1.71464,4.86845 0.42595,5.24551 11.21962,1.97629 11.21962,18.22436 0,20.20066 -1.56099,0.27496 -1.56099,0.27496 -1.56099,2.76023 0,2.74977 0.27424,2.92512 3.43958,2.19933 z"
           id="path52" />
        <path
           style="fill:#abb1b3"
           d="m 78.592194,148.35708 c 0,-26.45834 0,-26.45834 26.458336,-26.45834 26.45833,0 26.45833,0 26.45833,26.45834 0,26.45833 0,26.45833 -26.45833,26.45833 -26.458336,0 -26.458336,0 -26.458336,-26.45833 z m 30.489166,14.93156 c 15.78292,-3.81182 14.73885,-27.35994 -1.33685,-30.15154 -2.54182,-0.4414 -2.4294,-0.55238 -2.4294,2.39826 0,2.77066 -0.18833,2.51378 2.11667,2.887 10.2981,1.66745 10.2981,18.20198 0,19.86943 -2.30379,0.37302 -2.11667,0.12032 -2.11667,2.85852 0,3.14711 -0.12255,3.07753 3.76625,2.13833 z"
           id="path51" />
        <path
           style="fill:#a8aeb2"
           d="m 78.592194,148.35708 c 0,-26.45834 0,-26.45834 26.458336,-26.45834 26.45833,0 26.45833,0 26.45833,26.45834 0,26.45833 0,26.45833 -26.45833,26.45833 -26.458336,0 -26.458336,0 -26.458336,-26.45833 z m 30.691666,14.90219 c 15.55982,-4.25101 14.48889,-27.3709 -1.39629,-30.14408 -2.51421,-0.43893 -2.57239,-0.40405 -2.75488,1.65139 -0.23866,2.68803 0.0919,3.37243 1.72614,3.57429 11.04091,1.3637 11.03668,18.67346 -0.005,20.03241 -1.61475,0.19874 -1.98345,1.01148 -1.68387,3.7118 0.23435,2.11229 0.45234,2.17451 4.11379,1.17419 z"
           id="path50" />
        <path
           style="fill:#a4a9ab"
           d="m 78.592194,148.35708 c 0,-26.45834 0,-26.45834 26.458336,-26.45834 26.45833,0 26.45833,0 26.45833,26.45834 0,26.45833 0,26.45833 -26.45833,26.45833 -26.458336,0 -26.458336,0 -26.458336,-26.45833 z m 29.427306,15.23594 c 16.65377,-3.18639 16.54313,-27.29776 -0.13992,-30.49056 -2.72092,-0.52072 -2.82905,-0.42814 -2.82905,2.42232 0,2.48507 0.10771,2.64988 1.85364,2.83604 10.87904,1.15997 10.87904,18.83254 0,19.99252 -0.6557,0.0699 -1.34101,0.24518 -1.52291,0.38949 -0.44141,0.35017 -0.45251,4.46789 -0.0132,4.90716 0.39271,0.39272 0.28958,0.39494 2.65147,-0.057 z"
           id="path49" />
        <path
           style="fill:#9ca2a5"
           d="m 78.592194,148.35708 c 0,-26.45834 0,-26.45834 26.458336,-26.45834 26.45833,0 26.45833,0 26.45833,26.45834 0,26.45833 0,26.45833 -26.45833,26.45833 -26.458336,0 -26.458336,0 -26.458336,-26.45833 z m 31.485416,14.73501 c 15.23134,-4.95799 13.23811,-27.49394 -2.66402,-30.12012 -2.31667,-0.38259 -2.35349,-0.34221 -2.35901,2.58656 -0.005,2.45452 0.0918,2.59758 1.91077,2.83459 10.82079,1.40996 10.82079,18.51795 0,19.92791 -1.80784,0.23557 -1.91482,0.38904 -1.91482,2.7468 0,3.28354 0.51786,3.49207 5.02708,2.02426 z"
           id="path48" />
        <path
           style="fill:#999ea2"
           d="m 78.592194,148.35708 c 0,-26.45834 0,-26.45834 26.458336,-26.45834 26.45833,0 26.45833,0 26.45833,26.45834 0,26.45833 0,26.45833 -26.45833,26.45833 -26.458336,0 -26.458336,0 -26.458336,-26.45833 z m 29.721916,15.21807 c 16.63372,-3.52434 16.11546,-27.58499 -0.65889,-30.58895 -2.56302,-0.45899 -2.60544,-0.42095 -2.60064,2.33184 0.005,2.77758 0.0545,2.87127 1.61162,3.04215 11.20668,1.22977 11.20668,18.764 0,19.99378 -1.5539,0.17052 -1.60677,0.26859 -1.61162,2.98974 -0.005,2.97169 -0.0594,2.93465 3.25953,2.23144 z"
           id="path47" />
        <path
           style="fill:#93989b"
           d="m 78.592194,148.35708 c 0,-26.45834 0,-26.45834 26.458336,-26.45834 26.45833,0 26.45833,0 26.45833,26.45834 0,26.45833 0,26.45833 -26.45833,26.45833 -26.458336,0 -26.458336,0 -26.458336,-26.45833 z m 29.857826,15.2316 c 16.38335,-3.51349 15.85859,-27.74436 -0.6625,-30.59156 -2.77272,-0.47784 -2.7705,-0.47998 -2.68048,2.58611 0.0758,2.5812 0.0758,2.5812 1.5197,2.78845 11.37192,1.63225 11.37192,18.33914 0,19.97071 -1.44392,0.20716 -1.44392,0.20716 -1.52103,2.56446 -0.11144,3.40693 -0.0957,3.41956 3.34431,2.68183 z"
           id="path46" />
        <path
           style="fill:#8b9196"
           d="m 78.592194,148.35708 c 0,-26.45834 0,-26.45834 26.458336,-26.45834 26.45833,0 26.45833,0 26.45833,26.45834 0,26.45833 0,26.45833 -26.45833,26.45833 -26.458336,0 -26.458336,0 -26.458336,-26.45833 z m 29.965986,15.22236 c 16.25615,-3.44483 15.65771,-27.88279 -0.74966,-30.61315 -2.77988,-0.46261 -2.79156,-0.45129 -2.70148,2.61694 0.0758,2.5812 0.0758,2.5812 1.5197,2.78845 11.32242,1.62514 11.32242,18.34624 0,19.97071 -1.44392,0.20716 -1.44392,0.20716 -1.52103,2.56446 -0.11189,3.42092 -0.1048,3.42641 3.45247,2.67259 z"
           id="path45" />
        <path
           style="fill:#878c93"
           d="m 78.592194,148.35708 c 0,-26.45834 0,-26.45834 26.458336,-26.45834 26.45833,0 26.45833,0 26.45833,26.45834 0,26.45833 0,26.45833 -26.45833,26.45833 -26.458336,0 -26.458336,0 -26.458336,-26.45833 z m 30.097296,15.21248 c 16.83628,-3.9696 14.35511,-32.42977 -2.68261,-30.77085 -1.85818,0.18093 -1.16668,5.28289 0.76344,5.63276 11.15342,2.02177 11.15342,17.81874 0,19.84875 -1.5875,0.28894 -1.5875,0.28894 -1.66461,2.63644 -0.11148,3.39409 0.0218,3.49273 3.58378,2.6529 z"
           id="path44" />
        <path
           style="fill:#83888b"
           d="m 78.592194,148.35708 c 0,-26.45834 0,-26.45834 26.458336,-26.45834 26.45833,0 26.45833,0 26.45833,26.45834 0,26.45833 0,26.45833 -26.45833,26.45833 -26.458336,0 -26.458336,0 -26.458336,-26.45833 z m 32.233386,14.53428 c 14.81723,-5.9331 11.76087,-29.46178 -3.89138,-29.957 -2.68557,-0.085 -2.77822,4.9804 -0.10108,5.52649 11.12228,2.26874 11.0939,17.53336 -0.0368,19.79931 -1.55781,0.31714 -2.43947,3.25338 -1.61894,5.39164 0.22885,0.59636 3.28853,0.18443 5.64822,-0.76044 z"
           id="path43" />
        <path
           style="fill:#7b8286"
           d="m 78.592194,148.35708 c 0,-26.45834 0,-26.45834 26.458336,-26.45834 26.45833,0 26.45833,0 26.45833,26.45834 0,26.45833 0,26.45833 -26.45833,26.45833 -26.458336,0 -26.458336,0 -26.458336,-26.45833 z m 29.951036,15.31354 c 16.87539,-3.57315 15.45224,-29.41243 -1.69915,-30.85034 -2.72799,-0.22871 -2.74603,5.10833 -0.0191,5.65938 11.05359,2.23369 11.05359,17.52114 0,19.75483 -1.64214,0.33185 -1.64214,0.33185 -1.71754,3.03242 -0.0845,3.02672 0.0498,3.12066 3.43581,2.40371 z"
           id="path42" />
        <path
           style="fill:#767c82"
           d="m 78.592194,148.35708 c 0,-26.45834 0,-26.45834 26.458336,-26.45834 26.45833,0 26.45833,0 26.45833,26.45834 0,26.45833 0,26.45833 -26.45833,26.45833 -26.458336,0 -26.458336,0 -26.458336,-26.45833 z m 29.951036,15.31379 c 17.27498,-3.65473 15.0883,-30.92421 -2.47974,-30.92421 -2.08751,0 -1.36878,5.32738 0.77598,5.75176 10.99525,2.17559 10.99525,17.54173 0,19.71732 -1.65665,0.3278 -1.65665,0.3278 -1.73205,3.03977 -0.0845,3.03937 0.0475,3.13219 3.43581,2.41536 z"
           id="path41" />
        <path
           style="fill:#72797c"
           d="m 78.592194,148.35708 c 0,-26.45834 0,-26.45834 26.458336,-26.45834 26.45833,0 26.45833,0 26.45833,26.45834 0,26.45833 0,26.45833 -26.45833,26.45833 -26.458336,0 -26.458336,0 -26.458336,-26.45833 z m 30.508236,15.21574 c 16.68028,-4.34466 14.28989,-30.82616 -2.78257,-30.82616 -2.09446,0 -1.97887,5.40905 0.12173,5.69702 11.23031,1.5396 11.53281,17.77164 0.36742,19.71601 -1.75648,0.30588 -1.75648,0.30588 -1.75648,3.05684 0,3.07542 0.3986,3.30733 4.0499,2.35629 z"
           id="path40" />
        <path
           style="fill:#6a7276"
           d="m 78.592194,148.35708 c 0,-26.45834 0,-26.45834 26.458336,-26.45834 26.45833,0 26.45833,0 26.45833,26.45834 0,26.45833 0,26.45833 -26.45833,26.45833 -26.458336,0 -26.458336,0 -26.458336,-26.45833 z m 30.526476,15.18659 c 16.01042,-3.8724 15.02314,-27.82371 -1.26349,-30.65194 -2.8854,-0.50106 -2.80465,-0.57679 -2.80465,2.6305 0,2.95746 0.0429,3.03095 1.77601,3.04165 5.78418,0.0357 10.19447,8.60582 7.2983,14.18214 -1.43901,2.77069 -4.97621,5.38992 -7.2983,5.40425 -1.73363,0.0107 -1.77601,0.0834 -1.77601,3.04791 0,3.34342 -0.0171,3.33357 4.06814,2.34549 z"
           id="path39" />
        <path
           style="fill:#646c72"
           d="m 78.592194,148.35708 c 0,-26.45834 0,-26.45834 26.458336,-26.45834 26.45833,0 26.45833,0 26.45833,26.45834 0,26.45833 0,26.45833 -26.45833,26.45833 -26.458336,0 -26.458336,0 -26.458336,-26.45833 z m 30.294796,15.29508 c 16.46577,-3.61949 15.3416,-28.30905 -1.40616,-30.88277 -2.49401,-0.38327 -2.4303,-0.45517 -2.4303,2.7427 0,2.99631 0.0325,3.0554 1.68275,3.0554 2.45748,0 6.15742,2.83539 7.53522,5.7745 2.59856,5.54321 -1.91093,13.80467 -7.53522,13.80467 -1.6483,0 -1.68275,0.062 -1.68275,3.02692 0,3.45085 -0.14892,3.35464 3.83646,2.47858 z"
           id="path38" />
        <path
           style="fill:#62686c"
           d="m 78.592194,148.35708 c 0,-26.45834 0,-26.45834 26.458336,-26.45834 26.45833,0 26.45833,0 26.45833,26.45834 0,26.45833 0,26.45833 -26.45833,26.45833 -26.458336,0 -26.458336,0 -26.458336,-26.45833 z m 29.368746,15.49371 c 17.29842,-3.16288 16.88809,-28.21402 -0.5095,-31.10565 -2.50858,-0.41695 -2.6655,-0.25145 -2.6655,2.81132 0,2.53848 0.28806,3.01103 1.83544,3.01103 10.60141,0 10.89706,18.23891 0.31596,19.49208 -0.71659,0.0849 -1.4465,0.24307 -1.62203,0.35155 -0.4525,0.27966 -0.68599,4.50476 -0.28985,5.24496 0.35859,0.67003 0.34192,0.66892 2.93548,0.19471 z"
           id="path37" />
        <path
           style="fill:#5b6368"
           d="m 78.592194,148.35708 c 0,-26.45834 0,-26.45834 26.458336,-26.45834 26.45833,0 26.45833,0 26.45833,26.45834 0,26.45833 0,26.45833 -26.45833,26.45833 -26.458336,0 -26.458336,0 -26.458336,-26.45833 z m 29.497496,15.4871 c 17.2555,-3.30153 16.69382,-28.26821 -0.70057,-31.14083 -2.42384,-0.40029 -2.60318,-0.20373 -2.60318,2.85311 0,2.57582 0.19528,2.86644 2.07568,3.08915 10.68928,1.26599 10.64923,18.24984 -0.0458,19.41542 -1.80514,0.19673 -2.0299,0.53599 -2.0299,3.06401 0,3.27532 0.0748,3.33693 3.30375,2.71914 z"
           id="path36" />
        <path
           style="fill:#535962"
           d="m 78.592194,148.35708 c 0,-26.45834 0,-26.45834 26.458336,-26.45834 26.45833,0 26.45833,0 26.45833,26.45834 0,26.45833 0,26.45833 -26.45833,26.45833 -26.458336,0 -26.458336,0 -26.458336,-26.45833 z m 31.343686,15.06213 c 15.55766,-4.8325 13.82767,-28.0621 -2.28643,-30.70118 -2.76939,-0.45356 -2.86351,-0.36131 -2.86351,2.80675 0,2.78044 0.0793,2.91135 1.88026,3.10362 10.83879,1.15713 10.91051,18.00787 0.0827,19.42146 -1.89835,0.24783 -1.96292,0.35042 -1.96292,3.11899 0,3.38776 0.61834,3.65796 5.14994,2.25036 z"
           id="path35" />
        <path
           style="fill:#52575c"
           d="m 78.592194,148.35708 c 0,-26.45834 0,-26.45834 26.458336,-26.45834 26.45833,0 26.45833,0 26.45833,26.45834 0,26.45833 0,26.45833 -26.45833,26.45833 -26.458336,0 -26.458336,0 -26.458336,-26.45833 z m 29.965986,15.48694 c 16.7612,-3.55185 15.89313,-28.68427 -1.07607,-31.15427 -2.70265,-0.39339 -2.68661,-0.41049 -2.69211,2.86878 -0.005,2.74704 0.0645,2.85857 1.92218,3.10074 10.80032,1.40795 10.83168,17.98129 0.0367,19.39059 -1.88889,0.24659 -1.96292,0.36041 -1.96292,3.01797 0,3.50757 0.0717,3.56036 3.77224,2.77619 z"
           id="path34" />
        <path
           style="fill:#4b5359"
           d="m 78.592194,148.35708 c 0,-26.45834 0,-26.45834 26.458336,-26.45834 26.45833,0 26.45833,0 26.45833,26.45834 0,26.45833 0,26.45833 -26.45833,26.45833 -26.458336,0 -26.458336,0 -26.458336,-26.45833 z m 30.060566,15.48563 c 17.35249,-4.09229 14.80779,-32.77866 -2.7773,-31.30838 -2.17367,0.18174 -1.47558,5.85106 0.75296,6.115 10.81107,1.28041 10.88389,17.99757 0.0845,19.40545 -1.8706,0.24386 -1.92701,0.33914 -1.92701,3.25518 0,3.28232 0.18225,3.40169 3.86682,2.53275 z"
           id="path33" />
        <path
           style="fill:#510c95"
           d="m 78.592194,148.35708 c 0,-26.45834 0,-26.45834 26.458336,-26.45834 26.45833,0 26.45833,0 26.45833,26.45834 0,26.45833 0,26.45833 -26.45833,26.45833 -26.458336,0 -26.458336,0 -26.458336,-26.45833 z m 32.230576,14.81404 c 15.1907,-5.89867 12.00736,-30.07293 -4.01709,-30.50577 -2.64974,-0.0716 -3.05987,5.59432 -0.43224,5.97138 11.27512,1.61796 11.27512,17.82644 0,19.44014 -1.39173,0.19919 -2.27221,3.72466 -1.4593,5.84308 0.23277,0.60656 3.47694,0.19541 5.90863,-0.74883 z"
           id="path32" />
        <path
           style="fill:#4c0e91"
           d="m 78.592194,148.35708 c 0,-26.45834 0,-26.45834 26.458336,-26.45834 26.45833,0 26.45833,0 26.45833,26.45834 0,26.45833 0,26.45833 -26.45833,26.45833 -26.458336,0 -26.458336,0 -26.458336,-26.45833 z m 32.230576,14.81404 c 15.1907,-5.89867 12.00736,-30.07293 -4.01709,-30.50577 -2.64974,-0.0716 -3.05987,5.59432 -0.43224,5.97138 11.27512,1.61796 11.27512,17.82644 0,19.44014 -1.39173,0.19919 -2.27221,3.72466 -1.4593,5.84308 0.23277,0.60656 3.47694,0.19541 5.90863,-0.74883 z"
           id="path31" />
        <path
           style="fill:#4a1090"
           d="m 78.592194,148.35708 c 0,-26.45834 0,-26.45834 26.458336,-26.45834 26.45833,0 26.45833,0 26.45833,26.45834 0,26.45833 0,26.45833 -26.45833,26.45833 -26.458336,0 -26.458336,0 -26.458336,-26.45833 z m 32.230576,14.81404 c 15.1907,-5.89867 12.00736,-30.07293 -4.01709,-30.50577 -2.64974,-0.0716 -3.05987,5.59432 -0.43224,5.97138 11.27512,1.61796 11.27512,17.82644 0,19.44014 -1.39173,0.19919 -2.27221,3.72466 -1.4593,5.84308 0.23277,0.60656 3.47694,0.19541 5.90863,-0.74883 z"
           id="path30" />
        <path
           style="fill:#48108e"
           d="m 78.592194,148.35708 c 0,-26.45834 0,-26.45834 26.458336,-26.45834 26.45833,0 26.45833,0 26.45833,26.45834 0,26.45833 0,26.45833 -26.45833,26.45833 -26.458336,0 -26.458336,0 -26.458336,-26.45833 z m 32.230576,14.81404 c 15.1907,-5.89867 12.00736,-30.07293 -4.01709,-30.50577 -2.64974,-0.0716 -3.05987,5.59432 -0.43224,5.97138 11.27512,1.61796 11.27512,17.82644 0,19.44014 -1.39173,0.19919 -2.27221,3.72466 -1.4593,5.84308 0.23277,0.60656 3.47694,0.19541 5.90863,-0.74883 z"
           id="path29" />
        <path
           style="fill:#490e8e"
           d="m 78.592194,148.35708 c 0,-26.45834 0,-26.45834 26.458336,-26.45834 26.45833,0 26.45833,0 26.45833,26.45834 0,26.45833 0,26.45833 -26.45833,26.45833 -26.458336,0 -26.458336,0 -26.458336,-26.45833 z m 32.230576,14.81404 c 15.1907,-5.89867 12.00736,-30.07293 -4.01709,-30.50577 -2.64974,-0.0716 -3.05987,5.59432 -0.43224,5.97138 11.27512,1.61796 11.27512,17.82644 0,19.44014 -1.39173,0.19919 -2.27221,3.72466 -1.4593,5.84308 0.23277,0.60656 3.47694,0.19541 5.90863,-0.74883 z m -0.87511,-10.26973 c 1.9531,-1.76555 2.11142,-2.0869 2.10856,-4.27973 -0.006,-4.62489 -2.24181,-7.10949 -6.56858,-7.29957 -2.75434,-0.121 -5.33028,1.18786 -4.08409,2.07517 0.22095,0.15732 0.0488,0.19209 -0.49253,0.0995 -1.020767,-0.17468 -1.262809,0.38894 -0.7207,1.67823 0.19926,0.4739 0.36229,1.13394 0.36229,1.46674 0,0.54271 0.16369,0.6241 1.5875,0.78935 1.40598,0.16319 1.5875,0.25113 1.5875,0.76916 0,0.3217 0.17481,0.81603 0.38846,1.0985 0.21365,0.28248 0.39407,0.75172 0.40093,1.04276 0.0257,1.09131 0.74623,1.35562 3.93936,1.44504 0.29271,0.008 0.29926,0.0871 0.0337,0.40705 -0.36248,0.43675 0.17043,0.59221 0.68025,0.19843 0.14131,-0.10914 0.002,0.0397 -0.3094,0.33073 -0.31148,0.29104 -0.632,0.70776 -0.71228,0.92604 -0.10503,0.28559 -0.15295,0.24849 -0.1709,-0.13229 -0.0207,-0.44037 -0.068,-0.46257 -0.28142,-0.13229 -0.78633,1.21676 0.73124,0.89133 2.2513,-0.48277 z"
           id="path28" />
        <path
           style="fill:#454c53"
           d="m 78.592194,148.35708 c 0,-26.45834 0,-26.45834 26.458336,-26.45834 26.45833,0 26.45833,0 26.45833,26.45834 0,26.45833 0,26.45833 -26.45833,26.45833 -26.458336,0 -26.458336,0 -26.458336,-26.45833 z m 32.230576,14.81404 c 15.1907,-5.89867 12.00736,-30.07293 -4.01709,-30.50577 -2.64974,-0.0716 -3.05987,5.59432 -0.43224,5.97138 11.27512,1.61796 11.27512,17.82644 0,19.44014 -1.39173,0.19919 -2.27221,3.72466 -1.4593,5.84308 0.23277,0.60656 3.47694,0.19541 5.90863,-0.74883 z m -1.38582,-9.46211 c 3.51963,-2.92554 3.68899,-7.80885 0.37608,-10.8438 -2.586,-2.36902 -8.31965,-2.00158 -9.65729,0.6189 -0.14553,0.28507 -0.532478,0.89142 -0.8599,1.34742 -0.796697,1.10958 -0.75624,1.23965 0.330729,1.06326 0.876161,-0.14218 0.926041,-0.10982 0.926041,0.60086 0,0.72119 0.0633,0.75848 1.5875,0.93538 1.40598,0.16319 1.5875,0.25113 1.5875,0.76916 0,0.3217 0.17481,0.81603 0.38846,1.0985 0.21365,0.28248 0.39407,0.75172 0.40093,1.04276 0.0257,1.09038 0.72871,1.34977 3.9165,1.44504 0.22113,0.007 0.10534,0.35591 -0.33073,0.99763 -0.98432,1.44857 -0.0637,2.08679 1.33418,0.92489 z"
           id="path27" />
        <path
           style="fill:#450e8c"
           d="m 78.592194,148.35708 c 0,-26.45834 0,-26.45834 26.458336,-26.45834 26.45833,0 26.45833,0 26.45833,26.45834 0,26.45833 0,26.45833 -26.45833,26.45833 -26.458336,0 -26.458336,0 -26.458336,-26.45833 z m 30.366006,15.4761 c 15.89462,-3.74748 15.81678,-27.27914 -0.10245,-30.97106 -3.66085,-0.84901 -3.93751,-0.66215 -3.93751,2.65929 0,2.90705 0,2.90705 1.77061,3.22795 10.87883,1.97168 10.87646,17.24705 -0.003,19.21541 -1.76762,0.31981 -1.76762,0.31981 -1.84392,2.944 -0.10752,3.69806 0.1273,3.86489 4.11626,2.92441 z m 0.47875,-10.12417 c 3.51963,-2.92554 3.68899,-7.80885 0.37608,-10.8438 -2.586,-2.36902 -8.31965,-2.00158 -9.65729,0.6189 -0.14553,0.28507 -0.532478,0.89142 -0.8599,1.34742 -0.796697,1.10958 -0.75624,1.23965 0.330729,1.06326 0.876161,-0.14218 0.926041,-0.10982 0.926041,0.60086 0,0.72119 0.0633,0.75848 1.5875,0.93538 1.40598,0.16319 1.5875,0.25113 1.5875,0.76916 0,0.3217 0.17481,0.81603 0.38846,1.0985 0.21365,0.28248 0.39407,0.75172 0.40093,1.04276 0.0257,1.09038 0.72871,1.34977 3.9165,1.44504 0.22113,0.007 0.10534,0.35591 -0.33073,0.99763 -0.98432,1.44857 -0.0637,2.08679 1.33418,0.92489 z"
           id="path26" />
        <path
           style="fill:#44108b"
           d="m 78.592194,148.35708 c 0,-26.45834 0,-26.45834 26.458336,-26.45834 26.45833,0 26.45833,0 26.45833,26.45834 0,26.45833 0,26.45833 -26.45833,26.45833 -26.458336,0 -26.458336,0 -26.458336,-26.45833 z m 30.366006,15.4761 c 15.89462,-3.74748 15.81678,-27.27914 -0.10245,-30.97106 -3.66085,-0.84901 -3.93751,-0.66215 -3.93751,2.65929 0,2.90705 0,2.90705 1.77061,3.22795 10.87883,1.97168 10.87646,17.24705 -0.003,19.21541 -1.76762,0.31981 -1.76762,0.31981 -1.84392,2.944 -0.10752,3.69806 0.1273,3.86489 4.11626,2.92441 z m 0.0688,-9.79157 c 3.7412,-1.93465 4.17294,-8.07364 0.786,-11.1764 -3.49169,-3.19872 -9.34997,-1.65748 -11.089368,2.91748 -0.258009,0.67861 -0.239254,0.69938 0.498306,0.55187 0.802102,-0.16042 0.845342,-0.0747 1.152992,2.2871 0.0349,0.26816 0.53633,0.46982 1.54595,0.62179 1.00485,0.15125 1.54547,0.36789 1.65065,0.66146 0.086,0.2401 0.2252,0.58366 0.3093,0.76347 0.0875,0.18717 -0.13877,0.45983 -0.52934,0.63779 -0.87085,0.39678 -0.86391,0.6991 0.0238,1.03661 0.38832,0.14764 0.83625,0.4465 0.99539,0.66414 0.19536,0.26717 0.78204,0.40159 1.80621,0.41382 0.94828,0.0113 1.45505,0.11813 1.35196,0.28493 -0.0907,0.14675 -8.1e-4,0.37075 0.19973,0.49777 0.46744,0.29607 0.39562,0.30503 1.29842,-0.16183 z"
           id="path25" />
        <path
           style="fill:#421184"
           d="m 78.592194,148.35708 c 0,-26.45834 0,-26.45834 26.458336,-26.45834 26.45833,0 26.45833,0 26.45833,26.45834 0,26.45833 0,26.45833 -26.45833,26.45833 -26.458336,0 -26.458336,0 -26.458336,-26.45833 z m 30.366006,15.4761 c 15.89462,-3.74748 15.81678,-27.27914 -0.10245,-30.97106 -3.66085,-0.84901 -3.93751,-0.66215 -3.93751,2.65929 0,2.90705 0,2.90705 1.77061,3.22795 10.87883,1.97168 10.87646,17.24705 -0.003,19.21541 -1.76762,0.31981 -1.76762,0.31981 -1.84392,2.944 -0.10752,3.69806 0.1273,3.86489 4.11626,2.92441 z m -0.29007,-9.46281 c 6.49564,-4.05272 3.80286,-13.14901 -3.89445,-13.15557 -4.15731,-0.004 -8.108875,5.42037 -6.347179,8.71213 0.527037,0.98478 1.14695,0.19826 0.908109,-1.15217 -0.212447,-1.2012 -0.207741,-1.99055 0.01319,-2.21148 0.33725,-0.33725 0.544875,0.35062 0.568043,1.88197 0.03345,2.21055 0.245647,2.7524 1.156177,2.95239 0.41801,0.0918 1.02613,0.39774 1.3514,0.67985 0.32529,0.28211 0.76171,0.51292 0.96985,0.51292 0.9814,0 0.0284,0.62297 -0.98054,0.64094 -3.151177,0.0561 -0.004,1.94129 3.29926,1.97618 1.34615,0.0142 1.79557,-0.11306 2.95614,-0.83716 z"
           id="path24" />
        <path
           style="fill:#420e85"
           d="m 78.592194,148.35708 c 0,-26.45834 0,-26.45834 26.458336,-26.45834 26.45833,0 26.45833,0 26.45833,26.45834 0,26.45833 0,26.45833 -26.45833,26.45833 -26.458336,0 -26.458336,0 -26.458336,-26.45833 z m 30.366006,15.4761 c 15.89462,-3.74748 15.81678,-27.27914 -0.10245,-30.97106 -3.66085,-0.84901 -3.93751,-0.66215 -3.93751,2.65929 0,2.90705 0,2.90705 1.77061,3.22795 10.87883,1.97168 10.87646,17.24705 -0.003,19.21541 -1.76762,0.31981 -1.76762,0.31981 -1.84392,2.944 -0.10752,3.69806 0.1273,3.86489 4.11626,2.92441 z m -0.87281,-9.00157 c 0.80468,-0.36806 1.46305,-0.79181 1.46305,-0.94165 0,-0.14985 0.10558,-0.2072 0.23461,-0.12745 0.29134,0.18006 0.88431,-0.49415 0.64504,-0.73342 -0.0957,-0.0958 -0.0514,-0.1741 0.0986,-0.1741 3.18781,0 2.07234,-8.12176 -1.46663,-10.67863 -2.02871,-1.46572 -8.24288,-1.15768 -8.24288,0.4086 0,0.11873 -0.15073,0.21587 -0.33496,0.21587 -0.87666,0 -2.330435,3.15004 -2.442161,5.29166 -0.09828,1.88387 1.215755,2.9923 1.807136,1.52439 0.07395,-0.18357 0.145686,-0.0361 0.159405,0.3277 0.0352,0.9329 0.27544,1.20116 1.4059,1.56967 0.5457,0.1779 0.99218,0.43101 0.99218,0.56247 0,0.13146 0.30285,0.31503 0.67299,0.40793 1.0359,0.26 0.62292,0.72376 -0.66495,0.7467 -1.59701,0.0284 -1.6367,0.55085 -0.0941,1.23909 0.7022,0.31331 1.45532,0.66631 1.6736,0.78445 0.79962,0.43281 2.63702,0.2428 4.0932,-0.42328 z"
           id="path23" />
        <path
           style="fill:#3e1183"
           d="m 78.592194,148.35708 c 0,-26.45834 0,-26.45834 26.458336,-26.45834 26.45833,0 26.45833,0 26.45833,26.45834 0,26.45833 0,26.45833 -26.45833,26.45833 -26.458336,0 -26.458336,0 -26.458336,-26.45833 z m 30.366006,15.4761 c 15.89462,-3.74748 15.81678,-27.27914 -0.10245,-30.97106 -3.66085,-0.84901 -3.93751,-0.66215 -3.93751,2.65929 0,2.90705 0,2.90705 1.77061,3.22795 10.87883,1.97168 10.87646,17.24705 -0.003,19.21541 -1.76762,0.31981 -1.76762,0.31981 -1.84392,2.944 -0.10752,3.69806 0.1273,3.86489 4.11626,2.92441 z m -0.78604,-8.90964 c 0.24763,-0.20437 0.7855,-0.53958 1.19525,-0.74492 5.87071,-2.94195 2.89243,-12.67278 -3.95592,-12.92505 -5.17486,-0.19062 -10.391094,7.3426 -6.674669,9.63948 0.12556,0.0776 0.22829,0.34344 0.22829,0.59076 0,0.40818 2.379969,2.74316 3.398769,3.3345 1.26691,0.73536 4.96361,0.80234 5.80828,0.10523 z"
           id="path22" />
        <path
           style="fill:#42147c"
           d="m 78.592194,148.35708 c 0,-26.45834 0,-26.45834 26.458336,-26.45834 26.45833,0 26.45833,0 26.45833,26.45834 0,26.45833 0,26.45833 -26.45833,26.45833 -26.458336,0 -26.458336,0 -26.458336,-26.45833 z m 30.366006,15.4761 c 15.89462,-3.74748 15.81678,-27.27914 -0.10245,-30.97106 -3.66085,-0.84901 -3.93751,-0.66215 -3.93751,2.65929 0,2.90705 0,2.90705 1.77061,3.22795 10.87883,1.97168 10.87646,17.24705 -0.003,19.21541 -1.76762,0.31981 -1.76762,0.31981 -1.84392,2.944 -0.10752,3.69806 0.1273,3.86489 4.11626,2.92441 z m -0.0311,-9.30982 c 7.73143,-5.25653 0.58384,-17.36074 -7.39581,-12.52457 -3.525408,2.13662 -5.177406,10.59162 -2.06947,10.59162 0.143765,0 0.332746,0.22482 0.419957,0.4996 0.766453,2.41487 6.309703,3.29328 9.045323,1.43335 z"
           id="path21" />
        <path
           style="fill:#3b434a"
           d="m 78.592194,148.35708 c 0,-26.45834 0,-26.45834 26.458336,-26.45834 26.45833,0 26.45833,0 26.45833,26.45834 0,26.45833 0,26.45833 -26.45833,26.45833 -26.458336,0 -26.458336,0 -26.458336,-26.45833 z m 30.366006,15.4761 c 15.89462,-3.74748 15.81678,-27.27914 -0.10245,-30.97106 -3.66085,-0.84901 -3.93751,-0.66215 -3.93751,2.65929 0,2.90705 0,2.90705 1.77061,3.22795 10.87883,1.97168 10.87646,17.24705 -0.003,19.21541 -1.76762,0.31981 -1.76762,0.31981 -1.84392,2.944 -0.10752,3.69806 0.1273,3.86489 4.11626,2.92441 z m 0.0611,-9.32279 c 4.2856,-2.76759 4.66287,-8.90736 0.73719,-11.997 -3.01632,-2.37393 -7.59106,-2.01617 -10.051448,0.78605 -5.512382,6.27826 2.331988,15.72 9.314258,11.21095 z"
           id="path20" />
        <path
           style="fill:#3a1476"
           d="m 78.592194,148.35708 c 0,-26.45834 0,-26.45834 26.458336,-26.45834 26.45833,0 26.45833,0 26.45833,26.45834 0,26.45833 0,26.45833 -26.45833,26.45833 -26.458336,0 -26.458336,0 -26.458336,-26.45833 z m 31.220836,15.3103 c 16.06601,-5.08807 14.14659,-28.86393 -2.51354,-31.13512 -3.37362,-0.45991 -4.01424,5.58318 -0.66146,6.2397 10.80408,2.11559 10.9476,17.34988 0.17996,19.10236 -2.09373,0.34076 -2.03205,0.23622 -2.03205,3.44355 0,2.52626 0.0562,2.88683 0.46303,2.96946 0.61751,0.12544 3.40674,-0.25343 4.56406,-0.61995 z m -0.79375,-9.15699 c 4.2856,-2.76759 4.66287,-8.90736 0.73719,-11.997 -3.01632,-2.37393 -7.59106,-2.01617 -10.051448,0.78605 -5.512382,6.27826 2.331988,15.72 9.314258,11.21095 z"
           id="path19" />
        <path
           style="fill:#343c44"
           d="m 78.592194,148.35708 c 0,-26.45834 0,-26.45834 26.458336,-26.45834 26.45833,0 26.45833,0 26.45833,26.45834 0,26.45833 0,26.45833 -26.45833,26.45833 -26.458336,0 -26.458336,0 -26.458336,-26.45833 z m 31.220836,15.3103 c 16.06601,-5.08807 14.14659,-28.86393 -2.51354,-31.13512 -3.37362,-0.45991 -4.01424,5.58318 -0.66146,6.2397 10.80408,2.11559 10.9476,17.34988 0.17996,19.10236 -2.09373,0.34076 -2.03205,0.23622 -2.03205,3.44355 0,2.52626 0.0562,2.88683 0.46303,2.96946 0.61751,0.12544 3.40674,-0.25343 4.56406,-0.61995 z m -3.43209,-7.88009 c 8.8917,-1.45672 8.0523,-14.46478 -0.95487,-14.7976 -9.812266,-0.36256 -10.54058,13.785 -0.77242,15.00421 0.14552,0.0182 0.9228,-0.0748 1.72729,-0.20661 z"
           id="path18" />
        <path
           style="fill:#341668"
           d="m 78.592194,148.35708 c 0,-26.45834 0,-26.45834 26.458336,-26.45834 26.45833,0 26.45833,0 26.45833,26.45834 0,26.45833 0,26.45833 -26.45833,26.45833 -26.458336,0 -26.458336,0 -26.458336,-26.45833 z m 29.423206,15.75756 c 17.24379,-3.07487 17.15306,-28.51178 -0.11245,-31.52593 -3.18351,-0.55577 -3.11701,-0.61577 -3.11701,2.8123 0,3.22111 0.11819,3.43107 1.93144,3.43107 5.51852,0 9.87003,8.05348 7.29102,13.49375 -1.35476,2.85779 -4.84413,5.5495 -7.20748,5.55986 -2.02366,0.009 -2.01498,-0.005 -2.01498,3.31249 0,3.65059 -0.14635,3.51843 3.22946,2.91646 z m -1.63446,-8.32735 c 8.8917,-1.45672 8.0523,-14.46478 -0.95487,-14.7976 -9.812266,-0.36256 -10.54058,13.785 -0.77242,15.00421 0.14552,0.0182 0.9228,-0.0748 1.72729,-0.20661 z"
           id="path17" />
        <path
           style="fill:#2d1662"
           d="m 78.592194,148.35708 c 0,-26.45834 0,-26.45834 26.458336,-26.45834 26.45833,0 26.45833,0 26.45833,26.45834 0,26.45833 0,26.45833 -26.45833,26.45833 -26.458336,0 -26.458336,0 -26.458336,-26.45833 z m 29.423206,15.75756 c 17.24379,-3.07487 17.15306,-28.51178 -0.11245,-31.52593 -3.18351,-0.55577 -3.11701,-0.61577 -3.11701,2.8123 0,3.22111 0.11819,3.43107 1.93144,3.43107 5.51852,0 9.87003,8.05348 7.29102,13.49375 -1.35476,2.85779 -4.84413,5.5495 -7.20748,5.55986 -2.02366,0.009 -2.01498,-0.005 -2.01498,3.31249 0,3.65059 -0.14635,3.51843 3.22946,2.91646 z m 1.17258,-9.26469 c 3.34742,-2.22256 4.58477,-6.99627 2.66151,-10.26815 -3.9866,-6.78207 -14.324889,-4.15237 -14.324889,3.64375 0,6.05497 6.748349,9.8878 11.663379,6.6244 z"
           id="path16" />
        <path
           style="fill:#2d3740"
           d="m 78.592194,148.35708 c 0,-26.45834 0,-26.45834 26.458336,-26.45834 26.45833,0 26.45833,0 26.45833,26.45834 0,26.45833 0,26.45833 -26.45833,26.45833 -26.458336,0 -26.458336,0 -26.458336,-26.45833 z m 29.423206,15.75756 c 17.24379,-3.07487 17.15306,-28.51178 -0.11245,-31.52593 -3.18351,-0.55577 -3.11701,-0.61577 -3.11701,2.8123 0,3.22111 0.11819,3.43107 1.93144,3.43107 5.51852,0 9.87003,8.05348 7.29102,13.49375 -1.35476,2.85779 -4.84413,5.5495 -7.20748,5.55986 -2.02366,0.009 -2.01498,-0.005 -2.01498,3.31249 0,3.65059 -0.14635,3.51843 3.22946,2.91646 z m -1.24508,-8.18419 c 7.66284,-1.6679 8.05598,-13.11403 0.51564,-15.01271 -10.176633,-2.56251 -13.986655,11.82063 -3.96961,14.98559 1.38426,0.43736 1.56276,0.43876 3.45397,0.0271 z"
           id="path15" />
        <path
           style="fill:#31165c"
           d="m 78.592194,148.35708 c 0,-26.45834 0,-26.45834 26.458336,-26.45834 26.45833,0 26.45833,0 26.45833,26.45834 0,26.45833 0,26.45833 -26.45833,26.45833 -26.458336,0 -26.458336,0 -26.458336,-26.45833 z m 29.543916,15.74619 c 16.34223,-3.1001 17.40193,-26.68872 1.40103,-31.18666 -4.59143,-1.29068 -5.11658,-0.98667 -4.9742,2.87968 0.10576,2.87215 0.0614,2.80193 1.93238,3.05584 10.94185,1.48484 10.94185,17.52506 0,19.0099 -1.82652,0.24786 -1.71464,0.0795 -1.88425,2.83554 -0.2405,3.90787 -0.057,4.08519 3.52504,3.4057 z m -1.36579,-8.17282 c 7.66284,-1.6679 8.05598,-13.11403 0.51564,-15.01271 -10.176633,-2.56251 -13.986655,11.82063 -3.96961,14.98559 1.38426,0.43736 1.56276,0.43876 3.45397,0.0271 z"
           id="path14" />
        <path
           style="fill:#2a1756"
           d="m 78.592194,148.35708 c 0,-26.45834 0,-26.45834 26.458336,-26.45834 26.45833,0 26.45833,0 26.45833,26.45834 0,26.45833 0,26.45833 -26.45833,26.45833 -26.458336,0 -26.458336,0 -26.458336,-26.45833 z m 29.543916,15.74619 c 16.34223,-3.1001 17.40193,-26.68872 1.40103,-31.18666 -4.59143,-1.29068 -5.11658,-0.98667 -4.9742,2.87968 0.10576,2.87215 0.0614,2.80193 1.93238,3.05584 10.94185,1.48484 10.94185,17.52506 0,19.0099 -1.82652,0.24786 -1.71464,0.0795 -1.88425,2.83554 -0.2405,3.90787 -0.057,4.08519 3.52504,3.4057 z m -1.61282,-8.0982 c 9.78396,-1.80424 7.79997,-15.78601 -2.16632,-15.26672 -8.51141,0.44348 -9.519336,12.88045 -1.22751,15.14634 1.6667,0.45546 1.59127,0.45278 3.39383,0.12038 z"
           id="path13" />
        <path
           style="fill:#2a333a"
           d="m 78.592194,148.35708 c 0,-26.45834 0,-26.45834 26.458336,-26.45834 26.45833,0 26.45833,0 26.45833,26.45834 0,26.45833 0,26.45833 -26.45833,26.45833 -26.458336,0 -26.458336,0 -26.458336,-26.45833 z m 29.543916,15.74619 c 16.34223,-3.1001 17.40193,-26.68872 1.40103,-31.18666 -4.59143,-1.29068 -5.11658,-0.98667 -4.9742,2.87968 0.10576,2.87215 0.0614,2.80193 1.93238,3.05584 10.94185,1.48484 10.94185,17.52506 0,19.0099 -1.82652,0.24786 -1.71464,0.0795 -1.88425,2.83554 -0.2405,3.90787 -0.057,4.08519 3.52504,3.4057 z m -0.92396,-8.04695 c 6.04642,-1.40499 7.7913,-10.01727 2.83016,-13.96898 -2.12922,-1.696 -6.08287,-2.12436 -8.43137,-0.91351 -8.49181,4.37828 -3.722984,17.04914 5.60121,14.88249 z"
           id="path12" />
        <path
           style="fill:#232c35"
           d="m 78.592194,148.35708 c 0,-26.45834 0,-26.45834 26.458336,-26.45834 26.45833,0 26.45833,0 26.45833,26.45834 0,26.45833 0,26.45833 -26.45833,26.45833 -26.458336,0 -26.458336,0 -26.458336,-26.45833 z m 29.859896,15.7507 c 17.30475,-3.64016 16.51448,-29.1338 -0.98217,-31.68396 -2.883,-0.42021 -2.94856,-0.3539 -2.94856,2.98217 0,3.04481 0.13939,3.27488 2.12676,3.51025 10.57039,1.25191 10.53045,17.71792 -0.0458,18.87416 -1.91948,0.20984 -2.08098,0.48371 -2.08098,3.52891 0,3.449 0.18084,3.57729 3.93073,2.78847 z m -1.23994,-8.05146 c 6.04642,-1.40499 7.7913,-10.01727 2.83016,-13.96898 -2.12922,-1.696 -6.08287,-2.12436 -8.43137,-0.91351 -8.49181,4.37828 -3.722984,17.04914 5.60121,14.88249 z"
           id="path11" />
        <path
           style="fill:#231847"
           d="m 78.592194,148.35708 c 0,-26.45834 0,-26.45834 26.458336,-26.45834 26.45833,0 26.45833,0 26.45833,26.45834 0,26.45833 0,26.45833 -26.45833,26.45833 -26.458336,0 -26.458336,0 -26.458336,-26.45833 z m 29.951036,15.85116 c 16.60072,-3.41489 16.60072,-28.28743 0,-31.70233 -3.79519,-0.7807 -4.02187,-0.6037 -4.02187,3.14041 0,2.95267 0.0485,3.03337 1.98438,3.30382 10.69337,1.4939 10.67521,17.43867 -0.0215,18.83513 -1.93073,0.25206 -1.96292,0.30986 -1.96292,3.52469 0,3.53168 0.20935,3.68255 4.02187,2.89828 z m -1.33108,-8.15192 c 6.04642,-1.40499 7.7913,-10.01727 2.83016,-13.96898 -2.12922,-1.696 -6.08287,-2.12436 -8.43137,-0.91351 -8.49181,4.37828 -3.722984,17.04914 5.60121,14.88249 z"
           id="path10" />
        <path
           style="fill:#1d1944"
           d="m 78.592194,148.35708 c 0,-26.45834 0,-26.45834 26.458336,-26.45834 26.45833,0 26.45833,0 26.45833,26.45834 0,26.45833 0,26.45833 -26.45833,26.45833 -26.458336,0 -26.458336,0 -26.458336,-26.45833 z m 29.951036,15.85116 c 16.60072,-3.41489 16.60072,-28.28743 0,-31.70233 -3.79519,-0.7807 -4.02187,-0.6037 -4.02187,3.14041 0,2.95267 0.0485,3.03337 1.98438,3.30382 10.69337,1.4939 10.67521,17.43867 -0.0215,18.83513 -1.93073,0.25206 -1.96292,0.30986 -1.96292,3.52469 0,3.53168 0.20935,3.68255 4.02187,2.89828 z m -0.61948,-8.2144 c 8.44939,-3.21246 6.16875,-15.59042 -2.87983,-15.62993 -8.534132,-0.0373 -11.168811,13.85701 -2.94816,15.5475 0.38819,0.0798 1.063,0.25114 1.49956,0.38068 0.87595,0.25993 3.29953,0.0929 4.32843,-0.29825 z"
           id="path9" />
        <path
           style="fill:#21193b"
           d="m 78.592194,148.35708 c 0,-26.45834 0,-26.45834 26.458336,-26.45834 26.45833,0 26.45833,0 26.45833,26.45834 0,26.45833 0,26.45833 -26.45833,26.45833 -26.458336,0 -26.458336,0 -26.458336,-26.45833 z m 29.951036,15.85116 c 16.60072,-3.41489 16.60072,-28.28743 0,-31.70233 -3.79519,-0.7807 -4.02187,-0.6037 -4.02187,3.14041 0,2.95267 0.0485,3.03337 1.98438,3.30382 10.69337,1.4939 10.67521,17.43867 -0.0215,18.83513 -1.93073,0.25206 -1.96292,0.30986 -1.96292,3.52469 0,3.53168 0.20935,3.68255 4.02187,2.89828 z m -1.15099,-8.03217 c 0.77861,-0.20724 1.61227,-0.55473 1.85256,-0.77219 0.2403,-0.21746 0.76624,-0.5206 1.16877,-0.67364 0.40664,-0.15461 0.85551,-0.60348 1.01012,-1.01012 0.15304,-0.40253 0.45025,-0.92192 0.66047,-1.15421 4.99549,-5.51996 -3.64377,-14.98729 -10.60243,-11.61866 -8.893121,4.30509 -3.664361,17.77734 5.91051,15.22882 z"
           id="path8" />
        <path
           style="fill:#1b2632"
           d="m 78.592194,148.35708 c 0,-26.45834 0,-26.45834 26.458336,-26.45834 26.45833,0 26.45833,0 26.45833,26.45834 0,26.45833 0,26.45833 -26.45833,26.45833 -26.458336,0 -26.458336,0 -26.458336,-26.45833 z m 29.951036,15.85116 c 16.60072,-3.41489 16.60072,-28.28743 0,-31.70233 -3.79519,-0.7807 -4.02187,-0.6037 -4.02187,3.14041 0,2.95267 0.0485,3.03337 1.98438,3.30382 10.69337,1.4939 10.67521,17.43867 -0.0215,18.83513 -1.93073,0.25206 -1.96292,0.30986 -1.96292,3.52469 0,3.53168 0.20935,3.68255 4.02187,2.89828 z m -0.28702,-8.28299 c 3.93579,-1.78494 5.66092,-5.34166 4.74076,-9.77405 -1.20535,-5.80613 -9.55261,-8.01217 -13.764694,-3.63777 -6.096127,6.33105 1.089254,17.01033 9.023934,13.41182 z"
           id="path7" />
        <path
           style="fill:#1b1a3b"
           d="m 78.592194,148.35708 c 0,-26.45834 0,-26.45834 26.458336,-26.45834 26.45833,0 26.45833,0 26.45833,26.45834 0,26.45833 0,26.45833 -26.45833,26.45833 -26.458336,0 -26.458336,0 -26.458336,-26.45833 z m 30.366006,15.74068 c 17.25071,-4.0672 15.35908,-31.49245 -2.18788,-31.72047 -3.094,-0.0402 -3.39298,6.05579 -0.32478,6.62206 10.79317,1.99201 10.92227,16.91064 0.16133,18.64364 -2.20766,0.35553 -2.08551,0.14949 -2.08551,3.5179 0,3.73768 0.27322,3.91853 4.43684,2.93687 z m -0.70199,-8.17251 c 3.93579,-1.78494 5.66092,-5.34166 4.74076,-9.77405 -1.20535,-5.80613 -9.55261,-8.01217 -13.764694,-3.63777 -6.096127,6.33105 1.089254,17.01033 9.023934,13.41182 z"
           id="path6" />
        <path
           style="fill:#1a232b"
           d="m 78.592194,148.35708 c 0,-26.45834 0,-26.45834 26.458336,-26.45834 26.45833,0 26.45833,0 26.45833,26.45834 0,26.45833 0,26.45833 -26.45833,26.45833 -26.458336,0 -26.458336,0 -26.458336,-26.45833 z m 30.366006,15.74068 c 17.25071,-4.0672 15.35908,-31.49245 -2.18788,-31.72047 -3.094,-0.0402 -3.39298,6.05579 -0.32478,6.62206 10.79317,1.99201 10.92227,16.91064 0.16133,18.64364 -2.20766,0.35553 -2.08551,0.14949 -2.08551,3.5179 0,3.73768 0.27322,3.91853 4.43684,2.93687 z m -1.26184,-7.82578 c 0.65484,-0.15084 1.42875,-0.49629 1.71979,-0.76767 0.29104,-0.27138 0.84958,-0.57293 1.24119,-0.6701 0.49826,-0.12363 0.76092,-0.39931 0.87489,-0.91822 0.0896,-0.40785 0.37896,-0.9371 0.64307,-1.17611 5.81402,-5.26162 -4.69744,-16.021 -11.36074,-11.6287 -8.349044,5.50351 -2.938618,17.42282 6.8818,15.1608 z"
           id="path5" />
        <path
           style="fill:#1a1b33"
           d="m 78.592194,148.35708 c 0,-26.45834 0,-26.45834 26.458336,-26.45834 26.45833,0 26.45833,0 26.45833,26.45834 0,26.45833 0,26.45833 -26.45833,26.45833 -26.458336,0 -26.458336,0 -26.458336,-26.45833 z m 28.921196,16.11484 c 18.17809,-2.76404 18.38535,-29.12158 0.25295,-32.16802 -3.39807,-0.57092 -3.24498,-0.72092 -3.24498,3.17951 0,3.58891 0.0155,3.61325 2.2987,3.61325 10.48774,0 9.72596,16.88037 -0.84349,18.69107 -1.32292,0.22664 -1.32292,0.22664 -1.3982,3.25317 -0.10371,4.16994 -0.31329,3.92494 2.93502,3.43102 z m 0.18297,-8.19994 c 0.65484,-0.15084 1.42875,-0.49629 1.71979,-0.76767 0.29104,-0.27138 0.84958,-0.57293 1.24119,-0.6701 0.49826,-0.12363 0.76092,-0.39931 0.87489,-0.91822 0.0896,-0.40785 0.37896,-0.9371 0.64307,-1.17611 5.81402,-5.26162 -4.69744,-16.021 -11.36074,-11.6287 -8.349044,5.50351 -2.938618,17.42282 6.8818,15.1608 z"
           id="path4" />
        <path
           style="fill:#151d32"
           d="m 78.592194,148.35708 c 0,-26.45834 0,-26.45834 26.458336,-26.45834 26.45833,0 26.45833,0 26.45833,26.45834 0,26.45833 0,26.45833 -26.45833,26.45833 -26.458336,0 -26.458336,0 -26.458336,-26.45833 z m 28.921196,16.11484 c 18.17809,-2.76404 18.38535,-29.12158 0.25295,-32.16802 -3.39807,-0.57092 -3.24498,-0.72092 -3.24498,3.17951 0,3.58891 0.0155,3.61325 2.2987,3.61325 10.48774,0 9.72596,16.88037 -0.84349,18.69107 -1.32292,0.22664 -1.32292,0.22664 -1.3982,3.25317 -0.10371,4.16994 -0.31329,3.92494 2.93502,3.43102 z m 0.18174,-8.15655 c 0.89837,-0.27961 1.83171,-0.68403 2.07409,-0.89873 0.24238,-0.21469 0.66912,-0.43241 0.94833,-0.48381 0.54092,-0.0996 1.69192,-2.0961 2.39068,-4.14686 0.58752,-1.72428 0.52374,-4.42676 -0.1354,-5.73619 -1.07008,-2.12581 -1.33645,-2.48813 -2.23958,-3.0463 -0.50612,-0.3128 -0.92022,-0.667 -0.92022,-0.78711 0,-1.37414 -7.53111,-1.53623 -9.08557,-0.19554 -0.37583,0.32416 -0.992361,0.8275 -1.370061,1.11854 -3.847064,2.9644 -3.631984,9.52501 0.415303,12.66802 2.540738,1.97305 4.952908,2.4322 7.922428,1.50798 z"
           id="path3" />
        <path
           style="fill:#181d2b"
           d="m 78.592194,148.35708 c 0,-26.45834 0,-26.45834 26.458336,-26.45834 26.45833,0 26.45833,0 26.45833,26.45834 0,26.45833 0,26.45833 -26.45833,26.45833 -26.458336,0 -26.458336,0 -26.458336,-26.45833 z m 28.921196,16.11484 c 18.17809,-2.76404 18.38535,-29.12158 0.25295,-32.16802 -3.3994,-0.57114 -3.24498,-0.72325 -3.24498,3.19637 0,3.29938 0,3.29938 1.25677,3.45883 1.71999,0.21822 3.13356,0.66423 3.70763,1.16983 0.26412,0.23262 0.65417,0.46208 0.86677,0.50992 0.47302,0.10644 1.31258,0.83859 1.31258,1.14465 0,0.47791 -1.11446,0.19028 -1.69662,-0.43788 -0.33716,-0.3638 -0.78943,-0.66146 -1.00505,-0.66146 -0.21562,0 -0.78349,-0.19529 -1.26195,-0.43397 -1.20405,-0.60066 -5.24786,-0.33245 -6.54734,0.43426 -0.493,0.29088 -1.207611,0.52888 -1.588017,0.52888 -0.909746,0 -1.659537,0.70627 -1.658621,1.56236 4.04e-4,0.37763 -0.228562,1.16284 -0.508813,1.74493 -1.968545,4.08867 -0.584037,8.94244 3.148041,11.03634 0.80359,0.45085 1.64784,0.97876 1.8761,1.17312 0.33176,0.28249 0.86253,0.29889 2.64583,0.0817 3.94214,-0.48002 4.16823,-0.53846 4.59325,-1.18712 0.22227,-0.33923 0.72727,-0.6547 1.12222,-0.70105 0.55669,-0.0653 0.76715,-0.2749 0.93632,-0.93232 0.12002,-0.46642 0.43795,-1.0022 0.7065,-1.19063 0.5257,-0.36884 0.71702,-1.20663 1.07403,-4.70325 0.24596,-2.40908 0.0679,-3.04187 -1.36004,-4.83432 -0.68645,-0.86165 -0.3349,-1.59599 0.38264,-0.79928 4.50752,5.00483 0.59261,14.97729 -5.95925,15.18002 -2.14321,0.0663 -2.11229,0.0133 -2.06021,3.53229 0.0603,4.078 -0.20732,3.78485 3.00926,3.29576 z"
           id="path2" />
        <path
           style="fill:#152029"
           d="m 78.592194,148.35708 c 0,-26.45834 0,-26.45834 26.458336,-26.45834 26.45833,0 26.45833,0 26.45833,26.45834 0,26.45833 0,26.45833 -26.45833,26.45833 -26.458336,0 -26.458336,0 -26.458336,-26.45833 z m 28.921196,16.11484 c 18.18629,-2.76529 18.39353,-29.12021 0.25295,-32.16802 -3.39807,-0.57092 -3.24498,-0.72092 -3.24498,3.17951 0,3.58587 0.0173,3.61325 2.28492,3.61325 0.82474,0 3.10209,1.0733 2.82449,1.33116 -0.11804,0.10964 -1.20847,-0.0474 -2.42317,-0.34894 -1.92966,-0.47905 -2.39944,-0.50887 -3.7201,-0.23609 -0.83134,0.17171 -1.7834,0.3122 -2.11569,0.3122 -0.38164,0 -0.65512,0.1949 -0.74254,0.52917 -0.10028,0.38348 -0.36089,0.52917 -0.94658,0.52917 -1.050323,0 -1.775913,0.67678 -1.775913,1.65646 0,0.44672 -0.282961,1.11697 -0.661458,1.56679 -0.428962,0.50979 -0.661458,1.11057 -0.661458,1.70923 0,0.50773 -0.126877,1.16021 -0.281948,1.44996 -0.214065,0.39999 -0.146657,0.98504 0.279975,2.43 1.020988,3.45799 1.532738,4.12124 4.734872,6.13652 0.23122,0.14552 0.69796,0.46684 1.03719,0.71404 0.46692,0.34025 0.77723,0.38846 1.27704,0.19844 0.36313,-0.13807 1.21803,-0.25628 1.89978,-0.2627 1.55431,-0.0147 3.56401,-0.53414 4.19668,-1.08482 0.26535,-0.23096 0.79023,-0.4928 1.1664,-0.58185 0.51626,-0.12221 0.76316,-0.42627 1.007,-1.24015 0.17768,-0.59303 0.49498,-1.14421 0.70511,-1.22484 0.21014,-0.0806 0.38207,-0.42378 0.38207,-0.76254 0,-0.33876 0.13249,-0.9511 0.29442,-1.36076 0.77618,-1.96362 0.56277,-4.87643 -0.46703,-6.37425 -0.9283,-1.35021 -1.02267,-1.85731 -0.29355,-1.57752 5.25644,2.01708 0.21863,15.00124 -5.82524,15.01363 -1.01648,0.002 -2.70444,0.50434 -2.70444,0.80471 0,0.13868 0.11907,0.25215 0.26459,0.25215 0.1601,0 0.26458,1.13183 0.26458,2.86632 0,3.6251 -0.21249,3.41703 2.99203,2.92977 z"
           id="path1" />
      </g>
    </g>
  </g>
</svg>
