<?xml version="1.0" encoding="UTF-8" standalone="no"?>
<svg
   width="512"
   height="512"
   version="1.1"
   id="svg22"
   sodipodi:docname="korora.svg"
   inkscape:version="1.1.1 (3bf5ae0d25, 2021-09-20)"
   xmlns:inkscape="http://www.inkscape.org/namespaces/inkscape"
   xmlns:sodipodi="http://sodipodi.sourceforge.net/DTD/sodipodi-0.dtd"
   xmlns="http://www.w3.org/2000/svg"
   xmlns:svg="http://www.w3.org/2000/svg">
  <defs
     id="defs26" />
  <sodipodi:namedview
     id="namedview24"
     pagecolor="#ffffff"
     bordercolor="#666666"
     borderopacity="1.0"
     inkscape:pageshadow="2"
     inkscape:pageopacity="0.0"
     inkscape:pagecheckerboard="0"
     showgrid="false"
     inkscape:zoom="1.7050781"
     inkscape:cx="251.30813"
     inkscape:cy="256"
     inkscape:window-width="3440"
     inkscape:window-height="1417"
     inkscape:window-x="0"
     inkscape:window-y="0"
     inkscape:window-maximized="1"
     inkscape:current-layer="svg22" />
  <path
     style="opacity:0.2;stroke-width:8.77193"
     d="m 327.50247,16.396142 c -96.89473,0 -175.43859,78.54386 -175.43859,175.438598 0,96.89474 78.54386,175.43859 175.43859,175.43859 96.89474,0 175.4386,-78.54385 175.4386,-175.43859 V 43.220702 c 0,-14.91228 -11.91229,-26.82456 -26.82457,-26.82456 z"
     id="path2" />
  <path
     style="fill:#666666;stroke-width:8.77193"
     d="m 327.50247,7.6242125 c -96.89473,0 -175.43859,78.5438595 -175.43859,175.4385975 0,96.89474 78.54386,175.43859 175.43859,175.43859 96.89474,0 175.4386,-78.54385 175.4386,-175.43859 V 34.448772 c 0,-14.91228 -11.91229,-26.8245595 -26.82457,-26.8245595 z"
     id="path4" />
  <path
     style="opacity:0.2;stroke-width:8.77193"
     d="m 327.50247,314.64176 c 68.07017,0 122.80702,-54.73685 122.80702,-122.80702 V 69.027722 H 327.50247 c -68.07017,0 -122.80702,54.736838 -122.80702,122.807018 0,68.07017 54.73685,122.80702 122.80702,122.80702 z"
     id="path6" />
  <path
     style="fill:#ececec;stroke-width:8.77193"
     d="m 327.50247,305.86983 c 68.07017,0 122.80702,-54.73685 122.80702,-122.80702 V 60.255792 H 327.50247 c -68.07017,0 -122.80702,54.736838 -122.80702,122.807018 0,68.07017 54.73685,122.80702 122.80702,122.80702 z"
     id="path8" />
  <path
     style="opacity:0.2;stroke-width:8.77193"
     d="m 187.15159,156.74702 c -96.894737,0 -175.438597,78.54386 -175.438597,175.43859 V 480.7821 c 0,14.91229 11.98071,26.84211 26.8579,26.84211 H 187.15159 c 96.89474,0 175.4386,-78.54386 175.4386,-175.4386 0,-96.89473 -78.54386,-175.43859 -175.4386,-175.43859 z"
     id="path10" />
  <path
     style="opacity:0.1;fill:#ffffff;stroke-width:8.77193"
     d="m 327.50247,7.6242125 c -96.89473,0 -175.43859,78.5438595 -175.43859,175.4385975 0,1.47368 0.0702,2.92105 0.10526,4.38596 2.33333,-94.859648 79.91228,-171.052628 175.33333,-171.052628 h 148.60526 c 14.91228,0 26.83334,11.91754 26.83334,26.82982 v -8.77193 c 0,-14.91228 -11.92106,-26.8298195 -26.83334,-26.8298195 z"
     id="path12" />
  <path
     style="fill:#808080;stroke-width:8.77193"
     d="m 187.15159,147.97509 c -96.894737,0 -175.438597,78.54386 -175.438597,175.4386 v 148.59648 c 0,14.91229 11.98071,26.84211 26.8579,26.84211 H 187.15159 c 96.89474,0 175.4386,-78.54386 175.4386,-175.43859 0,-96.89474 -78.54386,-175.4386 -175.4386,-175.4386 z"
     id="path14" />
  <path
     style="opacity:0.2;stroke-width:8.77193"
     d="m 187.15159,209.3786 c -68.07017,0 -122.807017,54.73684 -122.807017,122.80701 V 454.99263 H 187.15159 c 68.07018,0 122.80702,-54.73684 122.80702,-122.80702 0,-68.07017 -54.73684,-122.80701 -122.80702,-122.80701 z"
     id="path16" />
  <path
     style="fill:#ffffff;stroke-width:8.77193"
     d="m 187.15159,200.60667 c -68.07017,0 -122.807017,54.73684 -122.807017,122.80702 V 446.2207 H 187.15159 c 68.07018,0 122.80702,-54.73684 122.80702,-122.80701 0,-68.07018 -54.73684,-122.80702 -122.80702,-122.80702 z"
     id="path18" />
  <path
     style="opacity:0.2;fill:#ffffff;stroke-width:8.77193"
     d="m 187.15159,147.97509 c -96.894737,0 -175.438597,78.54386 -175.438597,175.4386 v 8.77192 c 0,-96.89473 78.54386,-175.43859 175.438597,-175.43859 95.42106,0 173,76.19298 175.33333,171.05263 0.0351,-1.46491 0.10527,-2.91228 0.10527,-4.38596 0,-96.89474 -78.54386,-175.4386 -175.4386,-175.4386 z"
     id="path20" />
</svg>
