<?xml version="1.0" encoding="UTF-8" standalone="no"?>
<svg
   width="512"
   height="512"
   version="1"
   id="svg18"
   sodipodi:docname="linux-lite.svg"
   inkscape:version="1.1.1 (3bf5ae0d25, 2021-09-20)"
   xmlns:inkscape="http://www.inkscape.org/namespaces/inkscape"
   xmlns:sodipodi="http://sodipodi.sourceforge.net/DTD/sodipodi-0.dtd"
   xmlns="http://www.w3.org/2000/svg"
   xmlns:svg="http://www.w3.org/2000/svg">
  <defs
     id="defs22" />
  <sodipodi:namedview
     id="namedview20"
     pagecolor="#ffffff"
     bordercolor="#666666"
     borderopacity="1.0"
     inkscape:pageshadow="2"
     inkscape:pageopacity="0.0"
     inkscape:pagecheckerboard="0"
     showgrid="false"
     inkscape:zoom="1.7050781"
     inkscape:cx="251.30813"
     inkscape:cy="256"
     inkscape:window-width="3440"
     inkscape:window-height="1417"
     inkscape:window-x="0"
     inkscape:window-y="0"
     inkscape:window-maximized="1"
     inkscape:current-layer="svg18" />
  <rect
     x="10.787246"
     y="17.742413"
     width="491.22806"
     height="491.22806"
     rx="24.561403"
     ry="24.561403"
     style="opacity:0.2;stroke-width:8.77193"
     id="rect2" />
  <rect
     x="10.787246"
     y="8.9704857"
     width="491.22806"
     height="491.22806"
     rx="24.561403"
     ry="24.561403"
     style="fill:#4f4f4f;stroke-width:8.77193"
     id="rect4" />
  <path
     d="m 35.355494,8.9704861 c -13.60702,0 -24.56826,10.9612399 -24.56826,24.5682599 v 8.77193 c 0,-13.60702 10.96124,-24.56826 24.56826,-24.56826 H 477.44705 c 13.60702,0 24.56826,10.96124 24.56826,24.56826 v -8.77193 c 0,-13.60702 -10.96124,-24.5682599 -24.56826,-24.5682599 z"
     style="opacity:0.1;fill:#ffffff;stroke-width:8.77193"
     id="path6" />
  <path
     d="m 299.21341,52.830126 c -30.49566,18.43699 -61.82084,35.59464 -91.64191,55.090464 -10.941,52.2759 -21.5421,104.62848 -31.78898,157.04467 11.49991,14.59995 24.11293,28.28635 36.02351,42.55002 -11.6343,-3.71221 -26.24935,-12.08248 -39.08897,-17.26367 10.1075,37.3309 20.68006,74.55134 31.70511,111.62165 14.74128,-1.26789 29.37046,-3.62405 44.10698,-4.94028 -10.57882,10.89858 -22.00089,20.94909 -32.64251,31.7859 18.60344,-7.74095 36.9006,-16.19893 55.44139,-24.08879 3.56219,5.83573 -7.00051,26.73296 -8.42365,38.06996 8.12739,-13.16237 15.869,-26.56695 23.59239,-39.97096 l 7.1168,-3.34714 c 0,0 -2.08407,-2.08837 0,0 16.16349,2.54959 32.29124,5.62736 48.44156,8.0627 -14.53393,-7.13455 -29.30963,-13.76684 -43.84377,-20.90097 14.53446,-6.02526 30.02077,-10.59747 44.86738,-16.21312 -14.60136,-0.13684 -29.20355,0.26298 -43.80527,0.0965 2.35886,-5.20874 19.98582,-14.3977 27.6214,-21.51514 -10.6651,-12.38775 -22.68191,-23.5498 -33.42446,-35.87035 18.57944,-60.84349 38.076,-121.40512 57.15612,-182.094 -17.11091,-26.0556 -33.82689,-52.382254 -51.41312,-78.118144 z"
     style="opacity:0.2;stroke-width:8.77193"
     id="path8" />
  <path
     d="m 299.21341,44.058196 c -30.49566,18.43699 -61.82084,35.59464 -91.64191,55.09046 -10.941,52.275904 -21.5421,104.628484 -31.78898,157.044674 11.49991,14.59995 24.11293,28.28635 36.02351,42.55002 -11.6343,-3.71221 -26.24935,-12.08248 -39.08897,-17.26367 10.1075,37.33089 20.68006,74.55134 31.70511,111.62165 14.74128,-1.26789 29.37046,-3.62405 44.10698,-4.94028 -10.57882,10.89858 -22.00089,20.94909 -32.64251,31.7859 18.60344,-7.74095 36.9006,-16.19893 55.44139,-24.08879 3.56219,5.83573 -7.00051,26.73296 -8.42365,38.06996 8.12739,-13.16237 15.869,-26.56695 23.59239,-39.97096 l 7.1168,-3.34714 c 0,0 -2.08407,-2.08837 0,0 16.16349,2.54959 32.29124,5.62736 48.44156,8.0627 -14.53393,-7.13455 -29.30963,-13.76684 -43.84377,-20.90097 14.53446,-6.02526 30.02077,-10.59747 44.86738,-16.21312 -14.60136,-0.13684 -29.20355,0.26298 -43.80527,0.0965 2.35886,-5.20874 19.98582,-14.3977 27.6214,-21.51514 -10.6651,-12.38775 -22.68191,-23.5498 -33.42446,-35.87035 18.57944,-60.84349 38.076,-121.40512 57.15612,-182.094 C 333.51562,96.120036 316.79964,69.793386 299.21341,44.057496 Z"
     style="fill:#ffc107;stroke-width:8.77193"
     id="path10" />
  <path
     d="m 284.40371,105.32752 c -25.69363,69.07197 -41.92228,152.54862 -45.86635,229.71511 -0.9293,10.75239 -0.66719,8.5737 6.34763,17.01623 34.81639,41.90902 69.55878,86.24895 104.56789,121.82391 l -0.0114,-2.45712 c -33.46659,-45.8877 -66.93315,-84.57514 -100.39971,-125.3787 -2.92778,-3.51453 -3.72578,-3.5642 -3.4816,-7.82246 4.44217,-77.346 21.84161,-162.98642 38.84354,-232.89697 z"
     style="opacity:0.2;stroke-width:8.77193"
     id="path12" />
  <path
     d="M 284.40371,96.555586 C 258.71008,165.62756 242.48143,249.10421 238.53736,326.2707 c -0.9293,10.75239 -0.66719,8.5737 6.34763,17.01623 34.81639,41.90902 69.55878,86.24895 104.56789,121.82391 l -0.0114,-2.45712 c -33.46659,-45.8877 -66.93315,-84.57514 -100.39971,-125.3787 -2.92778,-3.51453 -3.72578,-3.5642 -3.4816,-7.82246 4.44217,-77.346 21.84161,-162.98642 38.84354,-232.896974 z"
     style="fill:#ffffff;stroke-width:8.77193"
     id="path14" />
  <path
     d="m 299.1987,44.058206 c -30.49567,18.43699 -61.80448,35.60287 -91.62555,55.09868 -10.941,52.275914 -21.55137,104.621914 -31.79824,157.038114 0.45421,0.57666 0.93036,1.13573 1.40487,1.69613 9.81672,-50.05019 19.94498,-100.04006 30.39337,-149.96231 29.82107,-19.495814 61.12988,-36.661694 91.62555,-55.098684 16.94662,24.79989 33.10101,50.154654 49.56482,75.280974 0.62018,-1.97664 1.2461,-3.9515 1.86747,-5.9279 C 333.52008,96.127606 316.78492,69.794096 299.1987,44.058206 Z M 172.72529,281.48282 c 0.91381,3.37506 1.89127,6.73218 2.86115,10.09115 4.11603,1.78896 8.3143,3.73874 12.55826,5.77371 4.12279,4.8386 8.24164,9.68597 12.38692,14.51138 3.92389,1.72423 7.76545,3.31263 11.29044,4.43736 -7.78451,-9.32244 -15.79961,-18.47518 -23.67736,-27.72067 -5.21136,-2.49882 -10.46359,-5.09309 -15.41941,-7.09293 z m 124.86293,27.20669 c -1.34789,4.38174 -2.77296,8.73914 -4.11184,13.12363 0.66465,0.76228 1.36675,1.48896 2.03879,2.24438 0.69588,-2.19715 1.3954,-4.39317 2.07305,-6.59608 8.1252,8.90315 16.60579,17.47986 24.68819,26.41859 1.73807,-1.28284 3.32428,-2.53767 4.60868,-3.73493 -9.35166,-10.86215 -19.637,-20.87083 -29.29687,-31.45559 z m 45.50438,52.87144 c -7.07804,-0.0667 -14.16621,-0.0272 -21.2445,0.0342 -6.9552,5.14305 -15.64,10.57775 -19.9767,14.80263 13.47244,-5.32558 27.59615,-9.68328 41.2212,-14.83691 z m -43.2086,16.99561 c -0.1228,0.19737 -0.53184,0.46368 -0.61675,0.65105 0.6507,0.007 1.30244,-0.005 1.95312,0 -0.44561,-0.21631 -0.89126,-0.43386 -1.33635,-0.65105 z m 19.05154,9.08032 c -4.52821,1.56615 -8.95098,3.28185 -13.39776,4.96848 12.1746,2.06459 24.35162,4.22903 36.52687,6.06496 -7.66579,-3.76305 -15.39973,-7.40249 -23.12911,-11.03344 z m -70.4153,18.05784 c -6.78957,0.60649 -13.55388,1.42174 -20.31935,2.26152 -4.14816,3.95084 -8.28802,7.90601 -12.30126,11.99286 10.90037,-4.53565 21.68286,-9.34782 32.48356,-14.11731 z m 22.82073,7.70971 c -0.99772,0.42456 -1.98465,0.87438 -2.98109,1.30208 -2.25088,6.83702 -4.79647,14.03109 -5.44818,19.22286 1.57062,-2.54364 3.05083,-5.14333 4.55729,-7.72684 0.30517,-0.91811 0.59096,-1.81308 0.89089,-2.72409 0.32667,-0.14018 0.65123,-0.285 0.97656,-0.42834 0.83088,-1.42737 1.67671,-2.84545 2.51851,-4.26603 0.25509,-2.2457 0.21535,-4.18504 -0.51395,-5.37966 z"
     style="opacity:0.2;fill:#ffffff;stroke-width:8.77193"
     id="path16" />
</svg>
