<?xml version="1.0" encoding="UTF-8" standalone="no"?>
<svg
   width="512"
   height="512"
   version="1.1"
   id="svg12"
   sodipodi:docname="lmde.svg"
   inkscape:version="1.1.1 (3bf5ae0d25, 2021-09-20)"
   xmlns:inkscape="http://www.inkscape.org/namespaces/inkscape"
   xmlns:sodipodi="http://sodipodi.sourceforge.net/DTD/sodipodi-0.dtd"
   xmlns="http://www.w3.org/2000/svg"
   xmlns:svg="http://www.w3.org/2000/svg">
  <defs
     id="defs16" />
  <sodipodi:namedview
     id="namedview14"
     pagecolor="#ffffff"
     bordercolor="#666666"
     borderopacity="1.0"
     inkscape:pageshadow="2"
     inkscape:pageopacity="0.0"
     inkscape:pagecheckerboard="0"
     showgrid="false"
     inkscape:zoom="1.7050781"
     inkscape:cx="251.30813"
     inkscape:cy="256"
     inkscape:window-width="3440"
     inkscape:window-height="1417"
     inkscape:window-x="0"
     inkscape:window-y="0"
     inkscape:window-maximized="1"
     inkscape:current-layer="svg12" />
  <circle
     style="opacity:0.2;stroke-width:8.77193"
     cx="255.62099"
     cy="263.44467"
     r="245.61403"
     id="circle2" />
  <circle
     style="fill:#86be43;stroke-width:8.77193"
     cx="255.62099"
     cy="254.67274"
     r="245.61403"
     id="circle4" />
  <path
     style="opacity:0.2;stroke-width:8.77193"
     d="m 97.725311,114.32187 v 208.02494 c 0,49.56302 40.657649,90.22067 90.220669,90.22067 h 135.34814 c 48.71912,0 88.8686,-39.30714 90.22067,-87.7193 V 211.84462 c 0.003,-0.34263 0.003,-0.68527 0,-1.0279 0,-38.75682 -31.41862,-70.17544 -70.17544,-70.17544 -0.35404,-0.003 -0.70825,-0.003 -1.06228,0 -15.58214,0.24509 -30.63942,5.67003 -42.79737,15.41934 -12.44319,-9.974 -27.91244,-15.41241 -43.85965,-15.41941 -0.35403,-0.003 -0.70816,-0.003 -1.06223,0 -38.34136,0.58044 -69.11759,31.82969 -69.11321,70.17544 v 114.03153 h 52.63158 v -37.34923 -76.6823 c 0,-9.68921 7.85465,-17.54386 17.54386,-17.54386 9.68921,0 17.54386,7.85465 17.54386,17.54386 v 76.71656 37.31497 h 52.63158 v -37.34923 -75.65433 c 0.003,-0.34263 0.003,-0.68527 0,-1.0279 0,-9.68921 7.85465,-17.54386 17.54386,-17.54386 9.68921,0 17.54386,7.85465 17.54386,17.54386 v 76.71649 28.54304 c 0,26.31579 -17.54386,43.85965 -46.36102,43.85965 h -119.5518 c -27.06964,0 -44.6135,-17.54386 -44.6135,-43.85965 V 114.32187 Z"
     id="path6" />
  <path
     style="fill:#ffffff;stroke-width:8.77193"
     d="m 97.725311,105.54994 v 208.02494 c 0,49.56302 40.657649,90.22067 90.220669,90.22067 h 135.34814 c 48.71912,0 88.8686,-39.30714 90.22067,-87.7193 V 203.07269 c 0.003,-0.34263 0.003,-0.68527 0,-1.0279 0,-38.75682 -31.41862,-70.17544 -70.17544,-70.17544 -0.35404,-0.003 -0.70825,-0.003 -1.06228,0 -15.58214,0.24509 -30.63942,5.67003 -42.79737,15.41934 -12.44319,-9.974 -27.91244,-15.41241 -43.85965,-15.41941 -0.35403,-0.003 -0.70816,-0.003 -1.06223,0 -38.34136,0.58044 -69.11759,31.82969 -69.11321,70.17544 v 114.03153 h 52.63158 v -37.34923 -76.6823 c 0,-9.68921 7.85465,-17.54386 17.54386,-17.54386 9.68921,0 17.54386,7.85465 17.54386,17.54386 v 76.71656 37.31497 h 52.63158 v -37.34923 -75.65433 c 0.003,-0.34263 0.003,-0.68527 0,-1.0279 0,-9.68921 7.85465,-17.54386 17.54386,-17.54386 9.68921,0 17.54386,7.85465 17.54386,17.54386 v 76.71649 28.54304 c 0,26.31579 -17.54386,43.85965 -46.36102,43.85965 h -119.5518 c -27.06964,0 -44.6135,-17.54386 -44.6135,-43.85965 V 105.54994 Z"
     id="path8" />
  <path
     style="opacity:0.2;fill:#ffffff;stroke-width:8.77193"
     d="M 255.62099,9.0587056 A 245.61404,245.61404 0 0 0 10.006951,254.67274 a 245.61404,245.61404 0 0 0 0.0514,4.3003 A 245.61404,245.61404 0 0 1 255.62099,17.830636 245.61404,245.61404 0 0 1 501.18363,258.95591 245.61404,245.61404 0 0 0 501.23503,254.67274 245.61404,245.61404 0 0 0 255.62099,9.0587056 Z"
     id="path10" />
</svg>
