<?xml version="1.0" encoding="UTF-8" standalone="no"?>
<svg
   width="512"
   height="512"
   version="1.1"
   id="svg12"
   sodipodi:docname="lxle.svg"
   inkscape:version="1.1.1 (3bf5ae0d25, 2021-09-20)"
   xmlns:inkscape="http://www.inkscape.org/namespaces/inkscape"
   xmlns:sodipodi="http://sodipodi.sourceforge.net/DTD/sodipodi-0.dtd"
   xmlns="http://www.w3.org/2000/svg"
   xmlns:svg="http://www.w3.org/2000/svg">
  <defs
     id="defs16" />
  <sodipodi:namedview
     id="namedview14"
     pagecolor="#ffffff"
     bordercolor="#666666"
     borderopacity="1.0"
     inkscape:pageshadow="2"
     inkscape:pageopacity="0.0"
     inkscape:pagecheckerboard="0"
     showgrid="false"
     inkscape:zoom="1.7050781"
     inkscape:cx="251.30813"
     inkscape:cy="256"
     inkscape:window-width="3440"
     inkscape:window-height="1417"
     inkscape:window-x="0"
     inkscape:window-y="0"
     inkscape:window-maximized="1"
     inkscape:current-layer="svg12" />
  <rect
     style="opacity:0.2;stroke-width:8.77193"
     rx="24.561403"
     ry="24.561403"
     height="491.22806"
     width="491.22806"
     y="16.116428"
     x="11.461591"
     id="rect2" />
  <rect
     style="fill:#4f4f4f;stroke-width:8.77193"
     rx="24.561403"
     ry="24.561403"
     height="491.22806"
     width="491.22806"
     y="7.3445015"
     x="11.461591"
     id="rect4" />
  <path
     style="opacity:0.1;fill:#ffffff;stroke-width:8.77193"
     d="m 36.030022,7.3445017 c -13.60702,0 -24.56843,10.9614003 -24.56843,24.5684203 v 8.77193 c 0,-13.60702 10.96141,-24.56842 24.56843,-24.56842 H 478.11949 c 13.60526,0 24.57017,10.9614 24.57017,24.56842 v -8.77193 c 0,-13.60702 -10.96491,-24.5684203 -24.57017,-24.5684203 z"
     id="path6" />
  <path
     style="opacity:0.2;stroke-width:8.77193"
     d="M 62.345802,68.748012 V 454.71292 H 106.20545 V 68.748012 Z m 114.035088,0 v 43.859648 l 201.75439,114.03509 v 26.31579 h 70.17544 V 209.09889 L 246.55633,103.83573 V 68.748012 Z m 201.75439,0 v 35.087718 l -40.57018,21.15885 46.1897,24.10568 64.55592,-36.4926 V 68.748012 Z m -145.26796,110.882678 -56.48643,29.4682 v 43.85965 h 70.17544 V 226.64275 L 281.3014,207.0087 Z m -12.62678,90.87171 c -24.29824,0 -43.85965,19.5614 -43.85965,43.85965 v 96.49122 c 0,24.29825 19.56141,43.85965 43.85965,43.85965 H 448.31072 V 402.08134 H 237.7844 c -9.7193,0 -17.54386,-7.82456 -17.54386,-17.54386 V 331.9059 c 0,-9.71929 7.82456,-17.54385 17.54386,-17.54385 h 122.80702 l -87.7193,61.4035 h 78.94737 l 96.49123,-61.4035 c 0,-24.29825 -19.56141,-43.85965 -43.85965,-43.85965 z"
     id="path8" />
  <path
     style="fill:#ffffff;stroke-width:8.77193"
     d="M 62.345802,59.976082 V 445.94099 H 106.20545 V 59.976082 Z m 114.035088,0 v 43.859648 l 201.75439,114.03509 v 26.31579 h 70.17544 V 200.32696 L 246.55633,95.063802 v -35.08772 z m 201.75439,0 v 35.08772 l -40.57018,21.158848 46.1897,24.10568 64.55592,-36.4926 V 59.976082 Z m -145.26796,110.882678 -56.48643,29.4682 v 43.85965 h 70.17544 v -26.31579 l 34.74507,-19.63405 z m -12.62678,90.87171 c -24.29824,0 -43.85965,19.5614 -43.85965,43.85965 v 96.49122 c 0,24.29825 19.56141,43.85965 43.85965,43.85965 h 175.4386 8.77193 43.85965 v -43.85965 -8.77193 H 395.67914 237.7844 c -9.7193,0 -17.54386,-7.82456 -17.54386,-17.54386 v -52.63157 c 0,-9.7193 7.82456,-17.54386 17.54386,-17.54386 h 122.80702 l -87.7193,61.4035 h 78.94737 l 96.49123,-61.4035 c 0,-24.29825 -19.56141,-43.85965 -43.85965,-43.85965 z"
     id="path10" />
</svg>
