<?xml version="1.0" encoding="UTF-8" standalone="no"?>
<!-- Created with Inkscape (http://www.inkscape.org/) -->

<svg
   width="1249.9999"
   height="1304.72"
   version="1.1"
   viewBox="0 0 1249.9999 1304.72"
   id="svg2"
   xmlns="http://www.w3.org/2000/svg"
   xmlns:svg="http://www.w3.org/2000/svg">
  <defs
     id="defs2" />
  <g
     transform="translate(-41.584001,-39.849999)"
     id="g2">
    <path
       id="path1"
       style="display:inline;fill:#ffffff"
       fill-opacity="0.8"
       d="M 667.56038,51.890344 86.470538,240.91964 659.91976,501.22042 1252.5897,243.62081 Z M 453.78499,185.0505 l 426.41992,8.96289 18.25781,174.98047 -474.19335,-0.48438 z m 12.08594,12.4082 -22.95117,159.86914 438.91015,0.56055 -16.75976,-153.29883 z m 21.08008,11.27344 358.64062,4.83789 13.08203,132.39063 -105.23047,-0.0586 -3.79882,-99.65429 -31.41407,-0.42969 2.53711,99.58594 -105.36719,-0.0234 4.23243,-99.34961 -30.31836,0.23633 -9.19336,99.29687 -113.02149,0.0371 z M 57.189287,270.09933 c 0,0 43.103293,463.12109 65.154293,694.62109 175.89,115.16998 351.35118,231.04968 526.95118,346.67968 L 640.57015,536.98019 C 637.32795,534.21339 57.869287,269.12933 57.189287,270.09933 Z M 1272.994,275.88058 c 0,-0.0294 -588.80081,263.03906 -588.80081,263.03906 0,0 -2.27813,771.42046 0.44532,772.48046 L 1208.3807,966.97042 Z m -1179.816431,63.95508 503.759761,235.5 c 0,0 4.75994,663.97004 4.05664,663.58004 L 466.10921,1150.74 c 0,0 -12.32017,-302.84942 -17.32617,-453.85942 l -39.1543,-17.64453 13.86719,443.03905 c -1.8417,-0.5414 -123.63086,-79.8926 -123.63086,-79.8926 L 271.75374,614.74191 240.2596,599.90206 264.22249,1014.9118 c 0.13363,2.314 -112.08039,-69.49869 -112.15039,-70.13669 z m 1141.712931,3.33398 c 0,0 -33.2655,401.95125 -51.1875,602.78125 -39.452,21.937 -116.5,70.80271 -116.5,70.80271 l 24.6992,-426.73044 -33.2813,17.20898 c 0,0 -18.4936,291.63133 -28.5566,437.36136 l -125.26954,76.0078 14.89453,-440.76955 -38.65821,20.07617 -17.68945,451.67968 -140.31055,87.832 c -1.6774,-139.65 9.00196,-663.87105 9.00196,-663.87105 l -0.004,-0.008 z" />
    <rect
       x="-7.4903998"
       y="-11.012"
       width="1350"
       height="1404.5"
       fill="none"
       id="rect2"
       style="display:inline" />
    <path
       d="M 113.61,974.19 C 96.839,818.54 94.397,795.35 41.584,246.13 l 626.71,-206.28 623.29,202.78 -69.336,733.18 -557.89,368.76 z M 640.57,536.98 C 637.3278,534.2132 57.87,269.13 57.19,270.1 c 0,0 43.103,463.12 65.154,694.62 175.89,115.17 351.35,231.05 526.95,346.68 z m -174.46,613.76 c 0,0 -12.32,-302.85 -17.326,-453.86 l -39.155,-17.644 13.867,443.04 c -1.8417,-0.5414 -123.63,-79.894 -123.63,-79.894 l -28.113,-427.64 -31.494,-14.84 23.964,415.01 c 0.13363,2.314 -112.08,-69.499 -112.15,-70.137 l -58.895,-604.94 503.76,235.5 c 0,0 4.7585,663.97 4.0552,663.58 z m 742.27,-183.77 64.614,-691.09 c 0,-0.0294 -588.8,263.04 -588.8,263.04 0,0 -2.2797,771.42 0.44375,772.48 z M 732.03,575.54 1234.89,343.17 c 0,0 -33.266,401.95 -51.188,602.78 -39.452,21.937 -116.5,70.803 -116.5,70.803 l 24.7,-426.73 -33.281,17.21 c 0,0 -18.494,291.63 -28.557,437.36 l -125.27,76.008 14.896,-440.77 -38.658,20.077 -17.691,451.68 -140.31,87.831 c -1.6774,-139.65 9.0024,-663.87 9.0024,-663.87 z M 1252.59,243.62 667.56,51.89 86.47,240.92 659.92,501.22 Z m -828.32,124.89 29.515,-183.46 426.42,8.9635 18.257,174.98 z m 440.8,-163.92 -399.2,-7.1312 -22.951,159.87 438.91,0.55908 z m -249.67,140.79 4.2318,-99.35 -30.318,0.23782 -9.1938,99.296 -113.02,0.0377 19.851,-136.87 358.64,4.8382 13.082,132.39 -105.23,-0.0569 -3.7982,-99.655 -31.414,-0.43053 2.5359,99.586 z"
       fill="#33ff00"
       fill-opacity="0.6"
       image-rendering="optimizeQuality"
       stroke-width="5.5469"
       id="path8"
       style="color:#000000;font-style:normal;font-variant:normal;font-weight:normal;font-stretch:normal;font-size:medium;line-height:normal;font-family:sans-serif;font-variant-ligatures:normal;font-variant-position:normal;font-variant-caps:normal;font-variant-numeric:normal;font-variant-alternates:normal;font-variant-east-asian:normal;font-feature-settings:normal;font-variation-settings:normal;text-indent:0;text-align:start;text-decoration-line:none;text-decoration-style:solid;text-decoration-color:#000000;letter-spacing:normal;word-spacing:normal;text-transform:none;writing-mode:lr-tb;direction:ltr;text-orientation:mixed;dominant-baseline:auto;baseline-shift:baseline;text-anchor:start;white-space:normal;shape-padding:0;shape-margin:0;inline-size:0;clip-rule:nonzero;display:inline;overflow:visible;visibility:visible;isolation:auto;mix-blend-mode:normal;color-interpolation:sRGB;color-interpolation-filters:linearRGB;solid-color:#000000;solid-opacity:1;vector-effect:none;fill-rule:nonzero;stroke:none;stroke-linecap:butt;stroke-linejoin:miter;stroke-miterlimit:4;stroke-dasharray:none;stroke-dashoffset:0;stroke-opacity:1;-inkscape-stroke:none;color-rendering:auto;image-rendering:optimizeQuality;shape-rendering:auto;text-rendering:auto;enable-background:accumulate;stop-color:#000000;stop-opacity:1" />
  </g>
</svg>
