<?xml version="1.0" encoding="UTF-8" standalone="no"?>
<svg
   width="512"
   height="512"
   version="1.1"
   id="svg60"
   sodipodi:docname="madlinux.svg"
   inkscape:version="1.1.1 (3bf5ae0d25, 2021-09-20)"
   xmlns:inkscape="http://www.inkscape.org/namespaces/inkscape"
   xmlns:sodipodi="http://sodipodi.sourceforge.net/DTD/sodipodi-0.dtd"
   xmlns="http://www.w3.org/2000/svg"
   xmlns:svg="http://www.w3.org/2000/svg">
  <defs
     id="defs64" />
  <sodipodi:namedview
     id="namedview62"
     pagecolor="#ffffff"
     bordercolor="#666666"
     borderopacity="1.0"
     inkscape:pageshadow="2"
     inkscape:pageopacity="0.0"
     inkscape:pagecheckerboard="0"
     showgrid="false"
     inkscape:zoom="1.7050781"
     inkscape:cx="251.30813"
     inkscape:cy="256"
     inkscape:window-width="3440"
     inkscape:window-height="1417"
     inkscape:window-x="0"
     inkscape:window-y="0"
     inkscape:window-maximized="1"
     inkscape:current-layer="svg60" />
  <path
     style="opacity:0.2;stroke-width:24.3818"
     d="m 278.09525,436.04576 c -2.90087,28.74465 -8.58019,49.72825 -7.18482,60.75469 1.40756,11.02645 11.66461,4.05877 16.80537,1.14985 4.6634,-3.87478 10.85679,-3.58734 14.7246,1.12692 6.40149,4.42669 13.45165,9.00283 21.60343,9.60072 5.91185,0.50593 7.08688,-5.56497 7.34392,-9.76169 3.19462,-4.03574 9.92658,1.52923 14.38189,1.79377 6.05875,1.65577 11.98284,3.86327 18.12727,5.17404 4.49205,1.2303 5.97308,-3.48384 2.08074,-5.36951 -9.17991,-8.63488 -18.26193,-17.45375 -25.69155,-27.51438 -8.45775,-10.53203 -16.03427,-21.86893 -26.40145,-30.89473 -6.54834,-5.15106 -15.50794,-5.35802 -23.61076,-6.20887 -4.03916,-0.22919 -8.18851,-0.68976 -12.17871,0.14873 z"
     id="path2" />
  <path
     style="fill:#b3b3b3;stroke-width:24.3818"
     d="m 391.07022,174.23818 c -19.07721,-14.13875 -26.90043,-27.14166 -47.92453,-39.42847 31.69643,-6.06625 37.60835,-4.45175 57.50467,6.55297 20.01506,11.07594 29.23908,52.89054 -9.58014,32.8755 z"
     id="path4" />
  <path
     style="fill:#ffc72a;stroke-width:24.3818"
     d="m 278.09525,423.85489 c -2.90087,28.74467 -8.58019,49.72825 -7.18482,60.75472 1.40756,11.02644 11.66461,4.05874 16.80537,1.14984 4.6634,-3.87478 10.85679,-3.58734 14.7246,1.12693 6.40149,4.42666 13.45165,9.0028 21.60343,9.60069 5.91185,0.50592 7.08688,-5.56495 7.34392,-9.76166 3.19462,-4.03577 9.92658,1.52922 14.38189,1.79377 6.05875,1.65576 11.98284,3.86329 18.12727,5.17406 4.49205,1.2303 5.97308,-3.48384 2.08074,-5.36951 -9.17991,-8.63491 -18.26193,-17.45375 -25.69155,-27.51438 -8.45775,-10.53206 -16.03427,-21.86893 -26.40145,-30.89475 -6.54834,-5.15105 -15.50794,-5.35802 -23.61076,-6.20885 -4.03916,-0.22919 -8.18851,-0.68976 -12.17871,0.14873 z"
     id="path6" />
  <path
     style="opacity:0.2;stroke-width:24.3818"
     d="m 261.20365,81.447945 c -6.44447,-0.34829 -12.88968,-0.17335 -19.28636,0.52382 -71.06859,7.88926 -122.84452,77.560715 -118.0755,158.886395 -1.86099,3.89416 -3.59252,7.86554 -5.19065,11.90519 -31.840976,87.39031 3.00677,185.86798 77.836,219.95989 74.84071,34.08184 161.31908,-9.14671 193.14948,-96.55093 1.81474,-4.97247 3.42766,-6.38233 4.83349,-11.51569 19.36222,16.36023 32.59758,12.50815 34.16784,-9.93487 1.79962,-26.01683 -12.37464,-74.87092 -34.92977,-115.0541 0.0268,-6.41851 -0.29794,-12.84403 -0.97624,-19.23874 C 384.49774,144.34165 328.45635,85.124835 261.20365,81.447945 Z"
     id="path8" />
  <path
     style="fill:#384cbc;stroke-width:24.3818"
     d="m 261.20365,69.253895 c -6.44447,-0.34829 -12.88968,-0.17335 -19.28636,0.52382 -71.06859,7.88925 -122.84452,77.560715 -118.0755,158.886405 -1.86099,3.89416 -3.59252,7.86549 -5.19065,11.90517 -31.840976,87.3903 3.00677,185.86795 77.836,219.95991 74.84071,34.08182 161.31908,-9.14673 193.14948,-96.55093 1.81474,-4.97252 3.42766,-6.38235 4.83349,-11.51569 19.36222,16.36023 32.59758,12.50812 34.16784,-9.93489 1.79962,-26.01686 -12.37464,-74.87094 -34.92977,-115.0541 0.0268,-6.41853 -0.29794,-12.84403 -0.97624,-19.23876 C 384.49774,132.1476 328.45635,72.930785 261.20365,69.253895 Z"
     id="path10" />
  <path
     style="opacity:0.2;stroke-width:24.3818"
     d="m 327.38587,155.16704 a 24.266335,30.569241 82.676102 0 0 -4.3335,0.23821 24.266335,30.569241 82.676102 0 0 -27.88191,27.57238 24.266335,30.569241 82.676102 0 0 32.88208,20.715 24.266335,30.569241 82.676102 0 0 27.88191,-27.57238 24.266335,30.569241 82.676102 0 0 -28.54858,-20.95308 z m -73.14537,12.1909 a 24.266335,30.569241 82.676102 0 0 -4.33349,0.23797 24.266335,30.569241 82.676102 0 0 -27.88192,27.57237 24.266335,30.569241 82.676102 0 0 32.88208,20.71501 24.266335,30.569241 82.676102 0 0 27.88192,-27.57239 24.266335,30.569241 82.676102 0 0 -28.54859,-20.95309 z"
     id="path12" />
  <path
     style="fill:#f9f9f9;stroke-width:24.3818"
     d="m 381.42674,376.6073 c -29.74276,65.93331 -100.31841,99.74283 -157.52069,75.47785 -57.2023,-24.26497 -79.49126,-97.46354 -49.74848,-163.39684 29.75485,-65.93332 82.01612,-82.43446 142.69766,-88.89245 61.93791,-6.58858 94.31429,110.88999 64.57151,176.81144 z"
     id="path14" />
  <path
     style="opacity:0.1;stroke-width:24.3818"
     d="m 262.85983,252.47131 c -3.50066,-0.0463 -7.16261,0.38157 -10.8575,1.33344 -16.89105,4.35112 -27.88111,19.19548 -24.64373,31.76298 l 1.35709,5.26208 -1.76207,-1.78572 -0.71414,2.61911 -0.71414,2.52391 c -0.19262,0.0317 -0.37816,0.0731 -0.57151,0.11947 l -1.80962,-1.85716 -1.90495,-1.9286 -0.73803,2.61914 -0.66685,2.47626 -0.64294,0.14385 -1.76208,-1.83326 -1.92859,-1.9286 -0.71415,2.61914 -0.69049,2.47629 -0.61905,0.14385 -1.78572,-1.83351 -1.90495,-1.9525 -0.73819,2.64297 -0.69049,2.47626 -0.61905,0.14385 -1.7858,-1.83351 -1.90483,-1.9286 -0.73815,2.61914 -0.66672,2.45247 -0.61906,0.16579 -1.80959,-1.80961 -1.90483,-1.9525 -0.71426,2.61915 -0.71427,2.52388 h -0.0475 l 0.0244,0.0951 0.0475,0.16579 c -3.33519,1.87301 -5.12824,5.8213 -4.11919,9.73843 1.00794,3.91274 4.4661,6.48973 8.28599,6.52403 l 0.0475,0.14385 0.0244,0.0951 0.0475,-0.0244 1.28575,1.30955 -149.314646,38.4775 c -9.58255,2.46849 -15.71498,10.71202 -13.71476,18.47684 2.00024,7.76479 11.34674,11.9926 20.9293,9.52413 l 199.983056,-51.50176 37.50129,-2.30969 0.1658,3.92869 13.35761,-1.02379 -0.0731,-1.64285 h 0.28576 0.14385 v -0.0951 l 0.71414,-0.45252 0.83337,-0.54762 -0.88091,-0.45253 -0.73804,-0.38108 -0.0244,-0.3333 0.71414,-0.42863 0.83337,-0.54762 -0.88091,-0.47618 -0.73804,-0.38108 -0.0244,-0.30941 0.71414,-0.45252 0.83337,-0.54762 -0.88091,-0.45252 -0.73828,-0.38109 -0.0244,-0.3333 0.71414,-0.45228 0.83337,-0.52397 -0.88091,-0.47617 -0.73828,-0.38109 -0.0244,-0.30965 0.71414,-0.45228 0.83337,-0.54762 -0.88092,-0.45228 -0.73803,-0.38109 -0.0244,-0.3333 0.71438,-0.45228 0.83337,-0.54761 -0.88091,-0.45229 -0.73804,-0.38108 -0.0244,-0.30965 0.71439,-0.45228 0.83337,-0.54762 -0.88092,-0.45228 -0.73803,-0.38109 -0.0244,-0.3333 0.71414,-0.45228 0.83337,-0.54761 -0.88091,-0.45229 -0.73804,-0.38108 -0.0244,-0.3333 0.71414,-0.42863 0.83337,-0.54762 -0.88091,-0.45228 -0.73804,-0.40474 -0.0244,-0.30965 0.71414,-0.45228 0.83337,-0.54762 -0.88115,-0.45228 -0.73804,-0.38108 -0.0244,-0.3333 0.71414,-0.45229 0.85726,-0.52396 -0.9048,-0.45228 -0.73828,-0.40474 -0.0244,-0.30965 0.71414,-0.45228 0.85726,-0.54762 -0.90481,-0.45228 -0.73803,-0.38109 -0.0244,-0.3333 0.71438,-0.45228 0.85702,-0.52396 -0.9048,-0.45228 -0.73804,-0.40474 -0.0244,-0.30965 0.71439,-0.45228 0.64294,-0.40474 0.83337,0.19018 0.80972,0.21456 0.0951,0.30965 -0.5954,0.59516 -0.71414,0.71414 0.97624,0.26186 0.80972,0.21456 0.0731,0.30965 -0.57126,0.57126 -0.71439,0.73828 0.97625,0.23894 0.80947,0.21456 0.0731,0.30965 -0.57126,0.59516 -0.71439,0.71414 0.97625,0.26187 0.78558,0.19017 0.0951,0.3333 -0.5954,0.57151 -0.6905,0.73804 0.97625,0.23894 0.78582,0.21456 0.0951,0.30965 -0.59515,0.59516 -0.71439,0.71414 0.97625,0.26186 0.80947,0.19018 0.0951,0.3094 -0.59516,0.59541 -0.71414,0.71414 0.97625,0.26186 0.80972,0.21456 0.0731,0.30965 -0.57151,0.59516 -0.71415,0.71438 0.97625,0.23895 0.80972,0.21456 0.0731,0.30964 -0.57151,0.59516 -0.71414,0.71415 0.97624,0.2621 0.80972,0.21456 0.0731,0.30941 -0.57151,0.59515 -0.71414,0.71439 0.97625,0.23894 0.80972,0.21456 0.0731,0.30965 -0.5954,0.59516 -0.6905,0.71414 0.95236,0.26211 0.80971,0.19018 0.0951,0.33329 -0.59515,0.57127 -0.71415,0.73828 0.97625,0.23894 0.80972,0.21456 0.0951,0.30965 -0.5954,0.59516 -0.71415,0.71414 0.97625,0.26186 0.80972,0.19018 0.0244,0.0951 1.5953,-0.42863 v 0.0244 c 0.0159,-0.01 0.0317,-0.0134 0.0488,-0.0244 l 0.42863,-0.11947 -0.0488,-0.14385 c 7.63192,-4.68936 10.65831,-7.48432 9.667,-22.45315 -0.90067,-13.61774 1.77036,-41.82774 -26.19138,-42.14431 -5.03296,-0.0561 -11.06936,0.81142 -18.28634,2.80963 -3.45546,-8.65239 -13.18641,-14.9473 -24.69132,-15.09576 z m 46.00159,37.76319 0.33329,0.0731 0.80948,0.23894 0.0731,0.28576 -0.57127,0.61905 -0.71414,0.69049 0.97625,0.26187 0.80972,0.21455 0.0707,0.30965 -0.59516,0.59516 -0.69049,0.71415 0.97624,0.23894 0.80972,0.23894 0.0707,0.28575 -0.59516,0.59541 -0.69049,0.71414 0.9526,0.26186 0.80972,0.21456 0.0951,0.30965 -0.59541,0.59516 -0.69049,0.71414 0.95235,0.23894 0.80972,0.21456 0.0951,0.30941 -0.59516,0.5954 -0.71414,0.71414 0.97625,0.26186 0.76193,0.19018 -0.21456,0.0707 -0.14385,0.0488 0.0244,0.0731 -0.59516,0.59516 -0.71439,0.71414 0.97625,0.26186 0.80947,0.21456 0.0951,0.30941 -0.59516,0.5954 -0.52396,0.52372 -0.73804,-0.35719 -0.73804,-0.40474 v -0.0707 l -0.47617,0.0244 -0.23894,-5.50019 -12.92903,0.9999 -0.80972,-6.64309 z m -79.00271,20.71501 1.28565,1.28566 -2.33333,0.59516 0.47617,-1.69064 c 0.1975,-0.0561 0.38158,-0.12191 0.57151,-0.19018 z m -5.69068,1.49997 1.23811,1.262 -2.30969,0.59516 0.45228,-1.69063 z m -5.73828,1.47632 1.262,1.262 -2.33334,0.59516 0.45229,-1.69063 z m -5.71448,1.47632 1.23811,1.262 -2.33334,0.59516 0.47617,-1.69064 z m -5.7383,1.47631 1.23813,1.26201 -2.33341,0.61905 0.47617,-1.71428 z M 52.376414,366.85634 c 3.29148,-0.23894 6.29,1.62968 7.04786,4.57159 0.86614,3.36229 -1.5194,6.87493 -5.33351,7.85739 -3.81411,0.98259 -7.58653,-0.94747 -8.45267,-4.30965 -0.86614,-3.36232 1.4956,-6.89865 5.3097,-7.88124 0.47676,-0.12191 0.9584,-0.20481 1.42863,-0.23894 z"
     id="path16" />
  <path
     style="fill:#666666;stroke-width:24.3818"
     d="m 305.84429,252.55945 c -5.17811,-0.0585 -11.40958,0.85263 -18.90542,2.97628 l 6.11927,25.1199 15.81008,-2.61914 0.3333,0.0731 0.80972,0.23894 0.0731,0.28575 -0.57151,0.61906 -0.71415,0.69049 0.97625,0.26186 0.80972,0.21456 0.0731,0.30965 -0.59516,0.59516 -0.69049,0.71414 0.97625,0.23894 0.80971,0.23894 0.0731,0.28576 -0.59515,0.5954 -0.6905,0.71415 0.9526,0.26186 0.80948,0.21456 0.0951,0.30964 -0.59516,0.59516 -0.6905,0.71415 0.9526,0.23894 0.80972,0.21456 0.0951,0.3094 -0.5954,0.59541 -0.71415,0.71414 0.97625,0.26186 0.76193,0.19018 -0.21456,0.0731 -0.14385,0.0488 0.0244,0.0731 -0.5954,0.59516 -0.71415,0.71414 0.97625,0.26186 0.80972,0.21456 0.0951,0.3094 -0.59516,0.59541 -0.52396,0.52372 -0.73804,-0.3572 -0.73828,-0.40473 v -0.0707 l -0.47618,0.0244 -0.23894,-5.50019 -13.35761,1.02379 1.66674,37.16794 13.35758,-1.02379 -0.0707,-1.64285 h 0.28576 0.14385 v -0.0951 l 0.71439,-0.45228 0.83337,-0.54762 -0.88092,-0.45228 -0.73803,-0.38108 -0.0244,-0.3333 0.71438,-0.42864 0.83337,-0.54761 -0.88091,-0.47618 -0.73804,-0.38108 -0.0244,-0.30965 0.71414,-0.45229 0.83337,-0.54761 -0.88091,-0.45228 -0.73804,-0.38109 -0.0244,-0.3333 0.71414,-0.45252 0.83337,-0.52373 -0.88091,-0.47617 -0.73804,-0.38109 -0.0244,-0.3094 0.71415,-0.45253 0.83337,-0.54762 -0.88092,-0.45252 -0.73828,-0.38109 -0.0244,-0.3333 0.71414,-0.45252 0.83337,-0.54762 -0.88091,-0.45252 -0.73804,-0.38109 -0.0244,-0.30941 0.71439,-0.45252 0.83337,-0.54762 -0.88092,-0.45252 -0.73803,-0.38109 -0.0244,-0.3333 0.71438,-0.45253 0.83337,-0.54761 -0.88091,-0.45253 -0.73804,-0.38108 -0.0244,-0.3333 0.71415,-0.42864 0.83337,-0.54761 -0.88092,-0.45253 -0.73803,-0.40473 -0.0244,-0.30941 0.71414,-0.45253 0.83337,-0.54761 -0.88116,-0.45253 -0.73804,-0.38108 -0.0244,-0.3333 0.71414,-0.45228 0.85702,-0.52397 -0.9048,-0.45253 -0.73828,-0.40473 -0.0244,-0.30941 0.71414,-0.45252 0.85726,-0.54762 -0.90481,-0.45252 -0.73828,-0.38109 -0.0244,-0.3333 0.71415,-0.45228 0.85726,-0.52397 -0.90481,-0.45252 -0.73804,-0.40474 -0.0244,-0.30941 0.71439,-0.45252 0.64295,-0.40474 0.83337,0.19018 0.80972,0.21456 0.0951,0.3094 -0.59541,0.59516 -0.71414,0.71439 0.97625,0.26186 0.80972,0.21456 0.0731,0.30965 -0.57151,0.57126 -0.71414,0.73804 0.97624,0.23894 0.80972,0.21456 0.0731,0.30941 -0.57151,0.5954 -0.71414,0.71414 0.97625,0.26186 0.78582,0.19018 0.0951,0.3333 -0.59516,0.57126 -0.69049,0.73804 0.97625,0.23894 0.78582,0.21456 0.0951,0.30941 -0.5954,0.5954 -0.71414,0.71414 0.97624,0.26186 0.80972,0.19018 0.0951,0.30965 -0.59516,0.59516 -0.71438,0.71439 0.97624,0.26186 0.80948,0.21456 0.0731,0.3094 -0.57127,0.5954 -0.71414,0.71415 0.97625,0.23894 0.80972,0.21456 0.0707,0.3094 -0.57127,0.59516 -0.71414,0.71439 0.97625,0.26186 0.80972,0.21456 0.0731,0.30965 -0.57151,0.59516 -0.71415,0.71414 0.97625,0.23894 0.80972,0.21456 0.0731,0.30941 -0.5954,0.5954 -0.6905,0.71414 0.95236,0.26186 0.80972,0.19018 0.0951,0.3333 -0.59516,0.57126 -0.71439,0.73804 0.97625,0.23894 0.80947,0.21456 0.0951,0.30965 -0.5954,0.59516 -0.71414,0.71439 0.97624,0.26186 0.80972,0.19018 0.0244,0.0951 1.5953,-0.42864 v 0.0244 c 0.0159,-0.01 0.0317,-0.0134 0.0463,-0.0244 l 0.42861,-0.11946 -0.0488,-0.14386 c 7.63191,-4.68935 10.6583,-7.4843 9.66699,-22.45314 -0.90067,-13.61774 1.77036,-41.82774 -26.19138,-42.14431 z m -73.14537,22.81028 -0.73803,2.61914 -0.6905,2.52388 -0.54761,0.14385 -1.83351,-1.85716 -1.9286,-1.95249 -0.71439,2.61912 -0.71414,2.5239 c -0.19262,0.0317 -0.37816,0.0731 -0.57126,0.11947 l -1.80962,-1.85716 -1.90495,-1.9286 -0.73828,2.61914 -0.6666,2.47629 -0.64295,0.14385 -1.76207,-1.83351 -1.9286,-1.9286 -0.71414,2.61914 -0.69049,2.47627 -0.61906,0.14385 -1.78572,-1.83351 -1.90495,-1.9525 -0.73816,2.64294 -0.69049,2.47629 -0.61905,0.14385 -1.78577,-1.83351 -1.90483,-1.9286 -0.73816,2.61914 -0.66672,2.45247 -0.61905,0.16579 -1.80959,-1.80961 -1.90483,-1.9525 -0.71427,2.61915 -0.71426,2.52388 h -0.0475 l 0.0244,0.0951 0.0475,0.16579 c -3.3352,1.87301 -5.12825,5.8213 -4.11919,9.73843 1.00794,3.91274 4.46609,6.48975 8.286,6.52405 l 0.0475,0.14386 0.0244,0.0951 0.0475,-0.0244 1.83339,1.88105 1.92865,1.9525 0.71426,-2.61914 0.69049,-2.47629 0.61906,-0.1658 1.78577,1.83351 1.90483,1.9525 0.73828,-2.61914 0.69049,-2.47629 0.61905,-0.1658 1.78572,1.83351 1.90495,1.9525 0.73804,-2.61912 0.66684,-2.47629 0.61905,-0.16579 1.80962,1.83326 1.90495,1.9525 0.73804,-2.61914 0.66684,-2.47629 0.61905,-0.1658 1.78572,1.83351 1.90495,1.9525 0.73828,-2.61914 0.6905,-2.47629 c 0.1975,-0.0561 0.38134,-0.12191 0.57152,-0.19018 l 1.83351,1.85716 1.90495,1.95249 0.73806,-2.61914 0.69049,-2.5477 0.54762,-0.14385 1.83351,1.88105 1.9286,1.95249 0.71438,-2.61914 0.71415,-2.5477 h 0.0463 l -0.0244,-0.0951 -1.42853,-5.50019 -3.80966,0.97625 c 0.0731,-0.94406 -0.0115,-1.90885 -0.2621,-2.88105 -0.25113,-0.9743 -0.64368,-1.87472 -1.16667,-2.66676 l 3.80965,-0.97625 -1.42852,-5.52401 v -0.0951 l -0.0488,0.0244 -1.85717,-1.85716 z"
     id="path18" />
  <rect
     style="fill:#333333;stroke-width:24.3818"
     width="10.703606"
     height="46.276634"
     x="-343.42072"
     y="-167.58691"
     rx="5.3639936"
     ry="5.802866"
     transform="matrix(-0.24945708,-0.96838586,-0.96838586,0.24945708,0,0)"
     id="rect20" />
  <path
     style="fill:#ea3434;stroke-width:24.3818"
     d="m 262.85703,240.28004 c -3.50067,-0.0439 -7.16259,0.38158 -10.85751,1.33345 -16.89104,4.35112 -27.88111,19.19583 -24.64369,31.76335 l 6.66688,25.92944 -180.863346,46.59684 c -9.58256,2.46846 -15.71498,10.71199 -13.71476,18.47681 2.00024,7.76482 11.34674,11.99262 20.92929,9.52414 l 199.983046,-51.50175 40.45378,-2.50011 -5.00017,-41.07283 -2.00004,0.11947 -5.47637,-21.28642 c -2.52919,-9.81879 -12.97469,-17.22103 -25.47706,-17.38234 z M 52.373624,354.66528 c 3.29148,-0.23894 6.29,1.62968 7.04786,4.57158 0.86614,3.3623 -1.5194,6.87494 -5.33352,7.8574 -3.81411,0.98259 -7.58653,-0.94748 -8.45267,-4.30965 -0.86614,-3.36232 1.49561,-6.89866 5.30971,-7.88124 0.47676,-0.12191 0.9584,-0.20481 1.42863,-0.23895 z"
     id="path22" />
  <rect
     style="fill:#333333;stroke-width:24.3818"
     width="31.501272"
     height="18.725214"
     x="-347.32181"
     y="-184.65416"
     ry="5.7297206"
     transform="matrix(-0.24945708,-0.96838586,-0.96838586,0.24945708,0,0)"
     id="rect24" />
  <rect
     style="fill:#800000;stroke-width:24.3818"
     width="15.311764"
     height="208.02542"
     x="-370.24066"
     y="-179.534"
     rx="7.6558819"
     ry="8.7530622"
     transform="matrix(-0.24945708,-0.96838586,-0.96838586,0.24945708,0,0)"
     id="rect26" />
  <ellipse
     style="fill:#ffffff;stroke-width:24.3818"
     cx="306.55258"
     cy="202.84697"
     rx="30.574762"
     ry="24.284262"
     transform="matrix(0.99368571,-0.11219946,0.10322194,0.99465835,0,0)"
     id="ellipse28" />
  <ellipse
     style="fill:#3e3e3e;stroke-width:24.3818"
     cx="312.93823"
     cy="204.07582"
     rx="12.215276"
     ry="12.190894"
     transform="matrix(0.99348462,-0.11396628,0.10161806,0.99482349,0,0)"
     id="ellipse30" />
  <ellipse
     style="opacity:0.1;stroke-width:24.3818"
     cx="294.50638"
     cy="228.73761"
     rx="42.594986"
     ry="18.091288"
     transform="matrix(0.99974974,-0.02237112,0.02911372,0.99957611,0,0)"
     id="ellipse32" />
  <ellipse
     style="fill:#ffc72a;stroke-width:24.3818"
     cx="294.84772"
     cy="216.54672"
     rx="42.594986"
     ry="18.091288"
     transform="matrix(0.99974974,-0.02237112,0.02911372,0.99957611,0,0)"
     id="ellipse34" />
  <path
     style="opacity:0.2;stroke-width:24.3818"
     d="M 162.18063,269.43386 A 33.373422,106.88854 25.300156 0 1 92.726914,380.65012 33.373422,106.88854 25.300156 0 1 66.402564,336.84573 33.373422,106.88854 25.300156 0 1 127.78996,212.20696"
     id="path36" />
  <path
     style="fill:#384cbc;stroke-width:24.3818"
     d="M 162.18062,257.24297 A 33.373422,106.88854 25.300156 0 1 92.726924,368.4592 33.373422,106.88854 25.300156 0 1 66.402554,324.65483 33.373422,106.88854 25.300156 0 1 127.78996,200.01605"
     id="path38" />
  <path
     style="fill:#ffa10a;stroke-width:24.3818"
     d="m 258.66085,211.39144 62.07018,4.58024 22.56208,-9.47084 c 0,0 2.84469,4.69796 -4.45624,11.37569 -17.62969,15.58137 -75.12151,13.96544 -80.17602,-6.48509 z"
     id="path40" />
  <path
     style="opacity:0.2;stroke-width:24.3818"
     d="m 143.9954,436.05522 c -2.90086,28.74496 -8.58017,49.7173 -7.18482,60.74384 1.40761,11.02657 11.66462,4.0703 16.80538,1.14985 4.6634,-3.87485 10.85678,-3.58737 14.7246,1.12692 6.40147,4.42671 13.45164,9.00291 21.60342,9.60082 5.91187,0.51738 7.0869,-5.55354 7.34393,-9.76178 3.19462,-4.0358 9.92658,1.54068 14.38189,1.79376 6.05875,1.66723 11.98287,3.86332 18.1273,5.1856 4.49203,1.2186 5.97305,-3.48389 2.08074,-5.38107 -9.17991,-8.63498 -18.26191,-17.45394 -25.69153,-27.50319 -8.45775,-10.54383 -16.03425,-21.88085 -26.40144,-30.90677 -6.54835,-5.15109 -15.50795,-5.35804 -23.61078,-6.2089 -4.05141,-0.22918 -8.18849,-0.68976 -12.17869,0.16092 z"
     id="path42" />
  <path
     style="fill:#ffc72a;stroke-width:24.3818"
     d="m 143.9954,423.86435 c -2.90086,28.74496 -8.58017,49.7173 -7.18482,60.74387 1.40761,11.02656 11.66462,4.07029 16.80538,1.14984 4.6634,-3.87483 10.85678,-3.58736 14.7246,1.12693 6.40147,4.42673 13.45164,9.00292 21.60342,9.60081 5.91187,0.51739 7.0869,-5.55353 7.34393,-9.76178 3.19462,-4.0358 9.92658,1.54068 14.38189,1.79377 6.05875,1.66722 11.98287,3.86332 18.1273,5.18559 4.49203,1.2186 5.97305,-3.48389 2.08074,-5.38106 -9.17989,-8.6352 -18.26188,-17.45414 -25.6915,-27.50339 -8.45778,-10.54364 -16.03428,-21.88066 -26.40147,-30.90658 -6.54835,-5.15109 -15.50795,-5.35806 -23.61078,-6.20892 -4.05141,-0.22918 -8.18849,-0.68976 -12.17869,0.16092 z"
     id="path44" />
  <ellipse
     style="fill:#ffffff;stroke-width:24.3818"
     cx="232.52945"
     cy="206.74806"
     rx="30.574762"
     ry="24.284262"
     transform="matrix(0.99368571,-0.11219946,0.10322194,0.99465835,0,0)"
     id="ellipse46" />
  <ellipse
     style="fill:#3e3e3e;stroke-width:24.3818"
     cx="238.93948"
     cy="207.855"
     rx="12.215276"
     ry="12.190894"
     transform="matrix(0.99348462,-0.11396628,0.10161806,0.99482349,0,0)"
     id="ellipse48" />
  <path
     style="opacity:0.2;stroke-width:24.3818"
     d="m 261.19312,69.263905 a 153.88988,135.02563 83.82052 0 0 -19.28639,0.52382 153.88988,135.02563 83.82052 0 0 -105.17027,83.812395 c -0.0983,3.87601 -0.14287,7.82958 -0.14287,11.90518 9.58091,-6.49978 19.71335,-12.76986 30.21533,-18.61969 23.07557,30.95563 31.72536,55.43961 78.95508,39.19183 37.33001,-12.85494 85.79669,-43.27189 127.3377,-40.5252 A 153.88988,135.02563 83.82052 0 0 261.19312,69.263905 Z"
     id="path50" />
  <path
     style="fill:#999999;stroke-width:24.3818"
     d="M 360.13056,111.50956 C 299.68179,82.496055 228.67944,100.8966 169.64335,133.1035 c -11.52705,6.29179 -22.603,13.1178 -33.04976,20.20498 0,-67.035265 12.97286,-106.806155 50.13253,-128.004625 29.30714,-15.8013101 74.40551,-18.1011901 102.92442,-11.44909 18.25808,8.55092 16.2846,11.18766 36.58455,31.60633 3.53765,7.43501 33.12383,65.965365 33.89547,66.048465 z"
     id="path52" />
  <path
     style="fill:#808080;stroke-width:24.3818"
     d="m 406.85609,145.1885 c -30.4737,-20.94102 -57.48095,-51.853015 -89.34355,-54.262895 -46.8205,-3.20526 -102.1646,16.666425 -150.95574,43.400635 23.27967,31.1266 31.7914,55.8696 79.20547,39.5584 48.09072,-16.56049 114.65319,-62.3276 161.09382,-28.69614 z"
     id="path54" />
  <path
     style="fill:#e4e4e4;stroke-width:24.3818"
     d="M 361.94651,110.62872 C 338.61965,99.519345 312.37956,92.743765 289.03605,94.217145 253.36081,96.468875 217.46457,113.86275 180.73116,127.61895 187.75113,40.853685 185.4295,5.9163349 263.16202,8.8808849 c 5.60793,0.21383 11.63255,0.7779 18.10738,1.3793701 38.70826,3.59576 51.24291,34.51887 64.1772,65.24186 5.81874,13.85053 14.6408,28.015765 16.49991,35.126605 z"
     id="path56" />
  <path
     style="opacity:0.2;fill:#ffffff;stroke-width:24.3818"
     d="m 256.09769,8.7142049 c -16.45747,-0.13166 -28.9288,1.7209901 -38.52513,5.6668701 -11.15696,2.43897 -21.77222,6.03013 -30.8582,10.92894 -37.15968,21.19848 -50.12077,60.96913 -50.12077,128.004395 0.0475,-0.0317 0.0963,-0.0634 0.14288,-0.0951 1.56614,-59.653305 15.15018,-95.850095 49.9779,-115.718265 9.08597,-4.89896 19.70123,-8.49012 30.85819,-10.92909 9.59633,-3.94588 22.06766,-5.79842 38.52513,-5.66686 2.27555,0.0182 4.64253,0.0741 7.07167,0.16677 5.60796,0.21383 11.62102,0.77953 18.09587,1.38101 38.70823,3.59575 51.25895,34.51737 64.19266,65.24034 2.50523,5.96321 5.44697,11.75897 8.23839,17.214865 2.75141,1.78138 5.48356,3.66059 8.21456,5.64305 -1.89495,-7.13169 -10.65167,-21.239925 -16.45295,-35.048925 -12.93429,-30.723 -25.4844,-61.64458 -64.19266,-65.24033 -6.47483,-0.6014801 -12.48791,-1.1671301 -18.09587,-1.3810001 -2.42916,-0.0926 -4.79614,-0.14849 -7.07167,-0.16668 z"
     id="path58" />
</svg>
