<?xml version="1.0" encoding="UTF-8" standalone="no"?>
<svg
   width="512"
   height="512"
   version="1.1"
   id="svg12"
   sodipodi:docname="midnightbsd.svg"
   inkscape:version="1.1.1 (3bf5ae0d25, 2021-09-20)"
   xmlns:inkscape="http://www.inkscape.org/namespaces/inkscape"
   xmlns:sodipodi="http://sodipodi.sourceforge.net/DTD/sodipodi-0.dtd"
   xmlns="http://www.w3.org/2000/svg"
   xmlns:svg="http://www.w3.org/2000/svg">
  <defs
     id="defs16" />
  <sodipodi:namedview
     id="namedview14"
     pagecolor="#ffffff"
     bordercolor="#666666"
     borderopacity="1.0"
     inkscape:pageshadow="2"
     inkscape:pageopacity="0.0"
     inkscape:pagecheckerboard="0"
     showgrid="false"
     inkscape:zoom="1.7050781"
     inkscape:cx="251.30813"
     inkscape:cy="256"
     inkscape:window-width="3440"
     inkscape:window-height="1417"
     inkscape:window-x="0"
     inkscape:window-y="0"
     inkscape:window-maximized="1"
     inkscape:current-layer="svg12" />
  <circle
     cx="256.65234"
     cy="261.90735"
     r="245.61403"
     style="opacity:0.2;stroke-width:8.77193"
     id="circle2" />
  <circle
     cx="256.65234"
     cy="253.13542"
     r="245.61403"
     style="fill:#4f4f4f;stroke-width:8.77193"
     id="circle4" />
  <path
     d="M 256.65235,7.5213882 A 245.61404,245.61404 0 0 0 11.038308,253.13542 a 245.61404,245.61404 0 0 0 0.1886,5.14035 A 245.61404,245.61404 0 0 1 256.65235,16.293318 245.61404,245.61404 0 0 1 502.08217,256.767 245.61404,245.61404 0 0 0 502.26639,253.13542 245.61404,245.61404 0 0 0 256.65235,7.5213882 Z"
     style="opacity:0.1;fill:#ffffff;stroke-width:8.77193"
     id="path6" />
  <path
     d="M 206.762,88.713138 C 133.62787,114.93437 81.298538,184.21471 81.213748,261.90735 c 0,101.73666 85.986072,184.21053 187.722732,184.21053 51.71849,-0.0851 101.00911,-21.90912 135.84498,-60.13569 -5.18515,1.87801 -10.31203,3.5642 -15.45367,5.05414 0.52719,-3.54903 -7.27879,-5.32328 -7.94956,-8.49781 -2.66387,-12.60769 -2.35479,-25.7342 0.80526,-38.30866 2.38084,-9.47394 10.62623,-15.72489 10.6394,-25.49342 0.0202,-14.24417 -1.07936,-26.7441 -1.07936,-26.7441 0,0 9.5051,-3.53607 13.99739,-6.08211 4.5901,-2.60147 9.33766,-8.3015 9.28591,-14.8883 -0.0298,-3.81901 -6.44051,-6.67257 -8.82333,-10.60512 -1.98309,-3.27283 -1.16996,-7.58863 -3.54647,-10.58799 -2.0295,-2.56141 -9.50863,-6.37336 -9.50863,-6.37336 0,0 -4.00173,-16.92463 -11.47889,-16.32744 -3.05259,0.24382 -2.21014,16.75575 -2.21014,16.75575 0,0 -16.23441,5.88674 -17.21834,21.21026 -0.42036,6.54647 -5.48543,9.69414 -11.03344,14.35718 -5.54802,4.66306 -12.46646,10.83966 -18.5547,12.57539 -44.50052,12.68692 -47.36313,38.23154 -48.48546,63.27097 -0.34781,7.75949 4.84854,22.95778 4.84854,22.95778 0,0 -23.23699,-19.65572 -24.05427,-33.7685 -0.82632,-14.2699 14.64753,-24.96021 13.02083,-39.07964 -0.95471,-8.28678 -14.3068,-23.62168 -20.14802,-17.42393 -4.27591,4.5369 11.14546,11.0823 11.75301,19.63406 0.40991,5.77111 -14.87959,20.419 -13.02084,37.74328 1.19716,11.15783 9.15381,26.93794 14.93969,37.36637 C 206.01835,354.23776 160.16112,288.63628 160.16112,212.78798 160.24358,166.84571 175.73489,122.59554 206.762,88.713138 Z M 365.41058,367.06771 c 1.62683,-0.17228 3.18767,0.59755 3.51219,2.80977 1.22783,8.37072 1.68209,23.75237 1.7304,25.44202 -5.55297,0.99541 -11.2099,1.63863 -16.94421,2.02165 0.75587,-3.68007 3.8923,-18.58697 7.72683,-27.4808 0.65026,-1.50813 2.34795,-2.62033 3.97479,-2.79264 z"
     style="opacity:0.2;stroke-width:8.77193"
     id="path8" />
  <path
     d="M 206.762,79.941208 C 133.62787,106.16244 81.298538,175.44278 81.213748,253.13542 c 0,101.73666 85.986072,184.21053 187.722732,184.21053 51.71849,-0.0851 101.00911,-21.90912 135.84498,-60.13569 -5.18515,1.87801 -10.31203,3.5642 -15.45367,5.05414 0.52717,-3.54903 -7.27879,-5.32328 -7.94956,-8.49781 -2.66387,-12.60769 -2.35479,-25.7342 0.80523,-38.30866 2.38085,-9.47394 10.62623,-15.72489 10.6394,-25.49342 0.0198,-14.24417 -1.07936,-26.7441 -1.07936,-26.7441 0,0 9.5051,-3.53607 13.99739,-6.08211 4.5901,-2.60147 9.33766,-8.3015 9.28592,-14.8883 -0.0298,-3.81901 -6.44051,-6.67257 -8.82334,-10.60512 -1.98308,-3.27282 -1.16995,-7.58863 -3.54646,-10.58799 -2.0295,-2.56141 -9.50863,-6.37336 -9.50863,-6.37336 0,0 -4.00174,-16.92463 -11.4789,-16.32744 -3.05256,0.24382 -2.21011,16.75575 -2.21011,16.75575 0,0 -16.23441,5.88674 -17.21834,21.21026 -0.42033,6.54647 -5.48543,9.69414 -11.03344,14.35718 -5.54802,4.66306 -12.46646,10.83966 -18.5547,12.57539 -44.50052,12.68692 -47.36313,38.23153 -48.48546,63.27097 -0.3478,7.75949 4.84854,22.95779 4.84854,22.95779 0,0 -23.23699,-19.65573 -24.05427,-33.76851 -0.82633,-14.2699 14.64753,-24.96021 13.02083,-39.07964 -0.95471,-8.28678 -14.3068,-23.62168 -20.14802,-17.42393 -4.27591,4.5369 11.14546,11.0823 11.75301,19.63406 0.40995,5.77111 -14.87959,20.419 -13.02084,37.74328 1.19716,11.15783 9.15381,26.93794 14.93969,37.36637 C 206.01835,345.46583 160.16112,279.86435 160.16112,204.01605 160.24358,158.07378 175.73489,113.82361 206.762,79.941208 Z M 365.41058,358.29578 c 1.62683,-0.17229 3.18767,0.59754 3.51219,2.80977 1.22783,8.37072 1.68209,23.75237 1.7304,25.44202 -5.55297,0.99541 -11.2099,1.63863 -16.94421,2.02165 0.75587,-3.68007 3.8923,-18.58697 7.72683,-27.4808 0.65023,-1.50813 2.34795,-2.62033 3.97479,-2.79264 z"
     style="fill:#ffffff;stroke-width:8.77193"
     id="path10" />
</svg>
