<?xml version="1.0" encoding="UTF-8" standalone="no"?>
<svg
   width="512"
   height="512"
   version="1.1"
   id="svg30"
   sodipodi:docname="ms-dos.svg"
   inkscape:version="1.1.1 (3bf5ae0d25, 2021-09-20)"
   xmlns:inkscape="http://www.inkscape.org/namespaces/inkscape"
   xmlns:sodipodi="http://sodipodi.sourceforge.net/DTD/sodipodi-0.dtd"
   xmlns="http://www.w3.org/2000/svg"
   xmlns:svg="http://www.w3.org/2000/svg">
  <defs
     id="defs34" />
  <sodipodi:namedview
     id="namedview32"
     pagecolor="#ffffff"
     bordercolor="#666666"
     borderopacity="1.0"
     inkscape:pageshadow="2"
     inkscape:pageopacity="0.0"
     inkscape:pagecheckerboard="0"
     showgrid="false"
     inkscape:zoom="1.7050781"
     inkscape:cx="251.30813"
     inkscape:cy="256"
     inkscape:window-width="3440"
     inkscape:window-height="1417"
     inkscape:window-x="0"
     inkscape:window-y="0"
     inkscape:window-maximized="1"
     inkscape:current-layer="svg30" />
  <rect
     style="opacity:0.2;stroke-width:8.47458"
     width="491.52542"
     height="491.52542"
     x="10.503183"
     y="13.502787"
     rx="36.864407"
     ry="36.864407"
     id="rect2" />
  <rect
     style="fill:#48487b;stroke-width:8.47458"
     width="491.52542"
     height="491.52542"
     x="10.503183"
     y="5.0282073"
     rx="36.864407"
     ry="36.864407"
     id="rect4" />
  <path
     style="opacity:0.2;stroke-width:8.47458"
     d="m 357.96081,360.89848 q 0,44.22546 -24.35977,68.75387 -24.22369,24.5284 -68.72449,24.5284 -45.04515,0 -69.26881,-24.28064 -24.08761,-24.40453 -24.08761,-69.24939 0,-44.84485 24.22368,-68.87775 24.35978,-24.03288 69.40493,-24.03288 44.3647,0 68.58839,24.40452 24.22368,24.40453 24.22368,68.75387 z m -151.87431,0 q 0,33.44783 14.83361,50.79115 14.8336,17.21943 43.95644,17.21943 28.98677,0 43.68428,-17.09554 14.83361,-17.09558 14.83361,-50.91504 0,-33.32395 -14.69751,-50.54339 -14.56143,-17.21944 -43.54819,-17.21944 -29.25893,0 -44.22863,17.21944 -14.83361,17.21944 -14.83361,50.54339 z"
     id="path6" />
  <path
     style="opacity:0.2;stroke-width:8.47458"
     d="M 78.299793,64.350237 V 250.79092 h 32.971397 v -86.69888 c 0,-6.26692 -0.13763,-13.41046 -0.46348,-21.41817 -0.32576,-8.00773 -0.66729,-15.48115 -0.99311,-22.44439 -0.32576,-6.96323 -0.56542,-12.17648 -0.7283,-15.6581 h 0.99315 l 42.00875,146.21954 h 33.96451 l 44.95498,-145.95471 h 0.99305 l -0.72822,15.6581 c -0.16271,6.78916 -0.40237,14.02344 -0.7283,21.683 -0.16272,7.65956 -0.26492,14.44008 -0.26492,20.35885 v 88.25476 h 34.46117 V 64.350237 h -50.3509 L 170.65944,206.92836 h -0.72829 L 128.65069,64.350237 Z m 293.233567,0 c -21.77267,0 -38.97293,4.56076 -51.60884,13.70499 -12.63593,8.97489 -18.96847,21.61435 -18.96847,37.870763 0,8.29754 1.66084,15.39204 4.96557,21.31884 3.30477,5.92683 7.49195,11.02743 12.54634,15.26087 5.24876,4.0641 10.68262,7.51586 16.32017,10.39459 5.63759,2.70941 10.89747,5.08527 15.75742,7.11732 7.77595,3.21743 14.66351,6.25792 20.68988,9.13667 6.02636,2.70939 10.80166,5.6875 14.30085,8.90491 3.69359,3.21741 5.52834,7.11353 5.52834,11.68564 0,5.58814 -2.31932,10.24439 -6.9849,13.96982 -4.47117,3.5561 -12.1539,5.32971 -23.04025,5.32971 -10.49753,0 -21.08773,-1.52017 -31.77966,-4.56832 -10.49754,-3.21743 -20.70668,-6.70227 -30.62104,-10.4277 v 35.81833 c 17.30151,7.2815 36.92461,10.92425 58.89168,10.92425 24.49427,0 43.35532,-4.75175 56.57442,-14.23464 13.41355,-9.65224 20.12712,-22.51197 20.12712,-38.59906 0,-9.48289 -2.04181,-17.433 -6.1242,-23.86784 -4.08236,-6.43482 -9.89726,-12.04217 -17.47882,-16.78363 -7.38715,-4.74146 -16.45318,-9.3022 -27.14513,-13.70498 -13.02471,-5.4188 -22.81971,-9.97955 -29.42929,-13.70498 -6.60956,-3.72542 -9.93113,-8.82602 -9.93113,-15.26085 0,-5.41881 2.24889,-9.82167 6.72006,-13.20842 4.47117,-3.386753 10.87417,-5.064893 19.23333,-5.064893 7.97033,0 15.75661,0.918 23.33818,2.78072 7.58154,1.862723 16.1299,4.491963 25.65546,7.878713 L 433.3713,77.062107 c -10.88638,-4.0641 -21.19904,-7.20009 -30.91897,-9.40148 -9.71995,-2.20139 -20.03263,-3.31039 -30.91897,-3.31039 z"
     id="path8" />
  <path
     style="fill:#ffffff;stroke-width:8.47458"
     d="M 152.09413,242.31634 110.06556,96.088347 h -0.97741 q 0.24432,5.222443 0.73297,15.667293 0.48873,10.44487 0.97741,22.45644 0.48872,12.01159 0.48872,21.41196 v 86.6923 H 78.299793 V 55.875667 h 50.336537 l 41.29551,142.572273 h 0.73288 L 214.40393,55.875667 h 50.33654 V 242.31634 h -34.45366 v -88.25903 q 0,-8.87814 0.24424,-20.36747 0.48881,-11.48933 0.73288,-21.67307 0.48881,-10.44487 0.73322,-15.667293 h -0.97746 L 186.05908,242.31634 Z"
     id="path10" />
  <path
     style="fill:#ffffff;stroke-width:8.47458"
     d="m 434.23199,189.48302 q 0,24.13061 -20.1203,38.60898 -19.82865,14.22434 -56.57005,14.22434 -32.95061,0 -58.90287,-10.92227 v -35.8149 q 14.87153,5.58814 30.61783,10.41427 16.0379,4.57212 31.78419,4.57212 16.32954,0 23.03629,-5.33415 6.99837,-5.58813 6.99837,-13.97034 0,-6.85818 -5.54039,-11.6843 -5.24878,-4.82612 -14.28831,-8.89022 -9.03955,-4.31811 -20.70349,-9.14424 -7.28993,-3.04807 -15.7463,-7.11217 -8.45634,-4.31811 -16.32949,-10.41426 -7.58158,-6.35016 -12.53875,-15.24038 -4.95715,-8.89022 -4.95715,-21.33654 0,-24.384613 18.9539,-37.846953 18.95386,-13.71634 51.61288,-13.71634 16.32951,0 30.90942,3.30208 14.5799,3.30208 30.90944,9.39824 l -14.28834,29.97275 q -14.28832,-5.08012 -25.66064,-7.87419 -11.37236,-2.79407 -23.32788,-2.79407 -12.53871,0 -19.24548,5.08012 -6.70676,5.08013 -6.70676,13.208333 0,9.65225 9.91434,15.24039 9.91436,5.58813 29.45144,13.71633 16.03792,6.60418 27.11864,13.71635 11.37234,7.11217 17.49589,16.76441 6.12357,9.65226 6.12357,23.87661 z"
     id="path12" />
  <path
     style="fill:#bd66ff;stroke-width:8.47458"
     d="m 357.96081,352.4239 q 0,44.22546 -24.35977,68.75387 -24.22369,24.52841 -68.72449,24.52841 -45.04515,0 -69.26881,-24.28065 -24.08761,-24.40452 -24.08761,-69.24939 0,-44.84485 24.22368,-68.87775 24.35978,-24.03288 69.40493,-24.03288 44.3647,0 68.58839,24.40453 24.22368,24.40452 24.22368,68.75386 z m -151.87431,0 q 0,33.44784 14.83361,50.79116 14.8336,17.21942 43.95644,17.21942 28.98677,0 43.68428,-17.09554 14.83361,-17.09558 14.83361,-50.91504 0,-33.32395 -14.69751,-50.54339 -14.56143,-17.21944 -43.54819,-17.21944 -29.25893,0 -44.22863,17.21944 -14.83361,17.21944 -14.83361,50.54339 z"
     id="path14" />
  <path
     style="opacity:0.2;stroke-width:8.47458"
     d="m 256.26589,359.17507 q 0,46.16383 -28.65247,70.64851 -28.65246,24.35717 -82.53625,24.35717 H 86.774363 V 267.74007 h 64.432447 q 49.74981,0 77.40446,23.97458 27.65462,23.97459 27.65462,67.46042 z m -35.92252,1.02017 q 0,-66.9503 -69.99185,-66.9503 h -29.50781 v 135.30339 h 24.23346 q 75.2662,0 75.2662,-68.35309 z"
     id="path16" />
  <path
     style="fill:#e73d3d;stroke-width:8.47458"
     d="m 256.26589,350.7005 q 0,46.16383 -28.65247,70.64851 -28.65246,24.35717 -82.53625,24.35717 H 86.774363 V 259.2655 h 64.432447 q 49.74981,0 77.40446,23.97457 27.65462,23.9746 27.65462,67.46043 z m -35.92252,1.02017 q 0,-66.95031 -69.99185,-66.95031 h -29.50781 v 135.30339 h 24.23346 q 75.2662,0 75.2662,-68.35308 z"
     id="path18" />
  <path
     style="opacity:0.2;stroke-width:8.47458"
     d="m 442.70657,402.4537 c 0,16.12593 -8.5108,28.77859 -25.53239,37.95798 -17.0216,9.17938 -40.50171,13.76907 -70.44037,13.76907 -29.9387,0 -54.44495,-3.18383 -73.51876,-9.55151 V 416.5949 c 12.07203,3.88677 24.8684,6.94656 38.38911,9.17939 13.64139,2.23284 26.31704,3.34924 38.02692,3.34924 17.14232,0 29.75762,-2.23283 37.84589,-6.69847 8.20897,-4.46565 12.31346,-10.46119 12.31346,-17.98663 0,-6.78117 -3.74234,-12.52861 -11.22701,-17.24234 -7.48465,-4.71374 -22.93685,-10.29581 -46.35663,-16.74617 -24.14408,-6.69847 -41.16568,-14.34796 -51.06476,-22.94847 -9.89909,-8.60049 -14.84863,-18.93763 -14.84863,-31.01141 0,-15.13358 7.84683,-27.04197 23.54051,-35.72517 15.69366,-8.6832 36.75937,-13.0248 63.19715,-13.0248 25.3513,0 50.58188,3.80407 75.69173,11.41221 l -13.76215,24.18891 c -23.54048,-6.78117 -44.54583,-10.17175 -63.01607,-10.17175 -14.00358,0 -29.71143,2.10878 -36.95466,6.32633 -7.2432,4.13486 -10.86481,9.63422 -10.86481,16.49808 0,4.71375 1.44864,8.7659 4.34593,12.1565 2.89729,3.30788 11.05874,6.45035 17.69837,9.42745 6.63961,2.97709 20.28239,6.90521 37.54542,11.78434 19.43599,5.54071 33.68099,10.70929 42.73502,15.50571 9.05405,4.79643 15.69368,10.21309 19.9189,16.24999 4.22522,6.0369 6.33783,13.14884 6.33783,21.33586 z"
     id="path20" />
  <path
     style="fill:#ffeb3b;stroke-width:8.47458"
     d="m 442.70657,393.97913 c 0,16.12593 -8.5108,28.77859 -25.53239,37.95798 -17.0216,9.17937 -40.50171,13.76907 -70.44037,13.76907 -29.9387,0 -54.44495,-3.18383 -73.51876,-9.55151 v -28.03434 c 12.07203,3.88676 24.8684,6.94656 38.38911,9.17939 13.64139,2.23283 26.31704,3.34924 38.02692,3.34924 17.14232,0 29.75762,-2.23283 37.84589,-6.69848 8.20897,-4.46564 12.31346,-10.46119 12.31346,-17.98663 0,-6.78117 -3.74234,-12.52861 -11.22701,-17.24233 -7.48465,-4.71375 -22.93685,-10.29582 -46.35663,-16.74617 -24.14408,-6.69848 -41.16568,-14.34797 -51.06476,-22.94848 -9.89909,-8.60049 -14.84863,-18.93763 -14.84863,-31.01141 0,-15.13357 7.84683,-27.04196 23.54051,-35.72517 15.69366,-8.6832 36.75937,-13.02479 63.19715,-13.02479 25.3513,0 50.58188,3.80406 75.69173,11.4122 l -13.76215,24.18891 c -23.54048,-6.78117 -44.54583,-10.17174 -63.01607,-10.17174 -14.00358,0 -29.71143,2.10878 -36.95466,6.32632 -7.2432,4.13486 -10.86481,9.63422 -10.86481,16.49809 0,4.71374 1.44864,8.76589 4.34593,12.15649 2.89729,3.30788 11.05874,6.45036 17.69837,9.42746 6.63961,2.97708 20.28239,6.9052 37.54542,11.78434 19.43599,5.54071 33.68099,10.70928 42.73502,15.50571 9.05405,4.79642 15.69368,10.21308 19.9189,16.24998 4.22522,6.0369 6.33783,13.14885 6.33783,21.33587 z"
     id="path22" />
  <path
     style="opacity:0.1;fill:#ffffff;stroke-width:8.47458"
     d="m 47.380833,5.0282073 c -20.42288,0 -36.87765,16.4547697 -36.87765,36.8776497 v 8.47457 c 0,-20.42288 16.45477,-36.87764 36.87765,-36.87764 H 465.15096 c 20.42288,0 36.87764,16.45476 36.87764,36.87764 v -8.47457 c 0,-20.42288 -16.45476,-36.8776497 -36.87764,-36.8776497 z"
     id="path24" />
  <path
     style="opacity:0.2;stroke-width:8.47458"
     d="m 299.665,272.39116 c -10.46485,5.82781 -17.3393,13.13286 -20.77265,21.84851 12.61692,2.16978 32.32442,16.86547 39.57561,25.44028 v 0 c -2.89729,-3.39059 -4.3366,-7.4519 -4.3366,-12.16565 0,-6.86386 3.61485,-12.35083 10.85805,-16.48569 1.38606,-0.80704 3.1629,-1.5149 5.09799,-2.1683 -8.48787,-7.49085 -18.63114,-12.98098 -30.4224,-16.46915 z m -80.55814,3.85659 c -8.9117,3.86882 -16.75119,8.99442 -23.37129,15.52569 -0.84254,0.83594 -1.56835,1.77464 -2.36692,2.64831 9.8333,5.74874 16.93034,14.11652 21.38506,25.00992 1.78551,-3.31497 3.83537,-6.35583 6.17386,-9.07044 5.32719,-6.12779 12.05246,-10.5668 20.09402,-13.4236 -3.53211,-4.99596 -7.65247,-9.57712 -12.41393,-13.70497 -2.95278,-2.55985 -6.17051,-4.83537 -9.5008,-6.98491 z"
     id="path26" />
  <path
     style="fill:#bd66ff;stroke-width:8.47458"
     d="m 265.13772,259.2655 c -30.03011,0 -53.14574,8.01144 -69.38559,24.03337 -16.14913,16.02193 -24.232,38.99247 -24.232,68.88903 0,6.12702 0.55034,11.75862 1.22492,17.31329 l 33.60037,-12.61254 c -0.0491,-1.53017 -0.26492,-2.88463 -0.26492,-4.46902 2e-5,-22.21596 4.94144,-39.0699 14.83051,-50.54952 9.97982,-11.47963 24.72075,-17.21399 44.22671,-17.21399 19.32451,0 33.857,5.73436 43.56461,17.21399 3.26772,3.8284 5.80009,8.48384 7.97802,13.50635 l 31.18379,-11.71874 c -3.70501,-7.4916 -8.3772,-14.1936 -14.13533,-19.99472 -16.14912,-16.26967 -39.01463,-24.3975 -68.59109,-24.3975 z"
     id="path28" />
</svg>
