<?xml version="1.0" encoding="UTF-8" standalone="no"?>
<svg
   width="512"
   height="512"
   version="1.1"
   id="svg12"
   sodipodi:docname="mx.svg"
   inkscape:version="1.1.1 (3bf5ae0d25, 2021-09-20)"
   xmlns:inkscape="http://www.inkscape.org/namespaces/inkscape"
   xmlns:sodipodi="http://sodipodi.sourceforge.net/DTD/sodipodi-0.dtd"
   xmlns="http://www.w3.org/2000/svg"
   xmlns:svg="http://www.w3.org/2000/svg">
  <defs
     id="defs16" />
  <sodipodi:namedview
     id="namedview14"
     pagecolor="#ffffff"
     bordercolor="#666666"
     borderopacity="1.0"
     inkscape:pageshadow="2"
     inkscape:pageopacity="0.0"
     inkscape:pagecheckerboard="0"
     showgrid="false"
     inkscape:zoom="1.7050781"
     inkscape:cx="251.30813"
     inkscape:cy="256"
     inkscape:window-width="3440"
     inkscape:window-height="1417"
     inkscape:window-x="0"
     inkscape:window-y="0"
     inkscape:window-maximized="1"
     inkscape:current-layer="svg12" />
  <rect
     style="opacity:0.2;stroke-width:8.77193"
     width="491.22806"
     height="491.22806"
     x="8.9861288"
     y="14.359788"
     rx="24.561403"
     ry="24.561403"
     id="rect2" />
  <rect
     style="fill:#4f4f4f;stroke-width:8.77193"
     width="491.22806"
     height="491.22806"
     x="8.9861288"
     y="5.5878611"
     rx="24.561403"
     ry="24.561403"
     id="rect4" />
  <path
     style="opacity:0.1;fill:#ffffff;stroke-width:8.77193"
     d="m 33.554547,5.5878611 c -13.60702,0 -24.5684295,10.9613999 -24.5684295,24.5684199 v 8.77193 c 0,-13.60702 10.9614095,-24.56842 24.5684295,-24.56842 H 475.64402 c 13.60526,0 24.57018,10.9614 24.57018,24.56842 v -8.77193 c 0,-13.60702 -10.96492,-24.5684199 -24.57018,-24.5684199 z"
     id="path6" />
  <path
     style="opacity:0.2;stroke-width:8.77193"
     d="m 175.65279,119.62295 -35.08772,35.08772 96.85088,108.96491 -19.5614,23.00877 -24.6579,-26.71053 L 61.617697,409.09663 H 447.58262 l -87.7193,-105.26316 -10.1579,11.59649 -63.28947,-71.20175 90.99123,-107.0614 -17.54386,-17.54386 -90.05263,105.92982 z m 78.36842,162.72807 62.80702,70.64912 -18.36842,21.00877 -63.70175,-69.00877 z"
     id="path8" />
  <path
     style="fill:#ffffff;stroke-width:8.77193"
     d="m 175.65279,110.85102 -35.08772,35.08772 96.85088,108.96491 -19.5614,23.00877 -24.6579,-26.71053 L 61.617697,400.3247 H 447.58262 l -87.7193,-105.26316 -10.1579,11.59649 -63.28947,-71.20175 90.99123,-107.0614 -17.54386,-17.54386 -90.05263,105.92982 z m 78.36842,162.72807 62.80702,70.64912 -18.36842,21.00877 -63.70175,-69.00877 z"
     id="path10" />
</svg>
