<?xml version="1.0" encoding="UTF-8" standalone="no"?>
<svg
   width="512"
   height="512"
   version="1.1"
   id="svg76"
   sodipodi:docname="netrunner.svg"
   inkscape:version="1.1.1 (3bf5ae0d25, 2021-09-20)"
   xmlns:inkscape="http://www.inkscape.org/namespaces/inkscape"
   xmlns:sodipodi="http://sodipodi.sourceforge.net/DTD/sodipodi-0.dtd"
   xmlns="http://www.w3.org/2000/svg"
   xmlns:svg="http://www.w3.org/2000/svg">
  <defs
     id="defs80" />
  <sodipodi:namedview
     id="namedview78"
     pagecolor="#ffffff"
     bordercolor="#666666"
     borderopacity="1.0"
     inkscape:pageshadow="2"
     inkscape:pageopacity="0.0"
     inkscape:pagecheckerboard="0"
     showgrid="false"
     inkscape:zoom="1.7050781"
     inkscape:cx="251.30813"
     inkscape:cy="256"
     inkscape:window-width="3440"
     inkscape:window-height="1417"
     inkscape:window-x="0"
     inkscape:window-y="0"
     inkscape:window-maximized="1"
     inkscape:current-layer="svg76" />
  <circle
     style="opacity:0.2;stroke-width:8.77193"
     cx="255.4088"
     cy="262.15079"
     r="245.61403"
     id="circle2" />
  <ellipse
     style="fill:#2d4a5e;stroke-width:8.77193"
     cx="254.96141"
     cy="253.37886"
     rx="239.90352"
     ry="239.47368"
     id="ellipse4" />
  <path
     style="fill:#bcdced;stroke-width:8.77193"
     d="m 312.584,227.83092 c 0,135.64888 61.88098,28.70807 -74.01342,28.70807 -135.8944,0 -213.337198,128.4142 -213.337198,-7.23468 0,-8.67919 -15.8767105,-13.1787 -14.99685,-21.62553 C 21.307322,121.39745 100.27596,35.25716 203.08734,13.23345 c 16.72457,-3.5826504 34.0801,7.56994 51.87691,7.56994 135.8944,0 57.61975,71.37864 57.61975,207.02753 z"
     id="path6" />
  <path
     style="fill:#65a3cf;stroke-width:8.77193"
     d="m 254.96425,7.7648196 c -14.82209,0.10825 -29.60405,1.55337 -44.1656,4.3174404 l 71.46272,123.79043 119.1606,-79.20093 C 359.12584,25.10287 307.77648,7.9556696 254.96425,7.7648196 Z"
     id="path8" />
  <path
     style="fill:#6d8da4;stroke-width:8.77193"
     d="m 302.49393,364.91257 -49.33186,133.98439 -1.46579,-0.0719 v 0.0246 a 246.05858,245.61404 0 0 0 3.26797,0.1433 246.05858,245.61404 0 0 0 177.47936,-75.91489 z"
     id="path10" />
  <path
     style="fill:#426f8e;stroke-width:8.77193"
     d="m 214.73944,419.0484 -52.11924,61.78728 a 246.05858,245.61404 0 0 0 76.36466,17.43763 v -0.0719 l -1.8983,-0.0965 z"
     id="path12" />
  <path
     style="opacity:0.7;fill:#ff0000;stroke-width:8.77193"
     d="m 432.44361,423.078 h 0.0246 a 246.05858,245.61404 0 0 0 4.58957,-4.91707 246.05858,245.61404 0 0 1 -4.61359,4.91707 z"
     id="path14" />
  <path
     style="opacity:0.7;fill:#ff0000;stroke-width:8.77193"
     d="m 148.99567,474.69533 a 246.05858,245.61404 0 0 0 13.192,5.97244 246.05858,245.61404 0 0 1 -13.192,-5.97244 z"
     id="path16" />
  <path
     style="opacity:0.7;fill:#1b5e99;stroke-width:8.77193"
     d="M 401.61419,56.52784 16.426802,312.62364 a 246.05858,245.61404 0 0 0 4.2051,14.77523 L 483.14514,344.8365 A 246.05858,245.61404 0 0 0 501.02283,253.37885 246.05858,245.61404 0 0 0 401.61419,56.52784 Z"
     id="path18" />
  <path
     style="fill:#81bde3;stroke-width:8.77193"
     d="m 125.49514,44.70287 c -4.52655,2.861 -8.95829,5.86882 -13.28812,9.01864 l 58.58309,208.4841 17.73352,-167.13268 z"
     id="path20" />
  <path
     style="fill:#316f9f;fill-opacity:0;stroke-width:8.77193"
     d="m 400.65304,55.80827 -118.22346,80.35224 63.67726,110.28647 66.77704,-181.38021 c -3.97949,-3.21239 -8.05842,-6.30006 -12.23084,-9.2585 z"
     id="path22" />
  <path
     style="fill:#4f96cb;stroke-width:8.77193"
     d="m 210.67851,11.89037 a 246.05858,245.61404 0 0 0 -13.6726,3.07017 l -8.48228,80.11239 70.91004,56.70229 22.99591,-15.61471 z"
     id="path24" />
  <path
     style="fill:#5687a5;stroke-width:8.77193"
     d="m 346.10684,246.44698 -43.61291,118.46559 129.9737,58.16543 a 246.05858,245.61404 0 0 0 9.6357,-10.33786 z"
     id="path26" />
  <path
     style="opacity:0.7;fill:#3885c0;stroke-width:8.77193"
     d="m 170.79011,262.20561 -22.49129,212.17791 a 246.05858,245.61404 0 0 0 14.29736,6.47616 l 52.23938,-61.93121 z"
     id="path28" />
  <path
     style="fill:#224c6d;stroke-width:8.77193"
     d="m 464.04197,124.16764 -79.17609,16.95793 v 0.0246 l -58.1746,158.01809 144.94388,-161.75987 c -2.39311,-4.49078 -4.92541,-8.9063 -7.59319,-13.24013 z"
     id="path30" />
  <path
     style="fill:#29628f;stroke-width:8.77193"
     d="M 165.71997,302.98136 146.30441,473.4001 c 5.64826,2.8266 11.4035,5.43498 17.25293,7.81935 l 52.26342,-58.33333 -31.62237,-111.91749 z"
     id="path32" />
  <path
     style="fill:#438ec5;stroke-width:8.77193"
     d="m 188.52363,95.07293 -9.56359,90.1864 42.84398,-9.18653 37.14907,-24.68135 z"
     id="path34" />
  <path
     style="fill:#2f6c9f;stroke-width:8.77193"
     d="m 282.42958,136.16051 -22.99591,15.61471 -0.48053,-0.38368 -37.14909,24.68135 74.46637,-15.95053 z"
     id="path36" />
  <path
     style="fill:#316e9e;stroke-width:8.77193"
     d="m 296.27037,160.12228 89.79696,-19.23657 27.58548,-74.95546 c -3.97949,-3.21238 -8.05842,-6.30005 -12.23084,-9.25849 l -118.41569,80.47216 z"
     id="path38" />
  <path
     style="fill:#4c7da1;stroke-width:8.77193"
     d="m 412.57149,65.45054 -27.87382,75.72299 78.98384,-16.93393 C 449.88375,102.05596 432.63047,82.21044 412.57149,65.45054 Z"
     id="path40" />
  <path
     style="opacity:0.7;fill:#ff00ff;stroke-width:8.77193"
     d="m 471.4189,137.11994 c 0,0 0.17017,0.33842 0,0 z"
     id="path42" />
  <path
     style="fill:#4c7798;stroke-width:8.77193"
     d="m 10.707862,235.91722 c -0.51366,5.9437 -0.8102305,11.90413 -0.8890905,17.86939 0.11018,19.66916 2.5868705,39.25389 7.3769505,58.33333 l 66.87316,-44.46958 -70.11708,-30.34196 z"
     id="path44" />
  <path
     style="fill:#71848e;stroke-width:8.77193"
     d="m 401.10958,341.74233 40.99375,70.99781 a 246.05858,245.61404 0 0 0 41.04181,-67.90364 z"
     id="path46" />
  <path
     style="fill:#35576f;stroke-width:8.77193"
     d="M 471.56309,137.43177 326.451,299.35954 l -14.36944,39.02479 171.06358,6.45217 c 11.75112,-29.06786 17.81954,-60.11233 17.87769,-91.45765 -0.0972,-40.48184 -10.21743,-80.31201 -29.45974,-115.94708 z"
     id="path48" />
  <path
     style="fill:#285477;stroke-width:8.77193"
     d="m 84.309172,267.48249 -67.88237,45.14115 c 1.24705,4.96764 2.64943,9.89513 4.2051,14.77523 l 141.651888,5.34883 3.46019,-30.31799 z"
     id="path50" />
  <path
     style="fill:#265679;stroke-width:8.77193"
     d="m 356.99205,265.29977 -30.25272,33.72396 -14.48957,39.3606 88.85982,3.358 z"
     id="path52" />
  <path
     style="fill:#4f82a6;stroke-width:8.77193"
     d="m 17.964672,318.04442 c -0.10684,0.0754 -0.18142,0.14035 -0.28835,0.21596 18.69875,67.70665 65.55797,124.09932 128.628078,155.06786 l 16.0755,-140.9643 h -0.0474 l -0.0474,0.38386 -141.652028,-5.34884 c -0.98628,-3.09019 -1.80685,-6.22828 -2.66846,-9.35454 z m 129.421038,155.8354 c 0.31018,0.15088 0.6022,0.33053 0.91313,0.47965 0.001,-0.0175 -0.001,-0.0316 0,-0.0474 -0.30237,-0.14737 -0.61123,-0.28246 -0.91313,-0.43175 z"
     id="path54" />
  <path
     style="fill:#20476a;stroke-width:8.77193"
     d="m 165.71997,302.98136 -3.34007,29.23864 28.11412,1.05543 -6.29563,-22.30673 z"
     id="path56" />
  <path
     style="fill:#1d4568;stroke-width:8.77193"
     d="m 346.10684,246.44698 -19.41556,52.72066 30.30077,-33.81991 z"
     id="path58" />
  <path
     style="fill:#204a6c;stroke-width:8.77193"
     d="m 353.24351,227.06649 -26.55223,72.10115 48.70711,-54.3517 z"
     id="path60" />
  <path
     style="fill:#2c5774;stroke-width:8.77193"
     d="m 375.35033,244.79196 -18.35828,20.50781 44.11753,76.44256 21.24179,0.7914 60.38526,2.27865 c 0.79912,-1.81347 1.57597,-3.63652 2.33083,-5.46875 0.65473,-1.73737 1.21158,-3.50265 1.82621,-5.25288 z"
     id="path62" />
  <path
     style="fill:#2e639c;stroke-width:8.77193"
     d="m 258.83295,151.46342 -37.02893,24.60938 53.44084,-11.44119 z"
     id="path64" />
  <path
     style="fill:#1d4568;stroke-width:8.77193"
     d="m 346.10684,246.44698 -19.41556,52.69666 30.32481,-33.81989 z"
     id="path66" />
  <path
     style="fill:#343f4b;stroke-width:8.77193"
     d="m 384.86588,141.12557 -371.827188,79.70462 -1.75413,0.38377 c -0.63619,4.74965 -1.13302,9.51686 -1.4898105,14.29551 l 174.4036385,75.45916 52.88817,187.13679 16.07551,0.7914 z"
     id="path68" />
  <path
     style="opacity:0.2;stroke-width:8.77193"
     d="M 212.77346,295.29742 97.964392,240.20291 335.88275,191.45399 249.33234,420.49289 Z"
     id="path70" />
  <path
     style="fill:#ffffff;stroke-width:8.77193"
     d="M 212.77346,286.52942 97.964392,231.43492 335.88275,182.68599 249.33234,411.72489 Z"
     id="path72" />
  <path
     style="opacity:0.2;fill:#ffffff;stroke-width:8.77193"
     d="M 255.40879,7.7648196 A 245.61404,245.61404 0 0 0 9.7947515,253.37885 a 245.61404,245.61404 0 0 0 0.1542,4.31744 A 245.61404,245.61404 0 0 1 255.40879,16.53675 245.61404,245.61404 0 0 1 500.8001,257.69629 245.61404,245.61404 0 0 0 501.02283,253.37885 245.61404,245.61404 0 0 0 255.40879,7.7648196 Z"
     id="path74" />
</svg>
