<?xml version="1.0" encoding="UTF-8"?>
<svg enable-background="new 0 0 120.071 150.431" height="150.43" viewBox="0,0,120.071,150.431" width="120.07" xmlns="http://www.w3.org/2000/svg" xmlns:xlink="http://www.w3.org/1999/xlink">
 <defs>
  <path id="a" d="m107.664 58.121c1.723 9.34-19.725 26.273-48.256 37.254-28.534 10.978-53.349 11.851-55.074 2.507-1.025-5.558 5.18-12.888 17.259-20.834.031.195.166.349.202.546-9.778 6.829-15.64 13.435-14.759 18.202 1.591 8.619 27.552 5.041 53.883-5.089 26.328-10.132 45.143-24.381 43.553-33.002-1.32-7.146-11.287-8.418-31.656-2.56-.023-.089-.076-.248-.102-.332 22.617-6.686 33.495-4.572 34.95 3.308"/>
  <clipPath id="b">
   <use xlink:href="#a"/>
  </clipPath>
 </defs>
 <use fill="#656668" xlink:href="#a"/>
 <g clip-path="url(#b)">
  <path d="m0 84.886 26.12 65.545 93.951-81.173-26.121-65.547z" fill="none"/>
 </g>
 <path d="m44.074 39.358c6.31 0 11.538 2.284 15.687 6.852 3.771 4.166 5.657 9.097 5.657 14.793 0 5.722-1.993 10.722-5.977 15-3.985 4.279-9.107 6.418-15.366 6.418-6.285 0-11.42-2.139-15.404-6.418-3.985-4.278-5.977-9.278-5.977-15 0-5.671 1.885-10.59 5.656-14.756 4.148-4.592 9.389-6.889 15.724-6.889zm-.019 5.158c-4.382 0-8.147 1.619-11.295 4.855-3.147 3.237-4.722 7.152-4.722 11.745 0 2.961.718 5.722 2.153 8.281 1.435 2.56 3.374 4.535 5.817 5.928 2.443 1.394 5.125 2.09 8.046 2.09s5.603-.696 8.046-2.09c2.443-1.393 4.382-3.368 5.817-5.928s2.153-5.32 2.153-8.281c0-4.593-1.58-8.508-4.741-11.745-3.159-3.236-6.917-4.855-11.274-4.855z" fill="#4667a9"/>
 <path d="m74.679 23.549c1.199 0 2.224.428 3.073 1.28.85.854 1.274 1.882 1.274 3.087 0 1.18-.425 2.196-1.274 3.049-.85.854-1.874 1.279-3.073 1.279-1.174 0-2.187-.426-3.036-1.279s-1.273-1.869-1.273-3.049c0-1.205.425-2.233 1.273-3.087.85-.852 1.862-1.28 3.036-1.28zm-2.616 16.864h5.271v40.954h-5.271z" fill="#59595b"/>
</svg>
