<?xml version="1.0" encoding="UTF-8" standalone="no"?>
<svg
   width="512"
   height="512"
   version="1.1"
   id="svg12"
   sodipodi:docname="openmandriva.svg"
   inkscape:version="1.1.1 (3bf5ae0d25, 2021-09-20)"
   xmlns:inkscape="http://www.inkscape.org/namespaces/inkscape"
   xmlns:sodipodi="http://sodipodi.sourceforge.net/DTD/sodipodi-0.dtd"
   xmlns="http://www.w3.org/2000/svg"
   xmlns:svg="http://www.w3.org/2000/svg">
  <defs
     id="defs16" />
  <sodipodi:namedview
     id="namedview14"
     pagecolor="#ffffff"
     bordercolor="#666666"
     borderopacity="1.0"
     inkscape:pageshadow="2"
     inkscape:pageopacity="0.0"
     inkscape:pagecheckerboard="0"
     showgrid="false"
     inkscape:zoom="1.7050781"
     inkscape:cx="251.30813"
     inkscape:cy="256"
     inkscape:window-width="3440"
     inkscape:window-height="1417"
     inkscape:window-x="0"
     inkscape:window-y="0"
     inkscape:window-maximized="1"
     inkscape:current-layer="svg12" />
  <circle
     style="opacity:0.2;stroke-width:8.77193"
     cx="258.2742"
     cy="260.81091"
     r="245.61403"
     id="circle2" />
  <circle
     style="fill:#248afd;stroke-width:8.77193"
     cx="258.2742"
     cy="252.03897"
     r="245.61403"
     id="circle4" />
  <path
     style="opacity:0.2;fill:#ffffff;stroke-width:8.77193"
     d="M 258.2742,6.4249356 A 245.61404,245.61404 0 0 0 12.660158,252.03897 a 245.61404,245.61404 0 0 0 0.1886,5.14035 A 245.61404,245.61404 0 0 1 258.2742,15.196866 245.61404,245.61404 0 0 1 503.70402,255.67055 245.61404,245.61404 0 0 0 503.88824,252.03897 245.61404,245.61404 0 0 0 258.2742,6.4249356 Z"
     id="path6" />
  <path
     style="opacity:0.2;stroke-width:8.77193"
     d="M 258.2742,50.284586 A 210.52632,210.52632 0 0 0 47.747878,260.8109 210.52632,210.52632 0 0 0 258.2742,471.33722 210.52632,210.52632 0 0 0 463.45841,307.24072 157.89474,157.89474 0 0 1 328.44964,383.61792 157.89474,157.89474 0 0 1 170.5549,225.72318 157.89474,157.89474 0 0 1 328.44964,67.828446 a 157.89474,157.89474 0 0 1 15.31579,0.75438 210.52632,210.52632 0 0 0 -85.49123,-18.29824 z m 70.17544,35.08772 A 140.35088,140.35088 0 0 0 188.09876,225.72318 140.35088,140.35088 0 0 0 328.44964,366.07406 140.35088,140.35088 0 0 0 468.80052,225.72318 140.35088,140.35088 0 0 0 328.44964,85.372306 Z m 0,35.087724 A 105.26316,105.26316 0 0 1 433.7128,225.72318 105.26316,105.26316 0 0 1 328.44964,330.98634 105.26316,105.26316 0 0 1 223.18648,225.72318 105.26316,105.26316 0 0 1 328.44964,120.46003 Z"
     id="path8" />
  <path
     style="fill:#ffffff;stroke-width:8.77193"
     d="M 258.2742,41.512656 A 210.52632,210.52632 0 0 0 47.747878,252.03897 210.52632,210.52632 0 0 0 258.2742,462.56529 210.52632,210.52632 0 0 0 463.45841,298.4688 157.89474,157.89474 0 0 1 328.44964,374.84599 157.89474,157.89474 0 0 1 170.5549,216.95125 157.89474,157.89474 0 0 1 328.44964,59.056516 a 157.89474,157.89474 0 0 1 15.31579,0.75438 210.52632,210.52632 0 0 0 -85.49123,-18.29824 z m 70.17544,35.08772 A 140.35088,140.35088 0 0 0 188.09876,216.95125 140.35088,140.35088 0 0 0 328.44964,357.30213 140.35088,140.35088 0 0 0 468.80052,216.95125 140.35088,140.35088 0 0 0 328.44964,76.600376 Z m 0,35.087724 A 105.26316,105.26316 0 0 1 433.7128,216.95125 105.26316,105.26316 0 0 1 328.44964,322.21441 105.26316,105.26316 0 0 1 223.18648,216.95125 105.26316,105.26316 0 0 1 328.44964,111.6881 Z"
     id="path10" />
</svg>
