<?xml version="1.0" encoding="UTF-8" standalone="no"?>
<svg
   width="512"
   height="512"
   version="1.1"
   id="svg12"
   sodipodi:docname="parrot.svg"
   inkscape:version="1.1.1 (3bf5ae0d25, 2021-09-20)"
   xmlns:inkscape="http://www.inkscape.org/namespaces/inkscape"
   xmlns:sodipodi="http://sodipodi.sourceforge.net/DTD/sodipodi-0.dtd"
   xmlns="http://www.w3.org/2000/svg"
   xmlns:svg="http://www.w3.org/2000/svg">
  <defs
     id="defs16" />
  <sodipodi:namedview
     id="namedview14"
     pagecolor="#ffffff"
     bordercolor="#666666"
     borderopacity="1.0"
     inkscape:pageshadow="2"
     inkscape:pageopacity="0.0"
     inkscape:pagecheckerboard="0"
     showgrid="false"
     inkscape:zoom="1.7050781"
     inkscape:cx="251.30813"
     inkscape:cy="256"
     inkscape:window-width="3440"
     inkscape:window-height="1417"
     inkscape:window-x="0"
     inkscape:window-y="0"
     inkscape:window-maximized="1"
     inkscape:current-layer="svg12" />
  <circle
     style="opacity:0.2;stroke-width:8.77193"
     cx="256.72116"
     cy="262.18988"
     r="245.61403"
     id="circle2" />
  <circle
     style="fill:#55ddff;stroke-width:8.77193"
     cx="256.72116"
     cy="253.41794"
     r="245.61403"
     id="circle4" />
  <path
     style="opacity:0.1;stroke-width:8.77193"
     d="m 195.31764,77.979349 -70.17544,30.701751 35.08772,74.5614 v -43.85964 h 35.08772 l 61.40351,122.80701 h 61.40351 v 210.52632 l 30.70175,-149.12281 30.70176,87.7193 V 262.18987 l 61.40351,61.40351 -35.08772,-61.40351 -87.7193,-149.1228 h -61.40351 z"
     id="path6" />
  <path
     style="opacity:0.2;fill:#ffffff;stroke-width:8.77193"
     d="M 256.72115,7.8039089 A 245.61404,245.61404 0 0 0 11.107108,253.41794 a 245.61404,245.61404 0 0 0 0.1886,5.14035 A 245.61404,245.61404 0 0 1 256.72115,16.575839 245.61404,245.61404 0 0 1 502.15097,257.04952 245.61404,245.61404 0 0 0 502.33519,253.41794 245.61404,245.61404 0 0 0 256.72115,7.8039089 Z"
     id="path8" />
  <path
     style="fill:#3f3f3f;stroke-width:8.77193"
     d="m 195.31764,69.207419 -70.17544,30.70175 35.08772,74.561411 v -43.85965 h 35.08772 l 61.40351,122.80701 h 61.40351 v 210.52632 l 30.70175,-149.12281 30.70176,87.7193 V 253.41794 l 61.40351,61.40351 -35.08772,-61.40351 -87.7193,-149.1228 h -61.40351 z"
     id="path10" />
</svg>
