<?xml version="1.0" encoding="UTF-8" standalone="no"?>
<svg
   width="512"
   height="512"
   version="1.1"
   id="svg16"
   sodipodi:docname="pclinuxos.svg"
   inkscape:version="1.1.1 (3bf5ae0d25, 2021-09-20)"
   xmlns:inkscape="http://www.inkscape.org/namespaces/inkscape"
   xmlns:sodipodi="http://sodipodi.sourceforge.net/DTD/sodipodi-0.dtd"
   xmlns="http://www.w3.org/2000/svg"
   xmlns:svg="http://www.w3.org/2000/svg">
  <defs
     id="defs20" />
  <sodipodi:namedview
     id="namedview18"
     pagecolor="#ffffff"
     bordercolor="#666666"
     borderopacity="1.0"
     inkscape:pageshadow="2"
     inkscape:pageopacity="0.0"
     inkscape:pagecheckerboard="0"
     showgrid="false"
     inkscape:zoom="1.7050781"
     inkscape:cx="251.30813"
     inkscape:cy="256"
     inkscape:window-width="3440"
     inkscape:window-height="1417"
     inkscape:window-x="0"
     inkscape:window-y="0"
     inkscape:window-maximized="1"
     inkscape:current-layer="svg16" />
  <circle
     cx="257.02591"
     cy="260.75079"
     r="245.61403"
     style="opacity:0.2;stroke-width:8.77193"
     id="circle2" />
  <circle
     cx="257.02591"
     cy="251.97888"
     r="245.61403"
     style="fill:#238adb;stroke-width:8.77193"
     id="circle4" />
  <circle
     cx="257.02591"
     cy="260.75079"
     r="192.98245"
     style="opacity:0.1;stroke-width:8.77193"
     id="circle6" />
  <circle
     cx="257.02591"
     cy="251.97888"
     r="192.98245"
     style="fill:#3f3f3f;stroke-width:8.77193"
     id="circle8" />
  <path
     d="m 390.50659,165.03794 c 0,-0.26587 -1.44667,0.65018 -3.1781,2.03878 -4.40057,3.52924 -8.93438,4.94599 -21.88698,6.83594 -12.06563,1.76055 -17.87957,3.76188 -19.42844,6.65605 -0.53395,0.99756 -2.4306,3.08092 -4.19752,4.67722 -1.76695,1.59629 -3.42619,3.87522 -3.71781,5.03701 -0.72921,2.90542 1.80379,8.19983 6.59608,13.73184 5.35721,6.18434 8.03522,11.68324 8.03524,16.55016 0,3.4736 -0.38684,4.30365 -3.23807,7.01583 -4.88952,4.65128 -11.02044,6.317 -22.78647,6.23631 -17.15396,-0.11789 -33.22,-4.58108 -64.94142,-18.10924 -25.99525,-11.08612 -37.33276,-13.85727 -48.81099,-11.75302 -6.16022,1.12933 -15.5417,5.68009 -20.38788,9.83416 -7.68158,6.58454 -21.94383,27.46579 -30.94162,45.39303 l -5.93647,11.93292 -4.61726,-4.79717 c -7.54095,-7.83764 -9.89411,-10.95289 -9.89411,-13.13219 0,-1.35186 -0.48685,-2.09878 -1.37918,-2.09878 -1.13461,0 -1.29662,0.68843 -0.95949,4.19752 0.44307,4.61126 3.74042,10.16469 10.61369,17.80941 l 3.7178,4.13753 -3.05818,9.77419 c -1.68258,5.39381 -3.52176,12.42129 -4.07758,15.59077 -0.97362,5.55149 -1.20474,6.03187 -7.31565,12.41262 -7.31034,7.63322 -8.31119,7.89897 -17.02988,4.61725 -7.2685,-2.73585 -19.15407,-5.57669 -23.326134,-5.57669 -3.88637,0 -8.39502,1.95705 -8.39502,3.65783 0,0.81201 1.29927,1.12614 4.79715,1.07922 3.93623,-0.0517 7.258664,0.85869 17.869374,4.85713 16.81832,6.33758 18.34901,6.72768 22.24679,5.99644 2.43946,-0.45781 4.63726,-1.96344 8.81475,-5.99644 l 5.5767,-5.39678 1.61903,1.73894 c 2.12149,2.34906 9.74482,6.17125 15.95053,7.97524 l 4.97703,1.43905 -3.83772,0.95937 c -5.23218,1.32853 -8.55833,3.93613 -10.43379,8.09519 -1.54848,3.43393 -1.55892,3.53734 0,4.67723 2.07153,1.5147 16.77754,1.55228 19.72827,0.0614 1.73239,-0.87658 5.066,-5.53549 6.11637,-8.51495 0.14763,-0.41948 2.07784,-0.0518 4.25747,0.77956 4.84571,1.8507 14.08573,1.34621 20.62775,-1.1394 2.33493,-0.88741 4.25746,-1.31625 4.25746,-0.95937 0,0.3564 -1.69999,2.29968 -3.77775,4.37743 -2.50189,2.50187 -3.77776,4.51885 -3.77776,5.93644 0,4.73872 0.1464,4.79716 11.87295,4.79716 7.92703,0 10.94848,-0.25175 11.21333,-1.0193 v -0.0614 c 0.19921,-0.57718 0.46728,-7.66804 0.59965,-15.83058 0.21886,-13.50099 0.38921,-15.05488 1.97882,-17.20978 4.86291,-6.59206 28.06197,-15.91149 42.99446,-17.26973 l 4.37739,-0.41974 v 2.57843 c 0,1.42284 -1.76572,7.59185 -3.95763,13.67188 l -4.01764,11.03348 -4.43735,1.0193 c -5.00071,1.11901 -9.47908,4.4976 -11.09341,8.39498 -1.93151,4.66301 -1.11705,5.03703 10.07401,5.03703 11.82116,0 10.93012,0.50992 17.20981,-10.55374 3.43629,-6.05412 6.38616,-9.54773 16.25034,-19.36839 l 12.05284,-11.99288 3.65781,0.95936 c 7.4437,1.99095 36.44599,26.07093 40.23611,33.40015 1.35284,2.61579 1.04656,4.27402 -1.37912,7.43559 -1.95902,2.55346 -2.04523,5.69164 -0.12036,6.17634 3.31655,0.83438 17.8587,0.69166 19.48842,-0.18176 0.95028,-0.50842 1.74066,-1.73551 1.73894,-2.75824 -0.002,-1.02274 -3.03546,-7.14777 -6.71599,-13.61193 -7.97971,-14.01486 -9.07487,-16.61577 -18.16947,-43.41307 -5.93937,-17.50044 -7.01579,-21.60239 -7.01579,-26.14446 0,-9.44919 3.9803,-16.87116 13.13217,-24.4055 2.63269,-2.16745 4.88116,-4.5574 4.97702,-5.33683 0.0958,-0.77947 0.57106,-3.21005 1.0193,-5.39679 0.87979,-4.2944 0.2886,-9.06962 -1.49923,-12.41262 -0.61614,-1.1534 -3.13185,-4.53686 -5.63601,-7.49466 -5.68271,-6.71232 -6.66093,-8.96773 -4.73718,-11.09341 0.81053,-0.89563 2.55439,-1.55906 4.07756,-1.55906 4.45191,0 11.19004,-2.43035 18.76887,-6.77597 3.9675,-2.27495 7.76801,-4.13755 8.51492,-4.13755 1.95386,0 4.44549,-3.0103 7.4356,-8.99465 1.43537,-2.87262 2.63851,-5.43082 2.63851,-5.69661 z"
     style="opacity:0.2;stroke-width:8.77193"
     id="path10" />
  <path
     d="m 390.50659,156.26601 c 0,-0.26587 -1.44667,0.65018 -3.1781,2.03878 -4.40057,3.52924 -8.93438,4.94599 -21.88698,6.83594 -12.06563,1.76055 -17.87957,3.76188 -19.42844,6.65605 -0.53395,0.99756 -2.4306,3.08092 -4.19752,4.67722 -1.76695,1.59629 -3.42619,3.87522 -3.71781,5.03701 -0.72921,2.90542 1.80379,8.19983 6.59608,13.73184 5.35721,6.18434 8.03522,11.68324 8.03524,16.55016 0,3.4736 -0.38684,4.30365 -3.23807,7.01583 -4.88952,4.65128 -11.02044,6.317 -22.78647,6.23631 -17.15396,-0.11789 -33.22,-4.58108 -64.94142,-18.10924 -25.99525,-11.08612 -37.33276,-13.85727 -48.81099,-11.75302 -6.16022,1.12933 -15.5417,5.68009 -20.38788,9.83416 -7.68158,6.58454 -21.94383,27.46579 -30.94162,45.39303 l -5.93647,11.93292 -4.61726,-4.79717 c -7.54095,-7.83764 -9.89411,-10.95289 -9.89411,-13.13219 0,-1.35186 -0.48685,-2.09878 -1.37918,-2.09878 -1.13461,0 -1.29662,0.68843 -0.95949,4.19752 0.44307,4.61126 3.74042,10.1647 10.61369,17.80941 l 3.7178,4.13753 -3.05818,9.77419 c -1.68258,5.39381 -3.52176,12.42129 -4.07758,15.59077 -0.97362,5.55149 -1.20474,6.03187 -7.31565,12.41262 -7.31034,7.63322 -8.31119,7.89897 -17.02988,4.61725 -7.2685,-2.73585 -19.15407,-5.57669 -23.326134,-5.57669 -3.88637,0 -8.39502,1.95705 -8.39502,3.65783 0,0.81201 1.29927,1.12614 4.79715,1.07922 3.93623,-0.0517 7.258664,0.85869 17.869374,4.85713 16.81832,6.33758 18.34901,6.72768 22.24679,5.99644 2.43946,-0.45781 4.63726,-1.96344 8.81475,-5.99644 l 5.5767,-5.39678 1.61903,1.73894 c 2.12149,2.34906 9.74482,6.17125 15.95053,7.97524 l 4.97703,1.43905 -3.83772,0.95937 c -5.23218,1.32853 -8.55833,3.93613 -10.43379,8.09519 -1.54848,3.43393 -1.55892,3.53734 0,4.67723 2.07153,1.5147 16.77754,1.55228 19.72827,0.0614 1.73239,-0.87658 5.066,-5.53549 6.11637,-8.51495 0.14763,-0.41947 2.07784,-0.0518 4.25747,0.77956 4.84571,1.8507 14.08573,1.34621 20.62775,-1.1394 2.33493,-0.88741 4.25746,-1.31625 4.25746,-0.95937 0,0.3564 -1.69999,2.29968 -3.77775,4.37743 -2.50189,2.50187 -3.77776,4.51885 -3.77776,5.93644 0,4.73872 0.1464,4.79716 11.87295,4.79716 7.92703,0 10.94848,-0.25175 11.21333,-1.01929 v -0.0614 c 0.19921,-0.57719 0.46728,-7.66805 0.59965,-15.83059 0.21886,-13.50099 0.38921,-15.05488 1.97882,-17.20978 4.86291,-6.59206 28.06197,-15.91149 42.99446,-17.26973 l 4.37739,-0.41974 v 2.57843 c 0,1.42284 -1.76572,7.59185 -3.95763,13.67188 l -4.01764,11.03348 -4.43735,1.0193 c -5.00071,1.11901 -9.47908,4.4976 -11.09341,8.39498 -1.93151,4.66301 -1.11705,5.03703 10.07401,5.03703 11.82116,0 10.93012,0.50992 17.20981,-10.55374 3.43629,-6.05412 6.38616,-9.54773 16.25034,-19.36839 l 12.05284,-11.99288 3.65781,0.95937 c 7.4437,1.99094 36.44599,26.07092 40.23611,33.40014 1.35284,2.61579 1.04656,4.27402 -1.37912,7.43559 -1.95902,2.55346 -2.04523,5.69164 -0.12036,6.17634 3.31655,0.83438 17.8587,0.69166 19.48842,-0.18176 0.95028,-0.50842 1.74066,-1.73551 1.73894,-2.75824 -0.002,-1.02274 -3.03546,-7.14777 -6.71599,-13.61193 -7.97971,-14.01486 -9.07487,-16.61577 -18.16947,-43.41307 -5.93937,-17.50044 -7.01579,-21.60239 -7.01579,-26.14446 0,-9.44919 3.9803,-16.87116 13.13217,-24.4055 2.63269,-2.16745 4.88116,-4.5574 4.97702,-5.33683 0.0958,-0.77947 0.57106,-3.21005 1.0193,-5.39678 0.87979,-4.29441 0.2886,-9.06963 -1.49923,-12.41263 -0.61614,-1.1534 -3.13185,-4.53686 -5.63601,-7.49466 -5.68271,-6.71232 -6.66093,-8.96773 -4.73718,-11.09341 0.81053,-0.89563 2.55439,-1.55906 4.07756,-1.55906 4.45191,0 11.19004,-2.43035 18.76887,-6.77597 3.9675,-2.27495 7.76801,-4.13755 8.51492,-4.13755 1.95386,0 4.44549,-3.0103 7.4356,-8.99465 1.43537,-2.87262 2.63851,-5.43082 2.63851,-5.69661 z"
     style="fill:#fcfcfd;stroke-width:8.77193"
     id="path12" />
  <path
     d="M 257.02592,6.3648339 A 245.61404,245.61404 0 0 0 11.411876,251.97886 245.61404,245.61404 0 0 0 11.600336,257.11867 245.61404,245.61404 0 0 1 257.02592,15.136764 245.61404,245.61404 0 0 1 502.4515,255.61099 245.61404,245.61404 0 0 0 502.63996,251.97886 245.61404,245.61404 0 0 0 257.02592,6.3648339 Z"
     style="opacity:0.2;fill:#ffffff;stroke-width:8.77193"
     id="path14" />
</svg>
