<?xml version="1.0" encoding="UTF-8" standalone="no"?>
<svg
   width="512"
   height="512"
   version="1.1"
   id="svg46"
   sodipodi:docname="pisilinux.svg"
   inkscape:version="1.1.1 (3bf5ae0d25, 2021-09-20)"
   xmlns:inkscape="http://www.inkscape.org/namespaces/inkscape"
   xmlns:sodipodi="http://sodipodi.sourceforge.net/DTD/sodipodi-0.dtd"
   xmlns="http://www.w3.org/2000/svg"
   xmlns:svg="http://www.w3.org/2000/svg">
  <defs
     id="defs50" />
  <sodipodi:namedview
     id="namedview48"
     pagecolor="#ffffff"
     bordercolor="#666666"
     borderopacity="1.0"
     inkscape:pageshadow="2"
     inkscape:pageopacity="0.0"
     inkscape:pagecheckerboard="0"
     showgrid="false"
     inkscape:zoom="1.7050781"
     inkscape:cx="251.30813"
     inkscape:cy="256"
     inkscape:window-width="3440"
     inkscape:window-height="1417"
     inkscape:window-x="0"
     inkscape:window-y="0"
     inkscape:window-maximized="1"
     inkscape:current-layer="svg46" />
  <path
     style="opacity:0.2;stroke-width:12.1951"
     d="m 488.28012,27.247786 c -0.90781,-2.70794 -0.82889,-6.11975 -2.53597,-8.35844 -23.33702,3.36292 -46.4372,9.12096 -68.03749,18.63297 -22.88309,9.82484 -47.748,26.31865 -65.23349,43.96426 28.49253,29.657204 50.56226,65.835804 76.40181,93.961694 12.03854,17.43053 24.1655,44.47554 34.44759,62.9521 2.27943,-4.12545 16.04706,-21.77272 17.95151,-26.10347 15.04819,-30.98002 18.22558,-66.05615 17.4263,-99.9885 -0.34536,-28.624014 -4.59833,-57.052494 -10.42026,-85.060614 z"
     id="path2" />
  <path
     style="opacity:0.2;stroke-width:12.1951"
     d="m 21.545289,27.247786 c 0.90782,-2.70794 0.82888,-6.11975 2.53599,-8.35844 23.33701,3.36292 46.43719,9.12096 68.03748,18.63297 22.883091,9.82484 47.748001,26.31865 65.233491,43.96426 -28.49253,29.657204 -50.56225,65.835804 -76.401811,93.961694 -12.03854,17.43053 -24.1655,44.47554 -34.4476,62.9521 -2.27942,-4.12545 -16.04706,-21.77272 -17.95151,-26.10347 -15.04818,-30.98002 -18.22557,-66.05615 -17.42629,-99.9885 0.34537,-28.624014 4.59833,-57.052494 10.42025,-85.060614 z"
     id="path4" />
  <path
     style="opacity:0.2;stroke-width:12.1951"
     d="m 170.12574,71.250266 c -4.70964,3.13306 -9.28675,6.44604 -13.75492,9.89809 -10.53554,7.90957 -20.16396,17.01652 -29.54548,26.245474 -3.56758,3.67717 -7.05717,7.42218 -10.4805,11.22422 -1.5682,1.72793 -3.12545,3.465 -4.66302,5.21747 -1.17365,1.36216 -2.3395,2.73077 -3.49689,4.10606 -0.007,0.009 -0.0146,0.0171 -0.022,0.0256 -0.0219,0.0268 -0.0451,0.0537 -0.0671,0.0793 -32.288171,38.04938 -57.915121,81.5627 -78.426381,126.94861 -2.13759,4.87864 -4.20572,9.78702 -6.21444,14.71947 -0.44334,1.0656 -0.89002,2.13008 -1.32751,3.19778 -0.15085,0.41549 -0.3093,0.82866 -0.46237,1.24344 -2.27408,5.71787 -4.45821,11.47174 -6.54159,17.26144 -0.24689,0.68036 -0.48718,1.36312 -0.72701,2.04578 -1.00181,2.81957 -1.9881,5.64395 -2.94154,8.48053 -0.3671,0.81646 -0.47895,1.63554 -0.43476,2.45204 -0.003,0.0116 -0.006,0.0232 -0.009,0.0354 0.006,0.0171 0.0119,0.0342 0.0174,0.0524 0.1189,1.75915 0.94092,3.5043 1.47727,5.17684 3.52927,9.97999 7.65295,19.75671 12.33291,29.25901 0.0117,0.0232 0.0233,0.0476 0.0349,0.0707 0.74689,1.51534 1.50838,3.02325 2.28425,4.52393 0.0639,0.12341 0.12788,0.2467 0.19192,0.36999 8.30509,16.00136 18.24386,31.15086 29.79412,45.01442 7.59746,9.33958 15.93874,18.03188 24.82286,26.1381 0.79494,0.72963 1.60242,1.44512 2.40638,2.16475 0.27037,0.24086 0.5372,0.48561 0.80842,0.72549 3.20814,2.84754 6.48506,5.61637 9.83056,8.30064 20.510571,16.68353 44.552841,30.30331 69.174581,39.49953 0.83328,0.30951 1.66507,0.62134 2.50235,0.91987 6.89437,2.54354 13.89562,4.7861 20.98573,6.7119 1.74195,0.47316 3.48853,0.93243 5.24024,1.36821 17.15891,4.30266 34.76889,6.76299 52.4505,7.40832 0.0719,0.003 0.14439,0.008 0.21671,0.0102 1.54272,0.0549 3.08606,0.089 4.62957,0.11585 0.52244,0.01 1.04487,0.0256 1.56742,0.0317 1.04438,0.0121 2.0889,0.008 3.13339,0.007 1.04401,5.2e-4 2.08797,0.005 3.13193,-0.007 0.52305,-0.007 1.04597,-0.022 1.56888,-0.0317 1.54231,-0.0268 3.08371,-0.061 4.62521,-0.11585 0.0768,-0.003 0.15415,-0.007 0.23122,-0.0102 17.67777,-0.64609 35.28513,-3.10649 52.44032,-7.40832 1.72881,-0.43012 3.45116,-0.88427 5.17046,-1.3508 0.0244,-0.007 0.0488,-0.0122 0.0732,-0.0183 7.09558,-1.92746 14.10367,-4.17153 21.00317,-6.7177 0.81999,-0.29244 1.63529,-0.59792 2.45146,-0.90097 0.0118,-0.004 0.0232,-0.0101 0.0354,-0.0146 24.90766,-9.19871 48.72665,-23.01482 69.1993,-39.52276 3.34615,-2.68567 6.62478,-5.45596 9.83347,-8.30499 1.06683,-0.94719 2.13172,-1.89647 3.18283,-2.86119 8.88352,-8.10581 17.22438,-16.79761 24.8214,-26.13664 11.53978,-13.85099 21.4703,-28.98562 29.77084,-44.97089 0.0817,-0.15609 0.16208,-0.31231 0.24281,-0.46865 0.76585,-1.4821 1.51761,-2.97094 2.25517,-4.46736 0.0121,-0.0244 0.0244,-0.0488 0.0366,-0.0744 4.67961,-9.50175 8.80241,-19.27817 12.33146,-29.25756 0.53634,-1.67253 1.35987,-3.41769 1.47873,-5.17684 0.005,-0.0171 0.0119,-0.0341 0.0171,-0.0524 -0.003,-0.0116 -0.006,-0.0232 -0.009,-0.0354 0.0439,-0.81646 -0.0671,-1.63557 -0.43475,-2.45203 -0.94987,-2.82585 -1.93353,-5.63964 -2.93129,-8.44864 -0.2478,-0.70561 -0.4978,-1.4107 -0.75317,-2.11397 -2.08454,-5.79159 -4.26772,-11.54754 -6.54305,-17.26724 -0.1478,-0.40061 -0.30073,-0.80012 -0.44634,-1.20134 -0.42695,-1.04195 -0.86158,-2.08099 -1.29406,-3.1209 -2.01849,-4.95845 -4.09769,-9.89227 -6.24642,-14.79636 -20.51083,-45.38494 -46.13773,-88.89691 -78.42493,-126.94571 -0.0159,-0.0183 -0.0293,-0.0366 -0.0451,-0.0549 -0.0106,-0.0122 -0.022,-0.0256 -0.0317,-0.0378 -0.004,-0.005 -0.009,-0.0107 -0.0134,-0.0159 -1.15782,-1.37426 -2.32362,-2.74287 -3.49731,-4.10504 -1.46812,-1.6733 -2.95473,-3.33287 -4.45073,-4.98386 -3.49079,-3.88283 -7.05181,-7.70497 -10.69279,-11.45783 -9.37688,-9.224264 -19.0004,-18.327124 -29.52964,-26.233874 -4.47311,-3.45643 -9.05579,-6.77299 -13.77091,-9.9097 -28.88468,-18.97043 -53.01423,-27.08455 -85.775,-27.96968 -29.75097,0.17645 -62.82865,14.23897 -83.79885,27.96968 z"
     id="path6" />
  <path
     style="fill:#db3d7f;stroke-width:12.1951"
     d="m 488.28012,15.052726 c -0.90781,-2.70794 -0.82889,-6.11975 -2.53597,-8.35844 -23.33702,3.36293 -46.4372,9.12097 -68.03749,18.63297 -22.88309,9.82484 -47.748,26.31865 -65.23349,43.96426 28.49253,29.65721 50.56226,65.835804 76.40181,93.961694 12.03854,17.43053 24.1655,44.47554 34.44759,62.95211 2.27943,-4.12546 16.04706,-21.77273 17.95151,-26.10348 15.04819,-30.98001 18.22558,-66.05615 17.4263,-99.9885 -0.3454,-28.624004 -4.59833,-57.052494 -10.42026,-85.060614 z"
     id="path8" />
  <path
     style="opacity:0.1;fill:#ffffff;stroke-width:12.1951"
     d="m 485.73751,6.694286 c -23.33701,3.36293 -46.42527,9.11404 -68.02555,18.62604 -22.8831,9.82484 -47.7533,26.3233 -65.23879,43.9689 2.08801,2.17337 4.07449,4.45532 6.09753,6.69299 16.93485,-15.49668 38.68911,-29.68572 59.14126,-38.46683 21.60028,-9.51201 44.68854,-15.26312 68.02555,-18.62604 1.70709,2.23869 1.64077,5.65234 2.54858,8.36028 5.66671,27.26133 9.77604,54.9187 10.3134,82.769184 0.004,-3.30248 0.17267,-6.62268 0.0953,-9.90848 -0.3454,-28.624004 -4.58673,-57.047644 -10.40867,-85.055764 -0.90781,-2.70794 -0.84149,-6.12159 -2.54858,-8.36028 z"
     id="path10" />
  <path
     style="fill:#db3d7f;stroke-width:12.1951"
     d="m 21.545289,15.052726 c 0.90782,-2.70794 0.82888,-6.11975 2.53599,-8.35844 23.33701,3.36293 46.43719,9.12097 68.03748,18.63297 22.883091,9.82484 47.748001,26.31865 65.233491,43.96426 -28.49253,29.65721 -50.56225,65.835804 -76.401811,93.961694 -12.03854,17.43053 -24.1655,44.47554 -34.4476,62.95211 -2.27942,-4.12546 -16.04706,-21.77273 -17.95151,-26.10348 -15.04818,-30.98001 -18.22557,-66.05615 -17.42629,-99.9885 0.34537,-28.624004 4.59833,-57.052494 10.42025,-85.060614 z"
     id="path12" />
  <path
     style="opacity:0.1;fill:#ffffff;stroke-width:12.1951"
     d="m 24.087909,6.694286 c -1.70711,2.23869 -1.64076,5.65234 -2.54858,8.36028 -5.82192,28.00812 -10.0633,56.43176 -10.40867,85.055764 -0.0774,3.2858 0.0909,6.606 0.0953,9.90848 0.53737,-27.850484 4.64671,-55.507854 10.3134,-82.769184 0.90782,-2.70794 0.84147,-6.12159 2.54858,-8.36028 23.337,3.36292 46.42526,9.11403 68.02555,18.62604 20.452151,8.78111 42.206411,22.97015 59.141261,38.46683 2.02304,-2.23767 4.00952,-4.51962 6.09753,-6.69299 -17.48549,-17.6456 -42.35569,-34.14406 -65.238791,-43.9689 -21.60029,-9.512 -44.68855,-15.26311 -68.02555,-18.62604 z"
     id="path14" />
  <path
     style="fill:#e4e4e4;stroke-width:12.1951"
     d="m 170.12574,59.054086 c -4.70964,3.13306 -9.28675,6.44604 -13.75492,9.89809 -10.53554,7.90957 -20.16396,17.01652 -29.54548,26.24547 -3.56758,3.67717 -7.05717,7.422184 -10.4805,11.224224 -1.5682,1.72793 -3.12545,3.46501 -4.66302,5.21747 -1.17365,1.36217 -2.3395,2.73077 -3.49689,4.10607 -0.007,0.009 -0.0146,0.0171 -0.022,0.0256 -0.0219,0.0268 -0.0451,0.0536 -0.0671,0.0793 -32.288171,38.04938 -57.915121,81.5627 -78.426381,126.94861 -2.13759,4.87864 -4.20572,9.78702 -6.21444,14.71947 -0.44334,1.0656 -0.89002,2.13008 -1.32751,3.19778 -0.15085,0.41549 -0.3093,0.82866 -0.46237,1.24344 -2.27408,5.71787 -4.45821,11.47174 -6.54159,17.26144 -0.24689,0.68036 -0.48718,1.36312 -0.72701,2.04578 -1.00181,2.81957 -1.9881,5.64395 -2.94154,8.48053 -0.3671,0.81646 -0.47895,1.63554 -0.43476,2.45204 -0.003,0.0116 -0.006,0.0232 -0.009,0.0354 0.006,0.0171 0.0119,0.0341 0.0174,0.0524 0.1189,1.75915 0.94092,3.5043 1.47727,5.17684 3.52927,9.97999 7.65295,19.75671 12.33291,29.259 0.0117,0.0232 0.0233,0.0476 0.0349,0.0707 0.74689,1.51535 1.50838,3.02325 2.28425,4.52393 0.0639,0.12341 0.12788,0.2467 0.19192,0.36999 8.30509,16.00136 18.24386,31.15086 29.79412,45.01443 7.59746,9.33957 15.93874,18.03188 24.82286,26.13809 0.79494,0.72963 1.60242,1.44512 2.40638,2.16475 0.27037,0.24086 0.5372,0.48561 0.80842,0.72549 3.20814,2.84754 6.48506,5.61637 9.83056,8.30064 20.510571,16.68353 44.552841,30.30331 69.174581,39.49953 0.83328,0.30951 1.66507,0.62134 2.50235,0.91988 6.89437,2.54353 13.89562,4.78609 20.98573,6.71189 1.74195,0.47316 3.48853,0.93243 5.24024,1.36821 17.15891,4.30266 34.76889,6.76299 52.4505,7.40833 0.0719,0.003 0.14439,0.008 0.21671,0.0102 1.54272,0.0549 3.08606,0.089 4.62957,0.11585 0.52244,0.01 1.04487,0.0256 1.56742,0.0317 1.04438,0.0121 2.0889,0.008 3.13339,0.007 1.04401,5.1e-4 2.08797,0.005 3.13193,-0.007 0.52305,-0.007 1.04597,-0.022 1.56888,-0.0317 1.54231,-0.0268 3.08371,-0.061 4.62521,-0.11585 0.0768,-0.003 0.15415,-0.007 0.23122,-0.0102 17.67777,-0.6461 35.28513,-3.1065 52.44032,-7.40833 1.72881,-0.43012 3.45116,-0.88426 5.17046,-1.3508 0.0244,-0.007 0.0488,-0.0122 0.0732,-0.0183 7.09558,-1.92745 14.10367,-4.17153 21.00317,-6.7177 0.81999,-0.29243 1.63529,-0.59792 2.45146,-0.90097 0.0118,-0.004 0.0232,-0.0101 0.0354,-0.0146 24.90766,-9.19871 48.72665,-23.01482 69.1993,-39.52276 3.34615,-2.68566 6.62478,-5.45596 9.83347,-8.30499 1.06683,-0.94719 2.13172,-1.89646 3.18283,-2.86119 8.88352,-8.10581 17.22438,-16.79761 24.8214,-26.13664 11.53978,-13.85099 21.4703,-28.98562 29.77084,-44.97089 0.0817,-0.15609 0.16208,-0.31231 0.24281,-0.46865 0.76585,-1.4821 1.51761,-2.97094 2.25517,-4.46736 0.0121,-0.0244 0.0244,-0.0488 0.0366,-0.0744 4.67961,-9.50174 8.80241,-19.27816 12.33146,-29.25755 0.53634,-1.67253 1.35987,-3.41769 1.47873,-5.17684 0.005,-0.0171 0.0119,-0.0342 0.0171,-0.0524 -0.003,-0.0116 -0.006,-0.0232 -0.009,-0.0354 0.0439,-0.81646 -0.0671,-1.63557 -0.43475,-2.45203 -0.94987,-2.82585 -1.93353,-5.63964 -2.93129,-8.44864 -0.2478,-0.70561 -0.4978,-1.4107 -0.75317,-2.11397 -2.08454,-5.79159 -4.26772,-11.54754 -6.54305,-17.26725 -0.1478,-0.4006 -0.30073,-0.80011 -0.44634,-1.20133 -0.42695,-1.04195 -0.86158,-2.08099 -1.29406,-3.1209 -2.01849,-4.95845 -4.09769,-9.89228 -6.24642,-14.79636 -20.51083,-45.38494 -46.13773,-88.89691 -78.42493,-126.94571 -0.0159,-0.0183 -0.0293,-0.0366 -0.0451,-0.0549 -0.0106,-0.0122 -0.022,-0.0256 -0.0317,-0.0378 -0.004,-0.005 -0.009,-0.0107 -0.0134,-0.0159 -1.15782,-1.37426 -2.32362,-2.74287 -3.49731,-4.10504 -1.46812,-1.6733 -2.95473,-3.33287 -4.45073,-4.98386 -3.49079,-3.88283 -7.05181,-7.704974 -10.69279,-11.457834 -9.37688,-9.22426 -19.0004,-18.32711 -29.52964,-26.23387 -4.47311,-3.45642 -9.05579,-6.77298 -13.77091,-9.9097 -28.88468,-18.97042 -53.01423,-27.08454 -85.775,-27.96967 -29.75097,0.17644 -62.82865,14.23897 -83.79885,27.96967 z"
     id="path16" />
  <path
     style="fill:#3f3f3f;stroke-width:12.1951"
     d="m 141.85705,238.40039 c -10.41184,0.008 -20.83034,1.47089 -30.77144,4.4929 -2.8914,17.49762 -4.34275,35.88909 1.59549,52.96046 4.65318,15.07191 16.44725,27.86968 31.34984,33.81725 18.1567,7.52074 38.85202,7.79521 57.8585,3.47153 2.44577,-10.95125 4.48767,-22.09471 4.19749,-33.35042 0.47671,-13.8134 -2.75742,-28.19633 -11.15179,-39.51296 -9.66907,-13.35666 -26.42665,-20.18658 -42.68685,-21.40451 -3.45102,-0.31719 -6.92063,-0.47683 -10.39124,-0.47425 z m -0.21402,14.40198 c 5.57792,-0.10488 11.16547,0.33805 16.60625,1.44808 2.38359,0.9845 5.97984,0.44695 7.65871,2.41595 -7.61711,2.94334 -14.1369,9.09361 -16.25104,16.96958 -2.58049,8.25149 -0.0305,17.69142 6.13608,23.81154 8.88145,9.86526 26.48837,10.32173 35.73253,0.75073 -0.23829,7.58164 -0.48744,15.31482 -2.34239,22.63258 -7.68966,0.77133 -15.60625,1.08706 -23.27518,-0.13086 -14.01134,-1.5021 -28.47895,-8.29303 -35.52607,-20.76669 -8.01092,-13.67131 -8.08386,-30.00076 -6.11482,-45.16402 2.25923,-1.23825 4.90252,-0.96512 7.37939,-1.20877 3.30722,-0.4339 6.64978,-0.69488 9.99654,-0.75829 z"
     id="path18" />
  <path
     style="fill:#3f3f3f;stroke-width:12.1951"
     d="m 367.96837,238.40039 c 10.41184,0.008 20.83034,1.47089 30.77144,4.4929 2.8914,17.49762 4.34275,35.88909 -1.59549,52.96046 -4.65318,15.07191 -16.44725,27.86968 -31.34984,33.81725 -18.1567,7.52074 -38.85202,7.79521 -57.8585,3.47153 -2.44577,-10.95125 -4.48767,-22.09471 -4.19749,-33.35042 -0.47671,-13.8134 2.75742,-28.19633 11.15179,-39.51296 9.66907,-13.35666 26.42666,-20.18658 42.68685,-21.40451 3.45102,-0.31719 6.92063,-0.47683 10.39124,-0.47425 z m 0.21402,14.40198 c -5.57792,-0.10488 -11.16546,0.33805 -16.60625,1.44808 -2.38359,0.9845 -5.97984,0.44695 -7.65871,2.41595 7.61711,2.94334 14.1369,9.09361 16.25104,16.96958 2.58049,8.25149 0.0305,17.69142 -6.13608,23.81154 -8.88145,9.86526 -26.48837,10.32173 -35.73253,0.75073 0.23829,7.58164 0.48744,15.31482 2.34239,22.63258 7.68966,0.77133 15.60625,1.08706 23.27518,-0.13086 14.01134,-1.5021 28.47895,-8.29303 35.52607,-20.76669 8.01092,-13.67131 8.08386,-30.00076 6.11482,-45.16402 -2.25923,-1.23825 -4.90252,-0.96512 -7.37939,-1.20877 -3.30722,-0.4339 -6.64978,-0.69488 -9.99654,-0.75829 z"
     id="path20" />
  <path
     style="fill:#3f3f3f;stroke-width:12.1951"
     d="m 206.27403,366.28922 c -0.695,1.58609 1.35694,2.66307 2.14022,3.89669 11.41817,12.11111 22.69294,24.32991 34.3097,36.29415 2.34981,2.51622 5.85801,3.61276 9.25589,4.53308 0.022,7.13743 0.0768,14.28466 -0.022,21.43187 1.32381,1.45881 3.7509,1.24342 5.47189,0.47975 -0.12195,-7.21575 0.13281,-14.44129 -0.14341,-21.64724 3.49716,-1.24342 7.24807,-2.33018 9.82957,-4.96389 11.64985,-12.48315 23.48724,-24.8586 35.104,-37.37112 0.43024,-0.82231 1.93061,-1.55673 1.33492,-2.57496 -13.073,-3.65192 -26.69758,-5.18907 -40.3001,-5.86463 -19.20681,-0.66572 -38.55702,0.78329 -56.98057,5.78632 z"
     id="path22" />
  <path
     style="fill:#3f3f3f;stroke-width:12.1951"
     d="m 253.92463,31.084936 c -12.61692,0.0749 -25.82946,2.65127 -38.46582,6.63646 11.29851,40.95832 22.02925,82.070744 33.17904,123.065984 1.54847,-0.16841 3.09711,-0.31744 4.64558,-0.47585 3.04142,-42.92421 7.5057,-85.789234 10.3947,-128.723074 -3.17238,-0.24405 -6.41614,-0.4133 -9.7535,-0.50346 z m -43.81368,8.41817 c -15.13598,5.30732 -29.17184,12.47065 -39.98527,19.55098 -6.28626,4.56053 -18.8656,13.14024 -7.46779,5.39883 22.30381,35.657514 44.87662,71.155614 67.26977,106.763584 1.40949,-0.55463 2.81876,-1.11902 4.22826,-1.70336 -3.2359,-16.15483 -5.73806,-32.42856 -9.02358,-48.57348 -2.72967,-13.46072 -4.74396,-27.039684 -7.47362,-40.490484 -2.78988,-13.60925 -4.91596,-27.3232 -7.54777,-40.94607 z"
     id="path24" />
  <g
     transform="matrix(12.195057,0,0,12.195057,-37.768661,-29.888234)"
     id="g34">
    <path
       style="opacity:0.2;fill:none;stroke:#000000;stroke-width:2;stroke-linecap:round;stroke-linejoin:round"
       d="M 14.000263,36 5.0002634,43"
       id="path26" />
    <path
       style="opacity:0.2;fill:none;stroke:#000000;stroke-width:2;stroke-linecap:round;stroke-linejoin:round"
       d="m 19.000263,36 -9,7"
       id="path28" />
    <path
       style="opacity:0.2;fill:none;stroke:#000000;stroke-width:2;stroke-linecap:round;stroke-linejoin:round"
       d="m 29,36 9,7"
       id="path30" />
    <path
       style="opacity:0.2;fill:none;stroke:#000000;stroke-width:2;stroke-linecap:round;stroke-linejoin:round"
       d="m 34,36 9,7"
       id="path32" />
  </g>
  <g
     id="g44"
     transform="matrix(12.195057,0,0,12.195057,-37.768661,-42.085944)">
    <path
       style="fill:none;stroke:#db3d7f;stroke-width:2;stroke-linecap:round;stroke-linejoin:round"
       d="M 14.000263,36 5.0002634,43"
       id="path36" />
    <path
       style="fill:none;stroke:#db3d7f;stroke-width:2;stroke-linecap:round;stroke-linejoin:round"
       d="m 19.000263,36 -9,7"
       id="path38" />
    <path
       style="fill:none;stroke:#db3d7f;stroke-width:2;stroke-linecap:round;stroke-linejoin:round"
       d="m 29,36 9,7"
       id="path40" />
    <path
       style="fill:none;stroke:#db3d7f;stroke-width:2;stroke-linecap:round;stroke-linejoin:round"
       d="m 34,36 9,7"
       id="path42" />
  </g>
</svg>
