<?xml version="1.0" encoding="UTF-8" standalone="no"?>
<svg
   width="512"
   height="512"
   version="1.1"
   id="svg12"
   sodipodi:docname="pureos.svg"
   inkscape:version="1.1.1 (3bf5ae0d25, 2021-09-20)"
   xmlns:inkscape="http://www.inkscape.org/namespaces/inkscape"
   xmlns:sodipodi="http://sodipodi.sourceforge.net/DTD/sodipodi-0.dtd"
   xmlns="http://www.w3.org/2000/svg"
   xmlns:svg="http://www.w3.org/2000/svg">
  <defs
     id="defs16" />
  <sodipodi:namedview
     id="namedview14"
     pagecolor="#ffffff"
     bordercolor="#666666"
     borderopacity="1.0"
     inkscape:pageshadow="2"
     inkscape:pageopacity="0.0"
     inkscape:pagecheckerboard="0"
     showgrid="false"
     inkscape:zoom="1.7050781"
     inkscape:cx="251.30813"
     inkscape:cy="256"
     inkscape:window-width="3440"
     inkscape:window-height="1417"
     inkscape:window-x="0"
     inkscape:window-y="0"
     inkscape:window-maximized="1"
     inkscape:current-layer="svg12" />
  <circle
     cx="257.10623"
     cy="261.84424"
     r="245.61403"
     style="opacity:0.2;stroke-width:8.77193"
     id="circle2" />
  <circle
     cx="257.10623"
     cy="253.07231"
     r="245.61403"
     style="fill:#4f4f4f;stroke-width:8.77193"
     id="circle4" />
  <path
     d="M 257.10624,7.4582796 A 245.61404,245.61404 0 0 0 11.492203,253.07231 a 245.61404,245.61404 0 0 0 0.1886,5.14036 A 245.61404,245.61404 0 0 1 257.10624,16.23021 245.61404,245.61404 0 0 1 502.53606,256.70389 245.61404,245.61404 0 0 0 502.72028,253.07231 245.61404,245.61404 0 0 0 257.10624,7.4582796 Z"
     style="opacity:0.1;fill:#ffffff;stroke-width:8.77193"
     id="path6" />
  <path
     d="M 107.98343,165.35302 V 358.33547 H 406.22905 V 165.35302 Z m 26.31579,26.31579 H 379.91326 V 332.01968 H 134.29922 Z"
     style="opacity:0.2;stroke-width:8.77193"
     id="path8" />
  <path
     d="M 107.98343,156.58109 V 349.56354 H 406.22905 V 156.58109 Z m 26.31579,26.31579 H 379.91326 V 323.24775 H 134.29922 Z"
     style="fill:#ffffff;stroke-width:8.77193"
     id="path10" />
</svg>
