<?xml version="1.0" encoding="UTF-8" standalone="no"?>
<svg
   width="512"
   height="512"
   version="1.1"
   id="svg40"
   sodipodi:docname="raspbian.svg"
   inkscape:version="1.1.1 (3bf5ae0d25, 2021-09-20)"
   xmlns:inkscape="http://www.inkscape.org/namespaces/inkscape"
   xmlns:sodipodi="http://sodipodi.sourceforge.net/DTD/sodipodi-0.dtd"
   xmlns="http://www.w3.org/2000/svg"
   xmlns:svg="http://www.w3.org/2000/svg">
  <defs
     id="defs44" />
  <sodipodi:namedview
     id="namedview42"
     pagecolor="#ffffff"
     bordercolor="#666666"
     borderopacity="1.0"
     inkscape:pageshadow="2"
     inkscape:pageopacity="0.0"
     inkscape:pagecheckerboard="0"
     showgrid="false"
     inkscape:zoom="1.7050781"
     inkscape:cx="251.30813"
     inkscape:cy="256"
     inkscape:window-width="3440"
     inkscape:window-height="1417"
     inkscape:window-x="0"
     inkscape:window-y="0"
     inkscape:window-maximized="1"
     inkscape:current-layer="svg40" />
  <path
     style="opacity:0.2;stroke-width:8.47458"
     d="m 174.303,16.234907 c -56.9841,0 -104.779838,18.65523 -104.779838,75.94292 0,26.704993 10.11589,53.999513 26.60584,75.606343 6.482338,6.79209 6.084648,11.01365 4.096878,18.91961 -3.531914,12.91876 -8.761148,28.33485 -13.553028,39.66629 -33.19913,32.23427 -40.472,89.32886 -10.71856,126.35515 11.7445,19.03537 7.56606,46.78407 23.509374,65.65373 15.898804,22.56096 40.017104,42.29084 68.217654,44.61857 19.38283,27.14024 51.70978,43.97427 84.46222,44.7628 32.75245,-0.78847 65.07938,-17.62256 84.46223,-44.7628 28.20054,-2.32773 52.31885,-22.05761 68.21766,-44.61857 15.94331,-18.86966 11.76485,-46.61836 23.50937,-65.65373 29.75344,-37.02629 22.48056,-94.12088 -10.71857,-126.35515 -4.79187,-11.33144 -10.02112,-26.74753 -13.55302,-39.66629 -1.98778,-7.90596 -2.38547,-12.12752 4.09688,-18.91961 16.48995,-21.60683 26.60583,-48.90135 26.60583,-75.606343 0,-57.28769 -47.79573,-75.94292 -104.77985,-75.94292 -21.49403,0 -53.47612,19.61678 -77.84053,19.61678 -24.3644,0 -56.3465,-19.61678 -77.84054,-19.61678 z"
     id="path2" />
  <path
     style="fill:#3f3f3f;stroke-width:8.47458"
     d="m 174.303,7.7603272 c -56.9841,0 -104.779838,18.6552398 -104.779838,75.9429198 0,26.704993 10.11589,53.999513 26.60584,75.606343 6.482338,6.79209 6.084648,11.01365 4.096878,18.91961 -3.531914,12.91877 -8.761148,28.33485 -13.553028,39.66629 -33.19913,32.23427 -40.472,89.32887 -10.71856,126.35515 11.7445,19.03537 7.56606,46.78407 23.509374,65.65373 15.898804,22.56097 40.017104,42.29085 68.217654,44.61858 19.38283,27.14023 51.70978,43.97427 84.46222,44.76279 32.75245,-0.78847 65.07938,-17.62256 84.46223,-44.76279 28.20054,-2.32773 52.31885,-22.05761 68.21766,-44.61858 15.94331,-18.86966 11.76485,-46.61836 23.50937,-65.65373 29.75344,-37.02628 22.48056,-94.12088 -10.71857,-126.35515 -4.79187,-11.33144 -10.02112,-26.74752 -13.55302,-39.66629 -1.98778,-7.90596 -2.38547,-12.12752 4.09688,-18.91961 16.48995,-21.60683 26.60583,-48.90135 26.60583,-75.606343 0,-57.28768 -47.79573,-75.9429198 -104.77985,-75.9429198 -21.49403,0 -53.47612,19.6167798 -77.84053,19.6167798 -24.3644,0 -56.3465,-19.6167798 -77.84054,-19.6167798 z"
     id="path4" />
  <path
     style="opacity:0.2;stroke-width:8.47458"
     d="m 181.79793,67.079017 c 2.01721,2.53817 4.84287,5.02936 1.85382,7.94491 -4.11976,-2.65771 -8.28992,-5.32757 -18.07468,-7.21663 2.20497,2.53949 6.76944,5.07439 4.00556,7.61388 -5.17314,-2.04113 -10.88063,-3.50925 -17.21398,-4.36971 3.03261,2.57684 5.56428,5.08829 3.07866,7.08422 -5.53583,-1.75928 -13.17131,-4.12739 -20.62368,-2.08555 l 4.73385,4.89937 c 0.52364,0.65635 -11.04098,0.51373 -18.67055,0.62898 2.78461,3.99568 5.62514,7.86865 7.28283,14.7312 -0.75627,0.79145 -4.54561,0.35178 -8.11043,0 3.65513,7.949833 10.00516,9.938873 11.48702,13.340823 -2.23286,1.7467 -5.32003,1.28699 -8.70631,0.0993 2.63169,5.60115 8.15232,9.45758 12.51325,14.00291 -1.10246,0.80831 -3.05318,1.28851 -7.61388,0.72831 4.02883,4.42416 8.89577,8.47897 14.665,12.116 -1.02159,1.21956 -4.52042,1.14366 -7.77941,1.22485 5.22571,5.28402 11.93705,8.03036 18.24021,11.48702 -3.14214,2.21749 -5.37353,1.71846 -7.77939,1.68828 4.45811,3.78369 12.03061,5.72715 19.06779,8.01113 -1.33847,2.14873 -2.66707,2.74027 -5.52834,3.34349 7.44846,4.25832 18.11124,2.32602 21.12024,4.50212 -0.72644,2.14039 -2.77508,3.5377 -5.23041,4.70073 11.99129,0.71932 44.79268,-0.44593 51.07919,-26.0858 -12.27552,-13.93208 -34.6821,-30.29477 -73.22564,-50.516413 29.98562,10.368063 57.03678,24.181903 79.68088,43.200463 26.62085,-12.80478 8.25362,-45.110023 -4.73385,-57.931663 -0.65847,3.38563 -1.39915,5.52612 -2.25105,6.15731 -4.22876,-4.68289 -7.66539,-9.46355 -13.10912,-13.96981 -0.0169,2.64664 1.2878,5.5139 -1.95312,7.61387 -2.91822,-4.05616 -6.87788,-7.68623 -12.116,-10.75874 2.52299,4.49463 0.42958,5.85039 -0.9269,7.71318 -4.00071,-3.54422 -7.78405,-7.11742 -15.16156,-9.89803 z m 145.65679,0 c -7.37751,2.78061 -11.19394,6.3538 -15.19465,9.89803 -1.35641,-1.8628 -3.44992,-3.21855 -0.9269,-7.71319 -5.23812,3.07251 -9.16466,6.70259 -12.0829,10.75874 -3.24091,-2.09997 -1.9354,-4.96723 -1.95313,-7.61387 -5.44373,4.50626 -8.91343,9.28691 -13.14221,13.9698 -0.85186,-0.63118 -1.59271,-2.77167 -2.25106,-6.1573 -12.98749,12.82164 -31.32158,45.126873 -4.70073,57.931663 22.64407,-19.01856 49.69524,-32.8324 79.68088,-43.200473 -38.54356,20.221653 -60.95012,36.584343 -73.22564,50.516423 6.2865,25.63979 39.0879,26.80506 51.07919,26.08579 -2.45531,-1.16305 -4.50395,-2.56034 -5.23041,-4.70073 3.009,-2.1761 13.67178,-0.24373 21.12024,-4.50212 -2.86126,-0.60322 -4.22305,-1.19474 -5.56144,-3.34349 7.03718,-2.28398 14.64278,-4.22742 19.10089,-8.01112 -2.40586,0.0305 -4.67035,0.52924 -7.81249,-1.68829 6.30314,-3.45664 13.04761,-6.203 18.27329,-11.48701 -3.25898,-0.0814 -6.7909,-0.005 -7.81249,-1.22485 5.76922,-3.63704 10.63615,-7.69184 14.66498,-12.11601 -4.56071,0.56026 -6.4783,0.0797 -7.58076,-0.7283 4.36091,-4.54533 9.88156,-8.40176 12.51324,-14.00292 -3.38627,1.18768 -6.47344,1.64739 -8.70631,-0.0993 1.48187,-3.40196 7.8319,-5.39099 11.48704,-13.340823 -3.56482,0.35178 -7.35421,0.79144 -8.11044,0 1.65762,-6.86261 4.49822,-10.73552 7.28283,-14.7312 -7.6296,-0.11526 -19.19422,0.0271 -18.67055,-0.62898 l 4.73385,-4.89936 c -7.45236,-2.04185 -15.08785,0.32627 -20.62368,2.08554 -2.48562,-1.99592 0.0458,-4.50737 3.07866,-7.08421 -6.33335,0.86047 -12.07395,2.32858 -17.2471,4.3697 -2.76386,-2.53949 1.8006,-5.07439 4.00558,-7.61388 -9.78476,1.88907 -13.92183,4.55893 -18.04159,7.21664 -2.98906,-2.91555 -0.16331,-5.40674 1.85381,-7.94492 z M 254.03046,172.71327 c -21.27347,-0.56305 -41.69507,16.04266 -41.7439,25.68856 -0.0593,11.72051 16.81165,23.72878 41.87632,24.03337 25.59621,0.18661 41.92619,-9.58766 42.00873,-21.683 0.0932,-13.70376 -23.2641,-28.25062 -42.14115,-28.03893 z m -64.22139,8.14355 c -29.53836,0.55949 -52.12378,21.36535 -51.07919,55.77991 1.17247,15.07827 77.21941,-52.50886 64.08899,-54.75369 -4.45541,-0.7656 -8.79004,-1.10611 -13.0098,-1.02628 z m 124.53654,1.15864 c -4.21976,-0.0797 -8.58749,0.26068 -13.0429,1.02627 -13.1304,2.24485 62.94955,69.83198 64.12209,54.75371 1.04458,-34.41457 -21.54084,-55.22044 -51.07919,-55.77993 z m -12.54634,41.97563 a 49.465686,41.619949 58.681418 0 0 -21.74922,5.95869 49.465686,41.619949 58.681418 1 0 53.85992,82.95815 49.465686,41.619949 58.681418 0 0 -32.1107,-88.91684 z m -95.14037,2.31727 a 41.619949,49.465686 31.318582 0 0 -32.11069,88.91684 41.619949,49.465686 31.318582 1 0 53.85989,-82.95815 41.619949,49.465686 31.318582 0 0 -21.7492,-5.95869 z m 164.8239,25.65546 c -20.65608,-5.63214 -6.97303,86.94681 9.83183,79.34984 18.48495,-15.13112 24.43961,-59.43471 -9.83183,-79.34984 z m -238.6785,1.15864 c -34.271444,19.91512 -28.31678,64.21873 -9.83184,79.34984 16.80487,7.59697 30.48792,-84.98196 9.83184,-79.34984 z m 123.67584,59.61998 a 46.168814,43.323207 0 0 0 -47.53707,43.29978 46.179822,43.333537 0 0 0 92.35964,0 46.168814,43.323207 0 0 0 -44.82257,-43.29978 z m 100.70182,16.08844 c -10.81883,0.28695 -23.72195,10.70575 -35.98385,24.79476 -14.28731,17.02966 -22.24102,48.09165 -11.81807,58.09719 9.96567,7.7718 36.714,6.68293 56.4751,-21.21954 14.34924,-18.74007 9.55363,-50.02072 1.35729,-58.32892 -3.04388,-2.39588 -6.42417,-3.43915 -10.03044,-3.34349 z m -207.26299,6.65385 c -3.87459,-0.16949 -7.50678,0.64034 -10.69254,2.61518 -8.52111,6.59941 -10.08398,29.0706 2.05245,51.14539 17.99551,26.30688 43.33492,28.94412 53.76058,22.54371 11.02008,-8.3842 4.99541,-36.84308 -8.20975,-53.03232 -11.36567,-13.42017 -25.28695,-22.76491 -36.91074,-23.27196 z m 105.40254,77.56222 c -18.4318,-0.46932 -46.68856,7.51722 -46.34534,17.74364 -0.29474,6.97485 22.18798,27.09242 45.12049,26.08581 22.14368,0.38848 45.03105,-19.70913 44.72326,-28.60169 -0.0491,-9.15742 -24.95068,-16.05149 -43.49841,-15.22776 z"
     id="path6" />
  <g
     transform="matrix(0.56725339,0,0,0.57724441,91.443912,47.187897)"
     id="g34">
    <path
       style="fill:#75a928"
       d="m 107.39184,68.055583 c 67.94767,35.031357 107.44689,63.368967 129.08717,87.504467 -11.08235,44.41759 -68.89638,46.44464 -90.03559,45.19858 4.32842,-2.01474 7.93988,-4.42778 9.22051,-8.13574 -5.30449,-3.76981 -24.11289,-0.39719 -37.24363,-7.77416 5.04407,-1.04499 7.40348,-2.06302 9.76289,-5.78542 -12.40571,-3.9567 -25.76862,-7.36642 -33.627746,-13.92116 4.241253,0.0524 8.201156,0.9488 13.740366,-2.89271 -11.111694,-5.98819 -22.969108,-10.73351 -32.18139,-19.88738 5.745213,-0.14063 11.939452,-0.0568 13.740371,-2.16953 -10.17044,-6.30068 -18.751242,-13.30787 -25.853592,-20.97215 8.039979,0.97052 11.435284,0.13478 13.378782,-1.26556 -7.687795,-7.87419 -17.417559,-14.52319 -22.056911,-24.22644 5.969606,2.057484 11.431249,2.84506 15.36752,-0.180795 -2.612365,-5.893453 -13.805413,-9.369618 -20.248967,-23.141676 6.284359,0.609377 12.949606,1.371108 14.282753,0 C 61.802068,58.517346 56.796919,51.835885 51.887978,44.913906 65.338021,44.714177 85.715734,44.966253 84.792549,43.82914 l -8.31654,-8.497335 c 13.137617,-3.537241 26.580651,0.568164 36.339661,3.615887 4.38186,-3.457681 -0.0776,-7.82998 -5.42383,-12.294015 11.16496,1.490646 21.25382,4.057389 30.37345,7.593362 4.87238,-4.399329 -3.16389,-8.798658 -7.05098,-13.197987 17.24936,3.272568 24.55716,7.87068 31.81981,12.47481 5.26935,-5.050799 0.30166,-9.343299 -3.2543,-13.740371 13.00566,4.817048 19.70478,11.035551 26.75756,17.175463 2.39119,-3.227053 6.07494,-5.592408 1.62715,-13.378781 9.23416,5.322725 16.18926,11.59506 21.33374,18.621817 5.71336,-3.637941 3.40387,-8.613023 3.43509,-13.197987 9.59665,7.806516 15.68687,16.11395 23.14168,24.226443 1.50169,-1.093437 2.81661,-4.80171 3.97747,-10.666867 22.89539,22.211815 55.24591,78.158241 8.31654,100.340861 C 207.95028,109.95728 160.25292,86.016909 107.39184,68.055583 Z"
       id="path8" />
    <path
       style="fill:#75a928"
       d="M 467.92487,68.055583 C 399.9772,103.08694 360.47798,131.42455 338.8377,155.56005 c 11.08235,44.41759 68.89638,46.44464 90.03559,45.19858 -4.32842,-2.01474 -7.93988,-4.42778 -9.22051,-8.13574 5.30449,-3.76981 24.11289,-0.39719 37.24363,-7.77416 -5.04407,-1.04499 -7.40348,-2.06302 -9.76289,-5.78542 12.40571,-3.9567 25.76862,-7.36642 33.62775,-13.92116 -4.24126,0.0524 -8.20116,0.9488 -13.74037,-2.89271 11.11169,-5.98819 22.96911,-10.73351 32.18139,-19.88738 -5.74521,-0.14063 -11.93945,-0.0568 -13.74037,-2.16953 10.17044,-6.30068 18.75124,-13.30787 25.85359,-20.97215 -8.03998,0.97052 -11.43528,0.13478 -13.37878,-1.26556 7.68779,-7.87419 17.41756,-14.52319 22.05691,-24.22644 -5.96961,2.057484 -11.43125,2.84506 -15.36752,-0.180795 2.61237,-5.893453 13.80541,-9.369618 20.24897,-23.141676 -6.28436,0.609377 -12.94961,1.371108 -14.28276,0 2.92231,-11.888563 7.92746,-18.570024 12.8364,-25.492003 -13.45004,-0.199729 -33.82775,0.05235 -32.90457,-1.084766 l 8.31654,-8.497335 c -13.13762,-3.537241 -26.58065,0.568164 -36.33966,3.615887 -4.38186,-3.457681 0.0776,-7.82998 5.42383,-12.294015 -11.16496,1.490646 -21.25382,4.057389 -30.37345,7.593362 -4.87238,-4.399329 3.16389,-8.798658 7.05098,-13.197987 -17.24936,3.272568 -24.55716,7.87068 -31.81981,12.47481 -5.26935,-5.050799 -0.30166,-9.343299 3.2543,-13.740371 -13.00566,4.817048 -19.70478,11.035551 -26.75756,17.175463 -2.39119,-3.227053 -6.07494,-5.592408 -1.62715,-13.378781 -9.23416,5.322725 -16.18926,11.59506 -21.33374,18.621817 -5.71336,-3.637941 -3.40387,-8.613023 -3.43509,-13.197987 -9.59665,7.806516 -15.68687,16.11395 -23.14168,24.226443 -1.50169,-1.093437 -2.81661,-4.80171 -3.97747,-10.666867 -22.89539,22.211815 -55.24591,78.158241 -8.31654,100.340861 39.91877,-32.94716 87.61613,-56.887531 140.47721,-74.848857 z"
       id="path10" />
    <path
       style="fill:#bc1142"
       transform="matrix(1.131107,0,0,1.1280497,-43.139135,-68.310983)"
       d="m 365.2046,521.84937 a 71.956155,66.532319 0 1 1 -143.91231,0 71.956155,66.532319 0 1 1 143.91231,0 z"
       id="path12" />
    <path
       style="fill:#bc1142"
       transform="matrix(0.76741684,-1.1613112,2.171115,1.4224368,-560.88858,217.68859)"
       d="m 262.84091,276.64774 a 61.875,28.125 0 1 1 -123.75,0 61.875,28.125 0 1 1 123.75,0 z"
       id="path14" />
    <path
       style="fill:#bc1142"
       transform="matrix(-0.76741684,-1.1613112,-2.171115,1.4224368,1134.8288,213.68859)"
       d="m 262.84091,276.64774 a 61.875,28.125 0 1 1 -123.75,0 61.875,28.125 0 1 1 123.75,0 z"
       id="path16" />
    <path
       style="fill:#bc1142"
       d="M 72.910253,342.0878 C 109.32447,332.33088 85.201845,492.72431 55.576871,479.56357 22.990103,453.35089 12.493801,376.58814 72.910253,342.0878 Z"
       id="path18" />
    <path
       style="fill:#bc1142"
       d="m 493.67828,340.0878 c -36.41422,-9.75692 -12.2916,150.63651 17.33338,137.47577 32.58677,-26.21268 43.08307,-102.97543 -17.33338,-137.47577 z"
       id="path20" />
    <path
       style="fill:#bc1142"
       d="m 369.97158,220.6534 c 62.83486,-10.61013 115.11594,26.72229 113.01138,94.85796 -2.06693,26.12112 -136.15872,-90.96907 -113.01138,-94.85796 z"
       id="path22" />
    <path
       style="fill:#bc1142"
       d="M 196.35975,218.6534 C 133.52489,208.04327 81.24381,245.37569 83.34837,313.51136 85.4153,339.63248 219.50709,222.54229 196.35975,218.6534 Z"
       id="path24" />
    <path
       style="fill:#bc1142"
       d="m 286.61932,202.75568 c -37.50259,-0.97548 -73.49548,27.83418 -73.58158,44.54443 -0.10462,20.30426 29.6512,41.09266 73.83726,41.62035 45.12305,0.32321 73.91561,-16.64049 74.0611,-37.59409 0.16484,-23.73996 -41.03879,-48.93744 -74.31678,-48.57069 z"
       id="path26" />
    <path
       style="fill:#bc1142"
       d="m 288.90937,619.11675 c 32.69744,-1.42711 76.57083,10.53196 76.6568,26.39598 0.5427,15.4052 -39.78969,50.21055 -78.82634,49.53765 -40.42729,1.74391 -80.06908,-33.11559 -79.54951,-45.19859 -0.60506,-17.71593 49.226,-31.54796 81.71905,-30.73504 z"
       id="path28" />
    <path
       style="fill:#bc1142"
       d="m 168.13874,525.10369 c 23.2791,28.04573 33.89066,77.31899 14.46355,91.84353 -18.37917,11.08784 -63.01228,6.52162 -94.736237,-39.05157 -21.395052,-38.24168 -18.637584,-77.15663 -3.615887,-88.58924 22.464424,-13.68429 57.173424,4.79902 83.888574,35.79728 z"
       id="path30" />
    <path
       style="fill:#bc1142"
       d="m 405.0209,516.21177 c -25.18682,29.50165 -39.21227,83.30951 -20.83785,100.6428 17.56828,13.46361 64.7292,11.58162 99.56566,-36.75574 25.29599,-32.46471 16.82013,-86.68225 2.37077,-101.07511 -21.46408,-16.60213 -52.27691,4.64489 -81.09858,37.18805 z"
       id="path32" />
  </g>
  <path
     style="opacity:0.1;fill:#ffffff;stroke-width:8.47458"
     d="m 174.29993,7.7603272 c -56.98411,0 -104.773578,18.6524598 -104.773578,75.9401498 0,1.5094 0.15121,3.02318 0.21517,4.53522 2.21001,-54.12497 48.937178,-72.00079 104.558408,-72.00079 21.49403,0 53.47921,19.61401 77.84361,19.61401 24.36441,0 56.34959,-19.61401 77.84363,-19.61401 55.62124,0 102.34839,17.87582 104.5584,72.00079 0.064,-1.51204 0.21517,-3.02582 0.21517,-4.53522 0,-57.28769 -47.78945,-75.9401498 -104.77357,-75.9401498 -21.49404,0 -53.47922,19.6140098 -77.84363,19.6140098 -24.3644,0 -56.34958,-19.6140098 -77.84361,-19.6140098 z M 100.89223,175.05044 c -0.20813,1.03555 -0.36575,1.99938 -0.66208,3.17797 -3.531914,12.91876 -8.764148,28.34348 -13.556028,39.67492 -19.96342,19.38324 -30.46322,47.73495 -29.26376,75.32773 1.0666,-24.82017 11.34352,-49.45372 29.26376,-66.85315 4.79188,-11.33144 10.024114,-26.75616 13.556028,-39.67493 1.1984,-4.7664 1.77879,-8.19383 0.66208,-11.65254 z m 302.50264,0 c -1.11671,3.45871 -0.53633,6.88614 0.66208,11.65254 3.5319,12.91877 8.76415,28.34349 13.55601,39.67493 17.92025,17.39943 28.19717,42.03298 29.26378,66.85315 1.19944,-27.59278 -9.30034,-55.94449 -29.26378,-75.32773 -4.79186,-11.33144 -10.02411,-26.75616 -13.55601,-39.67492 -0.29633,-1.17859 -0.45394,-2.14242 -0.66208,-3.17797 z"
     id="path36" />
  <path
     style="opacity:0.2;fill:#ffffff;stroke-width:8.47458"
     d="m 181.79794,58.607787 c 2.01712,2.53818 4.82632,5.01282 1.83727,7.92836 -4.11977,-2.65771 -8.25683,-5.31101 -18.04159,-7.20008 2.20497,2.53949 6.76944,5.07439 4.00557,7.61388 -5.17315,-2.04112 -10.89717,-3.50924 -17.23054,-4.3697 3.03262,2.57684 5.54773,5.08827 3.06211,7.08422 -5.53583,-1.7593 -13.15477,-4.1274 -20.60713,-2.08555 l 4.7173,4.91592 c 0.52367,0.65669 -11.04098,0.49715 -18.67055,0.61242 1.78779,2.56533 3.57535,5.15852 5.08143,8.44147 6.81327,-0.0385 14.00545,-0.0572 13.58912,-0.57932 l -4.7173,-4.91591 c 7.45236,-2.04186 15.0713,0.32625 20.60713,2.08554 2.48562,-1.99593 -0.0295,-4.50738 -3.06211,-7.08422 6.33338,0.86047 12.05739,2.32859 17.23054,4.3697 2.76387,-2.53948 -1.8006,-5.07438 -4.00557,-7.61387 9.78476,1.88906 13.92182,4.54237 18.04159,7.20008 2.98905,-2.91554 0.17985,-5.39018 -1.83727,-7.92837 7.37751,2.78062 11.17738,6.37037 15.1781,9.9146 1.35639,-1.8628 3.44993,-3.2351 0.9269,-7.72975 5.23811,3.07252 9.18123,6.70259 12.09945,10.75875 3.24093,-2.09999 1.93533,-4.96724 1.95312,-7.61388 5.44376,4.50626 8.89691,9.28692 13.12567,13.96981 0.85184,-0.63119 1.59259,-2.77169 2.25106,-6.15731 7.27667,7.18375 16.21761,20.477983 18.00847,33.037603 2.43963,-14.585753 -9.05525,-32.673273 -18.00847,-41.512183 -0.6585,3.38563 -1.39922,5.52613 -2.25106,6.15731 -4.22876,-4.68289 -7.68192,-9.46355 -13.12567,-13.96981 -0.0177,2.64665 1.28781,5.5139 -1.95312,7.61388 -2.91822,-4.05616 -6.86134,-7.68623 -12.09945,-10.75874 2.52303,4.49464 0.42951,5.86694 -0.9269,7.72974 -4.00072,-3.54423 -7.80059,-7.13398 -15.1781,-9.91459 z m 145.64024,0 c -7.37752,2.78061 -11.1774,6.37036 -15.17811,9.91459 -1.35641,-1.8628 -3.44993,-3.2351 -0.92691,-7.72974 -5.23811,3.07251 -9.18121,6.70258 -12.09944,10.75874 -3.24091,-2.09998 -1.91887,-4.96723 -1.93657,-7.61388 -5.44374,4.50626 -8.89689,9.28692 -13.12566,13.96981 -0.85184,-0.63118 -1.60911,-2.77168 -2.26761,-6.15731 -8.95324,8.83891 -20.44811,26.92643 -18.00848,41.512183 1.79086,-12.55962 10.7318,-25.853853 18.00848,-33.037603 0.6585,3.38562 1.41577,5.52612 2.26761,6.15731 4.22877,-4.68289 7.68192,-9.46355 13.12566,-13.96981 0.0177,2.64665 -1.30434,5.51389 1.93657,7.61388 2.91823,-4.05616 6.86133,-7.68624 12.09944,-10.75875 -2.52302,4.49464 -0.4295,5.86695 0.92691,7.72975 4.00071,-3.54423 7.80059,-7.13398 15.17811,-9.9146 -2.01718,2.53819 -4.82633,5.01283 -1.83727,7.92837 4.11977,-2.65771 8.25682,-5.31101 18.04158,-7.20008 -2.20497,2.53949 -6.75288,5.07439 -3.98901,7.61387 5.17315,-2.04111 10.89718,-3.50928 17.23054,-4.3697 -3.03289,2.57684 -5.56428,5.08829 -3.07866,7.08422 5.53583,-1.75927 13.15477,-4.1274 20.60712,-2.08554 l -4.71729,4.91591 c -0.41635,0.52198 6.77583,0.54075 13.58911,0.57932 1.50608,-3.28295 3.29364,-5.87614 5.08144,-8.44147 -7.62957,-0.11527 -19.19422,0.0443 -18.67055,-0.61242 l 4.71729,-4.91592 c -7.45235,-2.04185 -15.07129,0.32624 -20.60712,2.08555 -2.48562,-1.99595 0.046,-4.50738 3.07866,-7.08422 -6.33336,0.86041 -12.05739,2.32858 -17.23054,4.3697 -2.76387,-2.53949 1.78404,-5.07439 3.98901,-7.61388 -9.78476,1.88907 -13.92181,4.54237 -18.04158,7.20008 -2.98906,-2.91554 -0.17987,-5.39018 1.83727,-7.92836 z m -207.37885,29.21412 c 1.98377,4.31467 4.70537,6.84795 7.06766,8.83871 0.47991,-0.0666 0.84584,-0.17536 1.02622,-0.36414 -0.78572,-3.25275 -1.84372,-5.80729 -3.029,-8.04423 -1.47826,-0.0564 -3.29396,-0.25559 -5.06488,-0.43034 z m 269.11746,0 c -1.77093,0.17475 -3.58663,0.37391 -5.06488,0.43034 -1.18528,2.23694 -2.24329,4.79148 -3.029,8.04423 0.18038,0.18878 0.5463,0.29755 1.02622,0.36414 2.36229,-1.99076 5.08388,-4.52404 7.06766,-8.83871 z m -236.80814,7.11731 c 36.39795,19.095963 58.28313,34.716693 70.95802,48.132943 0.91839,-1.87656 1.72015,-3.85823 2.26762,-6.0911 -4.41638,-5.01236 -10.20978,-10.34725 -17.52847,-16.05535 -16.9781,-10.53625 -35.65858,-19.05779 -55.69717,-25.986493 z m 204.51537,0 c -20.00628,6.917533 -38.6697,15.424213 -55.63097,25.936833 -7.35127,5.72815 -13.16461,11.07711 -17.59467,16.10501 0.54746,2.23287 1.34945,4.21454 2.26761,6.0911 12.67489,-13.41625 34.56009,-29.03698 70.95803,-48.132943 z m -234.06053,6.355923 c 1.64967,3.51105 4.44283,6.3194 7.36561,9.0539 0.4728,-0.18182 0.94113,-0.35313 1.35725,-0.67863 -1.0953,-2.5145 -4.84931,-4.30178 -8.20975,-8.2594 -0.1796,-0.0592 -0.33179,-0.0523 -0.51311,-0.11587 z m 263.58913,0 c -0.18132,0.0636 -0.33351,0.0567 -0.51311,0.11587 -3.36044,3.95762 -7.11445,5.7449 -8.20975,8.2594 0.41613,0.32551 0.88445,0.49681 1.35726,0.67863 2.92277,-2.7345 5.71594,-5.54285 7.3656,-9.0539 z M 254.03046,164.2255 c -21.27347,-0.56313 -41.69507,16.07576 -41.74391,25.72166 -0.008,1.56185 0.33715,3.12446 0.91036,4.66764 4.14885,-9.65154 22.15274,-22.40923 40.83355,-21.91472 16.9284,-0.18987 37.41903,11.48894 41.41287,23.78508 0.46116,-1.36531 0.73499,-2.77666 0.74484,-4.22073 0.0935,-13.70376 -23.28066,-28.25064 -42.15771,-28.03893 z m -64.23795,8.16009 c -29.53836,0.55949 -52.10723,21.36536 -51.06263,55.77992 0.0247,0.31766 0.12553,0.54884 0.21517,0.79449 2.30264,-29.79181 23.58464,-47.58345 50.84746,-48.09984 3.65943,-0.0693 7.44573,0.24493 11.2884,0.81104 3.29767,-4.58832 4.41479,-7.80458 1.75451,-8.25939 -4.45542,-0.76558 -8.82315,-1.10615 -13.04291,-1.02622 z m 124.5531,1.15863 c -4.21977,-0.0799 -8.57094,0.24409 -13.02635,1.00967 -2.66028,0.45481 -1.54316,3.67108 1.7545,8.2594 3.83937,-0.56276 7.61241,-0.86358 11.27185,-0.79449 27.26283,0.51639 48.55921,18.29363 50.86402,48.08329 0.0896,-0.24567 0.19047,-0.47684 0.21517,-0.7945 1.0446,-34.41457 -21.54083,-55.20388 -51.07919,-55.76337 z m -12.57945,41.97564 a 49.46569,41.619949 58.681428 0 0 -21.7161,5.97523 49.467692,41.621634 58.681428 0 0 -16.75053,38.68181 49.467692,41.621634 58.681428 0 1 16.75053,-30.20723 49.46569,41.619949 58.681428 0 1 21.7161,-5.97524 49.46569,41.619949 58.681428 0 1 48.91089,50.16883 49.46569,41.619949 58.681428 0 0 -48.91089,-58.6434 z m -93.27,2.28416 a 41.619949,49.46569 31.318572 0 0 -1.80415,0.0331 41.619949,49.46569 31.318572 0 0 -48.89433,58.72617 41.619949,49.46569 31.318572 0 1 48.89433,-50.25159 41.619949,49.46569 31.318572 0 1 21.7161,5.95869 41.621631,49.467689 31.318572 0 1 16.71743,29.99205 41.621631,49.467689 31.318572 0 0 -16.71743,-38.46663 41.619949,49.46569 31.318572 0 0 -19.91195,-5.99179 z m 161.14937,25.45683 c -6.80127,0.11474 -9.09518,12.62253 -8.45801,27.7079 0.46568,-11.00563 2.99131,-19.1411 8.45801,-19.23332 0.57939,-0.01 1.19176,0.0723 1.83726,0.24827 16.34246,9.49661 23.46179,24.53052 24.51338,39.31078 1.43698,-17.25082 -5.02165,-36.45871 -24.51338,-47.78535 -0.6455,-0.176 -1.25787,-0.25805 -1.83726,-0.24828 z m -235.00397,1.14208 c -0.57939,-0.01 -1.19176,0.0723 -1.83726,0.24828 -19.49234,11.327 -25.9509,30.54605 -24.51337,47.80191 1.05159,-14.7842 8.17092,-29.83073 24.51337,-39.32733 0.6455,-0.17627 1.25785,-0.25845 1.83726,-0.24828 5.46633,0.0922 7.99208,8.22671 8.45802,19.23331 0.63703,-15.08788 -1.65688,-27.59316 -8.45802,-27.70789 z m 121.82204,59.8517 a 46.168819,43.323208 0 0 0 -47.50398,43.31633 46.171542,43.325763 0 0 0 0.23173,4.23729 46.168819,43.323208 0 0 1 47.27225,-39.07905 46.168819,43.323208 0 0 1 44.59083,38.84732 46.171542,43.325763 0 0 0 0.24828,-4.00556 46.168819,43.323208 0 0 0 -44.83911,-43.31633 z m 100.7018,16.12156 c -10.81882,0.28698 -23.70541,10.70573 -35.96729,24.79475 -10.81446,12.89022 -17.96947,33.80113 -16.30364,47.55363 1.21241,-12.91178 7.53425,-28.62645 16.30364,-39.07906 12.26188,-14.08901 25.14847,-24.5078 35.96729,-24.79475 3.60627,-0.0957 6.98656,0.93106 10.03045,3.32693 3.86983,3.9226 6.89676,13.02347 7.59733,23.45405 0.8803,-13.78989 -2.702,-26.96656 -7.59733,-31.92862 -3.04389,-2.39587 -6.42418,-3.42259 -10.03045,-3.32693 z m -207.24643,6.63731 c -3.87459,-0.16902 -7.49023,0.65696 -10.67598,2.63175 -4.84308,3.75086 -7.32419,12.70519 -6.43869,23.71888 0.67285,-6.99484 2.91802,-12.51763 6.43869,-15.2443 3.18575,-1.97481 6.80139,-2.80074 10.67598,-2.63176 11.62379,0.50706 25.5285,9.86835 36.8942,23.28854 7.44818,9.13132 12.46318,22.08999 13.57256,33.21968 1.54271,-12.29554 -4.10915,-30.09231 -13.57256,-41.69426 -11.3657,-13.42018 -25.27041,-22.78147 -36.8942,-23.28853 z m 105.40254,77.56224 c -18.4318,-0.46926 -46.68856,7.51722 -46.34534,17.74364 -0.0462,1.0923 0.63676,2.56573 1.62209,4.17108 6.13326,-8.06444 28.97901,-13.84097 44.72325,-13.44015 15.9277,-0.70744 36.43873,4.28229 41.97564,11.50358 0.93698,-1.75373 1.56947,-3.40164 1.52277,-4.7504 -0.0488,-9.15742 -24.95068,-16.05157 -43.49841,-15.22775 z"
     id="path38" />
</svg>
