<?xml version="1.0" encoding="UTF-8" standalone="no"?>
<svg
   width="512"
   height="512"
   version="1.1"
   id="svg12"
   sodipodi:docname="rhel.svg"
   inkscape:version="1.1.1 (3bf5ae0d25, 2021-09-20)"
   xmlns:inkscape="http://www.inkscape.org/namespaces/inkscape"
   xmlns:sodipodi="http://sodipodi.sourceforge.net/DTD/sodipodi-0.dtd"
   xmlns="http://www.w3.org/2000/svg"
   xmlns:svg="http://www.w3.org/2000/svg">
  <defs
     id="defs16" />
  <sodipodi:namedview
     id="namedview14"
     pagecolor="#ffffff"
     bordercolor="#666666"
     borderopacity="1.0"
     inkscape:pageshadow="2"
     inkscape:pageopacity="0.0"
     inkscape:pagecheckerboard="0"
     showgrid="false"
     inkscape:zoom="1.7050781"
     inkscape:cx="251.30813"
     inkscape:cy="256"
     inkscape:window-width="3440"
     inkscape:window-height="1417"
     inkscape:window-x="0"
     inkscape:window-y="0"
     inkscape:window-maximized="1"
     inkscape:current-layer="svg12" />
  <path
     style="opacity:0.2;stroke-width:8.33333"
     d="m 260.55262,71.271227 c -15.12673,0 -19.62197,19.456517 -38.01935,19.456517 -17.57971,0 -30.67713,-14.592384 -47.03035,-14.592384 -15.94441,0 -26.14555,10.5273 -33.91336,32.42019 0,0 -22.08492,61.62151 -24.94674,70.54084 -0.40883,1.6217 -10.21876,22.30275 -9.81001,23.92445 -43.744904,2.02712 -100.9854427,10.13117 -100.9854427,59.99824 0,81.89553 195.8295227,183.25214 351.1852027,183.25214 118.96972,0 148.8148,-53.49905 148.8148,-95.25766 0,-33.65013 -29.03507,-70.94723 -81.36542,-93.65095 l -5.7262,-24.34265 -19.62003,-84.31887 C 394.63857,130.05163 390.96907,121.53706 357.85375,105.32011 332.50629,92.346593 276.90587,71.271227 260.55262,71.271227 Z"
     id="path2" />
  <path
     style="fill:#e73232;stroke-width:8.33333"
     d="m 260.55262,62.937894 c -15.12673,0 -19.62197,19.456516 -38.01935,19.456516 -17.57971,0 -30.67713,-14.592383 -47.03035,-14.592383 -15.94441,0 -26.14555,10.5273 -33.91336,32.420183 0,0 -22.08492,61.62152 -24.94674,70.54085 -0.40883,1.6217 -10.21876,22.30275 -9.81001,23.92445 -43.744904,2.02712 -100.9854427,10.13117 -100.9854427,59.99823 0,81.89554 195.8295227,183.25215 351.1852027,183.25215 118.96972,0 148.8148,-53.49905 148.8148,-95.25766 0,-33.65014 -29.03507,-70.94724 -81.36542,-93.65095 l -5.7262,-24.34265 -19.62003,-84.31887 C 394.63857,121.7183 390.96907,113.20373 357.85375,96.986777 332.50629,84.01326 276.90587,62.937894 260.55262,62.937894 Z"
     id="path4" />
  <path
     style="opacity:0.2;fill:#ffffff;stroke-width:8.33333"
     d="m 260.55114,62.937894 c -15.12674,0 -19.62345,19.449866 -38.02083,19.449866 -17.57972,0 -30.66827,-14.583333 -47.02149,-14.583333 -15.94441,0 -26.15145,10.529 -33.91926,32.421883 0,0 -22.08935,61.62102 -24.95117,70.54037 -0.40883,1.6217 -10.20693,22.30408 -9.79818,23.92578 -43.744904,2.02712 -100.9928427,10.12642 -100.9928427,59.99348 0,1.37399 0.2001167,2.76602 0.30925,4.15039 3.21509,-46.03814 58.2280057,-53.84317 100.6835927,-55.81054 -0.40875,-1.6217 9.38935,-22.30408 9.79818,-23.92578 2.86182,-8.91935 24.95117,-70.54036 24.95117,-70.54036 7.76781,-21.89289 17.97485,-32.42189 33.91926,-32.42189 16.35322,0 29.44177,14.583334 47.02149,14.583334 18.39738,0 22.89409,-19.449867 38.02083,-19.449867 16.35325,0 71.95071,21.075966 97.29818,34.049483 33.11532,16.21694 36.79517,24.72618 41.29232,43.37565 l 19.61263,84.32617 5.72917,24.33268 c 50.37615,21.85587 79.07248,57.2288 81.15233,89.86003 0.0787,-1.5161 0.2116,-3.05181 0.2116,-4.54101 0,-33.65014 -29.03358,-70.94864 -81.36393,-93.65235 l -5.72917,-24.33269 -19.61263,-84.32616 c -4.49715,-18.64947 -8.177,-27.15872 -41.29232,-43.375653 C 332.50185,84.01386 276.90439,62.937894 260.55114,62.937894 Z"
     id="path6" />
  <path
     style="opacity:0.1;stroke-width:8.33333"
     d="m 424.98574,262.46093 c 4.51996,21.66803 4.51996,23.71216 4.51996,26.574 0,36.79476 -42.02035,57.2363 -96.67096,57.2363 -123.27207,0 -232.895701,-71.95422 -232.895701,-119.37857 0,-6.5413 1.232721,-13.0826 4.109081,-19.21505 l 9.86174,-23.7122 c -0.41092,1.63535 -0.82175,3.27065 -0.41092,4.90598 0,24.12102 96.88555,103.43419 225.49938,103.43419 32.87255,0 81.46743,-6.95014 81.46743,-45.78905 0,-2.86182 0,-6.13247 -0.82183,-8.99429 z"
     id="path8" />
  <path
     style="fill:#3f3f3f;stroke-width:8.33333"
     d="m 424.98574,254.12759 c 4.51996,21.66804 4.51996,23.71217 4.51996,26.574 0,36.79477 -42.02035,57.2363 -96.67096,57.2363 -123.27207,0 -232.895701,-71.95421 -232.895701,-119.37856 0,-6.5413 1.232721,-13.0826 4.109081,-19.21505 l 9.86174,-23.7122 c -0.41092,1.63535 -0.82175,3.27065 -0.41092,4.90598 0,24.12102 96.88555,103.43418 225.49938,103.43418 32.87255,0 81.46743,-6.95013 81.46743,-45.78905 0,-2.86181 0,-6.13246 -0.82183,-8.99428 z"
     id="path10" />
</svg>
