<?xml version="1.0" encoding="UTF-8" standalone="no"?>
<!DOCTYPE svg PUBLIC "-//W3C//DTD SVG 1.0//EN" "http://www.w3.org/TR/2001/REC-SVG-20010904/DTD/svg10.dtd">
<!-- Created with Inkscape (http://www.inkscape.org/) -->
<svg xmlns:svg="http://www.w3.org/2000/svg" xmlns="http://www.w3.org/2000/svg" xmlns:xlink="http://www.w3.org/1999/xlink" xmlns:inkscape="http://www.inkscape.org/namespaces/inkscape" version="1.0" width="298.142397" height="335.410196625" viewBox="0 0 800.0 900.0" id="svg2">
  <defs id="defs4">
    <linearGradient id="linearGradient3374">
      <stop id="stop3376" style="stop-color:#ffffff;stop-opacity:0.43727598" offset="0"/>
      <stop id="stop3378" style="stop-color:#ffffff;stop-opacity:0" offset="1"/>
    </linearGradient>
    <linearGradient x1="447.5928" y1="883.36084" x2="413.88904" y2="910.63495" id="linearGradient3380" xlink:href="#linearGradient3374" gradientUnits="userSpaceOnUse" gradientTransform="translate(-322.85714,-811.42857)"/>
    <filter id="filter3442">
      <feGaussianBlur id="feGaussianBlur3444" stdDeviation="2.3432203" inkscape:collect="always"/>
    </filter>
    <filter id="filter3478">
      <feGaussianBlur id="feGaussianBlur3480" stdDeviation="3.4723602" inkscape:collect="always"/>
    </filter>
  </defs>
  <g id="layer1">
    <path d="M 170.26396,148.43245 C 92.463829,184.95337 88.719659,303.30557 255.8512,386.13302 C 179.09766,368.38336 121.84421,374.56568 84.007112,393.66444 C 3.5766287,434.26276 10.832093,532.47901 105.44853,579.1319 C 70.531175,730.25454 241.27058,805.77273 350.13404,584.94601 C 295.50279,823.86557 474.95826,873.03405 543.44494,734.13656 C 693.96792,768.91534 769.43319,599.65863 551.81324,490.72292 C 789.98428,544.7221 838.87916,365.51116 700.14993,297.10751 C 734.96656,146.42052 565.28549,70.95131 456.36305,289.44829 C 509.80192,51.942093 330.91779,3.3170563 262.58789,141.8968 C 226.47431,133.55265 194.73804,136.94378 170.26396,148.43245 z" id="path3305" style="fill:none;fill-rule:evenodd;stroke:#ff0000;stroke-width:5.12829828px;stroke-linecap:butt;stroke-linejoin:miter;stroke-opacity:1"/>
    <path d="M 348.59724,592.80497 C 310.50537,664.04688 299.19558,755.14694 308.24461,861.34245" id="path3324" style="fill:none;fill-rule:evenodd;stroke:#60ca00;stroke-width:15.38489437;stroke-linecap:butt;stroke-linejoin:miter;stroke-miterlimit:4;stroke-dasharray:none;stroke-opacity:1"/>
    <path d="M 164.82109,136.82424 C 121.1703,157.31482 97.357302,203.07857 108.78438,252.79132 C 117.35469,290.07584 144.32667,329.03162 193.49222,364.09169 C 146.12639,360.87584 107.32548,367.52986 78.274649,382.19356 C 34.208209,404.43668 12.229144,444.71305 16.339834,485.34944 C 20.199443,523.50331 46.687923,560.56782 91.529556,585.5553 C 77.904847,661.63842 114.19161,722.8101 171.52018,734.03394 C 220.13307,743.55145 278.41253,716.83348 328.6317,645.69255 C 322.83641,732.03483 351.04205,789.32889 394.61987,812.51777 C 446.04311,839.8815 512.54556,815.35829 550.08783,748.01353 C 625.81146,761.53623 686.69651,725.80779 698.262,668.87676 C 708.0889,620.50399 681.9256,562.23442 611.63582,512.01602 C 698.17769,517.847 755.55212,489.46807 778.68202,445.74574 C 805.88928,394.31593 781.37125,327.9876 714.10157,290.49123 C 727.63351,214.68601 691.7867,153.70798 634.75136,142.24096 C 586.26361,132.49243 527.9843,158.979 477.73088,229.65234 C 483.34765,143.42795 454.91569,86.242561 411.23222,63.246555 C 359.84026,36.192629 293.43803,60.685585 255.97766,127.82701 C 221.38878,121.59202 189.94165,125.03214 164.82109,136.82424 z" id="path3328" style="fill:none;fill-rule:evenodd;stroke:none;stroke-width:1px;stroke-linecap:butt;stroke-linejoin:miter;stroke-opacity:1"/>
    <path d="M 166.88118,141.16832 C 125.02052,160.81858 102.4195,203.91772 113.39564,251.66873 C 122.48771,291.22304 154.11269,333.45078 212.78078,370.73017 C 156.87694,363.87005 112.38834,370.36258 80.479509,386.46897 C 37.864276,407.97957 17.312365,446.12005 21.225769,484.80604 C 24.986606,521.98338 51.19862,558.64805 96.887191,583.01454 C 81.788097,658.86822 116.97212,718.55258 172.33374,729.39134 C 221.58714,739.03424 282.91236,710.13617 334.42524,629.1105 C 323.40089,723.92955 352.69367,784.76173 396.85904,808.26329 C 446.4943,834.67556 511.34677,810.83261 547.61578,742.80066 C 623.05161,757.72283 682.38889,722.8622 693.55068,667.91838 C 703.50917,618.89791 675.32892,557.68782 595.19854,506.15381 C 690.1956,517.21294 750.99239,487.80594 774.42748,443.50652 C 800.68909,393.86439 776.8425,329.18834 708.88871,292.96333 C 723.8379,217.43263 688.84609,158.02073 633.79299,146.95227 C 584.66574,137.07512 523.42535,165.56825 471.86867,246.08961 C 482.6983,151.40999 453.11633,90.873517 408.84818,67.56971 C 359.23107,41.450109 294.70478,65.320644 258.51843,133.18464 C 223.38523,126.1979 191.79101,129.47509 166.88118,141.16832 z" id="path3331" style="fill:#b3b3b3;fill-opacity:1;fill-rule:evenodd;stroke:none;stroke-width:1px;stroke-linecap:butt;stroke-linejoin:miter;stroke-opacity:1"/>
    <path d="M 170.26396,148.43245 C 92.463829,184.95337 88.719659,303.30557 255.8512,386.13302 C 179.09766,368.38336 121.84421,374.56568 84.007112,393.66444 C 3.5766287,434.26276 10.832093,532.47901 105.44853,579.1319 C 70.531175,730.25454 241.27058,805.77273 350.13404,584.94601 C 295.50279,823.86557 474.95826,873.03405 543.44494,734.13656 C 693.96792,768.91534 769.43319,599.65863 551.81324,490.72292 C 789.98428,544.7221 838.87916,365.51116 700.14993,297.10751 C 734.96656,146.42052 565.28549,70.95131 456.36305,289.44829 C 509.80192,51.942093 330.91779,3.3170563 262.58789,141.8968 C 226.47431,133.55265 194.73804,136.94378 170.26396,148.43245 z" id="path3326" style="fill:#60ca00;fill-opacity:1;fill-rule:evenodd;stroke:#ffffff;stroke-width:5.12829828px;stroke-linecap:butt;stroke-linejoin:miter;stroke-opacity:1"/>
    <path d="M 45.961867,36.865039 C 30.791117,43.986489 30.061017,67.064749 62.651077,83.215809 C 47.684407,79.754689 36.520187,80.960219 29.142087,84.684409 C 23.087687,87.740449 19.581317,92.470779 18.619327,97.650659 C 53.042467,136.08264 136.01917,84.006979 147.12547,46.172429 C 139.14888,32.702929 117.28179,33.206419 101.75018,64.362629 C 112.17057,18.049759 77.288797,8.5680486 63.964707,35.590609 C 56.922687,33.963529 50.734227,34.624789 45.961867,36.865039 z" transform="matrix(5.1282981,0,0,5.1282981,-65.442196,-40.62245)" id="path3354" style="opacity:0.13261647;fill:#ffffff;fill-opacity:1;fill-rule:evenodd;stroke:#ffffff;stroke-width:1px;stroke-linecap:butt;stroke-linejoin:miter;stroke-opacity:1;filter:url(#filter3442)"/>
    <path d="M 146.06149,139.43839 C 149.21209,129.25572 142.7177,114.80091 120.36263,103.61046 C 166.80514,114.14011 176.33947,79.194609 149.28776,65.856139 C 156.07688,36.472709 122.98967,21.756479 101.75018,64.362619 C 106.91286,41.417369 100.95563,27.512729 92.009397,22.608939 C 46.813237,61.078769 96.199697,135.42013 146.06149,139.43839 z" transform="matrix(5.1282981,0,0,5.1282981,-65.442196,-40.62245)" id="path3356" style="fill:url(#linearGradient3380);fill-opacity:1;fill-rule:evenodd;stroke:none;stroke-width:1px;stroke-linecap:butt;stroke-linejoin:miter;stroke-opacity:1;filter:url(#filter3478)"/>
  </g>
</svg>