<?xml version="1.0" encoding="UTF-8" standalone="no"?>
<!-- Created with Inkscape (http://www.inkscape.org/) -->

<svg
   xmlns:dc="http://purl.org/dc/elements/1.1/"
   xmlns:cc="http://creativecommons.org/ns#"
   xmlns:rdf="http://www.w3.org/1999/02/22-rdf-syntax-ns#"
   xmlns:svg="http://www.w3.org/2000/svg"
   xmlns="http://www.w3.org/2000/svg"
   xmlns:sodipodi="http://sodipodi.sourceforge.net/DTD/sodipodi-0.dtd"
   xmlns:inkscape="http://www.inkscape.org/namespaces/inkscape"
   id="svg2"
   version="1.1"
   inkscape:version="0.91 r13725"
   xml:space="preserve"
   width="77.5"
   height="31.25"
   viewBox="0 0 77.5 31.25"
   sodipodi:docname="tuxedo_computers.svg"><metadata
     id="metadata8"><rdf:RDF><cc:Work
         rdf:about=""><dc:format>image/svg+xml</dc:format><dc:type
           rdf:resource="http://purl.org/dc/dcmitype/StillImage" /><dc:title></dc:title></cc:Work></rdf:RDF></metadata><defs
     id="defs6" /><sodipodi:namedview
     pagecolor="#ffffff"
     bordercolor="#666666"
     borderopacity="1"
     objecttolerance="10"
     gridtolerance="10"
     guidetolerance="10"
     inkscape:pageopacity="0"
     inkscape:pageshadow="2"
     inkscape:window-width="1920"
     inkscape:window-height="1057"
     id="namedview4"
     showgrid="false"
     inkscape:zoom="16.980645"
     inkscape:cx="38.75"
     inkscape:cy="15.625"
     inkscape:window-x="1920"
     inkscape:window-y="23"
     inkscape:window-maximized="1"
     inkscape:current-layer="g10" /><g
     id="g10"
     inkscape:groupmode="layer"
     inkscape:label="ink_ext_XXXXXX"
     transform="matrix(1.25,0,0,-1.25,0,31.25)"><g
       id="g12"
       transform="scale(0.1,0.1)"><path
         d="m 551,29.1992 -3.316,0 0,-20.98436 -9.821,0 0,50.82816 c 2,0.1523 4.242,0.2656 6.75,0.3789 2.485,0.1133 4.879,0.1679 7.184,0.1679 5.84,0 10.293,-1.1328 13.328,-3.375 3.031,-2.2421 4.559,-5.75 4.559,-10.539 0,-2.1485 -0.262,-3.9961 -0.774,-5.5781 -0.508,-1.586 -1.203,-2.9649 -2.051,-4.1524 -0.851,-1.168 -1.812,-2.164 -2.921,-2.9765 -1.118,-0.8086 -2.262,-1.4883 -3.493,-2.0352 1.453,-2.6211 2.813,-5.0898 4.133,-7.4102 1.301,-2.3203 2.617,-4.3359 3.918,-6.0703 1.301,-1.7343 2.641,-3.1093 3.977,-4.1093 1.343,-1.0196 2.793,-1.5274 4.34,-1.5274 l 0.339,0 0,-3.26171 c -0.793,-0.26172 -1.679,-0.47266 -2.695,-0.64063 -1,-0.16797 -2.133,-0.24609 -3.394,-0.24609 -1.813,0 -3.375,0.17187 -4.715,0.49219 -1.356,0.33984 -2.657,1.05468 -3.938,2.16794 -1.265,1.0938 -2.586,2.7149 -3.941,4.8438 -1.379,2.1328 -2.961,5.0351 -4.75,8.6758 L 551,29.1992 Z m -1.543,5.0313 c 1.359,0 2.676,0.1718 3.957,0.5273 1.266,0.3399 2.281,0.7735 3.02,1.3008 0.355,0.25 0.734,0.5859 1.089,0.9805 0.379,0.414 0.719,0.9453 1,1.6015 0.301,0.6836 0.547,1.5313 0.719,2.5469 0.188,1.0391 0.281,2.3203 0.281,3.8828 0,1.7188 -0.187,3.1875 -0.585,4.3594 -0.375,1.1875 -0.961,2.1289 -1.735,2.8437 -0.769,0.7188 -1.734,1.2266 -2.883,1.5469 -1.148,0.3203 -2.449,0.4727 -3.922,0.4727 -0.414,0 -0.867,0 -1.359,-0.0196 -0.508,-0.0195 -0.941,-0.0781 -1.355,-0.1523 l 0,-19.8906 1.773,0"
         style="fill:#ed1c24;fill-opacity:1;fill-rule:nonzero;stroke:none"
         id="path14"
         inkscape:connector-curvature="0" /><path
         d="m 286.762,33.8359 c 0,-4.0156 -0.508,-7.6367 -1.524,-10.8789 -1.004,-3.2422 -2.527,-6.0156 -4.582,-8.3125 -2.039,-2.3007 -4.582,-4.0547 -7.636,-5.29684 C 269.965,8.12109 266.402,7.5 262.367,7.5 c -4.168,0 -7.73,0.62109 -10.726,1.88281 -2.981,1.24609 -5.411,3.01559 -7.317,5.32029 -1.886,2.2969 -3.281,5.0703 -4.183,8.3125 -0.907,3.2422 -1.36,6.8438 -1.36,10.8203 0,3.9805 0.453,7.5586 1.379,10.7461 0.922,3.1836 2.356,5.9024 4.278,8.1446 1.941,2.2422 4.394,3.957 7.375,5.164 2.976,1.1914 6.519,1.793 10.593,1.793 4.09,0 7.653,-0.6016 10.692,-1.793 3.031,-1.207 5.558,-2.9218 7.593,-5.164 2.02,-2.2422 3.543,-4.961 4.547,-8.1446 1.016,-3.1875 1.524,-6.7656 1.524,-10.7461 z m -10.387,0 c 0,3.0899 -0.262,5.8829 -0.789,8.3516 -0.547,2.4688 -1.379,4.5469 -2.531,6.2617 -1.129,1.7149 -2.582,3.0156 -4.352,3.918 -1.773,0.9062 -3.863,1.3594 -6.297,1.3594 -2.133,0 -4.109,-0.2266 -5.957,-0.6993 -1.828,-0.4531 -3.281,-1.1093 -4.355,-1.9609 -1.078,-0.8476 -1.848,-2.6953 -2.34,-5.5781 -0.508,-2.8672 -0.754,-6.75 -0.754,-11.6524 0,-3.0546 0.227,-5.8281 0.66,-8.3164 0.453,-2.4843 1.188,-4.6172 2.207,-6.4257 1.039,-1.8086 2.414,-3.2071 4.11,-4.1641 1.714,-0.9844 3.843,-1.4727 6.375,-1.4727 2.617,0 4.765,0.2422 6.464,0.7188 1.696,0.4687 3.129,1.1289 4.297,1.9414 0.567,0.3555 1.035,1.0898 1.434,2.2031 0.414,1.0938 0.754,2.4492 1.039,4.0547 0.262,1.6016 0.469,3.3906 0.602,5.3555 0.132,1.9765 0.187,4.0117 0.187,6.1054"
         style="fill:#ed1c24;fill-opacity:1;fill-rule:nonzero;stroke:none"
         id="path16"
         inkscape:connector-curvature="0" /><path
         d="m 611.273,23.1289 c 0,-1.8476 -0.433,-3.6953 -1.316,-5.5469 -0.887,-1.8632 -2.168,-3.5429 -3.828,-5.0312 -1.641,-1.4883 -3.637,-2.71486 -5.992,-3.63674 C 597.797,7.97266 595.176,7.5 592.27,7.5 c -1.543,0 -2.973,0.09375 -4.317,0.28125 -1.316,0.17188 -2.562,0.43359 -3.73,0.73438 -1.149,0.32031 -2.266,0.69921 -3.34,1.17187 -1.074,0.4492 -2.129,0.9609 -3.203,1.5078 l 2.433,7.5781 c 0.7,-0.4882 1.621,-1 2.789,-1.5468 1.168,-0.5625 2.414,-1.0743 3.789,-1.543 1.36,-0.4922 2.735,-0.8906 4.114,-1.1875 1.375,-0.3203 2.636,-0.4766 3.785,-0.4766 1.285,0 2.34,0.0782 3.168,0.2461 0.828,0.1719 1.582,0.3985 2.242,0.6992 0.738,0.2852 1.324,1.0157 1.773,2.2071 0.434,1.1679 0.661,2.6953 0.661,4.5781 0,1.7344 -0.563,3.1133 -1.715,4.1484 -1.133,1.0196 -2.567,1.9258 -4.281,2.6797 -1.715,0.7539 -3.563,1.5078 -5.54,2.2617 -2,0.754 -3.847,1.7344 -5.562,2.9219 -1.715,1.1875 -3.148,2.7305 -4.281,4.6172 -1.153,1.8672 -1.715,4.3359 -1.715,7.3906 0,1.4688 0.398,3.0352 1.168,4.6563 0.773,1.6406 1.883,3.1484 3.355,4.543 1.473,1.3789 3.301,2.5117 5.469,3.3945 2.188,0.8867 4.656,1.3203 7.41,1.3203 2.203,0 4.332,-0.1133 6.371,-0.3398 2.055,-0.2071 4.035,-0.5118 5.938,-0.8672 l -1.547,-7.5782 c -0.883,0.3399 -1.883,0.6407 -2.996,0.9414 -1.129,0.3008 -2.262,0.5469 -3.434,0.7735 -1.168,0.2265 -2.297,0.3945 -3.39,0.5273 -1.114,0.1328 -2.094,0.1875 -2.922,0.1875 -0.961,0 -1.852,-0.0351 -2.66,-0.1289 -0.809,-0.0937 -1.547,-0.3398 -2.207,-0.7539 -0.622,-0.3594 -1.075,-1 -1.356,-1.9062 -0.281,-0.9024 -0.414,-1.9766 -0.414,-3.2227 0,-1.3008 0.34,-2.3594 1,-3.207 0.656,-0.8477 1.523,-1.6016 2.617,-2.2422 1.098,-0.6406 2.321,-1.2266 3.699,-1.7539 1.395,-0.5469 2.809,-1.1094 4.262,-1.7149 1.449,-0.6054 2.863,-1.3203 4.258,-2.1132 1.375,-0.7891 2.602,-1.75 3.695,-2.9219 1.094,-1.1485 1.961,-2.5625 2.621,-4.2227 0.661,-1.6562 0.996,-3.6562 0.996,-6.0117"
         style="fill:#ed1c24;fill-opacity:1;fill-rule:nonzero;stroke:none"
         id="path18"
         inkscape:connector-curvature="0" /><path
         d="m 529.398,8.21484 -29.089,0 0,50.92186 28.109,0 -0.512,-5.1836 -17.773,-0.2265 0,-16.5743 16.742,-0.2265 -0.457,-4.6914 -16.285,-0.3789 0,-18.211 19.719,-0.3945 -0.454,-5.03516"
         style="fill:#ed1c24;fill-opacity:1;fill-rule:nonzero;stroke:none"
         id="path20"
         inkscape:connector-curvature="0" /><path
         d="m 469.145,8.21484 0,45.51176 -14.856,0.2265 0.492,5.1836 39.153,0 -0.489,-5.0156 -14.422,-0.3945 0,-45.51176 -9.878,0"
         style="fill:#ed1c24;fill-opacity:1;fill-rule:nonzero;stroke:none"
         id="path22"
         inkscape:connector-curvature="0" /><path
         d="m 448.105,26.1641 c 0,-2.5469 -0.472,-4.9414 -1.414,-7.2032 -0.941,-2.2617 -2.316,-4.2382 -4.164,-5.9375 -1.851,-1.6992 -4.132,-3.03512 -6.882,-4.03512 -2.735,-1 -5.922,-1.48828 -9.52,-1.48828 -2.98,0 -5.676,0.32031 -8.07,0.94141 -2.395,0.62109 -4.43,1.64059 -6.145,3.05469 -1.715,1.4336 -3.039,3.2773 -3.961,5.5586 -0.926,2.2851 -1.375,5.0742 -1.375,8.3906 l 0,33.6914 9.821,0 0,-34.6914 c 0,-2.5234 0.226,-4.539 0.66,-6.0312 0.453,-1.4883 1.113,-2.6602 2,-3.4493 0.883,-0.8125 1.98,-1.3398 3.281,-1.5859 1.316,-0.2422 2.809,-0.3555 4.504,-0.3555 2.109,0 3.902,0.2266 5.394,0.6602 1.489,0.4492 2.731,1.0391 3.731,1.7695 1.035,0.7344 1.676,1.8867 1.922,3.4727 0.265,1.582 0.394,3.5039 0.394,5.7461 l 0,34.4648 9.824,0 0,-32.9726"
         style="fill:#ed1c24;fill-opacity:1;fill-rule:nonzero;stroke:none"
         id="path24"
         inkscape:connector-curvature="0" /><path
         d="m 377.918,31.8203 1.32,0.2617 c 1.282,0.3008 2.508,0.6797 3.637,1.1328 1.148,0.4688 2.129,1.1485 2.961,2.0547 0.828,0.9024 1.488,2.0899 1.961,3.5625 0.473,1.4727 0.715,3.336 0.715,5.6368 0,3.4101 -0.77,5.9023 -2.321,7.4648 -1.543,1.5664 -3.578,2.3594 -6.086,2.3594 -0.621,0 -1.265,-0.0196 -1.906,-0.0586 -0.64,-0.0391 -1.32,-0.1133 -2.015,-0.2266 l 0,-45.79296 -9.821,0 0,50.66016 c 1.032,0.0703 2.149,0.1484 3.371,0.207 1.207,0.0743 2.469,0.1485 3.77,0.2032 1.32,0.0586 2.625,0.0937 3.926,0.1171 1.316,0.0196 2.582,0.0196 3.785,0.0196 2.98,0 5.582,-0.3399 7.769,-1.0196 2.188,-0.6796 3.996,-1.6406 5.43,-2.9062 1.449,-1.2422 2.508,-2.7695 3.207,-4.543 0.695,-1.789 1.051,-3.8086 1.051,-6.0508 0,-2.3554 -0.395,-4.5625 -1.168,-6.6367 -0.774,-2.0547 -1.961,-3.8633 -3.543,-5.4101 -1.602,-1.5469 -3.656,-2.75 -6.148,-3.6367 -2.469,-0.8907 -5.426,-1.3243 -8.86,-1.3243 l -0.433,0 -0.602,3.9258"
         style="fill:#ed1c24;fill-opacity:1;fill-rule:nonzero;stroke:none"
         id="path26"
         inkscape:connector-curvature="0" /><path
         d="m 346.641,8.21484 -3.922,38.83986 -17.457,-38.83986 -2.981,0 -18.226,38.83986 -3.301,-38.83986 -5.695,0 4.921,51.26176 9.219,0 16.949,-36.0664 16.137,36.0664 8.992,0 5.356,-51.26176 -9.992,0"
         style="fill:#ed1c24;fill-opacity:1;fill-rule:nonzero;stroke:none"
         id="path28"
         inkscape:connector-curvature="0" /><path
         d="m 213.992,7.5 c -3.808,0 -7.035,0.64063 -9.672,1.94141 -2.656,1.28129 -4.808,3.08989 -6.468,5.41019 -1.657,2.3203 -2.864,5.1093 -3.618,8.3515 -0.754,3.2617 -1.132,6.8828 -1.132,10.8594 0,3.207 0.378,6.0703 1.113,8.5781 0.734,2.5274 1.734,4.7344 2.996,6.6367 1.281,1.8868 2.754,3.5079 4.434,4.8243 1.675,1.3203 3.429,2.414 5.296,3.2422 1.864,0.8125 3.77,1.4179 5.711,1.7929 1.961,0.3594 3.848,0.5469 5.696,0.5469 1.132,0 2.336,-0.0391 3.621,-0.1133 1.261,-0.0742 2.504,-0.168 3.691,-0.3047 1.207,-0.1289 2.32,-0.2773 3.336,-0.4336 1.039,-0.164 1.887,-0.3359 2.547,-0.4687 l -1.828,-7.2383 c -0.66,0.207 -1.586,0.4531 -2.809,0.6797 -1.207,0.2422 -2.508,0.4687 -3.883,0.6953 -1.394,0.2266 -2.753,0.3945 -4.093,0.5469 -1.356,0.1523 -2.469,0.2265 -3.356,0.2265 -0.98,0 -1.867,-0.0195 -2.636,-0.0742 -0.774,-0.0586 -1.493,-0.1719 -2.133,-0.3398 -0.641,-0.1719 -1.246,-0.3946 -1.828,-0.6992 -0.563,-0.2813 -1.153,-0.6602 -1.735,-1.0938 -1.508,-1.0742 -2.527,-3.0898 -3.074,-6.0703 -0.527,-2.9766 -0.789,-6.7109 -0.789,-11.1602 0,-6.8437 1.016,-12.0273 3.035,-15.5351 2.035,-3.5274 5.277,-5.2774 9.781,-5.2774 2.532,0 5.188,0.2071 7.957,0.6407 2.754,0.414 5.262,1.0156 7.504,1.789 l 0,-4.2578 C 230.41,10.6094 229.055,10.082 227.602,9.62891 226.152,9.16016 224.645,8.78125 223.117,8.46094 221.59,8.16016 220.043,7.91406 218.477,7.74609 216.914,7.57422 215.426,7.5 213.992,7.5"
         style="fill:#ed1c24;fill-opacity:1;fill-rule:nonzero;stroke:none"
         id="path30"
         inkscape:connector-curvature="0" /><path
         d="m 211.688,144.16 c 0,-2.871 -0.27,-5.672 -0.809,-8.41 -0.535,-2.73 -1.34,-5.383 -2.414,-7.957 -1.067,-2.559 -2.399,-4.996 -4,-7.281 -1.598,-2.285 -3.442,-4.395 -5.539,-6.317 -2.098,-1.922 -4.453,-3.656 -7.067,-5.187 -2.589,-1.516 -5.421,-2.836 -8.484,-3.945 -3.039,-1.114 -6.352,-1.946 -9.906,-2.5 -3.567,-0.559 -7.328,-0.836 -11.254,-0.836 -3.231,0 -6.344,0.175 -9.313,0.523 -2.976,0.344 -5.828,0.871 -8.519,1.574 -2.754,0.711 -5.293,1.653 -7.61,2.809 -2.343,1.164 -4.515,2.574 -6.515,4.222 l -0.024,0.012 c -1.988,1.66 -3.765,3.582 -5.312,5.758 -1.539,2.16 -2.84,4.547 -3.895,7.148 -1.054,2.602 -1.839,5.5 -2.359,8.688 -0.516,3.148 -0.773,6.543 -0.773,10.18 l 0,74.312 26.511,0 0,-76.433 c 0,-2.61 0.114,-4.915 0.328,-6.899 0.215,-1.984 0.539,-3.699 0.95,-5.117 0.414,-1.363 0.929,-2.578 1.531,-3.621 0.555,-0.957 1.183,-1.758 1.879,-2.379 l 0.023,-0.024 c 0.723,-0.66 1.551,-1.218 2.473,-1.664 0.937,-0.449 1.976,-0.789 3.101,-1 l 0,-0.003 c 1.254,-0.227 2.653,-0.411 4.184,-0.528 1.488,-0.117 3.109,-0.172 4.859,-0.172 2.118,0 4.059,0.114 5.825,0.328 1.804,0.219 3.418,0.543 4.828,0.95 1.414,0.429 2.722,0.929 3.926,1.5 1.156,0.547 2.195,1.152 3.097,1.82 l 0.043,0.031 c 0.75,0.531 1.363,1.223 1.832,2.059 l -0.004,0.004 c 0.524,0.945 0.895,2.093 1.102,3.425 l 0,0.024 c 0.258,1.566 0.461,3.344 0.594,5.309 0.132,1.921 0.199,4.07 0.199,6.437 l 0,75.953 26.512,0 0,-72.793"
         style="fill:#231f20;fill-opacity:1;fill-rule:nonzero;stroke:none"
         id="path32"
         inkscape:connector-curvature="0" /><path
         d="m 278.645,167.305 36.89,-59.742 2.668,-4.321 -30.187,0 -0.828,1.387 -24.454,40.961 -37.304,-54.7736 390.082,0.7617 -0.301,-3.0976 -1.281,-13.0821 -0.25,-2.5468 C 477.953,72.2852 348.109,71.4141 212.383,71.6602 l -0.004,-0.0039 -20.621,0 3.14,4.4648 58.731,83.5119 -32.313,53.012 -2.625,4.308 30.102,0 0.824,-1.418 19.696,-33.812 30.031,47.461 -213.5588,-1.493 0,-124.449 -31.4454,0 0,124.465 -41.6328,0.555 -2.78512,0.039 1.84372,19.273 299.4614,0.391 0.003,0.004 20.36,0 -2.879,-4.383 -50.066,-76.281"
         style="fill:#231f20;fill-opacity:1;fill-rule:nonzero;stroke:none"
         id="path34"
         inkscape:connector-curvature="0" /><path
         d="m 386.82,103.102 -64.55,0 0,113.699 65.585,0 -0.304,-3.113 -1.082,-11 -0.246,-2.512 -2.532,-0.031 -34.918,-0.446 0,-29.582 32.719,-0.441 3.071,-0.043 -0.293,-3.047 -0.957,-9.961 -0.243,-2.5 -2.511,-0.055 -31.786,-0.738 0,-33.109 39.063,-0.782 3.027,-0.062 -0.269,-3.004 -0.961,-10.684 -0.238,-2.589 -2.575,0"
         style="fill:#231f20;fill-opacity:1;fill-rule:nonzero;stroke:none"
         id="path36"
         inkscape:connector-curvature="0" /><path
         d="m 613.898,160.438 c 0,-8.797 -1.125,-16.762 -3.375,-23.922 l -0.003,0 c -1.118,-3.625 -2.536,-6.996 -4.239,-10.09 -1.711,-3.106 -3.738,-5.969 -6.062,-8.578 -2.313,-2.61 -4.918,-4.914 -7.801,-6.914 -2.887,-1.996 -6.043,-3.692 -9.453,-5.079 l -0.012,0 c -3.426,-1.378 -7.14,-2.417 -11.109,-3.105 -3.938,-0.68 -8.125,-1.023 -12.543,-1.023 -4.571,0 -8.836,0.343 -12.793,1.039 -3.973,0.695 -7.66,1.761 -11.047,3.187 l -0.004,-0.008 c -3.371,1.41 -6.434,3.118 -9.191,5.121 -2.782,2.02 -5.262,4.348 -7.426,6.965 l 0,0.012 c -2.141,2.609 -3.996,5.484 -5.563,8.594 -1.562,3.101 -2.851,6.465 -3.859,10.086 -1.004,3.597 -1.754,7.367 -2.25,11.308 -0.492,3.942 -0.742,8.082 -0.742,12.407 0,4.277 0.258,8.41 0.762,12.386 0.5,3.949 1.265,7.688 2.281,11.199 1.035,3.571 2.355,6.875 3.945,9.907 1.609,3.066 3.52,5.879 5.699,8.425 l 0.012,0.012 c 2.203,2.547 4.711,4.805 7.516,6.77 2.8,1.961 5.867,3.617 9.199,4.968 l 0.023,0 c 3.36,1.336 7.02,2.344 10.961,3.008 3.918,0.664 8.114,1 12.559,1 4.469,0 8.687,-0.34 12.648,-1 3.977,-0.664 7.672,-1.675 11.059,-2.996 l 0.012,-0.012 c 3.41,-1.355 6.546,-3.007 9.398,-4.945 2.883,-1.961 5.48,-4.211 7.773,-6.738 l 0.012,-0.012 c 2.278,-2.531 4.293,-5.355 6.016,-8.445 1.699,-3.047 3.113,-6.344 4.222,-9.887 l -0.003,0 c 2.25,-7.055 3.378,-14.937 3.378,-23.64 z m -27.71,0 c 0,3.265 -0.137,6.3 -0.395,9.093 -0.27,2.801 -0.68,5.492 -1.219,8.039 l 0.004,0 c -0.543,2.45 -1.226,4.707 -2.062,6.778 -0.817,2.027 -1.778,3.867 -2.883,5.515 l -0.008,0.024 c -1.055,1.597 -2.27,3.015 -3.645,4.254 -1.367,1.23 -2.875,2.261 -4.515,3.101 l -0.004,-0.012 c -1.668,0.852 -3.492,1.497 -5.461,1.918 -2.02,0.434 -4.23,0.657 -6.617,0.657 -2.176,0 -4.254,-0.114 -6.227,-0.344 -2.008,-0.234 -3.922,-0.578 -5.718,-1.039 l -0.02,-0.012 c -1.758,-0.43 -3.336,-0.965 -4.715,-1.586 -1.351,-0.609 -2.508,-1.293 -3.449,-2.039 -0.746,-0.59 -1.445,-1.648 -2.082,-3.172 -0.742,-1.773 -1.356,-4.086 -1.84,-6.929 l 0,-0.012 c -0.523,-2.957 -0.914,-6.434 -1.172,-10.43 -0.258,-4 -0.383,-8.605 -0.383,-13.804 0,-3.161 0.114,-6.161 0.34,-8.981 0.227,-2.887 0.571,-5.621 1.012,-8.184 l -0.008,0 c 0.442,-2.437 1.047,-4.753 1.789,-6.918 0.723,-2.101 1.578,-4.031 2.57,-5.792 0.981,-1.711 2.118,-3.227 3.391,-4.516 1.27,-1.285 2.695,-2.379 4.266,-3.27 l 0.011,0 c 1.582,-0.902 3.368,-1.586 5.34,-2.039 2.028,-0.465 4.293,-0.703 6.774,-0.703 2.691,0 5.109,0.121 7.25,0.356 2.148,0.238 4.058,0.593 5.715,1.05 1.625,0.454 3.136,1 4.523,1.625 1.375,0.618 2.625,1.325 3.738,2.098 l 0.11,0.07 c 0.238,0.149 0.504,0.442 0.781,0.875 l 0.012,0.012 c 0.375,0.578 0.738,1.363 1.086,2.34 l 0.019,0.059 c 0.391,1.031 0.758,2.234 1.106,3.593 0.351,1.387 0.668,2.883 0.949,4.492 l 0.008,0 c 0.265,1.637 0.515,3.411 0.726,5.305 0.207,1.817 0.379,3.742 0.516,5.754 0.14,2.152 0.242,4.246 0.301,6.281 0.058,1.903 0.086,4.078 0.086,6.493"
         style="fill:#231f20;fill-opacity:1;fill-rule:nonzero;stroke:none"
         id="path38"
         inkscape:connector-curvature="0" /><path
         d="m 404.594,215.973 c 1.64,0.175 3.937,0.398 6.504,0.644 l 1.207,0.113 c 1.703,0.165 3.25,0.301 4.578,0.403 1.43,0.105 3.055,0.219 4.844,0.332 1.55,0.094 3.191,0.183 4.957,0.269 1.578,0.071 3.238,0.145 4.988,0.207 1.629,0.059 3.269,0.102 4.879,0.125 l 0.012,0 c 2.07,0.028 3.585,0.047 4.527,0.047 4.285,0 8.394,-0.238 12.316,-0.718 3.895,-0.477 7.645,-1.207 11.231,-2.192 l 0.011,0 c 3.567,-0.984 6.918,-2.281 10.024,-3.867 l 0.008,0.012 c 3.113,-1.59 5.984,-3.481 8.59,-5.657 l 0.011,-0.011 c 2.621,-2.215 4.957,-4.746 6.985,-7.575 2.011,-2.804 3.738,-5.925 5.16,-9.339 1.418,-3.414 2.496,-7.196 3.203,-11.309 0.699,-4.059 1.059,-8.445 1.059,-13.137 0,-4.515 -0.278,-8.894 -0.821,-13.113 -0.543,-4.203 -1.367,-8.203 -2.465,-11.992 -1.117,-3.856 -2.57,-7.43 -4.336,-10.703 -1.781,-3.305 -3.898,-6.34 -6.339,-9.074 -2.45,-2.75 -5.278,-5.188 -8.45,-7.317 -3.152,-2.109 -6.636,-3.91 -10.437,-5.398 l -0.02,0 c -3.824,-1.469 -8.031,-2.575 -12.605,-3.305 -4.578,-0.727 -9.504,-1.094 -14.762,-1.094 l -4.418,0.043 c -1.574,0.02 -3.156,0.051 -4.73,0.09 -1.645,0.039 -3.246,0.09 -4.746,0.152 -1.684,0.067 -3.274,0.153 -4.696,0.246 l -4.468,0.301 -4.29,0.301 c -1.57,0.106 -2.941,0.211 -4.019,0.305 -1.156,0.093 -2.324,0.215 -3.5,0.343 l -2.527,0.286 0,111.308 2.535,0.274 z m 29.535,-97.149 0.035,0 -0.035,0 z m -5.563,0.457 1.289,-0.14 0,0.004 1.508,-0.122 0,-0.003 0.2,-0.016 0.011,0 c 0.977,-0.074 1.93,-0.156 2.59,-0.18 l 1.242,-0.039 0.965,-0.004 0,0.012 c 3.074,0 5.856,0.094 8.336,0.281 l 0.012,0 c 2.562,0.188 4.824,0.465 6.773,0.821 l 0,0.003 c 1.906,0.364 3.668,0.887 5.278,1.563 1.585,0.668 3.058,1.504 4.41,2.5 l 0.004,-0.004 c 0.691,0.547 1.359,1.148 1.988,1.805 l -0.004,0.008 c 0.691,0.722 1.332,1.492 1.902,2.296 l 0,0.012 c 0.582,0.82 1.145,1.789 1.68,2.899 0.57,1.175 1.098,2.468 1.586,3.875 l -0.004,0 c 0.477,1.418 0.91,3.046 1.297,4.878 0.394,1.899 0.738,3.95 1.023,6.145 0.286,2.234 0.5,4.758 0.641,7.555 l 0,0.011 c 0.137,2.688 0.207,5.747 0.207,9.157 0,8.066 -0.945,14.668 -2.828,19.746 l 0,0.011 c -0.914,2.516 -1.992,4.739 -3.219,6.665 -1.207,1.886 -2.586,3.531 -4.117,4.937 l 0.008,0.008 c -1.512,1.359 -3.168,2.527 -4.961,3.492 -1.778,0.961 -3.711,1.719 -5.793,2.285 l 0.004,0.012 c -2.117,0.551 -4.36,0.98 -6.707,1.262 -2.328,0.285 -4.762,0.429 -7.274,0.429 -0.824,0 -1.816,-0.007 -2.527,-0.027 l -1.465,-0.082 0,-0.004 -1.496,-0.113 0,-0.004 -1.504,-0.125 0,0.008 c -0.34,-0.032 -0.687,-0.063 -1.055,-0.114 l 0,-81.703"
         style="fill:#231f20;fill-opacity:1;fill-rule:nonzero;stroke:none"
         id="path40"
         inkscape:connector-curvature="0" /></g></g></svg>