<svg width="108" height="108" viewBox="0 0 108 108" fill="none" xmlns="http://www.w3.org/2000/svg">
<path fill-rule="evenodd" clip-rule="evenodd" d="M54 108C83.8234 108 108 83.8234 108 54C108 24.1766 83.8234 0 54 0C24.1766 0 0 24.1766 0 54C0 83.8234 24.1766 108 54 108Z" fill="#DD682A"/>
<path fill-rule="evenodd" clip-rule="evenodd" d="M77.4857 15L65.0638 22.0906C69.7567 23.6623 73.9837 26.2329 77.4857 29.5463V15ZM9 53.5118L21.5294 46.3599C21.0174 48.6632 20.7475 51.0564 20.7475 53.5118C20.7475 55.9672 21.0174 58.3603 21.5294 60.6637L9 53.5118ZM25.5428 53.9208C25.5408 53.7847 25.5399 53.6484 25.5399 53.5118C25.5399 53.3752 25.5408 53.2388 25.5428 53.1027V53.9208ZM77.4857 92L65.0897 84.9242C69.7723 83.3517 73.9902 80.7845 77.4857 77.4772V92ZM43.2278 32.6418C46.547 30.9105 50.3294 29.9304 54.3437 29.9304C66.7095 29.9304 76.8749 39.2301 78.0764 51.1427H82.9999C81.7824 36.5509 69.4193 25.0828 54.3437 25.0828C49.4367 25.0828 44.8166 26.2982 40.7748 28.4412L43.2278 32.6418ZM36.7495 31.0245L39.2279 35.2686C33.8946 39.593 30.4923 46.1589 30.4923 53.5118C30.4923 58.3365 31.9619 62.8208 34.4772 66.5578L55.0958 43.131L58.3798 48.9353L35.3288 74.8382C29.3564 69.6291 25.5891 62.0059 25.5891 53.5118C25.5891 44.3638 29.96 36.2247 36.7495 31.0245ZM83 55.8809H78.0676C77.9423 57.049 77.7286 58.191 77.4432 59.3057L66.1131 46.855L38.8646 77.4745C43.3332 80.3018 48.645 81.9407 54.3437 81.9407C69.4193 81.9407 81.7826 70.4747 83 55.8809Z" fill="white"/>
</svg>