<?xml version="1.0" encoding="UTF-8" standalone="no"?>
<!-- Created with Inkscape (http://www.inkscape.org/) -->

<svg
   width="210mm"
   height="297mm"
   viewBox="0 0 210 297"
   version="1.1"
   id="svg5"
   xml:space="preserve"
   inkscape:version="1.2.2 (b0a8486541, 2022-12-01)"
   sodipodi:docname="xero_blackPurp.svg"
   xmlns:inkscape="http://www.inkscape.org/namespaces/inkscape"
   xmlns:sodipodi="http://sodipodi.sourceforge.net/DTD/sodipodi-0.dtd"
   xmlns:xlink="http://www.w3.org/1999/xlink"
   xmlns="http://www.w3.org/2000/svg"
   xmlns:svg="http://www.w3.org/2000/svg"><sodipodi:namedview
     id="namedview7"
     pagecolor="#505050"
     bordercolor="#ffffff"
     borderopacity="1"
     inkscape:showpageshadow="0"
     inkscape:pageopacity="0"
     inkscape:pagecheckerboard="1"
     inkscape:deskcolor="#505050"
     inkscape:document-units="mm"
     showgrid="false"
     inkscape:zoom="0.61112514"
     inkscape:cx="291.26604"
     inkscape:cy="561.25984"
     inkscape:window-width="1600"
     inkscape:window-height="868"
     inkscape:window-x="0"
     inkscape:window-y="32"
     inkscape:window-maximized="1"
     inkscape:current-layer="layer1" /><defs
     id="defs2"><linearGradient
       x1="112.49854"
       y1="6.1372099"
       x2="112.49853"
       y2="129.3468"
       id="path1082_2_"
       gradientUnits="userSpaceOnUse"
       gradientTransform="translate(287,-83)"><stop
         id="stop193"
         style="stop-color:#ffffff;stop-opacity:0"
         offset="0" /><stop
         id="stop195"
         style="stop-color:#ffffff;stop-opacity:0.27450982"
         offset="1" /><midPointStop
         offset="0"
         style="stop-color:#FFFFFF"
         id="midPointStop197" /><midPointStop
         offset="0.5"
         style="stop-color:#FFFFFF"
         id="midPointStop199" /><midPointStop
         offset="1"
         style="stop-color:#000000"
         id="midPointStop201" /></linearGradient><linearGradient
       x1="541.33502"
       y1="104.50665"
       x2="606.91248"
       y2="303.14029"
       id="linearGradient2544"
       xlink:href="#path1082_2_"
       gradientUnits="userSpaceOnUse"
       gradientTransform="matrix(-0.3937741,0,0,0.393752,357.51969,122.00151)" /><linearGradient
       id="linearGradient3388"><stop
         id="stop3390"
         style="stop-color:#000000;stop-opacity:0"
         offset="0" /><stop
         id="stop3392"
         style="stop-color:#000000;stop-opacity:0.37113401"
         offset="1" /></linearGradient><linearGradient
       x1="490.72305"
       y1="237.72447"
       x2="490.72305"
       y2="183.9644"
       id="linearGradient4416"
       xlink:href="#linearGradient3388"
       gradientUnits="userSpaceOnUse"
       gradientTransform="matrix(0.749107,0,0,0.749107,-35.459862,91.44108)" /></defs><g
     inkscape:label="Layer 1"
     inkscape:groupmode="layer"
     id="layer1"><path
       style="fill:#000000;stroke-width:1.1668"
       d="M 125.73012,104.84668 105.00471,56.809113 84.269865,104.90472 105.04887,126.97555 Z"
       id="path1993"
       sodipodi:nodetypes="ccccc" /><path
       id="path1987"
       style="fill:#35244f;fill-opacity:1;stroke-width:1.167;stroke-dasharray:none"
       d="m 72.759075,103.62003 -18.66915,0.81959 -18.66863,0.8201 10.98176,1.67587 10.98176,1.67587 36.82359,38.94181 -22.39243,22.28598 -22.39295,22.28597 -10.99881,1.84589 c -6.04915,1.01511 -12.61208,1.92869 -14.58464,2.03036 -6.28112,0.3238 16.93093,1.89737 29.66744,2.01125 l 12.25093,0.10955 19.57142,-19.43705 19.670625,-19.04018 19.67063,19.04018 19.57142,19.43705 12.25093,-0.10955 c 12.7365,-0.11388 35.94856,-1.68745 29.66744,-2.01125 -1.97256,-0.10167 -8.53549,-1.01525 -14.58464,-2.03036 l -10.99881,-1.84589 -22.39295,-22.28597 -22.39243,-22.28598 36.82359,-38.94181 10.98176,-1.67587 10.98175,-1.67587 -18.66862,-0.8201 -18.66915,-0.81959 -32.24092,33.31786 z" /><g
       id="g2119"
       transform="translate(-0.482115)"><path
         style="fill:#000000;stroke-width:1.1668"
         d="M 166.49077,186.24026 138.93826,132.6285 125.70524,147.39459 Z"
         id="path1989-3-8"
         sodipodi:nodetypes="cccc" /><path
         style="fill:#000000;stroke-width:1.1668"
         d="m 44.473449,186.24026 27.55251,-53.61176 13.23302,14.76609 z"
         id="path1989-3-8-7"
         sodipodi:nodetypes="cccc" /></g><g
       id="g2174"
       transform="translate(-0.256755)"><path
         style="font-variation-settings:normal;vector-effect:none;fill:#000000;fill-opacity:1;stroke-width:1.1668;stroke-linecap:butt;stroke-linejoin:miter;stroke-miterlimit:4;stroke-dasharray:none;stroke-dashoffset:0;stroke-opacity:1;-inkscape-stroke:none;stop-color:#000000"
         d="m 34.621605,203.98442 h 34.89753 l 16.20326,-16.0891 -0.88962,9.9247 c -0.49483,5.52052 0.89795,11.8414 1.25416,12.76961 -27.34428,4.44336 -53.4284,21.2228 -71.13238,30.14181 z"
         id="path641-3-61"
         sodipodi:nodetypes="cccsccc" /><path
         style="font-variation-settings:normal;vector-effect:none;fill:#000000;fill-opacity:1;stroke-width:1.1668;stroke-linecap:butt;stroke-linejoin:miter;stroke-miterlimit:4;stroke-dasharray:none;stroke-dashoffset:0;stroke-opacity:1;-inkscape-stroke:none;stop-color:#000000"
         d="m 175.8919,203.98442 h -34.89753 l -16.20325,-16.0891 0.88961,9.9247 c 0.49484,5.52052 -0.89795,11.8414 -1.25416,12.76961 27.34428,4.44336 53.4284,21.2228 71.13238,30.14181 z"
         id="path641-3-61-9"
         sodipodi:nodetypes="cccsccc" /></g></g></svg>
