<?xml version="1.0" encoding="UTF-8" standalone="no"?>
<svg
   width="512"
   height="512"
   version="1.1"
   id="svg12"
   sodipodi:docname="archlabs.svg"
   inkscape:version="1.1.1 (3bf5ae0d25, 2021-09-20)"
   xmlns:inkscape="http://www.inkscape.org/namespaces/inkscape"
   xmlns:sodipodi="http://sodipodi.sourceforge.net/DTD/sodipodi-0.dtd"
   xmlns="http://www.w3.org/2000/svg"
   xmlns:svg="http://www.w3.org/2000/svg">
  <defs
     id="defs16" />
  <sodipodi:namedview
     id="namedview14"
     pagecolor="#ffffff"
     bordercolor="#666666"
     borderopacity="1.0"
     inkscape:pageshadow="2"
     inkscape:pageopacity="0.0"
     inkscape:pagecheckerboard="0"
     showgrid="false"
     inkscape:zoom="1.7050781"
     inkscape:cx="251.30813"
     inkscape:cy="256"
     inkscape:window-width="3440"
     inkscape:window-height="1417"
     inkscape:window-x="0"
     inkscape:window-y="0"
     inkscape:window-maximized="1"
     inkscape:current-layer="svg12" />
  <path
     style="opacity:0.2;stroke-width:8.89219"
     d="M 257.91437,12.698712 C 168.99247,217.21907 168.99247,226.11126 8.9330613,510.66133 c 0,0 142.2750287,-80.02971 248.9813087,-80.02971 106.70628,0 248.98131,80.02971 248.98131,80.02971 C 346.83627,226.11126 346.83627,217.21907 257.91437,12.698712 Z"
     id="path2" />
  <path
     style="fill:#606060;stroke-width:8.89219"
     d="M 257.91437,3.8065221 C 168.99247,208.32688 168.99247,217.21907 8.9330613,501.76914 c 0,0 142.2750287,-80.02971 248.9813087,-80.02971 106.70628,0 248.98131,80.02971 248.98131,80.02971 C 346.83627,217.21907 346.83627,208.32688 257.91437,3.8065221 Z"
     id="path4" />
  <path
     style="opacity:0.1;fill:#ffffff;stroke-width:8.89219"
     d="M 257.91437,3.8065221 C 168.99247,208.32688 168.99247,217.21907 8.9330613,501.76914 c 0,0 2.6685457,-1.4761 7.1377607,-3.85921 C 168.20996,227.14276 170.48636,213.77779 257.91437,12.698712 345.34238,213.77779 347.61878,227.14276 499.75525,497.90993 c 4.47277,2.38311 7.14043,3.85921 7.14043,3.85921 C 346.83627,217.21907 346.83627,208.32688 257.91437,3.8065221 Z"
     id="path6" />
  <path
     style="opacity:0.2;stroke-width:8.89219"
     d="m 266.80656,172.75812 c 0,0 -71.13752,53.35314 -71.13752,106.70628 0,38.50128 8.13709,73.43681 18.49645,102.48596 -0.43418,-4.77689 -0.71207,-9.38056 -0.71207,-13.56406 0,-53.35314 35.56876,-88.9219 35.56876,-88.9219 0,0 35.56876,26.67657 35.56876,71.13752 0,24.43364 -5.32689,56.5909 -10.14265,80.75914 3.29632,0.23111 6.61226,0.54687 9.95161,0.90312 16.93934,-25.74612 35.7598,-64.14412 35.7598,-108.33883 0,-62.24533 -53.35314,-124.49066 -53.35314,-124.49066 z"
     id="path8" />
  <path
     style="fill:#ffffff;stroke-width:8.89219"
     d="m 266.80656,163.86593 c 0,0 -71.13752,53.35314 -71.13752,106.70628 0,38.50128 8.13709,73.43681 18.49645,102.48596 -0.43418,-4.77689 -0.71207,-9.38056 -0.71207,-13.56406 0,-53.35314 35.56876,-88.9219 35.56876,-88.9219 0,0 35.56876,26.67657 35.56876,71.13752 0,24.43364 -5.32689,56.5909 -10.14265,80.75914 3.29632,0.23107 6.61226,0.54686 9.95161,0.90312 16.93934,-25.74612 35.7598,-64.14412 35.7598,-108.33883 0,-62.24533 -53.35314,-124.49066 -53.35314,-124.49066 z"
     id="path10" />
</svg>
