<?xml version="1.0" encoding="UTF-8" standalone="no"?>
<svg
   width="512"
   height="512"
   version="1.1"
   id="svg20"
   sodipodi:docname="blackarch.svg"
   inkscape:version="1.1.1 (3bf5ae0d25, 2021-09-20)"
   xmlns:inkscape="http://www.inkscape.org/namespaces/inkscape"
   xmlns:sodipodi="http://sodipodi.sourceforge.net/DTD/sodipodi-0.dtd"
   xmlns="http://www.w3.org/2000/svg"
   xmlns:svg="http://www.w3.org/2000/svg">
  <defs
     id="defs24" />
  <sodipodi:namedview
     id="namedview22"
     pagecolor="#ffffff"
     bordercolor="#666666"
     borderopacity="1.0"
     inkscape:pageshadow="2"
     inkscape:pageopacity="0.0"
     inkscape:pagecheckerboard="0"
     showgrid="false"
     inkscape:zoom="1.7050781"
     inkscape:cx="251.30813"
     inkscape:cy="256"
     inkscape:window-width="3440"
     inkscape:window-height="1417"
     inkscape:window-x="0"
     inkscape:window-y="0"
     inkscape:window-maximized="1"
     inkscape:current-layer="svg20" />
  <path
     d="m 246.69014,83.566809 c -15.81541,38.766231 -25.35404,64.123701 -42.96205,101.733601 10.79559,11.44159 24.04734,24.7651 45.56835,39.81332 -23.13684,-9.51882 -38.9185,-19.07493 -50.71253,-28.99163 -22.53456,47.01326 -57.84119,113.98071 -129.488446,242.68638 56.312426,-32.50236 95.522796,-52.5409 136.207236,-60.18757 -1.74695,-7.51169 -2.74025,-15.63705 -2.67274,-24.115 l 0.0622,-1.80376 c 0.89346,-36.06992 24.49637,-64.82645 46.33088,-64.87516 21.83451,-0.0488 43.06777,35.61886 42.17413,71.68878 -0.16786,6.78786 -0.93388,13.3164 -2.27167,19.37245 40.24029,7.87048 79.8703,27.85752 135.42054,59.92026 -10.95371,-20.16111 -20.7304,-38.3355 -30.0665,-55.64487 -14.70681,-11.39629 -30.04608,-26.22782 -61.3358,-42.28494 21.50678,5.58713 36.90558,12.03307 48.90838,19.23835 C 286.92767,183.4176 279.24382,159.93585 246.68738,83.557928 Z"
     style="fill:#3f3f3f;fill-rule:evenodd;stroke-width:8.88126"
     id="path2" />
  <path
     d="M 228.92352,65.812746 V 509.87593 l 35.52505,-71.05011 V 65.812746 Z"
     style="opacity:0.2;stroke-width:8.88126"
     id="path4" />
  <path
     d="M 228.92352,56.931482 V 500.99467 l 35.52505,-71.05011 V 56.931482 Z"
     style="fill:#8e8e8e;stroke-width:8.88126"
     id="path6" />
  <path
     d="m 246.35647,83.592618 a 8.8821518,8.8821518 0 0 0 -7.92723,5.568135 v -0.0524 c -15.85529,38.864357 -25.2955,63.982557 -42.77577,101.319627 a 8.8821518,8.8821518 0 0 0 -0.43367,6.36606 8.8821518,8.8821518 0 0 0 -4.68348,4.3886 c -22.39257,46.71703 -57.61576,113.5601 -129.229324,242.20524 a 8.8821518,8.8821518 0 0 0 12.19441,12.00358 C 129.63672,422.99134 167.9769,403.55858 206.91117,396.24085 a 8.8821518,8.8821518 0 0 0 7.00787,-10.7373 c -1.5914,-6.84284 -2.50279,-14.25802 -2.44582,-21.97767 1.4e-4,-0.0178 -1.4e-4,-0.0337 0,-0.0524 l 0.0524,-1.56116 a 8.8821518,8.8821518 0 0 0 0.0178,-0.087 c 0.40028,-16.15795 5.96785,-30.70237 13.54739,-40.85034 7.57956,-10.14797 16.89497,-15.35308 23.92045,-15.36875 6.07485,-0.0133 14.93321,6.06763 21.94296,17.93599 7.00974,11.86836 11.72897,28.42777 11.32707,44.64916 -0.1548,6.26099 -0.86237,12.23521 -2.06419,17.6758 a 8.8821518,8.8821518 0 0 0 6.97318,10.63323 c 38.53773,7.5383 77.3301,26.94371 132.68045,58.89108 a 8.8821518,8.8821518 0 0 0 12.24643,-11.91685 c -10.94315,-20.14167 -20.72163,-38.31389 -30.06099,-55.62932 a 8.8821518,8.8821518 0 0 0 -2.37644,-2.81009 c -3.42047,-2.65053 -8.02078,-6.28416 -11.8995,-9.43635 a 8.8821518,8.8821518 0 0 0 1.85604,-10.78934 C 294.77248,188.22303 287.43768,165.4882 254.82143,88.969948 a 8.8821518,8.8821518 0 0 0 -8.46496,-5.37733 z m 0.45099,31.309932 c 24.45116,57.79615 44.34152,102.41091 116.32374,237.33095 -8.36877,-3.47545 -15.04436,-7.32566 -26.07137,-10.28631 -0.0444,-0.0231 -0.0595,-0.0462 -0.10409,-0.0693 v 0.0178 c -0.77009,-0.2064 -1.03656,-0.5073 -1.82135,-0.71121 a 8.8821518,8.8821518 0 0 0 -6.27933,16.49626 c 29.42056,15.09791 43.6653,28.59891 58.43941,40.20853 4.74292,8.79479 10.16737,18.79587 15.24733,28.20495 -38.75006,-21.36821 -72.18807,-36.96083 -104.04262,-44.37163 0.6105,-4.32317 1.43141,-8.55092 1.54381,-13.09639 0.49176,-19.84852 -4.94813,-39.14944 -13.79024,-54.1202 -8.84208,-14.97128 -21.51736,-26.69691 -37.27701,-26.66165 -14.80902,0.0329 -28.22308,9.23809 -38.12698,22.49804 -9.90389,13.25995 -16.57546,31.12062 -17.06868,51.03258 l -0.0693,1.71727 a 8.8821518,8.8821518 0 0 0 0,0.24281 c -0.0506,6.36626 1.07317,12.19084 2.01217,18.09211 -32.28056,7.2896 -65.8502,22.99952 -105.11809,44.7359 54.99151,-99.42474 90.84378,-166.36376 111.10253,-208.18932 11.5026,8.33024 25.14,16.41636 44.18081,24.25002 a 8.8821518,8.8821518 0 0 0 8.46496,-15.49017 c -18.92304,-13.23164 -29.95729,-24.49209 -40.00038,-34.96998 12.64603,-27.45574 21.93711,-50.77306 32.45478,-76.86109 z"
     style="opacity:0.2;fill-rule:evenodd;stroke-width:8.88126"
     id="path8" />
  <path
     d="m 246.69014,83.566809 c -15.81541,38.766231 -25.35404,64.123701 -42.96205,101.733601 10.79559,11.44159 24.04734,24.7651 45.56835,39.81332 -23.13684,-9.51882 -38.9185,-19.07493 -50.71253,-28.99163 -22.53456,47.01326 -57.84119,113.98071 -129.488446,242.68638 56.312426,-32.50236 95.522796,-52.5409 136.207236,-60.18757 -1.74695,-7.51169 -2.74025,-15.63705 -2.67274,-24.115 l 0.0622,-1.80376 c 0.89346,-36.06992 24.49637,-64.82645 46.33088,-64.87516 21.83451,-0.0488 43.06777,35.61886 42.17413,71.68878 -0.16786,6.78786 -0.93388,13.3164 -2.27167,19.37245 40.24029,7.87048 79.8703,27.85752 135.42054,59.92026 -10.95371,-20.16111 -20.7304,-38.3355 -30.0665,-55.64487 -14.70681,-11.39629 -30.04608,-26.22782 -61.3358,-42.28494 21.50678,5.58713 36.90558,12.03307 48.90838,19.23835 C 286.92767,183.4176 279.24382,159.93585 246.68738,83.557928 Z"
     style="fill:none;stroke:#3db0ea;stroke-width:17.7625;stroke-linecap:round;stroke-linejoin:round"
     id="path10" />
  <path
     d="m 246.39116,74.69401 a 8.8821518,8.8821518 0 0 0 -7.92722,5.568134 v -0.05204 C 222.60865,119.0741 213.16844,144.1923 195.68816,181.52937 a 8.8821518,8.8821518 0 0 0 -0.43365,6.36606 8.8821518,8.8821518 0 0 0 -4.68348,4.38859 C 168.17846,239.00106 132.95528,305.84413 61.341704,434.48927 a 8.8821518,8.8821518 0 0 0 0.06939,8.7078 C 132.94441,314.69211 168.15622,247.8737 190.53634,201.18264 a 8.8821518,8.8821518 0 0 1 4.68348,-4.3886 8.8821518,8.8821518 0 0 1 0.43365,-6.36606 c 17.48027,-37.33707 26.92049,-62.45491 42.77577,-101.319262 v 0.05204 a 8.8821518,8.8821518 0 0 1 7.92723,-5.568135 8.8821518,8.8821518 0 0 1 8.46496,5.37733 C 287.4231,165.45399 294.77166,188.23127 389.5148,364.60135 a 8.8821518,8.8821518 0 0 0 0.15612,-8.69046 C 294.80718,179.32443 287.47237,156.58958 254.85612,80.071339 a 8.8821518,8.8821518 0 0 0 -8.46496,-5.377329 z m -29.3498,110.91172 c -0.9599,2.12185 -1.6891,3.98776 -2.68866,6.15791 10.04309,10.47788 21.07733,21.73833 40.00037,34.96997 a 8.8821518,8.8821518 0 0 1 2.58459,2.84478 8.8821518,8.8821518 0 0 0 -2.54989,-11.74338 c -17.31329,-12.10605 -27.95772,-22.51306 -37.34641,-32.22928 z m 31.96908,93.34 c -14.80903,0.0329 -28.22309,9.23809 -38.12699,22.49804 -9.90389,13.25995 -16.57545,31.12062 -17.06868,51.03258 l -0.0694,1.71727 a 8.8821518,8.8821518 0 0 0 0,0.24285 c -0.01,1.23243 0.17449,2.37701 0.24285,3.57332 1.12081,-18.5474 7.52168,-35.16397 16.86053,-47.66741 9.9039,-13.25995 23.31796,-22.46518 38.12698,-22.49804 15.75965,-0.0353 28.43495,11.68985 37.27703,26.66113 7.72904,13.08622 12.86302,29.48429 13.70351,46.66133 0.0273,-0.48026 0.10931,-0.93534 0.12143,-1.42239 v -0.0173 c 0.4881,-19.84243 -4.95076,-39.15387 -13.79025,-54.1202 -8.8421,-14.97077 -21.51738,-26.6964 -37.27702,-26.66114 z m 83.52204,53.07942 a 8.8821518,8.8821518 0 0 0 -7.26807,13.28721 8.8821518,8.8821518 0 0 1 9.87,-4.1284 c 0.78479,0.20391 1.05127,0.50479 1.82135,0.7112 v -0.0174 c 0.0446,0.0231 0.0597,0.0463 0.10408,0.0694 11.027,2.96065 17.7026,6.81086 26.07137,10.28631 -2.4355,-4.56498 -3.78744,-7.25974 -6.10587,-11.62197 -5.88411,-2.67029 -11.71585,-5.35731 -19.9308,-7.56295 -0.0444,-0.0231 -0.0595,-0.0463 -0.10408,-0.0694 v 0.0173 c -0.77018,-0.2064 -1.03657,-0.50728 -1.82135,-0.71119 a 8.8821518,8.8821518 0 0 0 -2.63663,-0.2602 z m -120.79906,26.79992 c -0.0649,0.99941 -0.16572,1.9881 -0.19081,3.00089 a 8.8821518,8.8821518 0 0 1 -0.0173,0.0867 l -0.0521,1.56116 c -1.4e-4,0.0186 1.4e-4,0.0343 0,0.052 -0.0484,6.55845 0.71807,12.81395 1.89074,18.76862 a 8.8821518,8.8821518 0 0 0 0.58977,-5.68956 c -1.29605,-5.57292 -1.98207,-11.59241 -2.22031,-17.77987 z m 70.42565,2.79274 c -0.25697,5.39805 -0.85903,10.60234 -1.90809,15.35139 a 8.8821518,8.8821518 0 0 0 0.53773,5.46407 c 0.79922,-4.5094 1.36813,-9.24009 1.49177,-14.24125 0.0543,-2.18969 0.004,-4.38457 -0.12141,-6.57421 z m 108.53528,7.35479 a 8.8821518,8.8821518 0 0 1 -2.91416,6.62625 c 3.87872,3.15219 8.47903,6.78582 11.8995,9.43635 a 8.8821518,8.8821518 0 0 1 2.37644,2.81009 c 9.30378,17.24946 19.04693,35.37115 29.93956,55.42116 a 8.8821518,8.8821518 0 0 0 0.15612,-8.69046 c -10.9439,-20.14062 -20.72163,-38.31388 -30.06099,-55.62932 a 8.8821518,8.8821518 0 0 0 -2.37643,-2.81008 c -2.59434,-2.01035 -5.89789,-4.66156 -9.02004,-7.16399 z m -196.28981,3.9029 c -29.91708,6.96432 -61.16654,21.28862 -96.895968,40.72892 -2.437348,4.41569 -4.38659,8.00754 -6.903797,12.55866 39.267885,-21.73637 72.837535,-37.44629 105.118085,-44.7359 -0.45294,-2.84651 -0.93194,-5.67146 -1.31832,-8.55168 z m 105.23951,0.24284 c -0.32202,2.89356 -0.74131,5.74611 -1.14485,8.60373 31.85455,7.41081 65.29256,23.00342 104.04262,44.37162 -2.24914,-4.16583 -4.45254,-8.24741 -6.74769,-12.48927 -35.38423,-19.17857 -66.54961,-33.43252 -96.15008,-40.48608 z"
     style="opacity:0.2;fill:#ffffff;fill-rule:evenodd;stroke-width:8.88126"
     id="path12" />
  <path
     d="m 237.80478,11.744581 c -4.92022,0 -8.88126,3.961043 -8.88126,8.881263 v 45.186902 a 53.287582,13.321896 0 0 0 -35.52506,12.541312 53.287582,13.321896 0 0 0 43.19209,13.079046 c 0.41377,0.05862 0.78368,0.242814 1.21423,0.242814 h 17.76253 c 0.44948,0 0.83511,-0.196365 1.26627,-0.260221 A 53.287582,13.321896 0 0 0 299.97363,78.354058 53.287582,13.321896 0 0 0 264.44857,65.812746 V 20.625844 c 0,-4.92022 -3.96104,-8.881263 -8.88126,-8.881263 z"
     style="opacity:0.2;stroke-width:8.88126"
     id="path14" />
  <path
     d="m 237.80478,3.6439003 c -4.92022,0 -8.88126,3.9610436 -8.88126,8.8812637 v 45.186901 a 53.287582,13.321896 0 0 0 -35.52506,12.541313 53.287582,13.321896 0 0 0 43.19209,13.079046 c 0.41382,0.05864 0.78371,0.242849 1.21423,0.242849 h 8.88127 8.88126 c 0.44945,0 0.83512,-0.196382 1.26627,-0.260194 A 53.287582,13.321896 0 0 0 299.97363,70.253378 53.287582,13.321896 0 0 0 264.44857,57.712065 V 12.525164 c 0,-4.9202201 -3.96104,-8.8812637 -8.88126,-8.8812637 z"
     style="fill:#4f4f4f;stroke-width:8.88126"
     id="path16" />
  <path
     d="m 237.80478,3.6439003 c -4.92022,0 -8.88126,3.9610436 -8.88126,8.8812637 v 8.881263 c 0,-4.92022 3.96104,-8.881263 8.88126,-8.881263 h 17.76253 c 4.92022,0 8.88126,3.961043 8.88126,8.881263 v -8.881263 c 0,-4.9202201 -3.96104,-8.8812637 -8.88126,-8.8812637 z m -8.88126,54.0681647 a 53.287582,13.321896 0 0 0 -35.52506,12.541313 53.287582,13.321896 0 0 0 3.12232,4.440632 53.287582,13.321896 0 0 1 32.40274,-8.100681 z m 35.52505,0 v 8.881264 a 53.287582,13.321896 0 0 1 32.38539,8.100681 53.287582,13.321896 0 0 0 3.13967,-4.440632 53.287582,13.321896 0 0 0 -35.52506,-12.541313 z"
     style="opacity:0.2;fill:#ffffff;stroke-width:8.88126"
     id="path18" />
</svg>
