<?xml version="1.0" encoding="UTF-8" standalone="no"?>
<!-- Created with Inkscape (http://www.inkscape.org/) -->

<svg
   width="380mm"
   height="380mm"
   viewBox="0 0 380 380"
   version="1.1"
   id="svg1587"
   xml:space="preserve"
   inkscape:version="1.2.2 (b0a8486541, 2022-12-01)"
   sodipodi:docname="cereus-logo.svg"
   xmlns:inkscape="http://www.inkscape.org/namespaces/inkscape"
   xmlns:sodipodi="http://sodipodi.sourceforge.net/DTD/sodipodi-0.dtd"
   xmlns="http://www.w3.org/2000/svg"
   xmlns:svg="http://www.w3.org/2000/svg"><sodipodi:namedview
     id="namedview1589"
     pagecolor="#505050"
     bordercolor="#eeeeee"
     borderopacity="1"
     inkscape:showpageshadow="0"
     inkscape:pageopacity="0"
     inkscape:pagecheckerboard="0"
     inkscape:deskcolor="#505050"
     inkscape:document-units="mm"
     showgrid="false"
     inkscape:zoom="0.23785774"
     inkscape:cx="2001.1962"
     inkscape:cy="559.15776"
     inkscape:window-width="1366"
     inkscape:window-height="709"
     inkscape:window-x="0"
     inkscape:window-y="0"
     inkscape:window-maximized="1"
     inkscape:current-layer="layer1" /><defs
     id="defs1584" /><g
     inkscape:label="Capa 1"
     inkscape:groupmode="layer"
     id="layer1"><g
       id="g815"><circle
         style="fill:none;fill-opacity:1;fill-rule:evenodd;stroke-width:0.267534;paint-order:markers fill stroke"
         id="path1760"
         cx="190"
         cy="190"
         r="190" /><g
         id="g2187"
         transform="matrix(2.8601829,0,0,2.8601829,139.09517,289.80363)"><g
           inkscape:label="Capa 1"
           id="layer1-3"
           transform="matrix(0.26458333,0,0,0.26458333,-49.02146,-103.23409)"><path
             style="fill:#3a8844;fill-opacity:1;stroke:none;stroke-width:0.891054px;stroke-linecap:butt;stroke-linejoin:miter;stroke-opacity:1"
             d="m 258.545,305.72638 c 0,0 59.94318,16.28098 80.53145,-17.74661 26.84382,-44.36655 7.15835,-67.43718 35.79175,-88.73313 35.79176,-26.61992 82.54388,13.75536 53.68764,70.9865 -26.84382,53.23986 -90.54804,79.59489 -125.27114,70.98649 -35.79176,-8.8733 -44.7397,-35.49325 -44.7397,-35.49325 z"
             id="path1067"
             sodipodi:nodetypes="cssssc" /><path
             style="fill:#3a8844;fill-opacity:1;stroke:none;stroke-width:0.891054px;stroke-linecap:butt;stroke-linejoin:miter;stroke-opacity:1"
             d="m 111.41581,145.91029 c 35.79176,0 17.89589,70.98651 35.79176,88.73312 l 17.89588,17.74662 c 0,0 -62.63557,8.87332 -80.531447,-44.36656 -12.771929,-35.66802 0,-62.11318 26.843807,-62.11318 z"
             id="path1182"
             sodipodi:nodetypes="ssccs" /><path
             id="path8219"
             style="fill:#bc4e48;fill-opacity:1;stroke:none;stroke-width:0.891054px;stroke-linecap:butt;stroke-linejoin:miter;stroke-opacity:1"
             d="m 257.39648,46.880859 c -5.09961,0.250168 -11.3324,3.317399 -11.76171,10.296875 0,0 -2.63869,14.123343 17.89648,26.619141 23.1953,14.114525 41.94132,1.745662 44.73828,-8.873047 2.79698,-10.618711 -4.41674,-13.910948 -8.94726,-13.310547 -0.98348,0.130334 -1.96456,0.646226 -2.94336,1.351563 0.0274,-6.57086 1.05118,-14.720728 -10.94141,-5.244141 -1.63333,1.290661 -3.41527,2.556085 -5.24023,3.572266 -4.93559,-12.639533 -8.73422,-6.4982 -12.24805,-0.828125 -1.96625,-3.662311 -2.33011,-10.208352 -4.95313,-12.28125 -1.19792,-0.9467 -3.2816,-1.416447 -5.59961,-1.302735 z" /><path
             style="fill:#4e965c;fill-opacity:1;stroke:none;stroke-width:0.891054px;stroke-linecap:butt;stroke-linejoin:miter;stroke-opacity:1"
             d="m 335.11429,447.60288 c 0,0 -121.30898,-26.52345 -166.04867,-106.38325 C 141.58224,292.16214 138.63054,83.827756 245.6349,92.670418 353.01017,101.54374 294.33675,243.61322 276.44088,314.5997 258.545,385.58618 335.11429,447.60288 335.11429,447.60288 Z"
             id="path937"
             sodipodi:nodetypes="csszc" /><path
             style="fill:#458161;fill-opacity:1;stroke:none;stroke-width:0.891054px;stroke-linecap:butt;stroke-linejoin:miter;stroke-opacity:1"
             d="m 79.586231,314.5997 c -26.843816,8.8733 -4.791924,57.36122 26.843819,88.7331 26.84381,26.61995 71.5835,44.36659 80.53144,26.61995 8.94794,-17.74661 -26.84382,-8.87332 -62.63556,-44.36657 -35.79176,-35.49323 -17.89588,-79.8598 -44.739699,-70.98648 z"
             id="path11663"
             sodipodi:nodetypes="zsssz" /><path
             style="fill:#adc3ad;fill-opacity:1;stroke:none;stroke-width:0.891054px;stroke-linecap:butt;stroke-linejoin:miter;stroke-opacity:1"
             d="m 428.55584,154.88009 c 22.01589,-7.41173 -3.10009,-36.77438 -20.99597,-54.521 -17.89588,-17.74662 -41.6396,-34.212119 -50.58755,-16.465496 -8.94793,17.746626 14.7958,16.465496 32.69167,34.212116 17.89588,17.74662 16.87595,44.18612 38.89185,36.77438 z"
             id="path14218"
             sodipodi:nodetypes="zsssz" /></g></g></g></g></svg>
