<svg xmlns="http://www.w3.org/2000/svg" xmlns:xlink="http://www.w3.org/1999/xlink" width="960" height="960" preserveAspectRatio="xMidYMid meet" viewBox="0 0 720 720"><path d="M259.2 25.6c-1.9 1.3-3.1 1.4-6.7.5-6.3-1.6-10.3-1.4-14.9.8-2.3 1-6.8 2.1-10 2.4-3.8.4-7 1.4-8.8 2.7-2.1 1.5-4.7 2.2-9.6 2.4-6.8.3-13.5 2.8-16.1 6-.8.9-2.4 1.6-3.8 1.6-3.9 0-10.6 2-12.9 3.9-4.4 3.6-5.9 10.3-3.5 16.3.8 2.2.6 3.6-.9 7-2.5 5.5-2.5 7.5.1 12.3 1.3 2.6 2.1 6.2 2.2 10.2.2 5.2.7 6.9 3.5 10.8 2.3 3.4 3.2 5.6 3.2 8.7 0 4.4 3.8 12.1 6.4 13.1.8.3 1.8 2.6 2.4 5.1 1.2 5.7 4.2 10.2 9.4 14.1 2.4 1.8 4.8 4.8 6 7.4 2.3 5.4 4.7 7.7 11.6 10.7 2.8 1.3 5.2 2.9 5.2 3.5 0 2.6 4.4 7 9.5 9.4 3 1.4 5.5 2.9 5.5 3.4 0 .4-2.8 2.5-6.2 4.7-8.3 5.1-22.6 19.4-26.9 26.9-7.9 13.6-10.9 25-12.4 46.7-.4 6.6-2 9.3-8.3 14.5-27.8 22.5-38.7 60.9-26.7 93 2.7 7 7.7 15.8 13.1 22.8 2 2.7 4 7 4.9 10.7.9 3.5 3.6 12.2 6.1 19.5 2.4 7.2 4.7 15.1 5 17.5.7 4.8 4.6 16.1 7.6 22.3 8.6 17.1 26.1 34.1 44 42.5 3.5 1.7 11.4 6.5 17.6 10.9 11 7.6 24.1 14.7 35.1 19.1 3 1.1 6.8 3.5 8.5 5.2 5.3 5.3 18 14.3 24.7 17.5 15.6 7.5 33.6 10.3 51.4 8 17.1-2.3 34.5-10.7 48.5-23.6 3.4-3.1 7.9-6 12-7.6 10.1-4.1 23.7-11.6 35.4-19.7 5.9-4 14.1-9 18.2-11 23.6-11.8 42.7-35.1 48-58.3.8-3.9 3.7-14 6.5-22.5 2.7-8.5 5.4-17.8 6-20.5.8-3.1 3-7.4 5.9-11.3 12.2-16.4 17.1-31.4 16.6-50.7-.5-17.2-5.4-32.5-14.9-46.5-4.2-6.1-13.3-15.6-17.4-18.1-5-3.1-7-8-7.7-18.5-1.8-30.2-13.7-51.8-37.3-67.8-4-2.7-7.3-5.5-7.3-6.1s1.7-1.7 3.8-2.4c4.3-1.5 9-5.6 10.3-8.9.5-1.3 2.9-3.1 6.2-4.6 5.7-2.5 9.9-6.7 11.8-11.8.7-1.9 3.3-5 6.1-7.1 4.9-3.8 8.7-10 8.8-14.3 0-1.1.9-2.9 2.1-4 4.2-3.8 6.1-7.5 6.5-12.5.2-3 1.1-6.1 2.5-8 2.8-4 4.8-10.6 4.2-14.5-.3-2 .2-4.2 1.6-6.5 2.5-4.1 2.7-10.3.5-14.9-1.3-2.5-1.4-4-.7-6.5.6-1.8.9-5 .7-7-.7-8-6-11.8-17.5-12.4-.9-.1-2.9-1.2-4.5-2.6-3.8-3.2-9.5-5.1-16.8-5.4-4.1-.2-6.8-.9-8.7-2.3-1.6-1.2-5.2-2.3-9.1-2.8-3.4-.4-7.6-1.4-9.3-2.3-3.5-2-9.2-2.2-14.5-.6-3 .9-4.3.8-6.8-.5-4.1-2.1-9-2-14.9.3-3.4 1.3-6.4 1.7-10.4 1.4-4.5-.4-6.5-.1-10.5 1.9-3.1 1.5-6.2 2.3-8.3 2.1-5.4-.5-10.2 1.3-15.1 5.7-3.5 3.1-5.3 4-8.2 4-8.6 0-23.1 16.4-30.9 35-1.9 4.4-3.6 8-3.9 8s-2.3-3.7-4.3-8.3c-4.7-10.5-10.3-19-16.6-25.5s-10.7-9.2-15-9.2c-2.5 0-4.5-1.1-8.3-4.4-4.9-4.5-10.3-6.3-15.4-5.2-1.2.2-4.5-.7-7.4-2.1-4.3-2.1-6.3-2.4-10.5-2-3.6.4-6.7 0-10.5-1.4-6.6-2.3-11.8-2.4-14.8-.3zM470 42.4c0 .2-.7.7-1.6 1-.8.3-1.2.2-.9-.4.6-1 2.5-1.4 2.5-.6zm-5.5 2.6c-.3.5-1.2 1-1.8 1-.7 0-.6-.4.3-1 1.9-1.2 2.3-1.2 1.5 0zm49.2 4.6c-.3.3-1.2.4-1.9.1-.8-.3-.5-.6.6-.6 1.1-.1 1.7.2 1.3.5zm-30.6 2.1c1.3 1.6 1.2 1.7-.3.4-1-.7-1.8-1.5-1.8-1.7 0-.8.8-.3 2.1 1.3zM233 52c0 .5-.5 1-1.1 1-.5 0-.7-.5-.4-1 .3-.6.8-1 1.1-1 .2 0 .4.4.4 1zm296 5.6c0 .8-1.9 1.3-2.4.6-.3-.5.1-.9.9-.9s1.5.2 1.5.3zm4 .4c0 .5-.2 1-.4 1-.3 0-.8-.5-1.1-1-.3-.6-.1-1 .4-1 .6 0 1.1.4 1.1 1zm-212.9 2.7c1.3 1.6 1.2 1.7-.3.4-1-.7-1.8-1.5-1.8-1.7 0-.8.8-.3 2.1 1.3zm74.2.8c-.3.9-.8 1.4-1 1.1-.3-.3-.2-.9.2-1.5.9-1.6 1.5-1.3.8.4zm-202.2 1.2c1.3 1.6 1.2 1.7-.3.4-1-.7-1.8-1.5-1.8-1.7 0-.8.8-.3 2.1 1.3zM405 61.4c0 .2-.7.7-1.6 1-.8.3-1.2.2-.9-.4.6-1 2.5-1.4 2.5-.6zm-196.9 3.9c-1 .9-1.1.8-.5-.6.3-1 .9-1.5 1.2-1.2s0 1.1-.7 1.8zm80.4-.5c-.3.3-1.1 0-1.8-.7-.9-1-.8-1.1.6-.5 1 .3 1.5.9 1.2 1.2zm46.3 1.7c-.3.3-.9-.2-1.2-1.2-.6-1.4-.5-1.5.5-.6.7.7 1 1.5.7 1.8zm-86.3 6.3c-.3.3-1.1 0-1.8-.7-.9-1-.8-1.1.6-.5 1 .3 1.5.9 1.2 1.2zm217 7.2c.3.6-.1.7-.9.4-1.8-.7-2.1-1.4-.7-1.4.6 0 1.3.4 1.6 1zm4.2 11.5c0 .8-.4 1.2-.9.9s-.6-1-.3-1.5c.9-1.3 1.2-1.1 1.2.6zm50.8.4c.3.5.2 1.2-.3 1.5s-.9-.1-.9-.9c0-1.7.3-1.9 1.2-.6zM457 97.4c0 .2-.8 1-1.7 1.7-1.6 1.3-1.7 1.2-.4-.4s2.1-2.1 2.1-1.3zm-258.9 5.3c1.3 1.6 1.2 1.7-.3.4-1-.7-1.8-1.5-1.8-1.7 0-.8.8-.3 2.1 1.3zm106 2c1.3 1.6 1.2 1.7-.3.4-1-.7-1.8-1.5-1.8-1.7 0-.8.8-.3 2.1 1.3zm-101.6 2.1c-.3.3-1.1 0-1.8-.7-.9-1-.8-1.1.6-.5 1 .3 1.5.9 1.2 1.2zm176.6.9c1.3 1.6 1.2 1.7-.3.4-1-.7-1.8-1.5-1.8-1.7 0-.8.8-.3 2.1 1.3zM288 110c.8.5 1.1 1 .5 1-.5 0-1.7-.5-2.5-1s-1-1-.5-1c.6 0 1.7.5 2.5 1zm128 .4c0 .2-.8 1-1.7 1.7-1.6 1.3-1.7 1.2-.4-.4s2.1-2.1 2.1-1.3zm-6 4c0 .2-.8 1-1.7 1.7-1.6 1.3-1.7 1.2-.4-.4s2.1-2.1 2.1-1.3zM304.5 122c.3.5.1 1-.4 1-.6 0-1.1-.5-1.1-1 0-.6.2-1 .4-1 .3 0 .8.4 1.1 1zm85 4c.3.6-.1.7-.9.4-1.8-.7-2.1-1.4-.7-1.4.6 0 1.3.4 1.6 1zm-55.8 1.6c-.3.3-1.2.4-1.9.1-.8-.3-.5-.6.6-.6 1.1-.1 1.7.2 1.3.5zm77.3 3.8c0 .2-.8 1-1.7 1.7-1.6 1.3-1.7 1.2-.4-.4s2.1-2.1 2.1-1.3zm-129.3 39.2c-.3.3-1.2.4-1.9.1-.8-.3-.5-.6.6-.6 1.1-.1 1.7.2 1.3.5zm-49.8 148.7c.1-.7.8-1 1.8-.6s1.4.2 1-.4c-.5-.8.3-.8 2.8 0 1.9.6 3.5 1.7 3.5 2.4 0 .8.5 1.1 1 .8.6-.4 1.8-.1 2.7.7 1.2.9 1.5.9.9.1-.5-.9-.2-1.1.8-.7.9.3 1.3 1 1 1.5s.2.6 1 .3c.9-.3 1.6-.1 1.6.6 0 .6.4.8 1 .5.5-.3 2.1.2 3.5 1.1s2.5 1.3 2.5.8c0-.4 1 .2 2.3 1.4s2.7 1.9 3 1.5c.4-.3.7-.1.7.5 0 .7 1.4 1.2 3 1.2 1.7 0 3 .4 3 .9s1.9 1.5 4.3 2.3c2.3.8 4.1 1.8 4 2.4s.4 1.1 1.2 1.1 1.2-.5.9-1.1.1-.3.9.6c.8 1 1.7 1.5 2 1.1.4-.3.7-.2.7.4s.9 1.3 2 1.6c1.3.3 1.8.1 1.3-.6-.3-.7.6-.1 2.2 1.3s2.4 1.8 2 1c-.5-.9.1-.7 1.5.5 1.5 1.3 2.1 1.5 1.6.5-.6-1.1-.4-1.1.6.1.7.9 2.8 2 4.6 2.3 1.7.4 3.4 1.2 3.7 1.7.4.5 1.5.9 2.5.9s2.6.8 3.6 1.7c1 1 1.9 1.7 2.1 1.5 1.2-.9 3.3.1 3.3 1.5 0 1.5.2 1.6 1 .3.9-1.4 1.4-.7 1.1 1.3-.1.5.4.5 1 .1.6-.3 1.5-.1 1.9.5.4.7 1.7 1.3 2.9 1.4 1.3.1 2.7 1 3.3 2 1.4 2.6 1.9 5.9.7 5.2-.5-.4-.9-.1-.9.5 0 .7-.7 1-1.4.7-1-.4-1.3-.1-1 .7s-.8 2.3-2.5 3.6c-1.7 1.2-3.1 1.8-3.1 1.3 0-.4-.7.3-1.6 1.5-.9 1.3-2.2 2.1-3 1.8s-1.4.1-1.4.8c0 .8-1.5 1.7-3.5 2-2.4.5-3.3 1.1-2.8 1.9.4.8.2.8-.9-.1-1.2-.9-1.8-1-2.3-.2s-1.1.8-2.1-.1c-.8-.6-1.7-.9-2.1-.5-.3.3 0 .6.7.6s1 .3.7.7c-.4.3-1.5-.2-2.6-1.1-1.4-1.3-2.1-1.4-2.7-.5-.5.8-.3 1 .6.4s1.1-.4.5.4c-.5.9-1.4.6-3.3-1.1-1.5-1.3-2-1.5-1.3-.5 1.3 1.6 1.2 1.7-1.5.7l-3.4-1.3c-.3-.1-.4-.6-.2-1 .1-.4-.6-.4-1.5 0-1 .5-2.5.8-3.3.7s-2.1-.2-2.8-.3c-.8-.1-1-.6-.6-1.4.6-1 .4-1-.7 0-.7.7-1.7 1.3-2.2 1.3-.4 0-.5-.6-.1-1.3.6-.9.4-.9-.8.1-1.2.9-1.8 1-2.3.2-.4-.6-1.3-.9-2-.6-.7.2-2.1-.4-3.1-1.5-1.1-1.2-2.1-1.6-2.7-1-.5.5-2.1.6-3.7.1s-3.1-.6-3.4-.2c-.3.3-.6-.1-.6-.9 0-1.1-.2-1.1-1 .1-.6.9-1 1-1 .3 0-.8-1.3-1.1-3.4-.9-1.9.1-3.3-.1-3-.5.2-.4 0-1-.6-1.4-.5-.3-1 0-1.1.7 0 .7-.4.4-.9-.7s-.9-1.4-.9-.8c-.1.7-.6 1.3-1.2 1.3-.5 0-.7-.5-.4-1 .3-.6-.1-1-.9-1s-2.7-1.2-4.3-2.8c-1.5-1.5-3.1-2.6-3.5-2.5-.4.2-.4-.5-.1-1.4.4-.9.2-1.4-.3-1-.6.3-1.6-.3-2.3-1.5-.7-1.1-.8-1.7-.2-1.3 2.3 1.4.9-.8-2.6-4.2-2.1-1.9-3.2-3.2-2.5-2.9.6.4 1.2.2 1.2-.3 0-.6-.7-1.1-1.6-1.1-.8 0-1.2-.5-.9-1 .3-.6.1-1-.4-1-.6 0-1-.6-.8-1.3.1-.6-.4-1.1-1.1-.9-.8.1-1.1-.2-.8-.7.4-.5-.1-1.6-.9-2.4-1.8-1.9-2-3.1-.2-2.2.6.4.4 0-.5-.8-1.3-1-1.5-1.6-.6-2.5s.9-1.2-.1-1.2c-1.1 0-1.1-.3 0-1.7 1-1.2 1-1.5.1-.9-1 .6-1.1-.1-.7-3.1l.7-5.1c.1-.7.7-1.1 1.4-.8.9.3 1.1-.1.7-1.1-.4-1.1-.2-1.4.5-.9.7.4 1.2.2 1.2-.5 0-.9.3-.9 1.4 0 1 .8 1.6.9 2.1.1.3-.6 1-.8 1.4-.6.4.3 1.3.1 2.1-.4 1.1-.7 1.7-.4 2.2.8.4.9.7 1.2.7.5zm258.5-1.1c-.5.9-.2.9.9-.1 1-.8 1.7-.9 1.7-.3s1.3.9 2.9.7c3.1-.4 5.8 1.6 4.6 3.4-.4.7.1.8 1.1.4 1.4-.5 1.6-.2 1.2 2-.3 1.6 0 3.1.8 3.8 1 .8 1.1 1.6.4 2.9-.6 1-1 2.8-1 4s-.4 1.9-.9 1.5c-.6-.3-.8.4-.6 1.5s0 2-.4 2c-.5 0-1.4 1.3-2.1 3-.7 1.6-2 3-2.9 3-1.2 0-1.3.2-.3.9 1.1.6.7 1.5-1.3 3.7-1.5 1.6-2.1 2-1.4 1 1.3-1.8 1.3-1.8-.8-.5-1.6 1-1.9 1.6-1 2.2.9.7.9 1 0 1.4-.7.2-1.3 1.1-1.3 1.8 0 .8-.9 1.9-2.1 2.5-1.1.7-1.8 1.4-1.5 1.7.7.7-1.7 3.2-2.6 2.6-.5-.2-.8.3-.8 1.2s-.5 1.3-1 1c-.6-.3-1.3.1-1.6.9-.5 1.2-1 1.3-2.5.5-1.1-.5-1.9-.6-1.8-.2.3 2.1-.2 2.4-1.8 1.2-.9-.8-1.4-.9-1-.3.4.7 0 1.5-.9 1.8-2.5 1-3.6.7-2.8-.7.4-.6-.3-.3-1.6.8-1.4 1.2-2 1.4-1.5.5.8-1.3.6-1.3-.8-.2-.9.8-2.1 1.1-2.7.7-.5-.3-1-.2-1 .4 0 1-3.1.7-5.3-.5-.9-.6-.9-.5 0 .7 1.1 1.4.9 1.6-1.7 1.4-1.6-.1-2.7.2-2.4.7.3.4-.5.8-1.8.9-1.3 0-3.4.2-4.7.5-1.3.2-3-.1-3.8-.7-1.1-.9-1.2-.9-.8.4.5 1.2 0 1.5-2.4 1.3-1.7-.1-3.1.3-3.1.8 0 .6-.5.4-1-.4-.8-1.2-1-1.2-1-.1s-.3 1.1-1.7 0c-1.1-1-1.4-1-.9-.2.6 1.2-1 1.6-4 1.2-.4 0-1.1.5-1.5 1.3-.7 1-.9 1-.9 0 0-.8-.5-1-1.2-.5-1.8 1-4.9 1-7.3-.2-1.1-.5-2.4-.8-2.9-.7-.5.2-2-.7-3.4-2s-2.1-1.6-1.7-.8c.8 1.3.7 1.3-.9.1-.9-.8-1.5-2-1.2-2.8.3-.7.1-1.3-.4-1.3-.6 0-1 .6-1 1.2-.1.9-.4.8-1.3-.2-.7-.8-2.5-2.1-4-2.8-2.2-.9-2.7-1.7-2.3-3.5.3-1.2.3-1.6 0-1-.3.7-1 1.3-1.5 1.3-.6 0-.7-.5-.4-1 .3-.6.2-1-.3-1-.6 0-.8-.9-.5-2s1-1.7 1.7-1.3c.6.4.5-.1-.3-1-1.2-1.5-1.1-1.7.8-1.7 1.1 0 2.1-.5 2.1-1.1s.9-.9 2-.6 1.8.2 1.5-.3c-.3-.4.2-1.3 1-2 1.3-1.1 1.5-1 1 .6-.4 1.2 0 .9.9-.6.9-1.4 1.5-1.9 1.6-1.1 0 1.1.3 1.1 1.3-.3.7-.9 2.2-1.8 3.5-1.9 1.2 0 2.2-.5 2.2-.9s.3-.7.8-.6c.4 0 3-.9 5.7-2.2 2.8-1.3 5.6-2.3 6.3-2.3.6 0 1.2-.4 1.2-.9s.5-.6 1-.3c.6.3 1 .2 1-.3 0-.6 1.6-1.3 3.5-1.6 2-.4 3.3-1.1 2.9-1.7-.3-.6.5-.8 2-.5s2.4.1 2.1-.4c-.5-.7 9.7-5.4 11.1-5 .4.1 1-.4 1.4-1.1.4-.6 2.1-1.2 3.8-1.3 1.9-.1 2.8-.5 2.5-1.4-.4-.8 0-1 1.3-.5s1.5.3.9-.8c-.4-.8-.5-1.1 0-.7.4.4 1.5.2 2.3-.5 1.3-1 1.5-.9.8.3-.7 1.3-.6 1.3.6 0 1.9-2.2 6.3-4.5 5.2-2.9-.4.7.8.2 2.6-1.1s3-1.9 2.7-1.3c-.4.7-.2 1.5.4 1.9.7.4.9.3.6-.3-.4-.6 0-1.6.8-2.3s1.5-.9 1.5-.6c0 .4.7 0 1.6-.8 1.2-1.3 2-1.4 3.6-.5s1.9.8 1.3-.2c-.6-.9-.2-1.1 1.3-.7 1.2.4 2.5.2 2.8-.3s.7-.9 1-.9.2.6-.2 1.2zM264.5 372c.3.5.1 1-.4 1-.6 0-1.1-.5-1.1-1 0-.6.2-1 .4-1 .3 0 .8.4 1.1 1zm82.9 46.7c-.5 1.8-.3 2.4.5 1.9.6-.4 1.1-.1 1.1.9s.4 1.3 1.3.8c.6-.4.4.6-.7 2.1-1 1.6-1.3 2.6-.8 2.2.6-.3 1.4-.2 1.7.4.4.6.1.9-.7.8-.7-.2-1.2.3-1 1 .1.7-.4 1.9-1.2 2.7-1.2 1.3-1.5 1.2-2-.1-.3-.8-.2-1.2.3-.9s1.2.1 1.5-.4c.4-.5-.2-.8-1.1-.6-1.1.1-1.7 1-1.5 2.1.2 1.4-.1 1.3-1.2-.6-.8-1.4-1.2-2.8-1-3.2.3-.5 0-.8-.5-.8-.6 0-1.1.5-1.1 1.2 0 .6-.3.8-.7.5-.3-.4.2-1.7 1.3-2.9 1-1.2 1.4-1.8.7-1.5-.6.4-1.5.2-1.9-.4-.4-.7-.3-.9.3-.6 1.2.7 2.6-2 1.8-3.3-.3-.5.3-.7 1.2-.6 1.7.3 3.3-1 3.3-2.8 0-.5-.8-.2-1.7.5-1.6 1.3-1.7 1.2-.4-.3 1.8-2.4 3.3-1.3 2.5 1.9zm29.3-2c-.4.3-.2 1.2.4 1.9.8 1 .6 1.2-.8.9-1.1-.2-2.5 0-3.2.4-.7.5 0 .8 1.8.9 1.7 0 3.4.3 3.8.5 1.3.8.9 8-.5 8.3-.7.1-.8 0-.2-.3.5-.2 1-.9 1-1.4s-.9-.4-2 .3c-1.9 1.2-1.9 1.3.1 2.4 1.8.9 1.9 1.2.5 1.7-.8.3-1.8.2-2.1-.4-.4-.5-1.1-.7-1.6-.4s-.6-.1-.2-1.1c.5-1.4.3-1.5-1.8-.4-2.4 1.3-2.4 1.3-.5-.9 1.1-1.1 1.4-2.1.9-2.1-.6 0-1.4-.7-1.7-1.6-.6-1.5-.4-1.5 1.1-.3 1.1 1 1.4 1 .9.1-1.6-2.7-1.7-6.2-.1-6.2 1 0 1.3-.5.9-1.2-.4-.6-.3-.8.4-.4.6.3 1.3.2 1.7-.4.3-.5.9-1 1.2-1 .4 0 .3.3 0 .7zm-52.9-55c.7.3 1.6.2 1.9-.1.4-.3-.2-.6-1.3-.5-1.1 0-1.4.3-.6.6z"/><use xlink:href="#B"/><use xlink:href="#C"/><use xlink:href="#D"/><path d="M375.3 423.5c0 .7.6 1.2 1.3 1.2s1.1-.4.8-.8c-.2-.4.2-.9.8-1.2.7-.3.4-.5-.8-.4-1.1.1-2.1.6-2.1 1.2z"/><use xlink:href="#E"/><use xlink:href="#F"/><use xlink:href="#G"/><use x="-526" y="1" xlink:href="#F"/><use x="-514" y="1" xlink:href="#F"/><use x="-502" y="1" xlink:href="#F"/><path d="M151.9 560.7c-1.3 1.6-1.2 1.7.4.4.9-.7 1.7-1.5 1.7-1.7 0-.8-.8-.3-2.1 1.3z"/><use x="-470" y="1" xlink:href="#F"/><use xlink:href="#H"/><path d="M507.3 559.6c.4.7 0 1.7-.8 2.4-1.1.9-1.5.9-1.5.1 0-.7-.5-.9-1.2-.5-1.6 1-12.8 1.2-14.8.3-1.3-.6-1.5.4-1.2 6.7.3 5.2 0 7.9-.9 9.1-1 1.2-1 1.5-.1.9.8-.5 1.2 0 1.2 1.4s-.4 1.9-1.2 1.4c-1-.6-1-.5-.2.7.9 1 1.2 12.3 1.2 39.2-.1 20.8.2 38 .6 38.4.3.4 4.6.7 9.5.7 8.2.1 8.9-.1 9.8-2.1.7-1.4.7-2.5.2-2.9-.5-.3-.9-1-.9-1.5 0-.6.4-.8.8-.5.5.3.9-.1.9-.9s-.4-1.2-.9-.9c-1.2.8-.5-4.9.7-5.8.6-.5.5-.8-.4-.8-1 0-1.1-.3-.2-1.4.8-1 .9-1.6.1-2.1-.5-.3-1-1.1-1-1.6 0-.6.5-.7 1.2-.3.8.5.8.3.2-.7-.5-.8-.9-3.9-.9-6.9 0-5 .2-5.5 2.2-5.6 1.4-.1 2 .2 1.6.9-.4.6-.1.7.6.2 1.7-1 14.2-1.5 13.6-.4-.3.4 0 1.1.6 1.5.7.4.9.3.6-.3-.4-.6 0-1.4.9-1.7 2.2-.9 2.6-.8 1.8.6-.5.7-.3.8.6.3 2-1.3 7-1.4 7-.1 0 .7.3.7.8.1.9-1.3 4.6-1.9 3.8-.6-.4.5-.1 1.3.5 1.7.8.4.9.3.5-.4-.8-1.4-1.1-1.3 8.1-1.6 4-.2 7 .1 6.7.5-.2.4.1 1.1.7 1.5.7.4.9.3.6-.3-.4-.6 0-1.4.9-1.7 2.3-.9 2.4-.8 1.8 1.1-.5 1.4-.4 1.5.4.4 1.5-2 7.2-2.2 7.3-.2 0 1.4.1 1.4.7.1.5-1.1 2.2-1.6 5.9-1.5 2.9 0 5.3-.4 5.3-.9 0-.4 1.8-.6 3.9-.4 2.2.2 3.7 0 3.5-.4s.4-.7 1.3-.8c4.6-.1 6.3-.5 6.3-1.3 0-.5 1.2-.6 2.8-.3 1.7.4 2.2.3 1.4-.2-1.1-.7-1-1.1.5-1.6 1-.4 1.9-.7 2.1-.6.8.3 5.5-5.8 7.1-9.2 1-2.1 2-3.6 2.2-3.4.2.3.4-3.5.4-8.5 0-4.9.4-8.9.8-8.9.5 0 .5-.5.2-1.1-.4-.5-.9-4.3-1.1-8.2-.6-9.7-.6-9.7-1.6-9.7-.6 0-.8-.6-.6-1.2.8-2.2-8.1-9.5-9.6-8-1.2 1.1-3.6 1-3.6-.1 0-.8-.3-.7-.9.1-1.1 1.8-2 1.7-3.8-.5-.8-1-1.2-1.3-.9-.6.9 1.7-1.5 2.8-2.4 1.2-.7-1-1.1-1-2.4 0-1.2 1.1-1.6 1.1-1.6.1 0-.8-.5-.9-1.2-.4-2.1 1.4-7.3 1.1-7-.4.1-.8-.2-1.1-.8-.7-.6.3-.8 1-.6 1.4.3.3-.4.7-1.4.7s-1.6-.5-1.3-1c.4-.5.1-.6-.8-.1-1.9 1.2-8 1.3-10.3.2-1.2-.6-1.6-.6-1.2.1.4.6-.2 1-1.4.9-1.1-.1-2-.6-2-1.2 0-.5-.4-.4-.9.3-.4.8-1.2 1.4-1.6 1.4s-1.2-.6-1.6-1.4c-.5-.7-.9-.8-.9-.2 0 1.4-3 1.4-3 0 0-.6-.4-.5-.9.2-1.2 2-1.8 1.9-3.6-.3-1-1.3-1.4-1.5-1.3-.5.2 1.1-.7 1.5-3.4 1.5-2 0-3.4-.4-3.1-.9.4-.5 0-.6-.8-.1-2 1.3-11.9 1.3-11.1 0 .4-.7.1-.7-.9 0-2 1.5-15.4 1.3-15.4-.2 0-.6-.4-1.5-.9-2-.5-.4-.6-.3-.3.3zm8.7 14.8c0 .5.7.3 1.5-.4 1.2-1 1.5-1 1.5 0s.3 1 1.4.1c.9-.7 1.7-.8 2-.2.7 1.1 2.5.9 4.5-.3.8-.5 1.6-.4 2.1.4.6.9 1.3.9 2.8.1 1.2-.6 2.3-.7 2.6-.2.7 1.1 2.5.9 4.5-.3.8-.5 1.6-.4 2.1.4.6.9 1.3.9 2.8.1 1.2-.6 2.3-.7 2.6-.2.7 1.1 2.5.9 4.5-.3.8-.5 1.6-.4 2.1.4.6.9 1.3.9 2.8.1 1.2-.6 2.3-.7 2.6-.2.5.8 2.7.8 4.6.1.3-.1.7-.2 1.1-.2.3 0 5.8.3 12.2.6 7.9.3 12.3.9 13.7 1.9 1.6 1.1 1.8 1.6.8 2-.9.4-.8.6.3.6 1.7.1 3.4 4.1 1.7 4.1-.5 0-.7.4-.4.9s.8 2.7 1 5c.3 2.9 0 3.9-.8 3.4-.6-.4-.5.1.3 1 .8 1.1.9 1.7.3 1.7s-.9.7-.6 1.5c.4.8.3 3 0 4.9-.9 4.5-5.1 6.5-15.7 7.3-6.9.5-8.1.4-7.4-.8.5-.9.2-.9-.9.2-1.3 1.2-2.7 1.4-5.6.9-2.6-.5-4.1-.3-4.4.4s-.8.7-1.4-.3c-.5-.7-1.2-.9-1.5-.5-.3.5-4.2.7-8.6.4-4.9-.3-8.3-.1-8.5.5-.3.6-.9.4-1.4-.4-.6-.8-1.2-.9-1.6-.3-.3.5-2.2.6-4.5.2-2.5-.4-4.4-.3-5 .3-.8.8-1.1.7-1.1-.3 0-.9-.3-1-.9-.5-.6.6-4.4.9-8.6.7-6.1-.3-7.5-.6-7.1-1.8.3-.8.2-1.4-.2-1.4-1.4 0-.7-11.6.8-13.6 1.4-1.7 1.4-1.8-.1-.6-1.5 1.1-1.7.8-1.6-2.3.1-1.9.6-3.5 1.2-3.5.5 0 .4-.4-.3-.9-1.6-1-1.2-3.2.8-4.8 1.3-1.2 1.3-1.2 0-.8-1.2.4-1.6-.2-1.5-2.4 0-2.2.4-2.8 1.7-2.6 1 .2 1.8.1 1.8-.3s1.1-.7 2.5-.7 2.5.4 2.5.9z"/><use xlink:href="#I"/><use x="-50" y="18" xlink:href="#F"/><path d="M511.4 579.4c.1.8.5 1.8.8 2.2.4.3.5-.1.4-1-.1-.8-.5-1.8-.8-2.2-.4-.3-.5.1-.4 1z"/><use xlink:href="#J"/><path d="M509 587.9c0 .6.4 1.3 1 1.6s.7-.1.4-.9c-.7-1.8-1.4-2.1-1.4-.7z"/><use x="96" y="36" xlink:href="#H"/><path d="M587.5 598.9c-.3.5-.2 1.2.3 1.5s.9-.1.9-.9c0-1.7-.3-1.9-1.2-.6z"/><use xlink:href="#K"/><use x="240" y="180" xlink:href="#D"/><use x="-78" y="46" xlink:href="#F"/><use x="34" y="46" xlink:href="#H"/><use x="33" y="276" xlink:href="#B"/><use x="58" y="46" xlink:href="#H"/><use x="416" xlink:href="#G"/><use x="-110" y="1" xlink:href="#F"/><use x="-98" y="1" xlink:href="#F"/><use x="203" y="138" xlink:href="#C"/><use x="251" y="138" xlink:href="#C"/><path d="M183.9 560.7c-.1.5-.1 1.2 0 1.6s-.7.3-1.8-.2c-1-.6-2.1-.7-2.5-.4-.9.9-11.8 1.1-13.7.2-.9-.5-1.9-.5-2.3-.2-.9.9-11.8 1.1-13.7.2-.9-.5-1.9-.5-2.3-.2-.9.9-11.8 1.1-13.7.2-.9-.5-1.9-.5-2.3-.2-1 1-7.8 1.1-9.7.2-.9-.5-1.9-.5-2.3-.2-1 1-7.8 1.1-9.7.2-.9-.5-1.9-.5-2.3-.2-1.1 1.1-14.6.9-14.6-.2 0-.5-.4-.4-.9.3-.4.8-1.2 1.4-1.6 1.4s-1.2-.6-1.6-1.4c-.5-.7-.9-.8-.9-.2 0 1.4-3 1.4-3 0 0-.7-.3-.7-.8-.1-1 1.4-3.2 1.7-3.2.4 0-.8-.4-.8-1.2-.2-1.6 1.3-4.8 1.3-4.8 0 0-.5-.7-.4-1.6.4-.9.7-1.4 2.2-1.1 3.6.2 1.3.1 2.6-.4 2.9-.5.2-.5 1.5-.1 2.7.7 2.1.8 3.9.2 6.2-.1.5-.3 3.5-.4 6.5-.1 4.3-.4 5.4-1.6 5.2-.8-.2-1.1 0-.7.5.5.4 1.3.8 1.8.8.8 0 1.1.8.8 1.7-.6 2-.6 3.9.1 4.3.4.2.6 1.7.4 3.2-.2 1.6-.4 4.9-.5 7.5-.1 3.1-.6 4.5-1.3 4.1-.6-.4-.5 0 .2.9.7.8 1 2.3.6 3.2-.3.9-.2 1.6.2 1.6.8 0 .9 7.1.1 15-.2 1.9.1 4.1.6 4.7.6.8.6 1.3 0 1.3-.5 0-.9 1-.8 2.2.1 1.3-.2 2.9-.8 3.6-.8 1-.7 1.2.3 1 1.4-.3 1.5.5.9 7.2-.2 1.4-.7 3.1-1.3 3.9-.8 1.1-.8 1.3.2.7.8-.5 1.2 0 1.2 1.3 0 2.3-.4 2.3 10.2 2.3 4.3 0 7.5.4 7.3.9-.3.4-.1 1.1.5 1.4.6.4.9.1.8-.7-.2-.7.4-1.3 1.2-1.3s1.4.6 1.2 1.3c-.1.8.2 1.1.8.7.6-.3.8-1.1.5-1.6-.4-.5.3-.9 1.5-.9 1.4 0 1.9.4 1.4 1.2-.6 1-.4 1 .7 0 1.5-1.4 4.3-1.7 3.4-.3-.3.5-.1 1.3.5 1.6.6.4.9.1.8-.7-.4-1.8 4.9-2.3 7-.6.9.7 1.3.8.9.2-.5-.8 1.1-1.2 5.4-1.3 4.5 0 5.8.3 5.3 1.2s-.4.9.7 0c.7-.7 1.9-1.3 2.7-1.3s1 .5.6 1.3c-.5.8-.2.8.9-.2 1.4-1.1 2-1.1 3.4 0 .9.8 1.4.9 1 .3-.9-1.5 5.3-1.6 7.2-.1 1 .8 1.3.8.8.1-.5-.8.6-1.2 3.2-1.1 2.5.1 3.8.5 3.4 1.1-.3.6 0 .5.8-.1 1.7-1.7 4.2-1.7 3.3-.1-.6 1-.4 1 .7 0 .7-.6 2.5-1.2 3.9-1.2s3.2.6 3.9 1.3c.8.6 1.1.7.8.1-.4-.7 1.4-1.1 5.4-1.2 4.3 0 5.7.3 5.2 1.1-.4.7.1.5 1.1-.3 1.6-1.3 2-1.2 3.3.5 1.1 1.4 1.4 1.5 1 .4-.5-1.4.5-1.7 6.9-1.6 4.7 0 7.4.4 7.4 1.1 0 .6.4.5.9-.3.5-.7 1.3-1.1 1.8-.8 2.4 1.5 10.6-10.2 11.9-17 .4-2.1 1.4-4.4 2.3-5.1.9-.8 1-1.1.4-.7-.9.4-1.3-.3-1.3-2.5 0-1.7.4-2.9.8-2.6.5.3.9-.1.9-.9s-.3-1.2-.7-1-.7-.9-.7-2.5.5-2.7 1-2.3c.5.3.6-.2 0-1.3-1.1-2.4-1-10.4.1-12.3.6-.8.5-1.2 0-.8-.5.3-1-.3-1-1.3s.4-1.7.7-1.4c.4.2 1.1 0 1.4-.6.4-.6.1-.9-.6-.8-1.6.4-2-9.1-.5-11.1.8-1.1.8-1.3-.1-.7-.7.4-1.3.3-1.3-.1 0-.5.6-1.5 1.3-2.2.7-.8.7-1.1.1-.8-.8.5-1.2-.6-1.3-3.1-.1-2-.2-4.7-.2-6-.1-1.2-.4-2.2-.8-2.2s-1.2-2-2-4.4c-.7-2.4-2.9-6.1-5.1-8.4-2.1-2.2-3.6-4.3-3.2-4.8.4-.4.1-.4-.6 0s-1.9.3-2.6-.3-2.4-1-3.7-.9c-1.5.2-2.3-.2-2.1-1 .1-.6 0-1.2-.3-1.2s-.6.3-.6.7zm-88 15.2c.1-1.8 4.1-3.4 4.1-1.7 0 .6.6.5 1.5-.2 1.2-1 1.5-1 1.5 0s.3 1 1.4.1c.9-.7 1.7-.8 2-.2.7 1.1 2.5.9 4.5-.3.8-.5 1.6-.4 2.1.4.6.9 1.3.9 2.8.1 1.2-.6 2.3-.7 2.6-.2.7 1 2.5.9 4.4-.2.7-.5 1.2-.3 1.2.3s.5.8 1.2.4c1.7-1.1 5.8-1.1 5.8-.1 0 .4.9.3 2-.3 1.4-.8 2-.8 2 0s.6.8 2 0 2-.8 2 0 .6.8 2 0 2-.8 2 0 .6.8 2 0 2-.8 2 0 .6.8 2 0 2-.8 2 0 .6.8 2 0c1.1-.6 2-.7 2-.3s3.8.7 8.5.6c5.1-.1 8.3.2 8 .7-.3.6.1.7 1 .4 3.4-1.4 10.5 2.6 10.5 5.9 0 .8.4 1.7.9 1.9 1.8.6 3.2 24.3 1.6 26.8-.3.5-.3 1 .2 1 .4 0 .8 2.4.8 5.4s-.2 5.3-.5 5.1-.5 3.6-.6 8.4c0 11.5-3.1 19-7.2 17.6-.7-.3-1.1-.1-.8.4 1.1 1.7-2.9 2.3-17.2 2.7-11.5.4-14.2.2-13.6-.8.6-1.1.5-1.1-.8 0-1.2 1-7.7 1.2-27.9 1l-26.3-.3-.1-5.7c-.1-3.5.2-5.5.8-5.1s.7.1.2-.7c-1.4-2.2-1.5-8.1-.1-7.3.6.4.5-.1-.3-1-1.1-1.4-1.1-1.7 0-1.8 1.2 0 1.2-.1 0-.6-1.1-.5-1.1-.7 0-1.4s1.1-.9.1-.9c-.9 0-1-.5-.2-1.9.7-1.3.7-2.2 0-2.6-1.5-.9-1.2-2.7.3-1.9 1 .6 1 .4 0-.7-.7-.7-1.3-2-1.3-2.8 0-1.4.1-1.4 1-.1.5.8 1 1 1 .4s-.3-1.4-.7-1.8c-1.1-1.1-1-4 .2-4.8.6-.5.5-.8-.2-.8s-1.3-.5-1.3-1.1c0-.5.6-.7 1.3-.3.9.6.9.4-.1-.8-1.2-1.5-1.2-5.1.1-6.4.3-.4.3-1.2-.1-1.8-.9-1.5-.9-8.5 0-7.9.5.2.8-.1.8-.6 0-.6-.4-1.1-.8-1.1-.5 0-.8-2.4-.8-5.4.1-3 .4-5.2.9-4.9.4.2.7-.1.7-.6 0-.6-.6-1.1-1.2-1.1-.9 0-.8-.4.2-1 1.3-.9 1.3-1 0-1.1-1 0-.8-.3.5-.8 1.5-.6 2.1-.3 2.7 1.3.4 1.4.6 1.6.7.5z"/><use x="-474" y="17" xlink:href="#F"/><use x="-413" y="-8" xlink:href="#J"/><use x="-409" y="252" xlink:href="#B"/><use x="-164" y="176" xlink:href="#D"/><use x="-407" y="26" xlink:href="#J"/><use x="-414" y="26" xlink:href="#K"/><use x="-400" y="74" xlink:href="#H"/><use x="-328" y="32" xlink:href="#K"/><use x="-62" y="86" xlink:href="#E"/><use x="-164" y="223" xlink:href="#C"/><path d="M94 645.4c0 .2.8 1 1.8 1.7 1.5 1.3 1.6 1.2.3-.4s-2.1-2.1-2.1-1.3zm4.9 2.3c-1.3 1.6-1.2 1.7.4.4.9-.7 1.7-1.5 1.7-1.7 0-.8-.8-.3-2.1 1.3z"/><use x="-36" y="92" xlink:href="#E"/><path d="M131.9 648.7c-1.3 1.6-1.2 1.7.4.4s2.1-2.1 1.3-2.1c-.2 0-1 .8-1.7 1.7z"/><use x="-344" y="72" xlink:href="#I"/><path d="M173 648.4c.7.7 1.3.7 2 0 .6-.6.3-1-1-1s-1.6.4-1 1zm55.4-86.3c-.9 1.5-.8 12.4.1 13.9.4.6 1.1.8 1.6.4 1.3-.8 8.9-1.1 8.9-.3 0 .4 3.2.4 7.3 0 .4-.1.7-1.4.7-3s.6-3.2 1.3-3.4c1-.4 1-.6 0-.6-.7-.1-1.3-.7-1.3-1.5s.6-1.7 1.3-1.9c1-.4 1-.6 0-.6-.7-.1-1.3-1.1-1.3-2.4 0-1.2-.4-1.8-.8-1.2-.9 1.2-7.2 1.5-7.2.3 0-.5-.9-.4-2 .2-1.4.8-2 .8-2 0 0-.7-.6-.8-1.8-.1-1.3.7-2.2.7-2.9 0-.8-.8-1.3-.7-1.9.2zm402.2.9c-.2.3-.2 1.9-.1 3.7s-.2 3-.7 2.7c-.4-.3-.3.7.2 2.1 1.3 3.5 1.3 4.8-.2 3.9-.7-.4-1-.4-.6.1.8.8 14.5 1 18.3.2 1.8-.3 2-1.2 2-6.8v-6.4h-9.3c-5.2 0-9.5.2-9.6.5zm-233.3 3.8c-2 .3-2.3.9-2.3 5.3 0 3.2-.4 4.9-1.2 4.9-1 0-1 .2-.1.8.7.4 1.1 1.7 1.1 2.8-.2 1.9-.8 2.1-8.4 2s-8.2 0-7.8 1.8c.2 1.1-.2 2.6-.9 3.5-.9 1.2-.9 1.3.1.7.7-.4 1.2-.2 1.2.6s-.6 2-1.2 2.7c-.9 1-.9 1.2-.1.7.9-.5 1.1.5.9 3.6l-.2 4.3 8.2-.1c7.6-.2 8.2 0 7.9 1.7a11.2 11.2 0 0 1-1.1 3.1c-.4.6-.3.8.4.4s1.1 4.9 1.1 17.9c0 10.2.5 21 1.1 24s1.1 5.7 1 6c0 .3.6 1.3 1.5 2.1.8.9 1.2 2.1.8 2.7-.3.7-.3.9.2.5.4-.4 1.3-.1 2.1.6.8.8 2.8 1.2 4.9 1 2.6-.2 3.4 0 2.8.9-.4.8-.1.7 1-.1 1.8-1.5 4.1-.7 3.1 1-.4.7-.2.8.5.4.6-.4.9-1.2.6-1.7-.4-.5.3-.9 1.5-.9s1.9.4 1.5.9c-.3.5-.1 1.3.5 1.6.6.4.9.1.8-.7-.2-.7.4-1.3 1.2-1.3s1.4.6 1.2 1.3c-.1.8.2 1.1.8.7.6-.3.8-1.1.4-1.6-.4-.7.9-.9 3.2-.7 2.6.2 3.8.7 3.6 1.6-.1.8.2 1.1.8.7.6-.3.8-1.1.5-1.6-.4-.5.3-.9 1.5-.9s1.9.4 1.5.9c-.3.5-.1 1.3.5 1.6.6.4.9.1.8-.7-.2-.8 1-1.3 3.5-1.5 2.7-.2 3.6.1 3 1-.4.8-.1.7 1-.1 1.8-1.5 4.1-.7 3.1 1-.4.7-.2.8.5.4.6-.4.9-1.2.6-1.7-.4-.5.3-.9 1.5-.9 1.3 0 1.9.4 1.4 1.2-.5.7-.3.8.7.2.8-.5 2.7-.9 4.4-1s3.8-1.2 5.1-2.7c1.2-1.4 2.5-2.3 3-1.9.4.4.4.2.1-.4s.1-3 1-5.5c.8-2.4 1.7-8.6 2-13.7l.4-9.2-2.5-.1c-1.4-.1-3.5-.1-4.6-.1-10.7 0-10.7 0-10.2 3.3.4 2.5.2 3-.9 2.4s-1.2-.5-.1.6c.6.7 1.2 1.7 1.2 2.2 0 .4-.6.5-1.2.1-.9-.5-.9-.2.1.9 1.1 1.4 1.1 1.7 0 1.7-.9 0-1 .3-.4.8 1.7 1.2 1.7 3.5.1 2.9-.9-.4-1.8-.2-2.1.4-.4.5-.1.8.7.7 3.4-.7-.6 6.1-4.2 7.1-4.6 1.2-12.2 1.2-13.7 0-1.4-1.2-1.6-1.2-.9 0 .7 1.1 0 1.2-3.5.8-2.4-.3-5.2-.9-6.2-1.2-1.7-.7-1.7-.8 0-2.1 1.7-1.2 1.6-1.3-.4-.7-2 .4-2.3.1-2.3-2.1 0-3.3.3-4.2 1.3-3.8.5.1.6-.2.2-.8-.3-.6-1-.8-1.4-.6-.4.3-.8-1.7-.9-4.5 0-2.9.3-4.7.9-4.4.5.4.6 1.1.3 1.7-.5.7-.2.8.5.4.9-.6.9-1.2-.3-2.5-1.9-2.1-2.2-6.6-.3-5.5 1 .6 1 .4 0-.7-.7-.7-1.3-3.7-1.3-6.7 0-4 .3-5.1 1.3-4.6.9.6.9.4-.1-.8-.7-.9-1.2-3.8-1.1-6.7.2-4.4.4-4.9 1.8-3.8.9.7 1.2.8.8.1-.8-1.4 5.1-1.3 7.2 0 .9.6 1.2.5.8-.1s6.5-.9 19.7-.9c19.9.1 20.4.1 19.9-1.9-.2-1.1-.4-5-.4-8.8-.1-5.5-.4-6.7-1.7-6.7-1-.1-9.8-.2-19.7-.3-14.3-.2-17.9-.5-17.7-1.5.1-.8-.2-1.1-.8-.7-.6.3-.8 1-.5 1.5.3.4-1.6.7-4.3.6l-4.7-.1-.1-7.2c0-4-.3-7.5-.5-7.7-.6-.6-13.7-1.2-16.6-.8z"/><use x="-8" y="12" xlink:href="#H"/><use x="-91" y="-26" xlink:href="#K"/><path d="M483 575.4c0 .2.7.7 1.6 1 .8.3 1.2.2.9-.4-.6-1-2.5-1.4-2.5-.6z"/><use x="-220" y="20" xlink:href="#F"/><use x="-198" y="-6" xlink:href="#J"/><use x="83" y="158" xlink:href="#C"/><path d="M447 580a1.08 1.08 0 0 0 1 1c.6 0 1-.5 1-1a.94.94 0 0 0-1-1c-.5 0-1 .4-1 1zm-210.5 2c-.3.5-2.1.9-4 .8s-3.8.1-4.1.4c-.3.4-.6 5.6-.7 11.7 0 6-.4 10.8-.8 10.5-.4-.2-1.1 0-1.4.6-.4.6-.1.9.7.8.9-.2 1.4 1 1.6 3.6.2 2.3 0 3.6-.7 3.2-.5-.4-1.3-.2-1.6.4-.4.6-.1.9.7.8.9-.2 1.4 1.3 1.6 5.5.2 3.7-.1 5.7-.7 5.3-.5-.4-1.3-.2-1.6.4-.4.6-.1.9.7.8.9-.2 1.4 1.3 1.5 5.5.1 3.2-.2 5.5-.7 5.2s-1.2-.1-1.5.5c-.4.6-.1.9.6.8.7-.2 1.3 1.2 1.5 3.5.3 2.8 0 3.6-.9 3.1-.9-.6-.9-.5 0 .7.6.8 1.1 3.4 1.1 5.9-.1 9.2-.8 8.5 8.9 8.3l9.8-.2c.6-.1 1-1.8.9-3.9-.1-2 .3-4.3.9-5.1.9-1.2.9-1.3 0-.7-1.6.9-1.7-.6-.2-2.1.8-.8.8-1.3 0-1.7-.6-.4-1.1-1.2-1.1-1.7 0-.6.5-.7 1-.4.6.3 1 .1 1-.4 0-.6-.4-1.1-.8-1.1-.5 0-.9-1.3-.9-3 0-1.8.4-2.7 1.1-2.3.6.4.5-.1-.3-1.1-1.3-1.5-1.3-1.9 0-2.7.8-.5.9-.9.3-.9s-1.1-1.1-1.1-2.5.5-2.5 1.1-2.5.5-.4-.3-.9c-1-.7-1.1-1.3-.1-3.1.7-1.2.8-2 .2-1.6-.5.3-.9-.6-.9-1.9 0-1.4.5-2.5 1.1-2.5.7 0 .8-.3.1-.8-.6-.4-1.2-1.8-1.2-3-.2-1.8.2-2.2 1.5-1.8 1.4.5 1.3.3-.2-.9-1.7-1.2-1.7-1.7-.5-3.2.9-1.1 1-1.4.2-.9-2 1.1-1.5-1.5.5-3 1.6-1.3 1.6-1.4 0-.8-2.1.7-2.3-.6-.5-2.5 1-1.1 1-1.3 0-.7-.7.4-1.3.3-1.3-.1 0-.5.6-1.5 1.3-2.2 1-1.1 1-1.3 0-.7-.7.4-1.3.2-1.3-.3 0-.6.6-1.1 1.3-1.1.8 0 .8-.3-.2-.9-1.3-.8-1.3-1.2 0-2.7.9-1.1.9-1.5.2-1-.9.5-1.3 0-1.3-1.4 0-1.2.4-1.9.8-1.6.5.3.9-.1.9-.9s-.4-1.2-.9-.9c-.5.4-.8-.2-.6-1.2.3-1.6-.5-1.9-5-2.2-3-.2-5-.7-4.7-1.3.4-.5.4-.9.1-.9s-.8.4-1.1 1zm399.1.2c.3.4-.8.8-2.4.8-3.1 0-4.8 2-3 3.8.7.7.6 1.6-.1 2.9s-.7 2.3 0 3c.6.6.6 1.9 0 3.6-.6 1.5-.7 2.7-.3 2.7 1 0 .8 15.2-.2 16.9-.6.8-.5 1.2 0 .8 1.1-.7 1.2 5.3.1 7-.5.8-.4 1.3.2 1.3 1.3 0 1 2.2-.4 3.2-.7.5-.6.8 0 .8s1.1.9 1.2 2-.2 1.8-.6 1.6c-.4-.3-.8.1-.8.9s.4 1.5.8 1.5c.8 0 .4 9.4-.5 10.9-.4.6-.1 1.1.6 1.1.9 0 .9.3-.2 1-.8.5-1 1-.5 1 .6 0 1 1.9.9 4.2-.1 2.4-.3 4.3-.4 4.3s-.3.7-.5 1.5c-.2 1.2.5 1.5 3.3 1.2 2.5-.3 3.3-.1 2.7.7-.5.9-.1.8 1.4-.1 1.7-1.1 2.5-1.1 4.2 0 1.4.9 1.9.9 1.4.2-.5-.8.1-1.1 1.6-1 5.7.5 5.8.3 5.8-5.4-.1-3 .2-5.9.5-6.5.4-.5.2-1.2-.3-1.5s-.5-2.1-.1-4.1c.4-1.9.4-3.7 0-4s-.4-2 0-3.9.5-3.9.1-4.4c-.4-.6-.6-2.6-.5-4.4s.3-5.3.3-7.8c.3-12.9.4-13.6 2.1-13.2.8.2 1.1 0 .7-.5-.5-.4-1.4-.8-2-.8-1.2 0-1.7-4.4-.5-5.1.4-.3.5-1 .2-1.6-.4-.6-.6-4-.5-7.5l.2-6.3h-6.6c-3.6 0-6.4-.4-6.1-.8.3-.5-.1-.9-.9-.9s-1.2.4-.9.9zm-351.9 4.9c-1.9 1-3.9 2.4-4.3 3-.4.8-.9.7-1.6-.2-.7-1.1-.8-1.1-.6.1.4 2.2-3.4 6.7-5.2 6.3-1.2-.4-1.2-.2-.2.5s1.1 1.4.1 3.5c-.7 1.5-1.6 2.7-2 2.7s-.8.8-.8 1.7c0 2.2-.8 6.8-1.1 6.8-.4 0-.8 7.3-.9 15.5 0 8.2.2 10.4 1.5 17.9.5 2.6.4 3.2-.6 2.6-.9-.5-1.1-.4-.6.4.4.6 1.1.9 1.6.6s1.6.9 2.4 2.7c1.3 2.5 1.4 3.4.4 4.1-.9.6-.8.7.4.4 1.7-.6 4.2 1.5 3.1 2.6-.3.4 0 .7.8.7s2.7.7 4.2 1.5 2.5 1.1 2.3.6c-.3-.4 2-.8 5.2-.7 4.2.1 5.6.5 5.4 1.4-.1.8.2 1.1.8.7.6-.3.8-1.1.5-1.6-.4-.5.3-.9 1.5-.9s1.9.4 1.5.9c-.3.5-.1 1.3.5 1.6.6.4.9.1.8-.7-.2-1 3.4-1.3 17.4-1.4 13-.1 17.6.1 17.1 1-.5.8-.3.8.8 0 1.6-1.3 20.2-1.7 19.4-.4-.3.5-.1 1.2.5 1.5.6.4.9.1.8-.7-.2-.8.7-1.3 2.5-1.2 1.5 0 2.7-.4 2.7-.9 0-.4.5-.5 1-.2.6.4 1 .3.9-.2-.5-1.9 1.4-6.2 2.4-5.6.5.3.7.2.4-.4-.3-.5-.2-3.5.2-6.6.7-5.4.1-9.1-1.3-6.9-.3.6-2 .7-4.1.2-1.9-.4-3.5-.6-3.5-.3s-.8-.1-1.7-.8c-.9-.8-1.4-.9-1-.3.9 1.5-2.5 2.4-4.6 1.3-2-1.1-2.5-.2-2.9 4.5-.1 2.4-.6 3.5-1.5 3.2-.8-.3-1 .1-.6 1.1.5 1.2.2 1.5-.9 1-1-.3-1.9.1-2.2 1-.4.9-1.4 1.3-2.6 1-1.1-.3-2 0-2 .6 0 .7-.5.5-1-.3s-1-1-1-.5c0 .6-.9 1.1-2 1.2-1.3.1-1.8-.2-1.4-1 .5-.8.3-.8-.7 0-.9.9-5 1.3-12.7 1.3-8.8 0-11.2-.3-10.6-1.3.6-.9.4-.9-.7-.1-1.5 1.2-4.9 1.5-4.9.5 0-.3-1.4-.7-3.2-.7-1.8-.1-3.4-.6-3.6-1.3-.2-.6-1-1.1-1.8-1.1s-1.8-.8-2.1-1.8c-.4-.9-1.1-2-1.7-2.4-.7-.5-.5-.8.4-.8 1.2 0 1.2-.2.2-.9-1.2-.7-2-3.3-2.5-8.6-.2-1.6.4-2 2.8-1.9 1.7 0 3.3-.4 3.7-1 .5-.8.8-.7.8 0 0 .8 1.1.9 3.5.4 1.9-.4 3.7-.4 4 0 .3.5 1.8.5 3.3.1 1.5-.5 3.6-.5 4.7-.1s2.9.4 4.1 0c1.1-.5 2.7-.4 3.5 0 .8.6 1.6.5 2-.2.4-.6 1.2-.7 1.8-.4.6.4.8 1.3.4 1.9-.4.7.1.6 1-.2 1-.8 2-1.1 2.4-.8.3.4 1.3.2 2.3-.3s2.1-.6 2.4-.2c.4.4 1.5.7 2.4.7s1.6.6 1.4 1.3c-.1.8.2 1.1.8.7.6-.3.8-1.1.5-1.6-.4-.5.6-.9 2.2-1l4.8-.3c1.1 0 2.8.2 3.7.6.9.5 2 .4 2.3-.2.4-.7 1.3-.7 2.6 0 1 .6 1.9.7 1.9.3s.5-.1 1 .7c.8 1.3 1 1.2 1-.4 0-2 0-2 1.6 0 .8 1 1.3 1.3.9.6-.4-.8.3-1.2 2.4-1.2 4.1 0 6.1-.9 5.4-2.6-.3-.8-.1-1.4.4-1.4.9 0 .8-12.3-.1-17.4-1.2-6.4-4.2-13-8.3-17.8-2.4-2.7-4.3-4.6-4.3-4.3 0 .4-.7.2-1.5-.5s-3-1.5-4.8-1.7c-3.3-.5-4.4-.5-16.2-.4l-15 .2-9 .1c-.5 0-1.9-.3-2.9-.8-1.2-.4-1.7-.4-1.3.2.3.6-.5.9-2.1.8-10.4-1.1-12-1-15.5.7zm22.4 12.9c.9 1.3 1 1.3.6-.2-.5-1.5.7-1.6 13.1-1.4 12 .3 14.2.6 17.8 2.6 4.8 2.6 8 7.9 6.1 10-.9 1-.9 1.1 0 .6 1.6-.9 2.8 3.3 1.3 4.8-1 .8-1.4.8-1.7-.2-.3-.6-.9-1.2-1.4-1.2-.6 0-.7.4-.4 1 .3.5-.1 1-1 1s-1.4-.4-1.1-.8c.3-.5-.1-.9-.9-.9s-1.2.4-.9.8c.2.4-.9.7-2.5.7-1.9-.1-2.8-.5-2.4-1.2.5-.8.2-.8-.8 0-2 1.6-23.2 1.7-22.2.1.5-.9.3-.9-.8-.1-1.8 1.5-15.9 1.5-15.9 0 0-.8-.2-.8-.8 0-.4.6-1.9 1-3.4 1-1.9 0-2.6-.5-2.5-1.8.1-1 .8-1.8 1.7-1.8s1.1-.3.4-.8c-.6-.4-1.1-1.5-1.1-2.4 0-1.3.7-1.7 2.4-1.4 1.3.3 2.1.1 1.8-.5-.4-.5-1-.7-1.5-.4-1.9 1.2-1.8-1.4 0-3.5 1.1-1.3 2-1.9 2-1.5 0 .5.6.1 1.3-.9.7-.9 2.5-1.8 4-2 1.5-.1 2.9-.5 3.2-.8 1.1-1 4.6-.3 5.6 1.2z"/><use x="-340" y="42" xlink:href="#F"/><use x="-207" xlink:href="#K"/><use x="-209" y="276" xlink:href="#B"/><use x="-296" y="49" xlink:href="#F"/><use x="-58" y="188" xlink:href="#D"/><use x="238" y="52" xlink:href="#G"/><path d="M319.4 613.1c-.3.6-.2 1.5.3 2s.9.1.9-1.1c0-2.3-.2-2.4-1.2-.9z"/><use x="142" y="58" xlink:href="#E"/><path d="M324.7 614.1c.7.7 1.5 1 1.8.7s-.2-.9-1.2-1.2c-1.4-.6-1.5-.5-.6.5z"/><use x="-4" y="191" xlink:href="#D"/><path d="M68 599.4c0 .2.8 1 1.8 1.7 1.5 1.3 1.6 1.2.3-.4s-2.1-2.1-2.1-1.3zm320 2.6c.8.5 2 1 2.5 1 .6 0 .3-.5-.5-1s-1.9-1-2.5-1c-.5 0-.3.5.5 1zm47-.6c0 .2.7.7 1.6 1 .8.3 1.2.2.9-.4-.6-1-2.5-1.4-2.5-.6z"/><use x="-42" y="42" xlink:href="#H"/><path d="M69 603.9c0 .6.4 1.3 1 1.6s.7-.1.4-.9c-.7-1.8-1.4-2.1-1.4-.7z"/><use x="-113" y="276" xlink:href="#B"/><use x="-444" y="32" xlink:href="#I"/><use x="-142" y="6" xlink:href="#K"/><use x="96" y="40" xlink:href="#I"/><use x="-222" y="60" xlink:href="#F"/><use x="-218" y="61" xlink:href="#F"/><use x="-17" y="296" xlink:href="#B"/><path d="M391.3 627.5c0 .8.4 1.5.9 1.5.4 0 .8-.4.8-.9 0-.6-.4-1.2-.8-1.5-.5-.3-.9.1-.9.9zM249 629.9c0 .6.4 1.3 1 1.6s.7-.1.4-.9c-.7-1.8-1.4-2.1-1.4-.7z"/><use x="-126" y="71" xlink:href="#F"/><use x="244" y="76" xlink:href="#G"/><path d="M353.4 636.2c-.4.7-.4 1 .1.6.4-.4 1.5-.2 2.4.5 1.4 1.1 1.4 1 .2-.6-1.6-2-1.8-2.1-2.7-.5z"/><use x="110" y="82" xlink:href="#E"/><path d="M360.7 638.1c.7.7 1.5 1 1.8.7s-.2-.9-1.2-1.2c-1.4-.6-1.5-.5-.6.5zm58.8 1c-.4.6-.5 1.2-.2 1.5.2.3.7-.2 1-1.1.7-1.7.1-2-.8-.4z"/><use x="-11" y="226" xlink:href="#C"/><path d="M287.9 662.7c-1.3 1.6-1.2 1.7.4.4s2.1-2.1 1.3-2.1c-.2 0-1 .8-1.7 1.7z"/><use x="346" y="106" xlink:href="#E"/><path d="M440.6 679.7c-.4.5-1.3.8-1.9.8-.7 0-1.2.7-1.2 1.5s-.7 2.1-1.5 2.8c-1.3 1.2-1.3 1.3.1.9 1.3-.4 1.6.2 1.3 3.4-.1 2.1.1 3.9.6 3.9s.7-1.2.5-2.8c-.2-1.8.4-3.2 1.9-4.4l2.1-1.7-2.4.6c-2.1.5-2.2.4-1.2-1.5.6-1.1 1.6-2.2 2.3-2.5.7-.2 1-.7.7-1.1-.3-.3-.9-.3-1.3.1z"/><use x="344" y="120" xlink:href="#G"/><path d="M581 680.1c0 .6-.4.8-.9.4-1.7-1-3.9 2.3-3.4 5 .6 3 3.1 3.8 11.6 3.9 5.1.1 5.8.4 6.4 2.3.3 1.3.9 2.3 1.4 2.3s.3-1.2-.5-2.7c-1.3-2.5-2-2.8-7.3-3-9-.3-9.8-.6-9.8-3.8 0-2.2.5-2.9 2.4-3.2 3.1-.4 3.6-.9 1.6-1.6-.8-.4-1.5-.2-1.5.4z"/><use x="486" y="120" xlink:href="#G"/><path d="M588 680c0 .5.9.8 2 .7 2.1-.1 1.8-1-.5-1.3-.8-.1-1.5.2-1.5.6zm41.8 1.4c-1.9 2.1-2.5 5.1-.7 4.1.6-.4.8-.9.5-1.2s.2-1.3 1.1-2.1c1.1-1.1 3.1-1.6 6.4-1.4 2.7.1 4.9-.2 4.9-.6s-2.3-.7-5.2-.7c-3.8 0-5.6.5-7 1.9zm13.2-1.3c0 .5.9.9 1.9.9 1.8 0 3.6 2.5 3.2 4.3-.1.5.3.6.9.2.8-.5.8-1.1.1-1.9-.6-.7-.8-1.5-.5-1.8s-.9-1-2.5-1.6c-1.9-.7-3.1-.7-3.1-.1zm-547.7 8.4c0 4.7.3 8.5.6 8.6 3.2.6 15.1.7 15.5.1.2-.4-2.9-.7-7-.7-4.2 0-7.5-.4-7.7-1-.2-.5-.2-4-.1-7.8.1-3.7-.2-6.9-.6-7.2-.4-.2-.7 3.4-.7 8z"/><use x="-377" y="121" xlink:href="#H"/><path d="M144.5 688.6c0 4.6.4 8.6.9 9.1.4.4.7-.1.5-1.2s.1-2.6.6-3.4c.5-1 .4-1.6-.4-1.9-.9-.3-.9-.7 0-1.8.6-.8.8-1.4.3-1.4-.4 0 .1-.7 1.2-1.5 1.7-1.4 1.7-1.4.1-.9-1.6.6-1.8.2-1.4-2.3.3-1.8 0-3-.7-3-.8 0-1.1 2.7-1.1 8.3z"/><use x="-261" y="121" xlink:href="#H"/><path d="M260.9 681c-.1.5-.1 2.1-.1 3.5 0 4.6.2 5.6 1.1 5 1.2-.7 1.1-6.5 0-6.5-.5 0-.6-.7-.3-1.5.4-.8.3-1.5 0-1.5s-.7.4-.7 1zm103.6.9c.4 1.9-.4 2.5-3 2.2-.5-.1-.1.6 1 1.4 1.1.9 2.6 1.3 3.5.9.8-.3 3.2-.6 5.2-.7 2.1 0 3.6-.3 3.3-.6-.2-.4-2.2-.6-4.4-.4-2.3.1-4.2-.2-4.2-.8l-.3-1.8c0-.5-.4-1.3-.8-1.7-.4-.3-.6.3-.3 1.5z"/><use x="281" y="121" xlink:href="#G"/><path d="M593.9 681.3c.6.8.9 1.6.6 1.9-.3.2.1.5.9.5 1.1 0 1.2-.4.3-1.9-.7-1-1.6-1.8-2.1-1.8-.4 0-.3.6.3 1.3zm8.6 7.5v8.7h8.5c10.9-.1 12-.5 12-5 0-2-.4-3.4-.9-3-1.5.9-2.2-1.2-.8-2.4.8-.6 1.3-2.1 1.2-3.3-.2-2.7-5.8-4.9-7.7-3-.8.8-.5.9 1.1.5 4.3-1.1 7.3 4.9 3 6.2-2.1.7-2.1.7.2 1.9 2.5 1.2 3.4 5.1 1.5 6.3-.6.4-4.4.8-8.4.9-6.2.1-7.4-.2-8.3-1.7-.7-1.3-.6-1.9.1-1.9.6 0 .8-.5.5-1-1.1-1.7 1.4-3.8 3.7-3.2 1.4.3 1.9.1 1.4-.6-.3-.6-1.5-.9-2.6-.7-2.3.4-4.8-3-2.7-3.8.8-.4.8-.6-.2-.6-1.2-.1-1.1-.4.3-1.4 1.6-1.2 1.6-1.3-.1-1.4-1.6-.1-1.8.8-1.8 8.5zm2-.9c.3.5.2 1.2-.3 1.5s-.9-.1-.9-.9c0-1.7.3-1.9 1.2-.6zm3.1-7c.8.8 5.4.7 5.4-.1 0-.5-1.3-.7-3-.6-1.6.1-2.7.4-2.4.7zM80 682.8c0 2.4-1.9 4.2-3.9 3.5-1.3-.4-1.4-.3-.1.5.8.6 1.8.8 2.2.6.4-.3.8.1.8.8 0 1 .2 1 .9 0 .9-1.5 2-1.5 3.9 0 .8.7.9 1.5.2 2.3-1.2 1.5-2.1 9.7-1 9 .5-.3.7-1.4.5-2.5-.3-1.5.4-2.2 2.8-3 2.7-.8 2.8-.9.5-.6-2.4.3-2.5.1-1.8-2 .5-1.2.6-2.5.3-2.8-.6-.6 1.2-1 3-.7.4 0 .7-.3.7-.9s-.5-1-1.1-1c-.7 0-.9-1-.6-2.5.5-2.9 0-2.6-1.7.6-1.2 2.3-4.2 3.4-5.2 1.8-.3-.5-.1-.9.3-.9.5 0 .9-.9.9-2s-.4-2-.8-2-.8.8-.8 1.8zm7 3.6c0 .2-.7.7-1.6 1-.8.3-1.2.2-.9-.4.6-1 2.5-1.4 2.5-.6zm80.5-4.5c.3.5-.4 1.6-1.5 2.4-1.9 1.3-1.4 1.4 4.9 1.4 3.8-.1 6.8-.4 6.6-.7-.2-.4-2.7-.5-5.5-.4-3.8.1-4.9-.1-4.1-.9 1.4-1.4 1.4-2.7 0-2.7-.5 0-.8.4-.4.9zm115.7.6c.2 1.2-.2 1.9-.9 1.7-.7-.1-1.3.2-1.3.8a1.08 1.08 0 0 0 1 1c.6 0 1 .7 1 1.5s.5 1.5 1 1.5c.6 0 .9-.6.8-1.3-.2-.7 1.2-1.3 3.7-1.5 2.2-.2 4.3-.7 4.7-1.1.5-.4-.8-.5-2.9-.3-2.9.4-4 0-5.5-1.9-1.7-2.2-1.8-2.2-1.6-.4zm1.8 2.5c0 .5-.5 1-1.1 1-.5 0-.7-.5-.4-1 .3-.6.8-1 1.1-1 .2 0 .4.4.4 1zm28.4 1c0 2.2.3 4 .6 4 .4 0 .7-1.8.7-4s-.3-4-.6-4c-.4 0-.7 1.8-.7 4zm-196.8.2c-.6 3-.3 10.5.5 11.3.4.3.6-2.6.6-6.5-.1-7.3-.4-8.5-1.1-4.8zm9.6-.9c-1.2.6-2.2 1.5-2.3 2.1 0 .6-.2 1.9-.4 2.8-.2 1 .1 1.8.6 1.8.9 0 1.3-1.4 1-3.7-.3-2.5 6.4-3.7 11.4-2 1.5.5 2 1.6 2 4.2 0 1.9-.4 3.5-.8 3.5-.5 0-.5.4-.2 1 .3.5 0 1-.7 1-.8 0-.6.4.4 1.1 1.4.8 1.5 1.3.6 2.8-.8 1.4-2.2 1.8-5.8 1.6-2.6-.1-5.2-.5-5.7-.8s-1 0-1 .7c0 1.7 11.1 1.6 12.9-.2 1.4-1.4 2-16 .6-16.8-.4-.3-.8 0-.8.6s-.5.8-1.2.4c-1.8-1.1-8.1-1.2-10.6-.1zm24.2-.1c-.3.5.6.7 1.9.4 4.2-.7 6.2 1.5 6.2 7.1 0 2.8.4 4.6 1 4.3s.8-1 .6-1.5c-.2-.6-.4-2.9-.4-5.2-.1-2.4-.5-4.1-1.1-4s-1-.3-.9-.8c.2-1.3-6.5-1.6-7.3-.3zm42.6 1.5c-.7 1.5-1.4 3.4-1.6 4-.4 2.2.6 1.4 1.6-1.2.8-2.2 3.2-3.6 2.9-1.8-.1.5 0 1 .1 1.3s.3 1.2.5 2c1.2 5.8 3.5 8.4 5.1 5.8.5-.8.2-.9-.9-.5s-1.7.1-1.7-.8c0-.7-.5-2.6-1.2-4.2l-1.2-3.3c-.1-.3-.6-1.3-1.2-2.3-.9-1.6-1.2-1.5-2.4 1zm19.7-.3c-2.6 2.6-2.9 6.7-.6 7.4 1.1.3 1.1.1-.1-.7-1.6-1.1-1.3-1.2 3.9-1.5 1.6 0 3.2-.4 3.5-.7.4-.3-.6-.5-2.1-.4-4.1.3-5.8-1.3-3.7-3.6.9-1 2.1-1.6 2.5-1.3.5.3.9 0 .9-.5 0-1.8-1.8-1.2-4.3 1.3zm5.8-1.4c.3.5 1.1.7 1.8.5 2-.7 4.8 2 4.1 3.9-.4 1-1.3 1.5-2 1.2-.8-.3-1.4-.1-1.4.4s1 .9 2.3.8c2.7-.2 3.5-3.9 1.2-5.8-1.8-1.5-6.8-2.3-6-1zm14.4-.3c-.6 3.3-.4 12.5.1 12.8.4.3.8-2.7.7-6.5 0-3.9-.2-7-.3-7-.2 0-.5.3-.5.7zm9.3.4c-1.3.5-2 1.3-1.7 1.9.3.5.2 1-.3 1-1.1 0-1 7.6.1 8.7 1.5 1.4 8.1 1.9 11.4.9 1.6-.5 2.1-.3 1.9.8-.1.9-.5 1.8-.9 2.2-1.1 1.1-7.9 1.3-10.6.3-2.4-.8-2.5-.8-.7.5 2.5 2 10.7 1.7 12.3-.4 1.2-1.7 1.6-5.7 1.3-13-.1-3.5-.3-4-1-2.4-.4 1.1-.7 3.7-.5 5.7.6 5.3-1.5 6.3-11 5.5-1.5-.1-1.8-.8-1.7-4.3.2-4.7.7-6.5 1.9-6.6 5.2-.5 8-.4 9.1.4.8.6 1.2.6 1.2-.2 0-1.2-.1-1.3-5-1.6-1.9-.1-4.6.2-5.8.6zm23.8-.3c0 .5.7.9 1.5.9s1.5-.4 1.5-.9c0-.4-.7-.8-1.5-.8s-1.5.4-1.5.8zm5.5.9c1.1.7 2.2 1.3 2.6 1.3s.5 2.2.3 5c-.2 2.9.1 5.2.8 5.6s.8.3.4-.5c-.4-.6-.2-1.8.4-2.6.7-.8.8-1.5.3-1.5s-.8-1.3-.7-2.9c.2-3.7-.9-5.4-3.7-5.6-2.1-.2-2.1-.1-.4 1.2zm50.2-1c-.4.3-.7 3-.7 5.9 0 4.2.4 5.5 1.9 6.4 2.5 1.3 4.1 1.3 4.1-.1 0-.5-.5-.7-1-.4-2.3 1.4-3.7-1.5-3.5-7V684c-.1 0-.5.3-.8.7zm13.1 0c-.8 1.7-.2 12.3.6 12.5 1.2.4 1.5-4.1.4-4.8-.5-.3-.4-1.2.2-1.9.8-1 .8-1.5-.1-2-.8-.6-.7-1 .2-1.6 1.1-.7 1.1-.9.1-.9-.7 0-1-.5-.7-1 .3-.6.4-1 .1-1s-.6.3-.8.7zm10 .1c-1 .2-1.8.8-1.8 1.3 0 .6-.4.7-1 .4-.6-.4-1 .5-1 1.9s.5 2.6 1.1 2.6.9-.7.5-1.5c-.6-1.7 3-4.6 5-3.8.8.3 1.4.1 1.4-.4 0-1-1.3-1.2-4.2-.5zm5.6-.1c.4.4 1.2.8 1.9.9s2.1.5 3.2 1c1.4.5 1.7.4 1-.4-.5-.6-2.3-1.3-3.9-1.6s-2.6-.2-2.2.1zm30.4 1c-.4 5.2-.3 11.5.3 11.9.4.2.6-.4.4-1.3-.1-1 .3-2.4.9-3.2.8-1.1.8-1.3-.1-.8-.9.6-1.1-.4-.6-3.8.3-2.5.2-4.5-.1-4.5s-.7.8-.8 1.7zm10.2-.8c0 .3 1.8.7 4 .7 2.3.1 4.8.9 6 1.9 2.4 2.1 2.7 1.1.4-1.2-1.5-1.6-10.4-2.7-10.4-1.4zm18.3 1.9c-1.3 1.4-2.1 2.7-1.8 3 .2.3 1.3-.6 2.4-1.9 1.3-1.6 3-2.4 5.5-2.4 2-.1 3.6.2 3.6.5 0 .4.7.7 1.5.7 1.8 0 2-1.7.3-1.8-8-.7-9.3-.5-11.5 1.9z"/><use xlink:href="#L"/><path d="M472.5 685.1c-.3.4-1.3.6-2.3.4-1.5-.3-1.8.5-1.7 5.9 0 3.8.4 6.3 1.1 6.3.6 0 1.1-.6 1.1-1.4 0-.7-.5-1.3-1-1.3s-.4-.7.3-1.5c.9-1.1 1-1.9.1-2.8-1.6-2 2.6-5.3 6.6-5.2 1.8.1 3-.1 2.7-.4-.9-.9-6.4-.9-6.9 0zm33 .5c-.9.9-1.4 2.3-1.1 3 .3.8.1 1.4-.4 1.4s-1.6 1.6-2.5 3.6c-1.2 3-1.7 3.3-2.9 2.2-.8-.7-1.3-1.5-1.3-1.8.3-1.1-2.6-7-3.5-7-.5 0-.6-.5-.3-1 .3-.6.1-1-.4-1-1.6 0-1.3 1.4.9 4 1.1 1.2 1.7 2.7 1.4 3.1-.3.5 0 .9.7.9s.9.3.6.7c-.4.3.2 1.6 1.4 2.9l2 2.2-3 1.3c-1.7.8-3.1 1.7-3.1 2.2 0 .4.8.3 1.9-.2 1-.6 2.1-.8 2.4-.5s1.7-1.7 3.1-4.5 2.2-5.1 1.8-5.1.1-.5 1-1.1c1-.5 1.5-1.6 1.2-2.4-.4-.8-.2-1.5.4-1.5.5 0 1.2-.7 1.6-1.5.7-1.9.1-1.9-1.9.1z"/><use x="64" xlink:href="#L"/><path d="M556.5 685c-1.1.4-2.3.6-2.7.3-.5-.2-.7.7-.6 2.1.1 1.5.6 2.6 1.1 2.6s.7-.6.4-1.4c-.6-1.6 2.8-3.3 6.1-3 3.9.3 4 .4 4.5 2.1.4 1.4.5 1.2.6-.5 0-1.2-.5-2.2-1.1-2.3-.7-.1-2.4-.2-3.8-.3-1.4-.2-3.5 0-4.5.4zm-373.1 2.2c.9 1.2 1.6 3 1.6 4s.5 1.8 1 1.8c.6 0 .9.3.9.7-.4 2.6.3 4.1 1.8 3.9 1.8-.3 3.9-4.6 2.3-4.6-1 0-1.4 1.5-1 3.5.2 1.4-2.3-1.2-2.7-2.7-.9-4.5-3-8.8-4.1-8.8-1 0-1 .5.2 2.2zm21.2-.7c.4.8.7 1.5.9 1.5s.5-.7.9-1.5c.3-.9 0-1.5-.9-1.5s-1.2.6-.9 1.5zm183.5.8c-.9 2.4-.8 8.4.3 9.4.7.8 10.3 1.7 9.6 1-.3-.4-2.3-.7-4.4-.9-5.1-.3-6.2-3.1-4.1-9.9.9-2.7-.4-2.4-1.4.4zm61.1-1c-1.4 1.6-1 8 .5 9.9 1.3 1.6 10 2.3 12 1.1.6-.5-1.4-.7-4.5-.6-3.3.1-6.1-.4-6.7-1-1.6-1.9-1.3-8.1.4-9.4.9-.7 1.1-1.3.5-1.3s-1.6.6-2.2 1.3zm64.1.1c-1.4 1.7-1.2 7.8.4 9.8 1.3 1.6 10 2.3 12 1.1.6-.5-1.4-.7-4.4-.6-3.1 0-6.1-.4-6.8-1-1.5-1.5-1.3-7 .4-9.1 1.6-1.9.1-2.1-1.6-.2zm19.2 3.6c.2 5 1 7 2.7 7 .7 0 .7-.4-.1-1.3-.6-.8-.8-1.7-.4-2 .3-.4.1-.7-.5-.7-.7 0-1.2-.5-1.2-1.1 0-.5.6-.7 1.3-.3.9.6.9.5 0-.8-.7-.8-1-1.8-.6-2.2 1.2-1.2 1.1-3.3-.2-3.3-.8 0-1.1 1.6-1 4.7zm13.9-2c.1 1.6.6 3.3 1.1 3.7.4.4.5.2.1-.5s-.2-1.2.6-1.2c1 0 1-.2-.1-.9-.9-.6-1-1.1-.2-1.5 1.2-.8.6-2.6-.9-2.6-.5 0-.7 1.3-.6 3zm-65.9-1.1c-.3.5-.1 1.2.5 1.6.5.3 1-.1 1-.9 0-1.8-.6-2.1-1.5-.7zm-313.2 2.5c0 1.4.3 2.6.8 2.6 1.1 0 1.1-2.1 0-3.9-.6-.9-.8-.5-.8 1.3zm443.7-1.2c0 .5 1.1.8 2.5.8s2.5-.3 2.5-.8c0-.4-1.1-.7-2.5-.7s-2.5.3-2.5.7zm17.2 2.8c0 2.2.4 4 .9 4 .6 0 .8.4.4.9-.3.5-.1 1.2.4 1.5 1.6 1.1 2.2-1.1.6-2.4-1-.8-1.3-2.4-1.1-4.6.3-1.9.1-3.4-.4-3.4-.4 0-.8 1.8-.8 4z"/><use x="48" y="133" xlink:href="#E"/><path d="M364.3 689.3c.4 1 .1 1.7-.6 1.7-.8 0-.9.3-.1.8.6.4 1 1.7.9 2.9s.2 2 .6 1.7c.4-.2 1.1 0 1.4.6.9 1.4 6.6.5 7.6-1.2 1.2-1.8 1.1-2.8-.2-2.8-.5 0-.8.3-.6.7.7 1.1-1.4 2.8-4 3.1-2.6.4-3.4-.8-3.5-4.8-.1-1.7-.6-3.4-1.1-3.7-.6-.4-.8 0-.4 1zm57.3 0c.4 1.1-.5 1.4-3.8 1.4-7.2 0-11.4.4-9.9 1 .9.4 1 .8.2 1.2-1.5.9 2.4 5.1 4.7 5.1 1.2 0 1-.4-.7-1.3-5.7-2.8-2.4-5.6 6.1-5.1 3.6.2 4.8-.1 4.8-1.1 0-.8-.4-1.7-1-2-.5-.3-.7 0-.4.8zm-343.3 1.9c.1.7-.6 1.3-1.5 1.3s-2 .4-2.5.9c-.4.5-.3.6.5.2.7-.4 1.2-.2 1.2.5 0 .8.4.8 1.5-.1 1.9-1.6 2-.2.1 1.9-1.1 1.2-1.2 2.1-.5 3.1.9 1.3 1 1.2.5-.2-.3-1.1.4-2.5 2.1-3.8 1.8-1.4 2.1-2 1-2-1 0-1.4-.6-1.1-1.5.4-.8.1-1.5-.5-1.5s-1 .6-.8 1.2zm205.3 1.5l.3 3.4c.2 1.3 5 1.9 7.3 1 1.5-.5 2.4-1.8 2.5-3.2.2-1.8 0-2-.7-.9-.5.8-.7 1.7-.4 2.1.6 1-4.1 2-6 1.3-1.5-.6-2-2.3-1.7-5.2.1-.6-.2-1.2-.7-1.2s-.8 1.2-.6 2.7zm61-1.6c.2.3 1.8.5 3.6.4s3.9.3 4.6.8c.9.7 1.1.6.7-.5s-1.9-1.5-5-1.4c-2.4 0-4.2.4-3.9.7zm10.3.6c.9 1.9.8 2.5-1.1 4.3-1.4 1.3-1.7 2-.8 1.8 3.6-.8 4.7-4.6 1.9-7.2-.9-.8-.9-.6 0 1.1zm108-1.5c-.6 1.3-.5 4.8.1 4.8 1.2 0 1.9-3.9.9-4.6-.5-.3-1-.4-1-.2zm63.7.5c-1.1 1.1-.7 4.3.6 4.3.6 0 .8-.3.5-.7-.4-.3-.2-1.2.4-1.9 1-1.3-.3-2.9-1.5-1.7zm-325 1.9c-.8 2.2-.8 2.4.6 2.4.6 0 .8-.3.5-.7-.4-.3.1-1.2 1.1-1.9 1.5-1.2 1.5-1.3.1-1.4-.9 0-2 .7-2.3 1.6zm58.8.6c.3 1.3.5 2.9.5 3.6.1.7.6 1 1.1.7.8-.5.8-1.1 0-2s-.8-1.5 0-2c1.5-.9 1.2-2.5-.5-2.5-1 0-1.4.7-1.1 2.2zm38.3-1.5c-.2.5-.1 1.9.3 3.3.5 2.3.6 2.4 1.4.5.4-1.2.3-2.1-.3-2.3s-.9-.8-.5-1.3c.3-.5.3-.9 0-.9s-.7.3-.9.7zm14.8 1.3c.4 1.2.2 2-.5 2-.6 0-.8.5-.4 1.1.4.8 0 .9-1.5.4-1.1-.3-2.1-.2-2.1.3 0 1.5 4 .9 5-.8 1.3-2 1.2-5-.1-5-.6 0-.8.9-.4 2zm239.7 1.5c0 1.9.3 3.3.7 3.1 1-.7 1.2-6.6.2-6.6-.5 0-.9 1.6-.9 3.5zM176.9 693c-.1.5-.2 1.6-.3 2.2-.1.8-1.3 1.2-2.9 1.1-1.5-.1-2.7.2-2.7.6 0 1 4.6.8 5.6-.2.9-.9 1.6-4.7.9-4.7-.3 0-.6.4-.6 1zm471.6 0c-.3.5-.3 1 .2 1 2.3 0-4.2 3.1-6.7 3.2-1.7.1-3 .5-3 .9s1 .6 2.3.4c5.7-1.1 7.7-1.7 7.8-2.3 0-.4.2-1.5.4-2.5.4-1.9-.1-2.2-1-.7zm-524.7.7c.6.2 1 .9.7 1.3-.7 1.1 3.2 3.3 4.8 2.6.7-.2.4-.5-.5-.5-1-.1-2.2-1-2.8-2.1s-1.6-2-2.3-1.9c-.9 0-.9.2.1.6zm43.6 1c.2.9.8 1.9 1.4 2.1s.8-.5.5-1.7c-.6-2.5-2.2-2.8-1.9-.4zm378.6.2c0 1.1.5 2.3 1 2.6.6.3 1-.1 1-.9l.1-2.3c0-.4-.4-.9-1-1.1s-1.1.5-1.1 1.7zm30.7-.6c-.9 2.4 2.3 3.8 8.6 3.8 6.2.1 8.3-.3 9.9-1.9s-.3-1.6-3.5.1c-1.5.8-3.7 1.3-4.9 1.1-1.3-.1-3.5-.3-4.9-.3-1.7-.1-2.9-.9-3.6-2.3-.8-1.9-1-1.9-1.6-.5zm-175.9.8c-1.9 1.1-2.4 2.9-.8 2.9.5 0 1.4-.9 2-2 1.2-2.3 1.2-2.3-1.2-.9zm20.4.1c.2.8-.9 1.4-2.9 1.6-1.8.2-3.3.7-3.3 1.1s1.3.6 3 .3c3.4-.5 5.7-2.6 4-3.7-.6-.4-.9-.1-.8.7zm15.8.8c0 1.1.4 2 .8 2s.8-.9.8-2-.4-2-.8-2-.8.9-.8 2zm-225.1.3c1.6 2.1 12.7 2.2 13.4.2.4-.8.2-1.5-.3-1.5-.6 0-1 .5-1 1.1s-2.2.9-5.5.8c-3-.1-5.5-.6-5.5-1.1 0-.4-.5-.8-1.1-.8-.8 0-.8.4 0 1.3zm130.1.2c.8 1 2.7 1.4 5.4 1.3l4.1-.1-4.2-.4c-2.4-.2-4.3-.8-4.3-1.4 0-.5-.5-.9-1.1-.9-.8 0-.8.5.1 1.5zm-208.5.4c-.3.6-1.1.9-1.6.6-.5-.4-.9-.1-.9.4 0 1.3 1 1.4 3 .1.8-.5 1.2-1.2.8-1.5-.3-.4-.9-.1-1.3.4zm167.5.1c0 .5 1.6.8 3.6.8 1.9 0 3.4-.2 3.1-.4-.8-.8-6.7-1.1-6.7-.4zm29 0c-2.3.7-2.3.8-.3.9 1.2.1 2.5-.4 2.8-.9.3-.6.5-1 .3-.9s-1.4.5-2.8.9zm207 .2c0 .5 1.5.8 3.4.8s3.7-.3 3.9-.8c.3-.4-1.2-.7-3.4-.7-2.1 0-3.9.3-3.9.7zm96 .7c0 .4 1.1.6 2.5.3 1.4-.2 2.5-.6 2.5-.8s-1.1-.4-2.5-.4-2.5.4-2.5.9z"/><defs><path id="B" d="M502 330.1c0 .5.5.7 1 .4.6-.3 1-.8 1-1.1 0-.2-.4-.4-1-.4-.5 0-1 .5-1 1.1z"/><path id="C" d="M343.5 422c-.3.6.1.7.9.4 1.8-.7 2.1-1.4.7-1.4-.6 0-1.3.4-1.6 1z"/><path id="D" d="M347.6 423.3c.3 1 .9 1.5 1.2 1.2s0-1.1-.7-1.8c-1-.9-1.1-.8-.5.6z"/><path id="E" d="M155 556c0 .5.5 1 1.1 1 .5 0 .7-.5.4-1-.3-.6-.8-1-1.1-1-.2 0-.4.4-.4 1z"/><path id="F" d="M637.3 559.5c0 .8.4 1.2.9.9s.6-1 .3-1.5c-.9-1.3-1.2-1.1-1.2.6z"/><path id="G" d="M99.5 560c-.3.5-.1 1 .4 1 .6 0 1.1-.5 1.1-1 0-.6-.2-1-.4-1-.3 0-.8.4-1.1 1z"/><path id="H" d="M493.5 560c.3.5.8 1 1.1 1 .2 0 .4-.5.4-1 0-.6-.5-1-1.1-1-.5 0-.7.4-.4 1z"/><path id="I" d="M512 576c-.9.6-1 1-.3 1 .6 0 1.5-.5 1.8-1 .8-1.2.4-1.2-1.5 0z"/><path id="J" d="M589.6 585.8c-.3.5.1.9.9.9s1.2-.4.9-.9c-.3-.4-.7-.8-.9-.8s-.6.4-.9.8z"/><path id="K" d="M508.6 602.2c.3.5 1 .6 1.5.3 1.3-.9 1.1-1.2-.6-1.2-.8 0-1.2.4-.9.9z"/><path id="L" d="M453 684.9c0 .4 1.2.7 2.8.6 3.2-.2 7.4 1.4 6.6 2.6-.3.5 0 .9.5.9 1.5 0 1.4-1.5-.3-2.9-1.6-1.4-9.6-2.4-9.6-1.2z"/></defs></svg>