<?xml version="1.0" encoding="UTF-8" standalone="no"?>
<svg
   id="svg"
   version="1.1"
   width="512"
   height="512"
   viewBox="0, 0, 400,400"
   sodipodi:docname="netboot.svg"
   inkscape:version="1.1.1 (3bf5ae0d25, 2021-09-20)"
   xmlns:inkscape="http://www.inkscape.org/namespaces/inkscape"
   xmlns:sodipodi="http://sodipodi.sourceforge.net/DTD/sodipodi-0.dtd"
   xmlns="http://www.w3.org/2000/svg"
   xmlns:svg="http://www.w3.org/2000/svg">
  <defs
     id="defs9" />
  <sodipodi:namedview
     id="namedview7"
     pagecolor="#ffffff"
     bordercolor="#666666"
     borderopacity="1.0"
     inkscape:pageshadow="2"
     inkscape:pageopacity="0.0"
     inkscape:pagecheckerboard="0"
     showgrid="false"
     inkscape:zoom="1.7050781"
     inkscape:cx="251.30813"
     inkscape:cy="256"
     inkscape:window-width="3440"
     inkscape:window-height="1417"
     inkscape:window-x="0"
     inkscape:window-y="0"
     inkscape:window-maximized="1"
     inkscape:current-layer="svg" />
  <g
     id="svgg"
     transform="matrix(1.3947804,0,0,1.3947804,-78.956483,-78.956877)">
    <path
       id="path0"
       d="m 84,107.129 c -2.225,0.829 -5.61,4.156 -6.405,6.297 -0.505,1.358 -0.601,12.627 -0.696,82.266 l -0.11,80.692 -8.295,0.108 -8.294,0.108 -0.115,3.008 -0.115,3.008 6.992,5.492 6.993,5.492 H 199.997 326.04 l 6.996,-5.456 6.996,-5.456 -0.116,-3.044 -0.116,-3.044 -8.295,-0.108 -8.295,-0.108 -0.105,-80.892 c -0.118,-90.687 0.196,-82.065 -3.112,-85.653 -3.522,-3.821 9.8,-3.443 -120.108,-3.41 -105.717,0.028 -114.217,0.079 -115.885,0.7 m 229.874,8.541 0.926,0.869 v 79.931 79.93 h -44.61 -44.61 l -0.417,1.098 c -0.765,2.012 -2.447,3.778 -4.516,4.741 l -2.047,0.953 -18.513,0.004 c -19.958,0.004 -19.821,0.017 -22.667,-2.154 -0.673,-0.513 -1.641,-1.768 -2.15,-2.788 L 174.344,276.4 H 129.772 85.2 v -79.746 -79.746 l 0.829,-1.054 0.829,-1.054 h 113.045 113.045 l 0.926,0.87 M 206.68,135.5 c -0.353,0.825 -1.122,2.76 -1.708,4.3 -1.434,3.763 -2.637,6.897 -5.992,15.6 -0.509,1.32 -1.58,4.11 -2.38,6.2 -0.8,2.09 -1.907,4.97 -2.46,6.4 -1.497,3.871 -2.885,7.485 -3.996,10.4 -0.545,1.43 -1.341,3.443 -1.768,4.474 -1.114,2.689 -1.089,2.726 1.81,2.726 2.897,0 2.876,0.018 4.222,-3.739 0.406,-1.134 1.303,-3.501 1.992,-5.261 0.689,-1.76 1.589,-4.1 2,-5.2 0.411,-1.1 1.311,-3.44 2,-5.2 0.689,-1.76 1.589,-4.1 2,-5.2 0.411,-1.1 1.311,-3.44 2,-5.2 0.689,-1.76 1.589,-4.1 2,-5.2 0.411,-1.1 1.311,-3.44 2,-5.2 0.689,-1.76 1.589,-4.1 1.999,-5.2 0.409,-1.1 1.117,-2.945 1.571,-4.1 l 0.827,-2.1 h -2.738 -2.738 l -0.641,1.5 m -26.346,10.839 c -1.614,0.846 -7.524,3.894 -13.134,6.774 -5.61,2.88 -11.685,6.007 -13.5,6.948 l -3.3,1.712 v 2.057 2.056 l 3.7,1.91 c 2.035,1.05 6.22,3.214 9.3,4.809 12.015,6.221 19.812,10.195 20.002,10.195 0.109,0 0.198,-1.233 0.198,-2.74 v -2.74 l -13.064,-6.56 c -7.186,-3.608 -13.05,-6.74 -13.032,-6.96 0.018,-0.22 5.897,-3.348 13.064,-6.951 l 13.032,-6.551 v -2.749 c 0,-1.512 -0.075,-2.749 -0.166,-2.749 -0.091,0 -1.486,0.692 -3.1,1.539 m 36.066,1.203 v 2.743 l 13.42,6.663 c 7.381,3.665 13.336,6.795 13.232,6.957 -0.103,0.162 -6.142,3.263 -13.42,6.89 L 216.4,177.39 v 2.705 c 0,1.488 0.102,2.705 0.226,2.705 0.198,0 9.535,-4.749 27.374,-13.923 l 5.4,-2.777 v -2.281 -2.281 l -7.8,-3.995 c -4.29,-2.198 -11.631,-5.964 -16.314,-8.369 -4.683,-2.406 -8.598,-4.374 -8.7,-4.374 -0.102,0 -0.186,1.234 -0.186,2.742 M 155.2,203.8 v 2.6 h 14.4 14.4 v -2.6 -2.6 h -14.4 -14.4 v 2.6 m 42,0 v 2.6 h 5.2 5.2 v -2.6 -2.6 h -5.2 -5.2 v 2.6 m 23.6,0 v 2.6 h 5 5 v -2.6 -2.6 h -5 -5 v 2.6 m -65.432,7.14 c -0.118,0.306 -0.158,1.524 -0.091,2.708 l 0.123,2.152 9.718,0.107 9.719,0.107 -0.119,-2.707 -0.118,-2.707 -9.51,-0.107 c -7.813,-0.088 -9.548,-0.009 -9.722,0.447 m 28.106,-0.28 c -0.151,0.15 -0.274,1.417 -0.274,2.814 v 2.54 l 9.7,-0.107 9.7,-0.107 v -2.6 -2.6 l -9.426,-0.107 c -5.185,-0.059 -9.55,0.016 -9.7,0.167 m 23.326,2.54 v 2.8 h 9.6 9.6 v -2.8 -2.8 h -9.6 -9.6 v 2.8 m 28,0 v 2.8 h 9.6 9.6 v -2.8 -2.8 h -9.6 -9.6 v 2.8 m -74,10.2 v 2.6 h 9 9 v -2.6 -2.6 h -9 -9 v 2.6 m -5.6,8.4 v 2.6 h 9.8 9.8 v -2.6 -2.6 h -9.8 -9.8 v 2.6 m 32.8,0 v 2.6 h 7.4 7.4 v -2.6 -2.6 h -7.4 -7.4 v 2.6 m -32.634,7.144 c -0.116,0.303 -0.156,1.52 -0.089,2.704 l 0.123,2.152 h 23.6 23.6 v -2.6 -2.6 l -23.511,-0.103 c -19.668,-0.087 -23.546,-0.013 -23.723,0.447 M 216,241.2 v 2.8 h 9.6 9.6 v -2.8 -2.8 h -9.6 -9.6 v 2.8 m -65.2,9.203 v 2.802 l 28.3,-0.102 28.3,-0.103 0.126,-1.768 c 0.07,-0.972 0.021,-2.187 -0.107,-2.7 L 207.185,247.6 H 178.992 150.8 v 2.803 m 74.482,-0.11 0.118,2.707 h 9.6 9.6 v -2.6 -2.6 l -9.718,-0.107 -9.719,-0.107 0.119,2.707"
       stroke="none"
       fill="#090909"
       fill-rule="evenodd" />
    <path
       id="path1"
       d="m 143.9,115.1 c 30.855,0.057 81.345,0.057 112.2,0 30.855,-0.057 5.61,-0.103 -56.1,-0.103 -61.71,0 -86.955,0.046 -56.1,0.103 m 65.889,18.789 c 1.543,0.084 2.941,0.366 3.13,0.631 0.241,0.338 0.294,0.303 0.179,-0.12 -0.124,-0.461 -0.849,-0.607 -3.13,-0.631 l -2.968,-0.032 2.789,0.152 m 17.811,22.29 c 0,0.11 0.54,0.48 1.2,0.821 0.66,0.341 1.2,0.531 1.2,0.421 0,-0.11 -0.54,-0.48 -1.2,-0.821 -0.66,-0.341 -1.2,-0.531 -1.2,-0.421 m 4,2 c 0,0.11 0.54,0.48 1.2,0.821 0.66,0.341 1.2,0.531 1.2,0.421 0,-0.11 -0.54,-0.48 -1.2,-0.821 -0.66,-0.341 -1.2,-0.531 -1.2,-0.421 m 4,2 c 0,0.11 0.54,0.48 1.2,0.821 0.66,0.341 1.2,0.531 1.2,0.421 0,-0.11 -0.54,-0.48 -1.2,-0.821 -0.66,-0.341 -1.2,-0.531 -1.2,-0.421 m -85.173,1.189 c -0.279,0.336 -0.411,1.436 -0.323,2.7 l 0.148,2.132 0.074,-2.22 c 0.041,-1.221 0.29,-2.436 0.554,-2.7 0.264,-0.264 0.376,-0.48 0.249,-0.48 -0.127,0 -0.443,0.255 -0.702,0.568 m 99.297,2.432 c 0.002,1.32 0.077,1.812 0.166,1.093 0.089,-0.719 0.087,-1.799 -0.004,-2.4 -0.091,-0.601 -0.164,-0.013 -0.162,1.307 M 158,170.179 c 0,0.11 0.54,0.48 1.2,0.821 0.66,0.341 1.2,0.531 1.2,0.421 0,-0.11 -0.54,-0.48 -1.2,-0.821 -0.66,-0.341 -1.2,-0.531 -1.2,-0.421 m -3.14,33.297 c -0.033,1.582 0.075,2.96 0.24,3.063 0.165,0.102 0.249,-0.742 0.186,-1.877 -0.204,-3.678 -0.365,-4.125 -0.426,-1.186 m 42.077,0.324 c 0.002,1.76 0.072,2.43 0.156,1.489 0.085,-0.94 0.084,-2.38 -0.002,-3.2 -0.086,-0.819 -0.155,-0.049 -0.154,1.711 m 33.795,10e-4 c -0.073,1.65 0.003,3 0.168,3 0.165,-10e-4 0.3,-1.351 0.3,-3.001 0,-3.875 -0.298,-3.875 -0.468,10e-4 m -75.765,6.741 c -0.115,0.298 -0.152,1.693 -0.082,3.1 l 0.126,2.558 0.194,-3.101 c 0.195,-3.103 0.151,-3.572 -0.238,-2.557 m 19.747,1.558 c 0.206,3.782 0.365,4.155 0.426,1 0.033,-1.705 -0.075,-3.1 -0.24,-3.1 -0.165,0 -0.249,0.945 -0.186,2.1 m 8.253,-1.558 c -0.115,0.298 -0.152,1.693 -0.082,3.1 l 0.126,2.558 0.194,-3.101 c 0.195,-3.103 0.151,-3.572 -0.238,-2.557 m 19.747,1.558 c 0.206,3.782 0.365,4.155 0.426,1 0.033,-1.705 -0.075,-3.1 -0.24,-3.1 -0.165,0 -0.249,0.945 -0.186,2.1 m 23.423,0.9 c 0.002,1.76 0.072,2.43 0.156,1.489 0.085,-0.94 0.084,-2.38 -0.002,-3.2 -0.086,-0.819 -0.155,-0.049 -0.154,1.711 m 27.997,0.2 c 0,1.65 0.071,2.325 0.157,1.5 0.087,-0.825 0.087,-2.175 0,-3 -0.086,-0.825 -0.157,-0.15 -0.157,1.5 m -99.274,18.276 c -0.033,1.582 0.075,2.96 0.24,3.063 0.165,0.102 0.249,-0.742 0.186,-1.877 -0.204,-3.678 -0.365,-4.125 -0.426,-1.186 m 19.872,0.325 c -0.073,1.65 0.003,3 0.168,3 0.165,-10e-4 0.3,-1.351 0.3,-3.001 0,-3.875 -0.298,-3.875 -0.468,10e-4 m 28,0 c -0.073,1.65 0.003,3 0.168,3 0.165,-10e-4 0.3,-1.351 0.3,-3.001 0,-3.875 -0.298,-3.875 -0.468,10e-4 m -47.765,6.741 c -0.115,0.298 -0.152,1.693 -0.082,3.1 l 0.126,2.558 0.194,-3.101 c 0.195,-3.103 0.151,-3.572 -0.238,-2.557 m 47.747,1.558 c 0.206,3.782 0.365,4.155 0.426,1 0.033,-1.705 -0.075,-3.1 -0.24,-3.1 -0.165,0 -0.249,0.945 -0.186,2.1 m -37.785,7.4 c 7.882,0.061 20.662,0.061 28.4,0 7.739,-0.061 1.291,-0.111 -14.329,-0.11 -15.62,0 -21.952,0.049 -14.071,0.11 m 60.138,-0.033 c -0.368,0.367 -0.338,5.642 0.033,5.873 0.165,0.102 0.241,-1.144 0.169,-2.77 l -0.132,-2.956 9.732,-0.114 9.731,-0.115 -9.633,-0.092 c -5.299,-0.051 -9.754,0.027 -9.9,0.174 m 19.729,3.015 c -0.108,1.695 -0.052,2.937 0.124,2.76 0.175,-0.177 0.264,-1.563 0.196,-3.082 l -0.124,-2.76 -0.196,3.082 M 64.122,276.299 c 2.377,0.071 6.157,0.07 8.4,-10e-4 2.243,-0.071 0.298,-0.129 -4.322,-0.129 -4.62,0.001 -6.455,0.059 -4.078,0.13 m 37.278,-0.004 c 42.104,0.274 73.706,0.276 73.538,0.005 -0.102,-0.165 -20.29,-0.257 -44.862,-0.205 -24.572,0.053 -37.476,0.143 -28.676,0.2 m 123.667,-0.028 c -0.147,0.146 -0.264,0.461 -0.261,0.7 0.004,0.258 0.134,0.232 0.323,-0.065 0.248,-0.392 9.842,-0.521 44.894,-0.602 l 44.577,-0.104 -44.633,-0.098 c -24.549,-0.054 -44.754,0.022 -44.9,0.169 m 102.655,0.032 c 2.377,0.071 6.157,0.07 8.4,-10e-4 2.243,-0.071 0.298,-0.129 -4.322,-0.129 -4.62,0.001 -6.455,0.059 -4.078,0.13 M 176,279.325 c 0,0.069 0.585,0.654 1.3,1.3 l 1.3,1.175 -1.175,-1.3 C 176.33,279.288 176,279.016 176,279.325 m 46.575,1.175 -1.175,1.3 1.3,-1.175 c 0.715,-0.646 1.3,-1.231 1.3,-1.3 0,-0.309 -0.33,-0.037 -1.425,1.175"
       stroke="none"
       fill="#a4a4a4"
       fill-rule="evenodd" />
    <path
       id="path2"
       d="m 323.396,196 c 0,43.89 0.047,61.845 0.104,39.9 0.057,-21.945 0.057,-57.855 0,-79.8 -0.057,-21.945 -0.104,-3.99 -0.104,39.9 m -246.8,0.6 c 0,43.78 0.047,61.749 0.104,39.932 0.057,-21.818 0.057,-57.638 0,-79.6 -0.057,-21.963 -0.104,-4.112 -0.104,39.668 m 107.399,7.282 c -0.107,1.585 -0.051,2.737 0.126,2.559 0.176,-0.177 0.264,-1.474 0.195,-2.882 l -0.125,-2.559 -0.196,2.882 m -23.672,6.417 c 2.708,0.069 7.028,0.069 9.6,0 2.572,-0.07 0.357,-0.127 -4.923,-0.126 -5.28,0 -7.385,0.057 -4.677,0.126 m 28,0 c 2.708,0.069 7.028,0.069 9.6,0 2.572,-0.07 0.357,-0.127 -4.923,-0.126 -5.28,0 -7.385,0.057 -4.677,0.126 m 23.177,0 c 2.695,0.069 7.105,0.069 9.8,0 2.695,-0.069 0.49,-0.126 -4.9,-0.126 -5.39,0 -7.595,0.057 -4.9,0.126 m 28,0 c 2.695,0.069 7.105,0.069 9.8,0 2.695,-0.069 0.49,-0.126 -4.9,-0.126 -5.39,0 -7.595,0.057 -4.9,0.126 m -74.177,16 c 2.597,0.07 6.737,0.069 9.2,-0.001 2.462,-0.07 0.337,-0.127 -4.723,-0.126 -5.06,0 -7.075,0.057 -4.477,0.127 m 22.45,5.701 0.027,2.6 7.4,0.014 7.4,0.015 -7.282,-0.124 -7.282,-0.123 -0.145,-2.491 -0.146,-2.491 0.028,2.6 m -27.45,2.699 c 2.708,0.069 7.028,0.069 9.6,0 2.572,-0.07 0.357,-0.127 -4.923,-0.126 -5.28,0 -7.385,0.057 -4.677,0.126 m 7.006,3.601 c 6.56,0.062 17.18,0.061 23.6,0 6.419,-0.062 1.051,-0.113 -11.929,-0.112 -12.98,0 -18.232,0.05 -11.671,0.112 m 48.438,0.242 c -0.115,0.298 -0.144,1.693 -0.065,3.1 l 0.144,2.558 0.077,-2.893 0.077,-2.893 9.7,-0.114 9.7,-0.115 -9.713,-0.092 c -7.867,-0.075 -9.752,0.01 -9.92,0.449 M 164.929,253.5 c 7.882,0.061 20.662,0.061 28.4,0 7.739,-0.061 1.291,-0.111 -14.329,-0.11 -15.62,0 -21.952,0.049 -14.071,0.11 m 65.394,-0.001 c 2.708,0.069 7.028,0.069 9.6,0 2.572,-0.07 0.357,-0.127 -4.923,-0.126 -5.28,0 -7.385,0.057 -4.677,0.126"
       stroke="none"
       fill="#7c7c7c"
       fill-rule="evenodd" />
  </g>
</svg>
