<?xml version="1.0" encoding="UTF-8" standalone="no"?>
<svg
   width="512"
   height="512"
   version="1.1"
   id="svg12"
   sodipodi:docname="netbsd.svg"
   inkscape:version="1.1.1 (3bf5ae0d25, 2021-09-20)"
   xmlns:inkscape="http://www.inkscape.org/namespaces/inkscape"
   xmlns:sodipodi="http://sodipodi.sourceforge.net/DTD/sodipodi-0.dtd"
   xmlns="http://www.w3.org/2000/svg"
   xmlns:svg="http://www.w3.org/2000/svg">
  <defs
     id="defs16" />
  <sodipodi:namedview
     id="namedview14"
     pagecolor="#ffffff"
     bordercolor="#666666"
     borderopacity="1.0"
     inkscape:pageshadow="2"
     inkscape:pageopacity="0.0"
     inkscape:pagecheckerboard="0"
     showgrid="false"
     inkscape:zoom="1.7050781"
     inkscape:cx="251.30813"
     inkscape:cy="256"
     inkscape:window-width="3440"
     inkscape:window-height="1417"
     inkscape:window-x="0"
     inkscape:window-y="0"
     inkscape:window-maximized="1"
     inkscape:current-layer="svg12" />
  <path
     d="m 355.51203,15.595757 c -89.16366,0 -150.01165,35.55859 -187.82537,35.55859 -8.68204,0 -38.41765,-6.26598 -38.41765,-6.26598 -1.53448,-0.39471 -3.08189,-0.73731 -4.63957,-1.02721 -13.38008,-7.51182 -28.393252,-10.81726 -43.125702,-9.7585 h -0.0517 c -9.35868,0.68017 -18.96134,2.82419 -29.63466,8.45737 -13.59997,7.17762 -32.5832,24.02576 -39.15382,47.95359 -6.5706196,23.927843 0.29476,44.222563 5.8551,55.161183 L 176.46931,459.89838 c 0.057,0.1029 0.11386,0.20564 0.17119,0.30819 17.12331,33.63392 51.10031,50.33932 86.14868,45.93341 13.76808,-1.73061 35.84091,-9.87167 50.57299,-26.15962 21.21083,-23.4509 18.26417,-33.20253 19.65395,-44.03307 3.03925,-55.34237 -46.90458,-119.56391 -74.06185,-169.59239 25.03424,-9.47396 46.01451,-22.20856 63.25902,-32.57969 30.32431,-18.23751 39.22431,-24.84138 47.08048,-24.84138 26.18927,0 37.30483,4.51975 37.30483,4.51975 53.06428,19.28846 106.00557,-28.83729 91.84972,-83.49509 7.24073,-28.05267 -3.51384,-57.670253 -27.06699,-74.541223 0,0 -44.95636,-39.82151 -115.8693,-39.82151 z"
     style="opacity:0.2;stroke-width:8.76553"
     id="path2" />
  <path
     d="m 355.51203,6.834437 c -89.16366,0 -150.01165,35.55859 -187.82537,35.55859 -8.68204,0 -38.41765,-6.26598 -38.41765,-6.26598 -1.53448,-0.39472 -3.08189,-0.73732 -4.63957,-1.02721 -13.38008,-7.51182 -28.393252,-10.81727 -43.125702,-9.7585 h -0.0517 c -9.35868,0.68016 -18.96134,2.82419 -29.63466,8.45736 -13.59997,7.17763 -32.5832,24.02576 -39.15382,47.95359 -6.5706196,23.927843 0.29476,44.222563 5.8551,55.161193 L 176.46931,451.13705 c 0.057,0.10291 0.11386,0.20564 0.17119,0.3082 17.12331,33.63392 51.10031,50.33931 86.14868,45.9334 13.76808,-1.73061 35.84091,-9.87167 50.57299,-26.15961 21.21083,-23.45091 18.26417,-33.20254 19.65395,-44.03307 3.03925,-55.34238 -46.90458,-119.56391 -74.06185,-169.5924 25.03424,-9.47396 46.01451,-22.20856 63.25902,-32.57968 30.32431,-18.23752 39.22431,-24.84139 47.08048,-24.84139 26.18927,0 37.30483,4.51975 37.30483,4.51975 53.06428,19.28846 106.00557,-28.83729 91.84972,-83.49509 7.24073,-28.052673 -3.51384,-57.670253 -27.06699,-74.541213 0,0 -44.95636,-39.82151 -115.8693,-39.82151 z"
     style="fill:#f16813;stroke-width:8.76553"
     id="path4" />
  <path
     d="m 355.51937,85.723437 c -62.61091,0 -123.98186,35.561743 -187.83271,35.561743 -25.04436,0 -56.97592,-8.76553 -56.97592,-8.76553 l 48.2104,87.65526 c 0,0 22.53992,8.76553 35.0621,8.76553 63.57739,0 123.96959,-70.50113 174.05831,-70.50113 37.56654,0 62.6109,9.14244 62.6109,9.14244 0,0 -25.04436,-26.04237 -62.6109,-26.04237 -62.6109,0 -86.40305,17.27685 -86.40305,17.27685 0,0 48.83651,-35.31631 86.40305,-35.31631 25.04436,0 62.6109,9.01973 62.6109,9.01973 0,0 -37.56654,-26.796213 -75.13308,-26.796213 z M 86.532818,104.05019 c -0.72368,0.0526 -1.41105,0.23728 -1.98105,0.53811 -5.11569,2.6999 -5.11138,6.19129 -3.52186,9.31828 L 239.12384,428.40634 c 3.15964,6.20622 9.64146,8.8322 14.91901,8.16877 2.63877,-0.33169 5.21322,-1.29843 7.31275,-3.6197 2.09955,-2.32128 2.9848,-9.29956 1.61233,-12.48529 C 204.55707,313.47225 151.08685,214.19491 92.549328,107.25411 c -1.27728,-2.35665 -3.84569,-3.35993 -6.01651,-3.20392 z"
     style="opacity:0.2;stroke-width:8.76553"
     id="path6" />
  <path
     d="m 355.51937,76.955497 c -62.61091,0 -123.98186,35.561743 -187.83271,35.561743 -25.04436,0 -56.97592,-8.76553 -56.97592,-8.76553 l 48.2104,87.65526 c 0,0 22.53992,8.76553 35.0621,8.76553 63.57739,0 123.96959,-70.50113 174.05831,-70.50113 37.56654,0 62.6109,9.14245 62.6109,9.14245 0,0 -25.04436,-26.04238 -62.6109,-26.04238 -62.6109,0 -86.40305,17.27685 -86.40305,17.27685 0,0 48.83651,-35.316303 86.40305,-35.316303 25.04436,0 62.6109,9.019723 62.6109,9.019723 0,0 -37.56654,-26.796213 -75.13308,-26.796213 z M 86.532818,95.282247 c -0.72368,0.0526 -1.41105,0.23728 -1.98105,0.53812 -5.11569,2.69989 -5.11138,6.191283 -3.52186,9.318273 L 239.12384,419.6384 c 3.15964,6.20622 9.64146,8.83221 14.91901,8.16877 2.63877,-0.33169 5.21322,-1.29843 7.31275,-3.6197 2.09955,-2.32127 2.9848,-9.29955 1.61233,-12.48529 C 204.55707,304.70431 151.08685,205.42698 92.549328,98.486167 c -1.27728,-2.35665 -3.84569,-3.35993 -6.01651,-3.20392 z"
     style="fill:#ffffff;stroke-width:8.76553"
     id="path8" />
  <path
     d="m 355.51203,6.834437 c -89.16366,0 -150.01165,35.55859 -187.82537,35.55859 -8.68204,0 -38.41765,-6.26598 -38.41765,-6.26598 -1.53448,-0.39472 -3.08189,-0.73732 -4.63957,-1.02721 -13.38008,-7.51182 -28.393252,-10.81727 -43.125702,-9.7585 h -0.0514 c -9.35868,0.68016 -18.96169,2.82419 -29.63501,8.45736 -13.59997,7.17763 -32.5832,24.02576 -39.15382,47.95359 -2.40886,8.7722 -2.9931496,17.03673 -2.51667,24.550333 0.27132,-5.03653 1.00972,-10.297023 2.51667,-15.784803 6.57062,-23.92784 25.55385,-40.77597 39.15382,-47.95359 10.67332,-5.63317 20.27633,-7.7772 29.63501,-8.45736 h 0.0514 c 14.73245,-1.05877 29.745622,2.24668 43.125702,9.75849 1.55768,0.2899 3.10509,0.6325 4.63957,1.02721 0,0 29.73561,6.26599 38.41765,6.26599 37.81372,0 98.66171,-35.55859 187.82537,-35.55859 70.91294,0 115.8693,39.82151 115.8693,39.82151 17.2661,12.36758 27.57261,31.59874 29.0358,52.028193 1.27351,-23.596313 -9.31582,-46.668433 -29.0358,-60.793723 0,0 -44.95636,-39.82151 -115.8693,-39.82151 z M 499.25297,125.49433 c -0.28307,1.49043 -0.42167,2.98457 -0.80465,4.46836 1.21633,4.69642 1.76923,9.30599 2.0373,13.86734 0.40571,-5.94639 -0.005,-12.07961 -1.23265,-18.3357 z M 262.99464,264.64706 c -1.37737,0.55034 -2.63759,1.18115 -4.04036,1.71201 25.79275,47.5148 72.03906,107.81547 74.02761,161.16927 0.0137,-0.11371 0.0196,-0.22847 0.0342,-0.3424 2.90105,-52.82514 -42.27045,-113.59908 -70.02145,-162.53888 z"
     style="opacity:0.2;fill:#ffffff;stroke-width:8.76553"
     id="path10" />
</svg>
