<?xml version="1.0" encoding="UTF-8" standalone="no"?>
<svg
   width="512"
   height="512"
   version="1.1"
   id="svg20"
   sodipodi:docname="pop-os.svg"
   inkscape:version="1.1.1 (3bf5ae0d25, 2021-09-20)"
   xmlns:inkscape="http://www.inkscape.org/namespaces/inkscape"
   xmlns:sodipodi="http://sodipodi.sourceforge.net/DTD/sodipodi-0.dtd"
   xmlns="http://www.w3.org/2000/svg"
   xmlns:svg="http://www.w3.org/2000/svg">
  <defs
     id="defs24" />
  <sodipodi:namedview
     id="namedview22"
     pagecolor="#ffffff"
     bordercolor="#666666"
     borderopacity="1.0"
     inkscape:pageshadow="2"
     inkscape:pageopacity="0.0"
     inkscape:pagecheckerboard="0"
     showgrid="false"
     inkscape:zoom="1.7050781"
     inkscape:cx="251.30813"
     inkscape:cy="256"
     inkscape:window-width="3440"
     inkscape:window-height="1417"
     inkscape:window-x="0"
     inkscape:window-y="0"
     inkscape:window-maximized="1"
     inkscape:current-layer="svg20" />
  <circle
     style="opacity:0.2;stroke-width:8.77193"
     cx="256.68787"
     cy="263.97125"
     r="245.61403"
     id="circle2" />
  <circle
     style="fill:#48b9c7;stroke-width:8.77193"
     cx="256.68787"
     cy="255.19933"
     r="245.61403"
     id="circle4" />
  <path
     style="opacity:0.2;stroke-width:8.77193"
     d="m 205.97514,71.023054 c -22.20198,0.52588 -47.50167,12.62962 -60.40982,21.57005 -12.9081,8.940406 -39.23149,26.813116 -39.7478,44.168026 0,11.56994 6.19338,21.03354 11.87295,32.60348 5.67957,11.56995 82.09941,167.23692 104.8177,191.95449 11.87548,12.62176 28.38956,8.94864 32.00384,-2.62129 3.61426,-11.56997 -0.51,-24.19117 -5.15694,-36.28701 L 224.5641,256.67273 c 28.91417,-10.51816 49.55998,-32.08091 61.95175,-58.90214 v -1.06223 c 6.19591,-13.14767 7.75028,-31.55283 2.58703,-55.21861 -5.16325,-23.66579 -19.09951,-44.161126 -38.71985,-57.308796 -12.90812,-8.4145 -22.20593,-13.68381 -44.40789,-13.1579 z m -18.52042,47.971486 c 1.22816,0.13421 2.57601,0.4493 4.06044,0.9423 3.61428,1.05181 6.72141,3.68723 9.30304,5.79084 12.90811,10.51813 22.71397,26.28873 27.36089,42.59184 a 66.089589,67.316012 0 0 1 1.02796,25.23643 c 0,4.20724 -0.51938,7.37445 -3.10102,11.58169 -2.58163,4.20726 -8.775,7.36173 -11.87294,6.83594 -3.09798,-0.52588 -5.67634,-2.63019 -8.25795,-5.25974 -10.84282,-11.04403 -20.64559,-33.13593 -24.25987,-43.65405 -3.38837,-9.86075 -12.68299,-46.07784 5.73945,-44.06525 z m 172.95436,39.71355 c -7.33698,0.12158 -15.73175,2.07781 -19.0858,5.1912 -4.47208,4.15118 -8.44617,12.45228 -10.93065,29.05702 -8.44721,60.71104 -11.42836,110.52273 -2.48423,114.15502 7.45347,3.11338 12.93252,-2.08068 39.76493,-51.89488 l 13.91173,-27.49794 c 5.46588,-11.93466 12.42101,-28.53782 14.40858,-36.32128 1.98761,-7.78347 1.49111,-14.01183 -4.47162,-19.7197 a 44.720695,46.700796 0 0 0 -24.34554,-12.45546 c -1.98758,-0.38917 -4.32174,-0.55452 -6.7674,-0.51398 z m -30.59896,175.43859 c -1.66604,-0.0289 -3.46056,0.20264 -5.3968,0.73667 -7.47786,1.89888 -12.82343,8.07803 -14.42571,13.77468 -1.60242,5.69663 -0.53008,12.80879 5.3454,17.08127 5.87547,4.27247 16.02915,4.2753 20.30222,1.90173 4.27307,-2.37362 6.93253,-6.17846 8.00095,-10.45093 2.8042,-9.96909 -2.16379,-22.84222 -13.82606,-23.04342 z m -176.12391,52.63158 c -10.97339,0 -19.80537,7.82456 -19.80537,17.54386 0,9.7193 8.83198,17.54386 19.80537,17.54386 h 206.0033 c 10.97339,0 19.80537,-7.82456 19.80537,-17.54386 0,-9.7193 -8.83198,-17.54386 -19.80537,-17.54386 z"
     id="path6" />
  <g
     id="g16"
     transform="matrix(8.7719298,0,0,8.7719298,-24.013892,-25.502436)">
    <rect
       style="fill:#ffffff"
       width="28"
       height="4"
       x="18"
       y="46"
       rx="2.2579999"
       ry="2"
       id="rect8" />
    <path
       style="fill:#ffffff"
       d="m 35.401362,24.452868 c -1.412662,3.05762 -3.767106,5.515704 -7.063322,6.714774 l 2.825328,7.494164 c 0.52975,1.378926 1.000638,2.817804 0.588612,4.13678 C 31.339952,44.117558 29.4564,44.53723 28.102596,43.09835 25.51271,40.280546 16.801275,22.534362 16.153803,21.215388 15.506333,19.896414 14.8,18.817256 14.8,17.498283 c 0.05886,-1.97846 3.060775,-4.016872 4.532299,-5.036079 1.471529,-1.019208 4.355717,-2.398134 6.886743,-2.458088 2.531024,-0.059954 3.590524,0.53958 5.06205,1.498833 2.236718,1.498835 3.825966,3.837014 4.414576,6.534914 0.58861,2.697899 0.412028,4.796265 -0.294306,6.295099 m -6.651298,-3.23748 c -0.529748,-1.858554 -1.648108,-3.657153 -3.119632,-4.856219 -0.294306,-0.239812 -0.647472,-0.53958 -1.0595,-0.659486 -2.707608,-0.899301 -1.530386,3.717105 -1.11836,4.916171 0.412028,1.199066 1.530388,3.717106 2.76647,4.976126 0.294304,0.299768 0.588608,0.53958 0.941778,0.599534 0.353166,0.05994 1.059496,-0.299766 1.353802,-0.779394 0.294304,-0.479626 0.353168,-0.839346 0.353168,-1.318972 a 7.5342132,7.6740254 0 0 0 -0.11772,-2.87776 z"
       id="path10" />
    <path
       style="fill:#ffffff"
       d="m 41.912738,42.62764 c -0.1218,0.487062 -0.42624,0.920006 -0.91337,1.190598 -0.48713,0.270588 -1.644064,0.270588 -2.313868,-0.216474 -0.669804,-0.487062 -0.791588,-1.298832 -0.608912,-1.948248 0.18266,-0.649418 0.791588,-1.352952 1.644064,-1.569424 1.765846,-0.487064 2.557432,1.244714 2.192086,2.543548 z"
       id="path12" />
    <path
       style="fill:#ffffff"
       d="m 40.119882,36.917908 c -1.01963,-0.41408 -0.679752,-6.092897 0.28323,-13.013956 0.283231,-1.89294 0.736402,-2.839409 1.246218,-3.312643 0.509816,-0.473235 2.039264,-0.709852 2.945602,-0.532388 a 5.0981592,5.3238908 0 0 1 2.775667,1.419704 c 0.679751,0.650697 0.7364,1.360549 0.509813,2.247865 -0.226583,0.887314 -1.019629,2.780254 -1.642739,4.140804 l -1.586094,3.135177 c -3.058895,5.678819 -3.682001,6.270363 -4.531697,5.915437 z"
       id="path14" />
  </g>
  <path
     style="opacity:0.2;fill:#ffffff;stroke-width:8.77193"
     d="M 256.68786,9.5852842 A 245.61404,245.61404 0 0 0 11.073818,255.19932 a 245.61404,245.61404 0 0 0 0.1542,4.31744 A 245.61404,245.61404 0 0 1 256.68786,18.357214 245.61404,245.61404 0 0 1 502.07917,259.51676 245.61404,245.61404 0 0 0 502.3019,255.19932 245.61404,245.61404 0 0 0 256.68786,9.5852842 Z"
     id="path18" />
</svg>
