<?xml version="1.0" encoding="UTF-8" standalone="no"?>
<svg
   width="512"
   height="512"
   version="1"
   id="svg22"
   sodipodi:docname="puppy-linux.svg"
   inkscape:version="1.1.1 (3bf5ae0d25, 2021-09-20)"
   xmlns:inkscape="http://www.inkscape.org/namespaces/inkscape"
   xmlns:sodipodi="http://sodipodi.sourceforge.net/DTD/sodipodi-0.dtd"
   xmlns="http://www.w3.org/2000/svg"
   xmlns:svg="http://www.w3.org/2000/svg">
  <defs
     id="defs26" />
  <sodipodi:namedview
     id="namedview24"
     pagecolor="#ffffff"
     bordercolor="#666666"
     borderopacity="1.0"
     inkscape:pageshadow="2"
     inkscape:pageopacity="0.0"
     inkscape:pagecheckerboard="0"
     showgrid="false"
     inkscape:zoom="1.7050781"
     inkscape:cx="251.30813"
     inkscape:cy="256"
     inkscape:window-width="3440"
     inkscape:window-height="1417"
     inkscape:window-x="0"
     inkscape:window-y="0"
     inkscape:window-maximized="1"
     inkscape:current-layer="svg22" />
  <circle
     style="opacity:0.2;stroke-width:17.2414"
     cx="256.47665"
     cy="263.99765"
     r="241.3793"
     id="circle2" />
  <circle
     style="fill:#cccccc;stroke-width:17.2414"
     cx="256.47665"
     cy="246.75627"
     r="241.3793"
     id="circle4" />
  <path
     style="opacity:0.1;fill-rule:evenodd;stroke-width:17.2414"
     d="m 403.02838,160.54938 c -23.79993,0 -43.10344,19.30343 -43.10344,43.10345 0,23.7995 19.30351,43.10345 43.10344,43.10345 23.79995,0 43.10345,-19.30395 43.10345,-43.10345 0,-23.79983 -19.3035,-43.10345 -43.10345,-43.10345 z M 135.787,177.79076 c -47.599339,0 -86.206889,38.60283 -86.206889,86.2069 0,47.6041 38.60755,86.2069 86.206889,86.2069 47.59935,0 86.2069,-38.6028 86.2069,-86.2069 0,-47.60407 -38.60755,-86.2069 -86.2069,-86.2069 z m 17.24138,51.72414 c 19.03513,1.9e-4 34.48276,15.44831 34.48276,34.48276 0,19.03464 -15.44763,34.48276 -34.48276,34.48276 -19.03513,0 -34.48275,-15.44812 -34.48275,-34.48276 0,-19.03445 15.44762,-34.48276 34.48275,-34.48276 z m 214.94478,34.48276 c -1.07276,0 -2.07572,0.20483 -3.03071,0.53879 l -121.59888,34.48276 c -0.23879,0.0586 -0.44275,0.12586 -0.67344,0.20207 h -0.0345 l -0.0672,0.0345 h -0.0345 c -3.50617,1.2081 -6.02774,4.45615 -6.02774,8.28395 0,3.6421 2.28241,6.78005 5.52262,8.11557 0.0207,0.009 0.0465,-0.009 0.0672,0 l 74.82488,41.08297 v 0.3031 c 0,12.63209 -5.75342,24.09359 -15.08621,32.42862 -9.50917,8.49288 -22.71436,13.73922 -37.34508,13.73922 -9.22816,0 -18.08771,-2.06112 -25.79473,-5.89305 -7.53033,-3.74426 -14.01533,-9.17448 -18.75674,-15.89439 -0.0638,-0.10173 -0.13276,-0.20466 -0.20207,-0.30311 -1.47362,-2.11746 -3.97852,-3.50215 -6.80227,-3.50215 -4.52073,0 -8.18292,3.54986 -8.18292,7.94719 0,1.76753 0.61379,3.39286 1.61638,4.71445 6.27869,8.94691 14.89873,16.16531 24.91917,21.14762 10.05119,4.99617 21.44902,7.74432 33.20476,7.74432 18.85052,0 35.95374,-6.87493 48.39035,-17.98222 9.0372,-8.07104 15.6242,-18.36031 18.62203,-29.90302 12.20469,9.83726 28.27424,15.75971 45.79741,15.75971 18.85049,0 35.98744,-6.84147 48.42404,-17.94855 12.61402,-11.26499 20.40679,-26.87749 20.40679,-44.14737 0,-0.73103 -0.0172,-1.62379 -0.0672,-2.59293 9.3e-4,-0.05 0,-0.0828 0,-0.13448 0,-4.39733 -3.66221,-7.98087 -8.18293,-7.98088 -4.52076,0 -8.18291,3.58355 -8.18291,7.98088 0,0.0707 -0.002,0.13276 0,0.20207 0.004,0.12413 0.0241,0.24758 0.0345,0.37034 0.0259,0.58345 0.0345,1.28362 0.0345,2.15517 0,12.63209 -5.78708,24.09361 -15.11988,32.42863 -9.50938,8.49291 -22.71417,13.73922 -37.3451,13.73922 -14.04309,0 -26.79564,-4.84872 -36.23383,-12.79634 -1.94653,-1.63914 -3.74414,-3.39876 -5.38793,-5.28692 l 40.10641,-75.83512 c 0.77587,-1.29759 1.24604,-2.80266 1.24604,-4.41136 -0.002,-4.85624 -4.06797,-8.78924 -9.06026,-8.78924 z"
     id="path6" />
  <path
     style="opacity:0.2;fill:#ffffff;stroke-width:17.2414"
     d="M 256.47666,5.3769688 A 241.37931,241.37931 0 0 0 15.097351,246.75628 a 241.37931,241.37931 0 0 0 0.37042,10.10238 241.37931,241.37931 0 0 1 241.008889,-234.240311 241.37931,241.37931 0 0 1 241.0089,231.276931 241.37931,241.37931 0 0 0 0.37041,-7.139 A 241.37931,241.37931 0 0 0 256.47666,5.3769688 Z"
     id="path8" />
  <path
     style="opacity:0.2;fill-rule:evenodd;stroke-width:17.2414"
     d="m 126.82957,39.862689 c -14.05411,-0.066 -26.918159,2.12171 -37.984909,5.25324 -21.98169,6.22013 -36.31356,15.68313 -38.79311,18.89143 -0.36426,0.47505 -0.82305,0.89402 -1.34698,1.24597 -7.49796,5.06359 -11.39815,21.59529 -13.16676,41.453381 -2.14334,24.06547 -4.38502,44.21464 -2.49192,64.3521 0.006,0.0638 0.0273,0.13793 0.0336,0.20207 0.0591,0.9169 0.16603,2.07943 0.23572,3.06438 9.89983,-10.99139 22.1321,-16.75139 32.05819,-24.64977 33.10322,-26.34081 58.434599,-20.36924 85.365079,-11.88715 17.28191,5.44282 32.37884,10.21947 43.13713,2.49192 6.13909,-4.41023 9.18459,-10.98551 9.7993,-18.68939 0.58586,-7.33961 -0.91759,-12.25721 -4.04095,-20.84456 -3.20564,-8.813181 -8.12421,-17.825221 -14.177,-26.299831 -14.65762,-20.52195 -28.90333,-32.58836 -48.7271,-34.17969 -3.3626,-0.26988 -6.65706,-0.38913 -9.90032,-0.4041 z m 264.88416,0 c -1.65241,-0.004 -3.29019,0.0229 -4.91648,0.0336 -12.1139,0.0798 -23.44331,0.57533 -32.93373,1.38066 h -0.10172 c -1.40845,0.19157 -2.917,0.44483 -4.37769,0.63981 46.14312,16.20328 52.89396,54.43721 71.7605,86.678341 12.2041,19.78934 12.58148,34.06273 27.71417,31.72144 6.85841,-1.06103 12.48248,-4.43569 16.97198,-9.29417 6.60202,-7.14445 10.84619,-17.52985 13.03207,-28.89279 2.2465,-11.67781 2.25895,-24.261721 0.37035,-35.492991 -2.06236,-12.27517 -6.29493,-22.68885 -12.29047,-27.94983 -11.35557,-7.68288 -27.12558,-15.5648 -55.22629,-17.54445 -11.82355,-0.83309 -8.43631,-1.25082 -20.00269,-1.27964 z"
     id="path10" />
  <path
     style="fill:#e4e4e4;fill-rule:evenodd;stroke-width:17.2414"
     d="m 391.70597,22.618939 c -1.65241,-0.004 -3.29141,0.0118 -4.91771,0.0226 -12.11389,0.0798 -23.42746,0.57371 -32.91789,1.37904 l -0.0948,0.0226 c -1.40845,0.19157 -2.91583,0.43811 -4.37652,0.63309 46.14312,16.20328 52.88969,54.42129 71.75623,86.662421 12.2041,19.78934 12.5567,34.05911 27.68939,31.71783 6.85842,-1.06098 12.49886,-4.41045 16.98836,-9.26894 6.60202,-7.14444 10.84952,-17.55162 13.0354,-28.91455 2.2465,-11.677811 2.26492,-24.261951 0.37638,-35.493231 -2.06312,-12.27523 -6.3096,-22.68151 -12.30514,-27.94248 -11.35557,-7.68288 -27.11222,-15.57269 -55.21293,-17.55234 -11.82355,-0.83309 -8.45436,-1.23718 -20.02074,-1.266 z"
     id="path12" />
  <path
     id="path2488_4"
     style="fill:#e4e4e4;fill-rule:evenodd;stroke-width:17.2414"
     d="m 126.83087,22.619889 c -14.05411,-0.0661 -26.910679,2.10649 -37.977439,5.23802 -21.98168,6.22014 -36.32591,15.69805 -38.80546,18.90635 -0.36426,0.47504 -0.81881,0.88449 -1.34275,1.23644 -7.49795,5.0636 -11.39034,21.59649 -13.15894,41.45459 -2.14334,24.065461 -4.38857,44.218241 -2.49546,64.355701 0.006,0.0638 0.0161,0.13793 0.0224,0.20224 0.0591,0.91689 0.17646,2.09491 0.24615,3.07986 9.89983,-10.9914 22.13226,-16.77291 32.05834,-24.67129 33.10317,-26.34078 58.446489,-20.34473 85.376969,-11.86264 17.28192,5.44282 32.36635,10.20043 43.12464,2.47287 6.13909,-4.41023 9.18735,-10.97765 9.80205,-18.68153 0.58587,-7.339611 -0.92724,-12.258091 -4.0506,-20.845441 -3.20564,-8.81319 -8.11327,-17.82791 -14.16607,-26.30252 -14.65762,-20.52195 -28.89612,-32.58667 -48.71988,-34.178 -3.3626,-0.26988 -6.67071,-0.38969 -9.91396,-0.40465 z" />
  <path
     style="fill:#3f3f3f;fill-rule:evenodd;stroke-width:17.2414"
     d="m 403.02895,143.308 c -23.79993,0 -43.10401,19.30349 -43.10401,43.1035 0,23.7995 19.30408,43.1034 43.10401,43.1034 23.79995,0 43.10383,-19.3039 43.10383,-43.1034 0,-23.79982 -19.30388,-43.1035 -43.10383,-43.1035 z"
     id="path15" />
  <path
     style="fill:#3f3f3f;fill-rule:evenodd;stroke-width:17.2414"
     d="m 135.787,160.54938 c -47.599339,0 -86.206889,38.60283 -86.206889,86.2069 0,47.6041 38.60755,86.2069 86.206889,86.2069 47.59935,0 86.2069,-38.6028 86.2069,-86.2069 0,-47.60407 -38.60755,-86.2069 -86.2069,-86.2069 z m 17.24138,51.72414 c 19.03513,1.9e-4 34.48276,15.44831 34.48276,34.48276 0,19.03464 -15.44763,34.48276 -34.48276,34.48276 -19.03513,0 -34.48275,-15.44812 -34.48275,-34.48276 0,-19.03445 15.44762,-34.48276 34.48275,-34.48276 z"
     id="path17" />
  <path
     id="path2488_5"
     style="fill:#3f3f3f;fill-rule:evenodd;stroke-width:17.2414"
     d="m 367.98083,246.75664 c -1.07276,0 -2.09876,0.19707 -3.05374,0.53104 l -121.56798,34.48258 c -0.23879,0.0586 -0.46879,0.12242 -0.69948,0.19897 l -0.0345,0.0167 -0.069,0.0167 -0.0169,0.0167 c -3.50617,1.2081 -6.02217,4.45267 -6.02217,8.28046 0,3.64211 2.27014,6.76245 5.51034,8.09797 0.0207,0.009 0.0483,0.007 0.069,0.0167 l 74.82421,41.07041 v 0.31534 c 0,12.63209 -5.76514,24.10647 -15.09794,32.4415 -9.50917,8.49288 -22.71313,13.73993 -37.34386,13.73993 -9.22815,0 -18.07038,-2.09208 -25.77739,-5.92401 -7.53033,-3.74426 -14.02433,-9.16066 -18.76575,-15.88057 -0.0638,-0.10173 -0.1362,-0.20035 -0.20465,-0.2988 -1.47362,-2.11746 -3.96595,-3.51789 -6.78971,-3.51789 -4.52072,0 -8.18881,3.56777 -8.18881,7.9651 0,1.76754 0.60121,3.39111 1.6038,4.71269 6.27869,8.94692 14.90387,16.15867 24.92434,21.14098 10.04955,4.997 21.44217,7.7495 33.19791,7.7495 18.85052,0 35.97906,-6.88079 48.41566,-17.98808 9.03721,-8.07104 15.59734,-18.35985 18.59519,-29.90255 12.20467,9.83725 28.29931,15.78103 45.82248,15.78103 18.85048,0 35.97904,-6.86443 48.41564,-17.97152 12.61402,-11.26498 20.40396,-26.87048 20.40396,-44.14036 0,-0.73103 -0.019,-1.61948 -0.069,-2.58862 9.3e-4,-0.05 0,-0.0983 0,-0.15 0,-4.39733 -3.6681,-7.96512 -8.18883,-7.96512 -4.52076,0 -8.18862,3.56779 -8.18862,7.96512 0,0.0707 -0.002,0.14655 0,0.21552 0.004,0.12413 0.0241,0.24241 0.0345,0.36517 0.0259,0.58345 0.0345,1.28569 0.0345,2.15717 0,12.63209 -5.76509,24.10647 -15.09788,32.44149 -9.50938,8.49291 -22.71297,13.73993 -37.3439,13.73993 -14.04309,0 -26.81378,-4.84645 -36.25196,-12.79407 -1.94654,-1.63914 -3.74719,-3.4054 -5.39099,-5.29356 L 375.794,259.96523 c 0.77587,-1.29759 1.22828,-2.8054 1.22828,-4.41411 0,-4.85607 -4.04934,-8.79488 -9.04164,-8.79488 v 0 z" />
  <path
     style="opacity:0.2;fill:#ffffff;fill-rule:evenodd;stroke-width:17.2414"
     d="m 126.82957,22.618349 c -14.05411,-0.0661 -26.918159,2.1217 -37.984909,5.25323 -21.98169,6.22014 -36.31356,15.68313 -38.79311,18.89143 -0.36426,0.47505 -0.82304,0.89402 -1.34698,1.24596 -7.49796,5.0636 -11.39815,21.5953 -13.16676,41.4534 -1.83732,20.629441 -3.58066,38.364361 -2.89601,55.697741 0.4883,-12.03536 1.65849,-24.56143 2.89601,-38.45636 1.76861,-19.858101 5.6688,-36.389801 13.16676,-41.453401 0.52393,-0.35195 0.98272,-0.7709 1.34698,-1.24596 2.47955,-3.2083 16.81142,-12.67129 38.79311,-18.89143 11.06675,-3.13153 23.930799,-5.31927 37.984909,-5.25323 3.24325,0.015 6.53772,0.13421 9.90032,0.40409 19.82377,1.59133 34.06948,13.65775 48.7271,34.17969 6.05279,8.47461 10.97136,17.48665 14.177,26.299841 1.3632,3.74798 2.25634,6.63989 2.96336,9.49623 0.52302,-1.87574 0.91352,-3.83679 1.07759,-5.89305 0.58586,-7.339611 -0.91759,-12.257211 -4.04095,-20.844561 -3.20564,-8.81319 -8.12421,-17.82523 -14.177,-26.29984 -14.65762,-20.52194 -28.90333,-32.58836 -48.7271,-34.17969 -3.3626,-0.26988 -6.65707,-0.38913 -9.90032,-0.40409 z m 264.88416,0 c -1.65241,-0.004 -3.29019,0.0229 -4.91648,0.0337 -12.1139,0.0798 -23.44333,0.57533 -32.93373,1.38066 h -0.10103 c -1.40845,0.19157 -2.917,0.44483 -4.37769,0.63982 11.38048,3.99629 20.31962,9.36894 27.6805,15.625 3.41539,-0.0935 6.15233,-0.38051 9.73195,-0.4041 1.62629,-0.0107 3.26407,-0.0376 4.91648,-0.0337 11.56638,0.0288 8.17914,0.44655 20.00269,1.27963 28.10071,1.97965 43.87072,9.86158 55.22629,17.54445 5.99554,5.26098 10.22886,15.67472 12.29123,27.94989 0.43058,2.56065 0.41081,5.34006 0.63981,8.01455 0.7121,-8.57912 0.70908,-17.23388 -0.63981,-25.25592 -2.06312,-12.27524 -6.29569,-22.68892 -12.29123,-27.9499 -11.35557,-7.68287 -27.12558,-15.5648 -55.22629,-17.54445 -11.82355,-0.83309 -8.43631,-1.25081 -20.00269,-1.27963 z"
     id="path20" />
</svg>
