<?xml version="1.0" encoding="UTF-8" standalone="no"?>
<!-- Created with Inkscape (http://www.inkscape.org/) -->
<svg xmlns:rdf="http://www.w3.org/1999/02/22-rdf-syntax-ns#" xmlns="http://www.w3.org/2000/svg" height="331" width="600" version="1.0" xmlns:cc="http://creativecommons.org/ns#" xmlns:xlink="http://www.w3.org/1999/xlink" xmlns:dc="http://purl.org/dc/elements/1.1/">
 <defs>
  <linearGradient id="linearGradient7995">
   <stop stop-color="#FFF" stop-opacity="0" offset="0"/>
   <stop stop-color="#FFF" stop-opacity="0" offset="0.851163"/>
   <stop stop-color="#FFF" offset="0.851163"/>
   <stop stop-color="#FFF" stop-opacity="0" offset="0.962791"/>
   <stop stop-color="#FFF" stop-opacity="0" offset="1"/>
  </linearGradient>
  <linearGradient id="linearGradient4583">
   <stop stop-color="#e5f4ff" offset="0"/>
   <stop stop-color="#e5f4ff" offset="0.232558"/>
   <stop stop-color="#254863" stop-opacity="0" offset="1"/>
  </linearGradient>
  <linearGradient id="linearGradient3800">
   <stop stop-color="#466886" offset="0"/>
   <stop stop-color="#617689" stop-opacity="0" offset="1"/>
  </linearGradient>
  <linearGradient id="linearGradient4522">
   <stop stop-color="#FFF" offset="0"/>
   <stop stop-color="#FFF" stop-opacity="0" offset="1"/>
  </linearGradient>
  <linearGradient id="linearGradient17671">
   <stop stop-color="#FFF" stop-opacity="0.41618496" offset="0"/>
   <stop stop-color="#FFF" stop-opacity="0" offset="1"/>
  </linearGradient>
  <filter id="filter6606" height="1.1988666" width="1.3008075" y="-0.099433325" x="-0.15040377">
   <feGaussianBlur stdDeviation="7.2083506"/>
  </filter>
  <filter id="filter6610" height="1.1917433" width="1.332386" y="-0.095871665" x="-0.16619301">
   <feGaussianBlur stdDeviation="7.2083506"/>
  </filter>
  <filter id="filter6614">
   <feGaussianBlur stdDeviation="7.2083506"/>
  </filter>
  <filter id="filter6618" height="1.1975313" width="1.4702693" y="-0.098765641" x="-0.23513465">
   <feGaussianBlur stdDeviation="7.2083506"/>
  </filter>
  <filter id="filter6626" height="1.2431766" width="1.2472316" y="-0.12158829" x="-0.12361581">
   <feGaussianBlur stdDeviation="7.2083506"/>
  </filter>
  <filter id="filter4518" height="1.3981317" width="1.4018859" y="-0.19906585" x="-0.20094295">
   <feGaussianBlur stdDeviation="10.125173"/>
  </filter>
  <filter id="filter4546">
   <feGaussianBlur stdDeviation="0.58082045"/>
  </filter>
  <filter id="filter4666">
   <feGaussianBlur stdDeviation="6.3816907"/>
  </filter>
  <filter id="filter5237" height="1.3687129" width="1.4370892" y="-0.18435644" x="-0.21854459">
   <feGaussianBlur stdDeviation="2.2711229"/>
  </filter>
  <filter id="filter7267" height="1.5740881" width="1.6214931" y="-0.28704402" x="-0.31074658">
   <feGaussianBlur stdDeviation="3.3946442"/>
  </filter>
  <filter id="filter3477" height="1.6959413" width="1.9205891" y="-0.34797066" x="-0.46029457">
   <feGaussianBlur stdDeviation="49.010201"/>
  </filter>
  <filter id="filter3541" height="1.213006" width="1.1931673" y="-0.10650298" x="-0.096583642">
   <feGaussianBlur stdDeviation="4.5608848"/>
  </filter>
  <filter id="filter3545" height="1.213006" width="1.1931673" y="-0.10650298" x="-0.096583642">
   <feGaussianBlur stdDeviation="4.5608848"/>
  </filter>
  <filter id="filter3549" height="1.213006" width="1.1931673" y="-0.10650298" x="-0.096583642">
   <feGaussianBlur stdDeviation="4.5608848"/>
  </filter>
  <filter id="filter3553" height="1.213006" width="1.1931673" y="-0.10650298" x="-0.096583642">
   <feGaussianBlur stdDeviation="4.5608848"/>
  </filter>
  <filter id="filter3557" height="1.213006" width="1.1931673" y="-0.10650298" x="-0.096583642">
   <feGaussianBlur stdDeviation="4.5608848"/>
  </filter>
  <filter id="filter3561" height="1.213006" width="1.1931673" y="-0.10650298" x="-0.096583642">
   <feGaussianBlur stdDeviation="4.5608848"/>
  </filter>
  <filter id="filter3597" height="1.4965283" width="1.3348944" y="-0.24826413" x="-0.16744719">
   <feGaussianBlur stdDeviation="4.5116686"/>
  </filter>
  <radialGradient id="radialGradient2677" gradientUnits="userSpaceOnUse" cy="775.884" cx="385.866" gradientTransform="matrix(1,0,0,1.098684,0,-76.56746)" r="161.426">
   <stop stop-color="#000" offset="0"/>
   <stop stop-color="#000" stop-opacity="0" offset="1"/>
  </radialGradient>
  <radialGradient id="radialGradient2679" gradientUnits="userSpaceOnUse" cy="835.16" cx="292.942" gradientTransform="matrix(-1.2414154,0.7906519,0.7046472,1.1063777,17.23768,-980.81675)" r="49.3057">
   <stop stop-color="#FFF" offset="0"/>
   <stop stop-color="#FFF" stop-opacity="0" offset="1"/>
  </radialGradient>
  <linearGradient id="linearGradient2681" y2="352.732" gradientUnits="userSpaceOnUse" x2="491.327" gradientTransform="matrix(0.7446541,0,0,0.7446541,-3.2041063,0.7509507)" y1="205.392" x1="582.236">
   <stop stop-color="#FFF" offset="0"/>
   <stop stop-color="#FFF" stop-opacity="0" offset="1"/>
  </linearGradient>
  <radialGradient id="radialGradient2683" xlink:href="#linearGradient17671" spreadMethod="reflect" gradientUnits="userSpaceOnUse" cy="55.0655" cx="567.65" gradientTransform="matrix(1,0,0,1.108068,0,-5.950834)" r="38.5858"/>
  <radialGradient id="radialGradient2691" xlink:href="#linearGradient4522" gradientUnits="userSpaceOnUse" cy="249.494" cx="393.616" gradientTransform="matrix(1,0,0,0.905759,0,23.51251)" r="129.846"/>
  <radialGradient id="radialGradient2693" xlink:href="#linearGradient4522" gradientUnits="userSpaceOnUse" cy="268.326" cx="401.1" gradientTransform="matrix(0.6391732,-0.3071802,0.1899467,0.3952362,-37.856811,255.82041)" r="212.482"/>
  <radialGradient id="radialGradient2695" xlink:href="#linearGradient3800" gradientUnits="userSpaceOnUse" cy="118.281" cx="389.167" r="11.6067"/>
  <radialGradient id="radialGradient2703" xlink:href="#linearGradient4522" gradientUnits="userSpaceOnUse" cy="120.328" cx="541.817" gradientTransform="matrix(1,0,0,1.220183,0,-26.49428)" r="74.1004"/>
  <radialGradient id="radialGradient2747" xlink:href="#linearGradient4522" spreadMethod="reflect" gradientUnits="userSpaceOnUse" cy="55.0655" cx="567.65" gradientTransform="matrix(1,0,0,1.108068,0,-5.950834)" r="38.5858"/>
  <radialGradient id="radialGradient2759" gradientUnits="userSpaceOnUse" cy="1147.53" cx="346.733" gradientTransform="matrix(0.4652465,0,0,0.4650091,129.83888,-355.9606)" r="254.041">
   <stop stop-color="#FFF" stop-opacity="0" offset="0"/>
   <stop stop-color="#FFF" stop-opacity="0" offset="0.95"/>
   <stop stop-color="#FFF" offset="0.97"/>
   <stop stop-color="#FFF" stop-opacity="0" offset="0.991163"/>
   <stop stop-color="#FFF" stop-opacity="0" offset="1"/>
  </radialGradient>
  <radialGradient id="radialGradient2765" gradientUnits="userSpaceOnUse" cy="118.281" cx="389.167" r="11.6067">
   <stop stop-color="#000" offset="0"/>
   <stop stop-color="#000" stop-opacity="0" offset="1"/>
  </radialGradient>
  <radialGradient id="radialGradient2767" xlink:href="#linearGradient4522" gradientUnits="userSpaceOnUse" cy="130.496" cx="439.417" gradientTransform="matrix(1,0,0,1.0094295,2.4158933,11.986507)" r="50.3883"/>
  <radialGradient id="radialGradient2769" xlink:href="#linearGradient17671" gradientUnits="userSpaceOnUse" cy="249.494" cx="393.616" gradientTransform="matrix(1,0,0,0.905759,0,23.51251)" r="129.846"/>
  <radialGradient id="radialGradient3569" gradientUnits="userSpaceOnUse" cy="1040.22" cx="392.074" gradientTransform="matrix(1.0896219,1.2704115,-1.9939809,2.0570205,1844.3831,-1657.6391)" r="161.426">
   <stop stop-color="#FFF" stop-opacity="0" offset="0"/>
   <stop stop-color="#FFF" stop-opacity="0" offset="0.930233"/>
   <stop stop-color="#FFF" offset="1"/>
   <stop stop-color="#FFF" stop-opacity="0" offset="1"/>
  </radialGradient>
  <filter id="filter4553">
   <feGaussianBlur stdDeviation="5.1794966"/>
  </filter>
  <filter id="filter4557">
   <feGaussianBlur stdDeviation="4.9633802"/>
  </filter>
  <filter id="filter4561">
   <feGaussianBlur stdDeviation="4.9841362"/>
  </filter>
  <filter id="filter4565">
   <feGaussianBlur stdDeviation="4.9805913"/>
  </filter>
  <radialGradient id="radialGradient4589" spreadMethod="reflect" gradientUnits="userSpaceOnUse" cy="258.4" cx="397.698" gradientTransform="matrix(0.9752836,-0.1739102,0.1452743,1.218352,-31.791146,3.8357559)" r="123.491">
   <stop stop-color="#e5f4ff" offset="0"/>
   <stop stop-color="#e5f4ff" stop-opacity="0" offset="1"/>
  </radialGradient>
  <radialGradient id="radialGradient4591" xlink:href="#linearGradient4583" spreadMethod="reflect" gradientUnits="userSpaceOnUse" cy="249.494" cx="393.616" gradientTransform="matrix(1,0,0,0.9523714,0,11.88305)" r="123.491"/>
  <filter id="filter4771" height="1.3357642" width="1.3744004" y="-0.1678821" x="-0.18720019">
   <feGaussianBlur stdDeviation="21.617094"/>
  </filter>
  <filter id="filter4775" height="1.2794765" width="1.2952752" y="-0.13973826" x="-0.14763759">
   <feGaussianBlur stdDeviation="17.444351"/>
  </filter>
  <filter id="filter4779" height="1.194832" width="1.2056784" y="-0.097415979" x="-0.1028392">
   <feGaussianBlur stdDeviation="12.155829"/>
  </filter>
  <radialGradient id="radialGradient4602" xlink:href="#linearGradient3800" gradientUnits="userSpaceOnUse" cy="119.385" cx="383.152" r="11.6067"/>
  <filter id="filter4636">
   <feGaussianBlur stdDeviation="0.20104886"/>
  </filter>
  <filter id="filter4640">
   <feGaussianBlur stdDeviation="0.11651621"/>
  </filter>
  <filter id="filter10578" height="1.3723973" width="1.672163" y="-0.18619863" x="-0.33608148">
   <feGaussianBlur stdDeviation="2.7377865"/>
  </filter>
  <radialGradient id="radialGradient2632" xlink:href="#linearGradient7995" gradientUnits="userSpaceOnUse" cy="176.998" cx="291.291" gradientTransform="matrix(0.9676712,1.0349742e-2,-1.0369284e-2,0.9694982,11.252454,2.3839761)" r="136.812"/>
  <radialGradient id="radialGradient2636" xlink:href="#linearGradient7995" gradientUnits="userSpaceOnUse" cy="176.998" cx="291.291" gradientTransform="matrix(0.9676712,1.0349742e-2,-1.0369284e-2,0.9694982,11.252454,2.3839759)" r="136.812"/>
  <filter id="filter3602" height="1.2213632" width="1.2267212" y="-0.11068162" x="-0.1133606">
   <feGaussianBlur stdDeviation="6.9717137"/>
  </filter>
  <filter id="filter3606" height="1.2229963" width="1.2375122" y="-0.11149816" x="-0.1187561">
   <feGaussianBlur stdDeviation="7.0139312"/>
  </filter>
 </defs>
 <metadata>
  <rdf:RDF>
   <cc:Work rdf:about="">
    <dc:format>image/svg+xml</dc:format>
    <dc:type rdf:resource="http://purl.org/dc/dcmitype/StillImage"/>
    <dc:title/>
   </cc:Work>
  </rdf:RDF>
 </metadata>
 <g transform="translate(-2.4158933,-9.2170219)">
  <path opacity="0.3" d="m547.292,775.884c0,97.9514-72.2731,177.357-161.426,177.357-89.1534,0-161.426-79.4053-161.426-177.357,0-97.9514,72.2731-177.357,161.426-177.357,89.1534,0,161.426,79.4053,161.426,177.357z" fill-rule="evenodd" transform="matrix(0.7004643,0,0,0.638694,5.6980997,-302.73769)" fill="url(#radialGradient2677)"/>
  <path d="m547.292,775.884c0,97.9514-72.2731,177.357-161.426,177.357-89.1534,0-161.426-79.4053-161.426-177.357,0-97.9514,72.2731-177.357,161.426-177.357,89.1534,0,161.426,79.4053,161.426,177.357z" fill-rule="evenodd" transform="matrix(0.7004643,0,0,0.638694,20.99835,-318.54803)" fill="#244762"/>
  <path d="M179.848,157.779c-2.648,15.347-2.047,30.515,1.257,44.795,0.632,2.734,1.358,5.434,2.187,8.098,0.003,0.007-0.002,0.017,0,0.024,0.275,0.882,0.565,1.755,0.861,2.629,0.583,1.72,1.199,3.411,1.862,5.096,0.013,0.033,0.034,0.061,0.047,0.093,0.009,0.023,0.014,0.047,0.023,0.07,0.647,1.639,1.326,3.283,2.048,4.887,0.021,0.047,0.048,0.093,0.069,0.14,0.353,0.78,0.701,1.555,1.071,2.327,0.027,0.056,0.066,0.106,0.093,0.163,0.374,0.777,0.749,1.558,1.14,2.327,0.191,0.374,0.387,0.744,0.582,1.117,0.249,0.475,0.489,0.947,0.745,1.419,0.034,0.064,0.081,0.122,0.116,0.186,0.365,0.672,0.739,1.338,1.117,2.002,0.045,0.078,0.095,0.154,0.14,0.232,0.433,0.756,0.875,1.512,1.326,2.258,0.047,0.077,0.092,0.155,0.14,0.232,1.387,2.283,2.855,4.524,4.398,6.702,0.466,0.658,0.94,1.307,1.419,1.955,0.06,0.08,0.127,0.153,0.186,0.233,16.703,22.429,41.66,38.742,71.348,43.864,5.315-25.965-14.767-42.512-29.554-56.663-2.392-4.189-10.443-7.435-13.799-11.985-11.027-17.094-27.558-32.763-48.822-62.201z" fill-rule="evenodd" fill="url(#radialGradient2679)"/>
  <path d="M404.357,177.004c0.273,21.378-6.183,42.928-18.113,61.405-5.965,9.239-13.299,17.709-21.844,25.005-21.015-0.527-35.043-9.597-36.802-14.473,27.237-25.009,47.426-57.083,40.464-67.826,4.648-12.087,12.152-24.235,18.157-33.398l9.536-14.552c5.954,13.673,8.652,29.467,8.602,43.839z" fill-rule="evenodd" fill="url(#linearGradient2681)"/>
  <path d="m606.236,55.0655c0,23.6133-17.2754,42.7557-38.5858,42.7557-21.3103,0-38.5858-19.1424-38.5858-42.7557s17.2754-42.7557,38.5858-42.7557c21.3103,0,38.5858,19.1424,38.5858,42.7557z" fill-rule="nonzero" transform="matrix(0.3787858,1.7393842e-3,0.1147366,0.3332128,150.30256,121.88421)" fill="url(#radialGradient2683)"/>
  <path d="m606.236,55.0655c0,23.6133-17.2754,42.7557-38.5858,42.7557-21.3103,0-38.5858-19.1424-38.5858-42.7557s17.2754-42.7557,38.5858-42.7557c21.3103,0,38.5858,19.1424,38.5858,42.7557z" fill-rule="nonzero" transform="matrix(0.3787858,1.7393842e-3,0.1147366,0.3332128,144.58737,120.45541)" fill="url(#radialGradient2683)"/>
  <path d="m606.236,55.0655c0,23.6133-17.2754,42.7557-38.5858,42.7557-21.3103,0-38.5858-19.1424-38.5858-42.7557s17.2754-42.7557,38.5858-42.7557c21.3103,0,38.5858,19.1424,38.5858,42.7557z" fill-rule="nonzero" transform="matrix(0.3787858,1.7393842e-3,0.1147366,0.3332128,153.87452,117.59782)" fill="url(#radialGradient2683)"/>
  <path d="m606.236,55.0655c0,23.6133-17.2754,42.7557-38.5858,42.7557-21.3103,0-38.5858-19.1424-38.5858-42.7557s17.2754-42.7557,38.5858-42.7557c21.3103,0,38.5858,19.1424,38.5858,42.7557z" fill-rule="nonzero" transform="matrix(0.3368278,-0.1594348,0.1622978,0.3146981,170.78667,237.2548)" fill="url(#radialGradient2683)"/>
  <path d="m523.462,249.494c0,64.9536-58.1339,117.609-129.846,117.609-71.7118,0-129.846-52.6553-129.846-117.609,0-64.9536,58.1339-117.609,129.846-117.609,71.7118,0,129.846,52.6553,129.846,117.609z" fill-rule="nonzero" transform="matrix(0.5942012,0,0,0.6742485,32.02093,18.720124)" fill="url(#radialGradient2691)"/>
  <path d="M288.029,133.21c-34.911,0.444-71.534,8.966-90.647,27.066-28.154,17.044-22.137,53.377,8.32,90.792,24.531,28.479,60.278,41.31,89.816,39.023,35.291-0.61,64.172-19.448,78.914-36.353,28.279-28.418,34.913-66.031,1.746-93.022-20.566-17.153-53.638-28.31-88.149-27.506z" fill-rule="evenodd" fill="url(#radialGradient2693)"/>
  <path opacity="0.54000005" d="m400.774,118.281c0,6.41022-5.19651,11.6067-11.6067,11.6067-6.41022,0-11.6067-5.19651-11.6067-11.6067,0-6.41022,5.19651-11.6067,11.6067-11.6067,4.77724,0,9.06654,2.9271,10.808,7.37561" fill-rule="nonzero" transform="matrix(0.9084705,0,0,0.8208641,-10.735304,148.21976)" filter="url(#filter4546)" fill="url(#radialGradient2695)"/>
  <path opacity="0.54" d="m400.774,118.281c0,6.41022-5.19651,11.6067-11.6067,11.6067-6.41022,0-11.6067-5.19651-11.6067-11.6067,0-6.41022,5.19651-11.6067,11.6067-11.6067,4.77724,0,9.06654,2.9271,10.808,7.37561" fill-rule="nonzero" transform="matrix(1.6462774,0,0,1.3808083,-290.79096,77.012587)" filter="url(#filter4640)" fill="url(#radialGradient2695)"/>
  <path opacity="0.44086022" d="m400.774,118.281c0,6.41022-5.19651,11.6067-11.6067,11.6067-6.41022,0-11.6067-5.19651-11.6067-11.6067,0-6.41022,5.19651-11.6067,11.6067-11.6067,4.77724,0,9.06654,2.9271,10.808,7.37561" fill-rule="nonzero" transform="matrix(0.6707658,0,0,0.7085892,47.376128,185.40466)" filter="url(#filter4546)" fill="url(#radialGradient2695)"/>
  <path d="M195.605,79.0657c-12.513,12.2709-22.692,26.9313-29.793,43.2523-3.55,8.161-6.331,16.737-8.25,25.636-0.479,2.225-0.905,4.471-1.276,6.735l23.406,3.871c0.306-1.871,0.658-3.727,1.055-5.566,1.586-7.355,3.886-14.443,6.821-21.187,5.871-13.489,14.286-25.606,24.631-35.7482" fill-rule="evenodd" fill="url(#radialGradient2636)"/>
  <path d="m523.462,249.494c0,64.9536-58.1339,117.609-129.846,117.609-71.7118,0-129.846-52.6553-129.846-117.609,0-64.9536,58.1339-117.609,129.846-117.609,71.7118,0,129.846,52.6553,129.846,117.609z" fill-rule="nonzero" transform="matrix(0.5942012,0,0,0.6742485,40.59367,33.008064)" fill="url(#radialGradient2691)"/>
  <path d="M386.977,274.931c-25.027,24.542-59.392,39.526-97.152,39.122s-71.797-16.12-96.293-41.191l16.954-16.635c20.251,20.722,48.387,33.712,79.593,34.046,31.207,0.334,59.607-12.051,80.288-32.335" fill-rule="evenodd" fill="url(#radialGradient2632)"/>
  <path d="m523.462,249.494c0,64.9536-58.1339,117.609-129.846,117.609-71.7118,0-129.846-52.6553-129.846-117.609,0-64.9536,58.1339-117.609,129.846-117.609,71.7118,0,129.846,52.6553,129.846,117.609z" fill-rule="nonzero" transform="matrix(0.4814128,0,0,0.5163165,69.98664,79.197897)" fill="url(#radialGradient2691)"/>
  <path d="M206.094,151.844c-4.551-0.115-9.198-0.093-14.094,0.031-25.13,0.358-45.045,7.174-59.562,22.781-14.184,15.249-20.164,36.308-19.313,60.375,0.851,24.06,8.372,51.394,21.531,80.657,26.319,58.525,75.331,124.869,141.188,186.437,65.848,61.56,133.996,105.077,193.094,126.75,29.548,10.836,56.842,16.236,80.687,15.437,23.849-0.798,44.435-7.93,59.25-22.374,19.085-18.609,24.481-47.922,18.875-81.938-5.58-33.861-19.179-66.817-42.594-108-4.512,11.409-6.162,17.849-7.964,23.22,20.559,39.129,28.814,55.555,34.308,85.186,5.491,29.618,1.35,52.649-12.812,67.875-11.081,11.913-27.499,18.137-48.844,18.813-21.337,0.676-47.343-4.411-75.875-14.938-57.071-21.055-124.375-63.71-187.594-122.812-63.222-59.105-110.524-123.516-135.75-179.063-12.613-27.772-19.678-53.322-20.687-74.593-1.01-21.28,3.862-37.973,14.656-49.594,13.555-14.594,34.97-19.343,63.906-17.532,28.975,1.814,41.316,5.516,80.864,23.847,5.125-4.955,13.001-4.594,19.252-6.543-38.521-18.853-84.639-32.727-102.522-34.022z" fill-rule="evenodd" transform="matrix(0.5254279,0,0,0.5254279,96.59687,-29.519969)" filter="url(#filter4557)" fill="#fefefe"/>
  <path d="m615.917,120.328c0,49.9354-33.1759,90.4161-74.1004,90.4161-40.9246,0-74.1004-40.4807-74.1004-90.4161s33.1759-90.4161,74.1004-90.4161,74.1004,40.4807,74.1004,90.4161z" fill-rule="nonzero" transform="matrix(0.2829792,-0.3386568,0.2769578,0.1743554,178.91716,354.09491)" fill="url(#radialGradient2703)"/>
  <path d="m615.917,120.328c0,49.9354-33.1759,90.4161-74.1004,90.4161-40.9246,0-74.1004-40.4807-74.1004-90.4161s33.1759-90.4161,74.1004-90.4161,74.1004,40.4807,74.1004,90.4161z" fill-rule="nonzero" transform="matrix(0.2682217,-0.350461,0.2841682,0.1623384,188.54593,350.86358)" fill="url(#radialGradient2703)"/>
  <path d="m615.917,120.328c0,49.9354-33.1759,90.4161-74.1004,90.4161-40.9246,0-74.1004-40.4807-74.1004-90.4161s33.1759-90.4161,74.1004-90.4161,74.1004,40.4807,74.1004,90.4161z" fill-rule="nonzero" transform="matrix(0.4405956,-2.5326039e-2,6.2332572e-2,0.3212787,113.2713,164.86197)" fill="url(#radialGradient2703)"/>
  <path d="m615.917,120.328c0,49.9354-33.1759,90.4161-74.1004,90.4161-40.9246,0-74.1004-40.4807-74.1004-90.4161s33.1759-90.4161,74.1004-90.4161,74.1004,40.4807,74.1004,90.4161z" fill-rule="nonzero" transform="matrix(0.4240849,-0.160985,0.2527898,0.159015,87.5118,245.0304)" fill="url(#radialGradient2703)"/>
  <path d="m523.462,249.494c0,64.9536-58.1339,117.609-129.846,117.609-71.7118,0-129.846-52.6553-129.846-117.609,0-64.9536,58.1339-117.609,129.846-117.609,71.7118,0,129.846,52.6553,129.846,117.609z" fill-rule="nonzero" transform="matrix(0.2725526,-5.8961952e-2,5.3787539e-2,0.2969835,242.36494,103.90633)" fill="url(#radialGradient2691)"/>
  <path d="M507.358,749.978c0,97.901-32.385,203.263-121.492,203.263-89.108,0-161.427-79.456-161.427-177.357s72.319-177.357,161.427-177.357c89.107,0,121.492,53.55,121.492,151.451z" fill-rule="evenodd" transform="matrix(0.5610641,0.4193534,-0.3823728,0.5115869,371.46501,-381.74178)" fill="url(#radialGradient3569)"/>
  <path d="m606.236,55.0655c0,23.6133-17.2754,42.7557-38.5858,42.7557-21.3103,0-38.5858-19.1424-38.5858-42.7557s17.2754-42.7557,38.5858-42.7557c21.3103,0,38.5858,19.1424,38.5858,42.7557z" fill-rule="nonzero" transform="matrix(0.3368278,-0.1594348,0.1622978,0.3146981,160.78515,227.9677)" fill="url(#radialGradient2683)"/>
  <path opacity="0.24372762" d="m517.107,249.494c0,64.9536-55.2886,117.609-123.491,117.609-68.202,0-123.491-52.6553-123.491-117.609,0-64.9536,55.2886-117.609,123.491-117.609,68.202,0,123.491,52.6553,123.491,117.609z" fill-rule="nonzero" transform="matrix(0.103755,-0.1361663,0.1102656,8.3227988e-2,145.04868,156.48754)" filter="url(#filter3477)" fill="#FFF"/>
  <path d="M389.05,81.1347c12.247,12.5358,22.11,27.4103,28.86,43.8803,3.375,8.234,5.972,16.867,7.7,25.806,0.432,2.235,0.81,4.489,1.132,6.76l-23.514,3.37c-0.266-1.877-0.578-3.74-0.935-5.587-1.428-7.388-3.574-14.523-6.363-21.329-5.578-13.611-13.728-25.905-23.85-36.2661" fill-rule="evenodd" fill="url(#radialGradient2636)"/>
  <path d="M549.219,152.562c-45.924-0.368-76.818,14.551-116.813,32.25,6.99,2.161,9.936,4.095,14.865,7.143,37.78-15.319,58.387-22.339,88.01-24.986,29.69-2.653,54.059,1.909,66.563,17.5,20.711,25.825,18.925,69.324-5.438,123.625-24.362,54.3-70.909,118.596-136.718,184.344-10.032,10.022-20.968,19.001-31.75,27.968-1.089,0.887-1.769,2.197-1.844,3.594s0.421,2.784,1.437,3.812c0.761,0.775,1.444,1.445,2,2.094,1.759,2.076,4.901,2.356,7,0.625h0.031c10.758-8.971,21.901-18.201,32.407-28.625,65.642-65.131,113.896-130.21,139.812-187.062,25.917-56.853,29.82-106.408,3.969-138.625-14.054-17.514-37.487-23.448-63.531-23.657zm-389.479,284.771c-21.382,39.746-35.683,70.984-41.24,103.105-5.569,32.191-0.834,60.337,17.094,79.562,19.614,21.034,50.421,27.52,87.281,21.812,36.855-5.706,80.306-23.467,127.219-51.781,1.482-0.901,2.383-2.505,2.406-4.219,0.023-1.713-0.859-3.343-2.312-4.281-0.061-0.038-0.646-0.827-2.282-2.031-1.616-1.195-3.8-1.304-5.531-0.281-44.27,26.244-85.821,43.139-120.094,48.812-34.278,5.675-60.664,0.243-76.656-16.906-14.444-15.489-19.031-37.991-14.25-66.656,4.794-28.748,15.368-49.346,32.308-89.174-2.991-4.835-3.585-7.981-3.943-17.962z" fill-rule="evenodd" transform="matrix(0.5254279,0,0,0.5254279,96.59687,-29.519969)" filter="url(#filter4565)" fill="#FFF"/>
  <path d="M180.572,200.217c-0.067-0.085-0.172-0.132-0.281-0.125-0.087,0.011-0.165,0.056-0.219,0.125-0.011,0.01-0.021,0.02-0.031,0.031-12.93,20.669-21.381,40.553-24.344,57.719-2.962,17.166-0.436,31.651,8.719,41.469,10.058,10.786,27.201,13.749,48.156,10.187,20.955-3.561,45.756-13.644,71.25-29.031,0.086-0.048,0.138-0.122,0.156-0.219,0.018-0.096,0.001-0.205-0.062-0.281-0.018-0.024-0.039-0.045-0.063-0.062-0.547-0.347-0.788-0.765-1.406-1.219-0.105-0.064-0.238-0.064-0.344,0-24.407,14.469-48.622,24.335-69.093,28.031s-37.156,1.217-46.625-8.937c-8.532-9.149-11.128-22.386-8.438-38.532s10.669-35.164,23.219-55.781c0.043-0.076,0.054-0.166,0.031-0.25m205.5-155.656c-23.601,0.4025-44.978,9.8682-65.906,19.9687,1.315,0.3555,2.611,0.6924,3.906,1.0938,20.637-10.2998,40.105-16.5351,56.5-18,16.607-1.4839,30.89,0.9722,38.531,10.5,12.197,15.2073,10.85,40.0107-2.656,70.1247-13.506,30.115-39.14,65.487-75.312,101.625-5.599,5.594-11.699,10.566-17.594,15.469-0.011,0.01-0.022,0.02-0.031,0.031-0.111,0.125-0.111,0.313,0,0.438,0.417,0.424,0.842,0.872,1.218,1.312,0.01,0.011,0.021,0.022,0.032,0.032,0.093,0.084,0.226,0.108,0.343,0.062,0.035-0.015,0.067-0.036,0.094-0.062,5.893-4.915,11.914-9.896,17.563-15.5,35.776-35.498,62.029-70.966,76.031-101.688s15.78-56.7854,2.469-73.375c-7.033-8.7646-18.977-11.9198-32.875-12.0312-0.767-0.0062-1.55-0.013-2.313,0z" fill-rule="evenodd" fill="#5f5f5f"/>
  <path d="M522.062,122.875c-62.128-0.544-104.066,27.998-155.325,53.966,11.806-1.283,15.132-1.338,21.042,1.561,48.559-23.414,69.324-32.201,104.783-38.027,35.121-5.771,64.809,1.252,77.813,15.344,11.105,12.034,16.205,29.149,15.375,50.75-0.83,21.594-7.739,47.393-20.219,75.375-24.959,55.964-72.127,120.624-135.531,179.75-11.863,11.062-23.852,21.526-35.906,31.406-1.313,1.062-2.136,2.659-2.219,4.406s0.575,3.414,1.813,4.625c0.744,0.734,1.406,1.401,1.968,2.031,2.135,2.408,5.883,2.693,8.375,0.657,12.222-10.052,24.373-20.654,36.407-31.875,66.005-61.551,114.417-127.817,140.156-186.282,12.869-29.232,20.064-56.53,20.781-80.562,0.718-24.038-5.197-45.014-19-60.344-10.797-11.991-30.701-22.525-60.313-22.781zm-367.906,250.25c-35.325,47.682-52.638,84.886-62.906,123.437-10.325,38.767-7.0331,72.197,13.969,94.719,19.013,20.39,48.884,27.422,84.312,23.157,35.422-4.265,76.987-19.663,121.531-45.063,1.929-1.086,3.12-3.112,3.094-5.344-0.025-2.231-1.331-4.227-3.25-5.25-1.241-0.661-2.354-1.263-3.344-1.875-1.848-1.154-4.179-1.229-6.093-0.187h-0.031c-41.563,23.155-80.775,37.473-113.063,41.625-32.294,4.153-57.021-1.727-71.875-17.656-16.368-17.553-19.3928-45.205-9.875-80.657,9.487-35.336,34.906-80.182,49.316-104.437-2.601-5.474-2.083-11.082-1.785-22.469z" fill-rule="evenodd" transform="matrix(0.5254279,0,0,0.5254279,96.59687,-29.519969)" filter="url(#filter4561)" fill="#FFF"/>
  <path d="M374.791,32.592c-33.123-0.2902-61.637,15.1597-89.125,30.9688-0.11,0.0704-0.152,0.1874-0.156,0.3125,1.69-0.0855,3.384-0.1461,5.093-0.1563,24.512-14.6947,47.928-24.1436,67.594-27.375,19.836-3.2592,36.988,0.3617,45.219,9.2813,6.716,7.2781,9.662,17.5267,9.187,29.875-0.474,12.3483-4.374,26.7847-11.312,42.3437-13.876,31.118-39.925,66.752-74.875,99.344-6.539,6.097-13.136,11.865-19.781,17.312-0.091,0.07-0.151,0.167-0.157,0.282-0.006,0.114,0.042,0.233,0.125,0.312,0.425,0.419,0.873,0.827,1.25,1.25,0.133,0.158,0.366,0.185,0.532,0.063,6.646-5.466,13.243-11.278,19.781-17.375,35.881-33.46,62.125-69.464,76-100.969,6.938-15.753,10.777-30.3701,11.156-43.0002,0.379-12.6302-2.708-23.284-9.656-31-5.282-5.8659-15.347-11.3343-30.875-11.4688zm-196.313,136.813c0.121-1.82,0.295-3.612,0.5-5.407-18.802,26.071-31.631,50.302-37.125,70.907-5.51,20.668-3.648,37.739,6.969,49.125,9.611,10.306,26.53,13.794,47.406,10.812,20.877-2.982,45.763-12.442,71.407-28.25,0.123-0.074,0.194-0.2,0.187-0.344-0.006-0.144-0.089-0.281-0.219-0.343-0.682-0.364-1.321-0.569-1.968-0.969-25.759,15.392-44.999,22.371-69.875,27.344-20.1,2.914-36.09-0.472-45.063-10.094-9.879-10.594-11.416-26.952-6.062-46.875,5.21-19.392,16.974-42.095,33.843-65.906z" fill-rule="evenodd" fill="#5f5f5f"/>
  <path d="M179.692,158.56c-0.306,1.871-0.567,3.758-0.78,5.659-0.427,3.802-0.667,7.662-0.708,11.57-0.335,31.262,12.031,59.717,32.282,80.438l-16.954,16.635c-24.496-25.072-39.45-59.499-39.046-97.327,0.051-4.728,0.34-9.399,0.857-13.999,0.258-2.3,0.573-4.583,0.943-6.847" fill-rule="evenodd" fill="url(#radialGradient2636)"/>
  <path d="m606.236,55.0655c0,23.6133-17.2754,42.7557-38.5858,42.7557-21.3103,0-38.5858-19.1424-38.5858-42.7557s17.2754-42.7557,38.5858-42.7557c21.3103,0,38.5858,19.1424,38.5858,42.7557z" fill-rule="nonzero" transform="matrix(0.2470079,-0.1209477,0.1190189,0.2387309,184.50724,198.8734)" fill="url(#radialGradient2683)"/>
  <path d="m606.236,55.0655c0,23.6133-17.2754,42.7557-38.5858,42.7557-21.3103,0-38.5858-19.1424-38.5858-42.7557s17.2754-42.7557,38.5858-42.7557c21.3103,0,38.5858,19.1424,38.5858,42.7557z" fill-rule="nonzero" transform="matrix(0.3368278,-0.1594348,0.1622978,0.3146981,134.35257,219.39499)" fill="url(#radialGradient2683)"/>
  <path d="m606.236,55.0655c0,23.6133-17.2754,42.7557-38.5858,42.7557-21.3103,0-38.5858-19.1424-38.5858-42.7557s17.2754-42.7557,38.5858-42.7557c21.3103,0,38.5858,19.1424,38.5858,42.7557z" fill-rule="nonzero" transform="matrix(0.3368278,-0.1594348,0.1622978,0.3146981,135.78136,220.1094)" fill="url(#radialGradient2683)"/>
  <path d="m606.236,55.0655c0,23.6133-17.2754,42.7557-38.5858,42.7557-21.3103,0-38.5858-19.1424-38.5858-42.7557s17.2754-42.7557,38.5858-42.7557c21.3103,0,38.5858,19.1424,38.5858,42.7557z" fill-rule="nonzero" transform="matrix(0.3368278,-0.1594348,0.1622978,0.3146981,140.78212,221.53821)" fill="url(#radialGradient2683)"/>
  <path d="m606.236,55.0655c0,23.6133-17.2754,42.7557-38.5858,42.7557-21.3103,0-38.5858-19.1424-38.5858-42.7557s17.2754-42.7557,38.5858-42.7557c21.3103,0,38.5858,19.1424,38.5858,42.7557z" fill-rule="nonzero" transform="matrix(0.3368278,-0.1594348,0.1622978,0.3146981,141.49654,221.53821)" fill="url(#radialGradient2683)"/>
  <path d="m606.236,55.0655c0,23.6133-17.2754,42.7557-38.5858,42.7557-21.3103,0-38.5858-19.1424-38.5858-42.7557s17.2754-42.7557,38.5858-42.7557c21.3103,0,38.5858,19.1424,38.5858,42.7557z" fill-rule="nonzero" transform="matrix(0.3368278,-0.1594348,0.1622978,0.3146981,142.21092,222.25257)" fill="url(#radialGradient2683)"/>
  <path d="m606.236,55.0655c0,23.6133-17.2754,42.7557-38.5858,42.7557-21.3103,0-38.5858-19.1424-38.5858-42.7557s17.2754-42.7557,38.5858-42.7557c21.3103,0,38.5858,19.1424,38.5858,42.7557z" fill-rule="nonzero" transform="matrix(0.3368278,-0.1594348,0.1622978,0.3146981,150.06926,222.25257)" fill="url(#radialGradient2683)"/>
  <path d="m606.236,55.0655c0,23.6133-17.2754,42.7557-38.5858,42.7557-21.3103,0-38.5858-19.1424-38.5858-42.7557s17.2754-42.7557,38.5858-42.7557c21.3103,0,38.5858,19.1424,38.5858,42.7557z" fill-rule="nonzero" transform="matrix(0.3368278,-0.1594348,0.1622978,0.3146981,150.06926,222.25257)" fill="url(#radialGradient2683)"/>
  <path d="m606.236,55.0655c0,23.6133-17.2754,42.7557-38.5858,42.7557-21.3103,0-38.5858-19.1424-38.5858-42.7557s17.2754-42.7557,38.5858-42.7557c21.3103,0,38.5858,19.1424,38.5858,42.7557z" fill-rule="nonzero" transform="matrix(0.3368278,-0.1594348,0.1622978,0.3146981,155.06997,217.25181)" fill="url(#radialGradient2683)"/>
  <path d="m606.236,55.0655c0,23.6133-17.2754,42.7557-38.5858,42.7557-21.3103,0-38.5858-19.1424-38.5858-42.7557s17.2754-42.7557,38.5858-42.7557c21.3103,0,38.5858,19.1424,38.5858,42.7557z" fill-rule="nonzero" transform="matrix(0.3368278,-0.1594348,0.1622978,0.3146981,137.92458,232.96847)" fill="url(#radialGradient2683)"/>
  <path d="m606.236,55.0655c0,23.6133-17.2754,42.7557-38.5858,42.7557-21.3103,0-38.5858-19.1424-38.5858-42.7557s17.2754-42.7557,38.5858-42.7557c21.3103,0,38.5858,19.1424,38.5858,42.7557z" fill-rule="nonzero" transform="matrix(0.3368278,-0.1594348,0.1622978,0.3146981,150.06926,237.96922)" fill="url(#radialGradient2683)"/>
  <path d="M197.572,48.1858c-1.318-0.0187-2.626-0.0021-3.937,0.0312-13.205,0.1852-23.462,3.6045-30.719,11.4063-7.04,7.5688-9.631,18.0981-9.188,30.6562,0.444,12.5585,4.393,27.1375,11.469,42.8755,14.153,31.474,40.758,67.525,76.531,100.968,35.773,33.444,72.766,57.04,104.532,68.688,15.883,5.824,30.479,8.667,42.937,8.25,12.458-0.418,23.289-4.099,30.688-11.313,9.412-9.176,11.842-23.929,8.875-41.906s-11.825-39.18-25.969-61.375c-0.016-0.025-0.037-0.047-0.063-0.062-0.009-0.012-0.019-0.023-0.031-0.032-0.199,1.159-0.391,2.292-0.625,3.438,12.835,20.835,21.279,40.425,24.375,57.125,3.12,16.824,0.833,30.703-7.844,40.031-6.796,7.307-16.804,10.986-29.093,11.375-12.29,0.39-26.877-2.508-42.782-8.375-31.809-11.735-68.933-35.298-103.812-67.906s-60.983-68.144-75.031-99.094c-7.025-15.475-11.046-29.813-11.625-42.0625-0.58-12.2491,2.25-22.3967,8.906-29.5625,8.365-9.0066,21.346-11.677,37.656-10.6562,16.026,1.003,35.188,7.0718,56.313,17.6875,1.033-0.3068,2.079-0.566,3.125-0.8438-24.656-12.9597-45.098-19.0655-64.688-19.3437z" fill-rule="evenodd" fill="#5f5f5f"/>
  <path d="M215,111.75c-26.659,0.124-47.616,7.22-62.875,23.625-14.689,15.792-20.986,37.703-20.187,62.813,0.798,25.1,8.491,53.677,22.062,84.281,27.143,61.208,77.97,130.624,146.562,194.75,68.581,64.115,140.561,109.966,202.75,132.719,31.095,11.376,59.749,17.005,84.563,16,24.824-1.006,46.047-8.852,60.719-24.626,22.216-23.884,26.001-60.305,15-102.312-5.5-21-14.66-43.613-27.282-67.281-6.312-11.838-13.501-23.892-21.5-36.188-3.998-6.147-8.211-12.352-12.624-18.593-2.126-3.007-2.504-3.751-3.157-4.907-0.653-1.155-1.518-2.571-3.969-5.781-1.171-1.514-3.248-1.991-4.964-1.141-1.715,0.85-2.593,2.792-2.098,4.641,1.211,4.456,1.386,6.38,1.312,8s-0.537,3.478-0.781,7c-0.074,0.918,0.168,1.833,0.688,2.594,3.572,5.122,7.057,10.263,10.406,15.5,6.702,10.479,12.952,21.206,18.75,32.156,11.567,21.846,21.32,44.643,29.125,68.375,0.021,0.063,0.042,0.125,0.062,0.187,10.16,37.772,6.828,67.319-10.374,85.813-11.587,12.456-28.625,18.952-50.688,19.625-22.054,0.673-48.856-4.689-78.344-15.688-58.976-21.996-128.656-66.451-194.594-128-68.033-63.505-117.949-131.205-144.156-189.25-13.103-29.021-20.223-55.601-21-77.781-0.776-22.186,4.638-39.695,16.313-52.062,15.222-16.125,43.246-21.36,79.937-14.938,36.94,6.466,53.359,13.068,102.285,37.656,9.123-2.611,13.097-2.068,28.385,0.144-65.103-41.004-113.048-57.551-160.326-57.331z" fill-rule="evenodd" transform="matrix(0.5044108,0,0,0.5044108,105.01928,-21.766722)" filter="url(#filter4553)" fill="#FFF"/>
  <path d="m606.236,55.0655c0,23.6133-17.2754,42.7557-38.5858,42.7557-21.3103,0-38.5858-19.1424-38.5858-42.7557s17.2754-42.7557,38.5858-42.7557c21.3103,0,38.5858,19.1424,38.5858,42.7557z" fill-rule="nonzero" transform="matrix(0.2559465,6.9275158e-4,7.7527956e-2,0.13271,194.21984,124.23198)" fill="url(#radialGradient2683)"/>
  <path d="M209.572,32.3733c-13.468,0.0627-23.865,3.5001-31.219,11.4062-7.028,7.5564-10.121,18.1054-9.718,30.7188,0.402,12.6133,4.798,27.2767,11.812,43.0937,14.029,31.634,40.507,67.867,76.281,101.313,35.775,33.444,73.318,57.308,105.438,69.062,16.06,5.877,30.765,8.723,43.219,8.219,12.453-0.504,23.659-4.382,30.687-11.938,10.696-11.498,11.748-29.279,6.125-50.75s-18.933-46.644-39-72.937c-0.009-0.011-0.02-0.021-0.031-0.031,0.239,1.64,0.426,3.306,0.594,4.968,18.177,24.668,30.653,48.372,36.125,68.625,5.529,20.468,3.909,37.397-6.157,48.219-6.778,7.287-16.698,10.942-28.875,11.313-12.177,0.37-26.607-2.556-42.375-8.438-31.534-11.763-68.909-35.357-103.812-67.937-36.004-33.608-61.957-69.411-75.969-100.438-7.006-15.514-10.883-29.8218-11.312-42.0625-0.429-12.2406,2.605-22.4192,9.437-29.6562,9.08-9.6188,25.035-12.2807,44.875-8.8125,19.612,3.4283,42.999,12.8801,67.188,27.4375,1.632,0.0227,3.259,0.0647,4.875,0.1562-33.628-21.0882-64.144-31.6431-88.188-31.5312z" fill-rule="evenodd" fill="#5f5f5f"/>
  <path d="m606.236,55.0655c0,23.6133-17.2754,42.7557-38.5858,42.7557-21.3103,0-38.5858-19.1424-38.5858-42.7557s17.2754-42.7557,38.5858-42.7557c21.3103,0,38.5858,19.1424,38.5858,42.7557z" fill-rule="nonzero" transform="matrix(0.2559465,6.9275158e-4,7.7527956e-2,0.13271,189.93349,120.66)" fill="url(#radialGradient2683)"/>
  <path d="m606.236,55.0655c0,23.6133-17.2754,42.7557-38.5858,42.7557-21.3103,0-38.5858-19.1424-38.5858-42.7557s17.2754-42.7557,38.5858-42.7557c21.3103,0,38.5858,19.1424,38.5858,42.7557z" fill-rule="nonzero" transform="matrix(0.2559465,6.9275158e-4,7.7527956e-2,0.13271,197.79178,129.23275)" fill="url(#radialGradient2683)"/>
  <g fill-rule="nonzero" transform="matrix(0.7446541,0,0,0.7446541,-3.2041063,0.7509507)" filter="url(#filter3597)" fill="url(#radialGradient2747)">
   <path opacity="0.5" d="m606.236,55.0655c0,23.6133-17.2754,42.7557-38.5858,42.7557-21.3103,0-38.5858-19.1424-38.5858-42.7557s17.2754-42.7557,38.5858-42.7557c21.3103,0,38.5858,19.1424,38.5858,42.7557z" transform="matrix(0.3437119,9.3029973e-4,0.1041127,0.1782169,261.76396,156.22963)" filter="url(#filter3553)"/>
   <path opacity="0.5" d="m606.236,55.0655c0,23.6133-17.2754,42.7557-38.5858,42.7557-21.3103,0-38.5858-19.1424-38.5858-42.7557s17.2754-42.7557,38.5858-42.7557c21.3103,0,38.5858,19.1424,38.5858,42.7557z" transform="matrix(0.3437119,9.3029973e-4,0.1041127,0.1782169,259.36548,160.06718)" filter="url(#filter3561)"/>
   <path opacity="0.5" d="m606.236,55.0655c0,23.6133-17.2754,42.7557-38.5858,42.7557-21.3103,0-38.5858-19.1424-38.5858-42.7557s17.2754-42.7557,38.5858-42.7557c21.3103,0,38.5858,19.1424,38.5858,42.7557z" transform="matrix(0.3437119,9.3029973e-4,0.1041127,0.1782169,248.81246,154.31096)" filter="url(#filter3541)"/>
   <path opacity="0.5" d="m606.236,55.0655c0,23.6133-17.2754,42.7557-38.5858,42.7557-21.3103,0-38.5858-19.1424-38.5858-42.7557s17.2754-42.7557,38.5858-42.7557c21.3103,0,38.5858,19.1424,38.5858,42.7557z" transform="matrix(0.3437119,9.3029973e-4,0.1041127,0.1782169,242.09691,146.63608)" filter="url(#filter3557)"/>
   <path opacity="0.5" d="m606.236,55.0655c0,23.6133-17.2754,42.7557-38.5858,42.7557-21.3103,0-38.5858-19.1424-38.5858-42.7557s17.2754-42.7557,38.5858-42.7557c21.3103,0,38.5858,19.1424,38.5858,42.7557z" transform="matrix(0.3437119,9.3029973e-4,0.1041127,0.1782169,251.6906,151.43289)" filter="url(#filter3549)"/>
   <path opacity="0.5" d="m606.236,55.0655c0,23.6133-17.2754,42.7557-38.5858,42.7557-21.3103,0-38.5858-19.1424-38.5858-42.7557s17.2754-42.7557,38.5858-42.7557c21.3103,0,38.5858,19.1424,38.5858,42.7557z" transform="matrix(0.3437119,9.3029973e-4,0.1041127,0.1782169,267.9997,167.74206)" filter="url(#filter3545)"/>
  </g>
  <path fill-rule="evenodd" fill="url(#radialGradient2759)" d="M339.462,127.957c-0.107-0.11-0.213-0.225-0.32-0.334l0.32,0.334z"/>
  <path style="enable-background:accumulate;marker-end:none;color:#000000;marker-start:none;marker-mid:none;" fill-rule="evenodd" fill="url(#radialGradient2632)" d="M426.728,157.592l-22.468,3.188c-0.295,0.467-0.576,0.937-0.875,1.406,0.191,1.47,0.365,2.95,0.5,4.437,0.345,3.811,0.51,7.686,0.468,11.594-0.334,31.263-13.318,59.435-34,79.719l16.625,17c25.027-24.542,40.721-58.641,41.125-96.469,0.051-4.728-0.144-9.421-0.562-14.031-0.209-2.306-0.491-4.573-0.813-6.844z"/>
  <g fill-rule="nonzero" transform="matrix(0.996297,0,0,1,-99.53402,-71.8889)">
   <g transform="matrix(0.7424504,0,0,0.7446541,98.39156,63.707562)" fill="#FFF">
    <path style="text-align:start;" d="M42.8125,160.062c-1.5267-0.004-3.0241,0.587-4.125,1.688s-1.7231,2.6-1.7187,4.156v136.469c-0.0044,1.556,0.6324,3.039,1.7187,4.125s2.5692,1.723,4.125,1.719h12.6563c1.5559,0.004,3.0553-0.618,4.1562-1.719,1.1008-1.101,1.6918-2.598,1.6875-4.125v-117.25h16.5c4.2032,0,7.8414,0.186,10.6875,0.5s4.9461,0.77,5.8438,1.156c4.2453,1.828,6.0982,1.995,9.1562,5.125,3.848,3.939,4.477,4.546,6.594,11.344,0.737,2.652,0.323,9.258-1.594,13.844-0.011,0.02-0.021,0.041-0.031,0.062-0.4,1-1.627,3.009-3.25,4.938-1.624,1.928-3.667,3.857-5.6878,5.062-3.9177,2.336-8.0716,2.178-16.75,2.375-8.5152,0.194-9.4062,0.188-9.4062,0.188-2.0929-0.017-4.0501,1.1-5.0938,2.937-1.0436,1.838-1.0032,4.1,0.0938,5.906l39.937,66.813c1.047,1.749,2.932,2.838,4.969,2.844h16.875c2.127,0.011,4.065-1.163,5.094-3s0.983-4.117-0.125-5.907l-29-47.374c4.559-1.606,8.373-3.613,10.375-5.063,0.056-0.048,0.108-0.101,0.156-0.156,0.029-0.028,0.066-0.065,0.094-0.094,6.252-4.733,10.655-7.974,14.625-15.406v-0.063c0.062-0.126,0.135-0.244,0.187-0.375,3.182-7.132,4.189-14.616,4.407-21.75,0.011-0.02,0.021-0.041,0.031-0.062v-0.031c0.236-12.22-4.514-25.928-14.25-35.313-9.125-8.796-16.148-10.494-22.25-12-7.6803-1.896-17.4127-1.562-31.4375-1.563h-25.25z" filter="url(#filter6606)"/>
    <path style="text-align:start;" d="M191.25,188.281c-18.342,0.445-34.081,8.297-45.219,22.594-9.029,11.556-13.687,25.143-13.687,39.875,0,15.735,5.515,30.311,16.062,42.656,0.021,0.011,0.042,0.021,0.063,0.032,0.113,0.136,0.239,0.261,0.375,0.374,10.968,12.514,26.587,18.844,44.937,18.844,8.198,0,15.814-1.207,22.75-3.781,0.009-0.003,0.022,0.003,0.031,0,0.16-0.029,0.317-0.07,0.469-0.125,6.678-2.61,13.333-6.306,18.907-12,6.628-6.772,11.362-16.235,15.062-23.531,1.19-2.371,1.116-5.234-0.312-7.531-0.856-1.377-2.158-2.272-3.594-2.876,2.079-0.003,4.033-0.836,5.468-2.281,1.436-1.444,2.229-3.419,2.219-5.437v-0.032c-0.14-15.63-4.46-32.289-13.531-43.781-11.825-15.079-28.633-23-48.219-23-0.387,0-1.012-0.018-1.781,0zm1.781,28.125h0.188c5.032,0,9.687,1.057,14.312,3.219,4.673,2.185,8.087,4.875,10.625,8.094,0.04,0.053,0.082,0.105,0.125,0.156l0.063,0.063c1.158,1.491,2.599,4.514,3.937,8.031l-58.25,0.375c2.024-5.375,5.251-9.432,8.188-12.063,5.942-5.339,12.417-7.832,20.812-7.875zm-30.531,46.156l64.219,0.188c-1.547,0.621-2.906,1.682-3.781,3.156-4.012,6.729-5.048,8.361-7.813,10.782-3.051,2.671-5.84,4.619-9.687,6.062-0.019,0.007-0.044-0.007-0.063,0-0.032,0.02-0.063,0.041-0.094,0.062h-0.031c-4.107,1.533-8.228,2.282-12.594,2.282-9.126,0-15.81-2.799-21.937-9.156-4.71-4.928-7.034-8.364-8.219-13.376z" filter="url(#filter6626)"/>
    <path opacity="0.8" style="text-align:start;" d="M307.844,187.844c-15.894,0.414-30.271,6.834-41.563,18.468-11.707,12.063-17.812,27.37-17.812,44.25,0,17.138,6.012,32.599,17.593,44.75,0.219,0.232,0.46,0.441,0.719,0.626,11.543,11.641,26.195,17.875,42.407,17.874,9.304,0,18.162-2.015,26.187-6.062,2.027-1.013,3.93-2.215,5.813-3.469,0.131,0.491,0.313,0.885,0.5,1.344,0.38,0.937,0.715,1.804,1.843,2.937,2.088,2.096,5.775,2.601,6.375,2.594h12.719c0.595,0.007,4.222-0.526,6.281-2.594,1.158-1.163,1.467-2.028,1.844-2.968s0.737-1.722,0.719-3.344v-102.938c0.008-0.712-0.529-4.207-2.563-6.25-2.088-2.096-5.775-2.6-6.375-2.593h-12.719c-0.593-0.007-4.222,0.526-6.281,2.593-1.347,1.354-1.908,3.087-2.219,4.5-1.666-1.168-3.324-2.354-5.124-3.312-8.057-4.328-17.083-6.406-26.657-6.406-0.314,0-0.906-0.021-1.687,0zm1.75,30.468h0.968c9.247,0.001,15.857,2.81,22.094,9.313,0.021,0.011,0.042,0.021,0.063,0.031,0.031,0.032,0.062,0.063,0.093,0.094,6.197,6.452,9,13.627,9,23.656,0,6.473-1.347,11.848-4,16.688v0.031c-0.043,0.062-0.084,0.124-0.124,0.187-2.658,4.87-6.232,8.507-11.344,11.438-5.16,2.958-10.218,4.281-15.875,4.281-5.589,0-10.426-1.296-15.375-4.219-4.804-2.914-8.458-6.795-11.469-12.25-3.014-5.461-4.375-10.747-4.375-16.531,0-5.886,1.372-11.226,4.312-16.593,2.925-5.249,6.442-8.906,11.063-11.688,0.007-0.004,0.024,0.004,0.031,0,0.021-0.021,0.042-0.041,0.063-0.062,0.042-0.021,0.083-0.042,0.125-0.063,0.16-0.095-0.077,0.065,0.031,0,0.042-0.031,0.084-0.062,0.125-0.094,4.588-2.736,9.196-4.068,14.594-4.219z" filter="url(#filter3602)"/>
    <path opacity="0.8" style="text-align:start;" d="M431.25,187.938c-11.26,0-21.826,2.808-31.156,8.437-9.308,5.616-16.752,13.622-22,23.469-5.184,9.775-7.813,20.54-7.813,31.844,0,16.769,5.766,31.856,16.938,43.75,11.257,11.985,26.245,18.312,43.093,18.312,10.858,0,20.925-2.35,29.782-7.125,0.277-0.151,0.539-0.329,0.781-0.531,0.01-0.011,0.021-0.021,0.031-0.032,8.592-4.824,20.323-14.107,27-32.781,0.915-2.558,0.563-5.397-1-7.656s-4.111-3.611-6.812-3.656h-0.032s-3.531-0.047-7.093-0.094c-1.764-0.023-3.549-0.056-4.969-0.063-0.682-0.003-1.276-0.006-1.781,0-0.478,0.006-0.764,0.032-0.75,0.032,0.764-0.034,0.104-0.045-0.625,0.031,0.036-0.004-0.477,0.042-0.875,0.125-0.162,0.034-0.718,0.172-1.188,0.344-0.564,0.207-0.929,0.424-1.281,0.625-1.208,0.691-1.087,0.784-1.375,1.031-0.144,0.123-0.281,0.229-0.375,0.312-0.047,0.042-0.065,0.069-0.094,0.094-0.014,0.013-0.022,0.023-0.031,0.032-0.005,0.004-0.027-0.004-0.031,0-0.206,0.191-0.394,0.4-0.563,0.624-0.468,0.61-0.869,1.288-1.156,2-5.364,12.616-15.987,17.063-27.031,17.063-6.095,0-11.139-1.378-15.844-4.219-4.659-2.84-8.19-6.633-11.031-12.031-2.81-5.426-4.094-10.908-4.094-17.125,0-9.708,2.766-16.913,8.875-23.5,6.098-6.526,12.623-9.312,22-9.312,6.011,0,10.528,1.01,14.688,3.531,4.159,2.521,8.158,6.74,12.406,13.812,0.01,0.011,0.021,0.021,0.031,0.031,0.184,0.316,0.405,0.61,0.656,0.876,0.027,0.026,0.039,0.039,0.063,0.062l0.125-0.125c0.871,0.859,2.156,2.156,2.156,2.156s0.454,0.234,0.625,0.313,0.139,0.095,0.75,0.312c0.44,0.157,0.939,0.294,1.188,0.344,0.652,0.13,1.825,0.206,0.781,0.094,0.036,0.004,0.076,0.037,0.531,0.062-0.155-0.008,0.047,0.018,0.531,0.032,0.586,0.016,0.901-0.006,1.25,0,0.911,0.013,2.27,0.052,3.844,0.062,3.047,0.019,6.786,0.012,9.594,0,2.632-0.024,5.09-1.256,6.687-3.344,1.598-2.087,2.081-4.787,1.438-7.25-3.696-14.302-14.077-23.777-18.719-27.656-4.899-4.093-10.717-7.309-17.313-9.688-6.685-2.434-13.667-3.624-20.812-3.624z" filter="url(#filter3606)"/>
    <path style="text-align:start;" d="M508.094,154.125c-2.744-0.008-5.453,1.046-7.469,3.063-1.985,1.984-3.102,4.688-3.094,7.5v24.062h-9.031c-2.744-0.008-5.453,1.046-7.469,3.062-1.985,1.985-3.101,4.689-3.093,7.5v13.657c-0.009,2.921,1.182,5.571,3.124,7.5,1.97,1.955,4.67,3.091,7.532,3.062l9.156-0.093,9.027,78.218c4.71,0.082,8.807,1.457,14.44,0l11.033-78.344h9.062c2.812,0.008,5.516-1.108,7.5-3.093,2.017-2.016,3.071-4.725,3.063-7.469v-13.688c0.008-2.775-1.056-5.523-3.125-7.562-2.06-2.03-4.844-3.049-7.625-3l-8.875,0.094v-23.906c0.008-2.713-1.014-5.452-3.062-7.5-2.049-2.049-4.788-3.071-7.5-3.063h-13.126-0.468z" transform="translate(2,-2)" filter="url(#filter6618)"/>
    <path style="text-align:start;" d="M615.062,156.188c-13.036,0.159-25.347,3.669-36.562,10.437-11.505,6.875-20.705,16.528-27.344,28.625-6.579,12.106-9.875,25.41-9.875,39.5,0,21.11,7.408,39.783,21.875,54.719,14.495,14.964,32.939,22.625,53.938,22.625,20.793,0,39.083-7.796,53.5-22.813,14.473-15.009,21.843-33.791,21.844-55.187-0.001-21.57-7.378-40.443-21.876-55.344-14.516-14.92-33.177-22.562-54.562-22.562-0.231,0-0.553-0.005-0.938,0zm0.813,25.937c0.165-0.003,0.382,0,0.75,0,8.796,0,16.936,2.272,24.875,7,7.942,4.73,13.881,10.858,18.188,18.687,0.01,0.011,0.02,0.022,0.031,0.032,0.019,0.032,0.04,0.063,0.062,0.094,4.314,7.732,6.5,16.321,6.5,26.156,0,9.942-2.221,18.692-6.593,26.656-4.32,7.962-10.191,14.071-17.969,18.656-0.011,0.01-0.021,0.021-0.031,0.032-0.043,0.018-0.085,0.039-0.126,0.062-7.676,4.529-15.833,6.75-24.937,6.75-13.756,0-24.818-4.723-34.656-14.812-9.755-10.116-14.438-21.876-14.438-36.688,0-10.009,2.224-18.792,6.594-26.75,4.384-7.983,10.312-14.158,18.125-18.875,7.577-4.574,15.339-6.859,23.625-7z" filter="url(#filter6614)"/>
    <path style="text-align:start;" d="M737.5,156.281c-7.452,0-14.598,1.704-21.094,5.031-6.452,3.273-11.752,7.967-15.468,13.938-4.407,7.079-6.563,17.181-6.563,24.875,0,7.495,0.76,15.666,6.75,23.437,0.015,0.031,0.046,0.061,0.063,0.094,0.024,0.032,0.037,0.063,0.062,0.094,0.055,0.108,0.118,0.213,0.188,0.312,0.02,0.022,0.041,0.043,0.062,0.063,6.869,8.374,14.943,13.062,28.438,17.313,5.84,1.839,11.084,4.478,15.093,7.156s6.782,5.576,7.531,6.968c3.438,6.382,1.52,16.202-0.624,20.376-1.08,2.099-3.182,4.173-6.188,5.687-3.234,1.583-6.421,2.313-10.188,2.313-3.841,0-8.029-1.387-11.281-4.532-3.278-3.169-5.94-8.157-6.219-16.906-0.125-3.949-3.424-7.137-7.374-7.156l-13.344-0.125c-2.017-0.019-3.993,0.802-5.406,2.281-1.414,1.479-2.175,3.472-2.063,5.531,0.525,9.498,3.016,18.111,6.437,25.157,3.309,6.813,7.442,12.286,12.626,15.656,0.024,0.016,0.038,0.047,0.062,0.062,0.107,0.103,0.222,0.197,0.344,0.282,0.007,0.004,0.024-0.005,0.031,0l0.031,0.031c8.004,4.877,16.952,7.812,27.032,7.812,13.397,0,24.657-5.868,33.468-13.906h0.032c0.118-0.111,0.233-0.226,0.343-0.344,6.109-6.416,9.854-16.777,11.219-27.562,0.969-7.659,0.497-16.015-1.531-24.688-2.654-11.346-14.136-22.504-32.125-27.406-0.197-0.071-0.154-0.045-0.219-0.063-0.057-0.015-0.233-0.078-0.187-0.062-5.394-1.928-10.026-3.342-17.594-7.031-0.041-0.022-0.083-0.043-0.125-0.063-0.04-0.019-0.054-0.043-0.094-0.062h-0.031l-0.063-0.063c-4.944-2.349-6.129-5.653-6.875-7.906-0.918-2.774-1.486-9.87,4.719-15.813,2.433-2.155,5.816-3.593,9.594-3.593,2.968,0,6.482,0.961,9.093,2.406,0.039,0.021,0.088,0.041,0.126,0.063l0.031,0.031c-0.471-0.262,0.41,0.299,1.062,1.031s1.402,1.755,2.031,2.938c1.31,2.458,2.335,5.771,2.376,9.343,0.047,4.005,3.37,7.292,7.374,7.313l12.126,0.094c3.969,0.034,7.316-3.159,7.468-7.126,0.376-9.861-2.293-18.221-6-24.562-3.683-6.301-8.227-10.736-12.844-13.156-6.904-3.732-14.421-5.563-22.312-5.563z" filter="url(#filter6610)"/>
   </g>
   <g transform="matrix(0.7446541,0,0,0.7446541,124.05379,843.43751)">
    <path style="text-align:start;" d="M8.86337-880.714v136.468h12.6412v-123.105h22.2705c8.6536,0,15.0692,0.555,18.7943,2.163,3.725,1.608,7.038,2.376,10.9488,6.392,3.9977,4.104,5.7201,6.487,7.9589,13.698,1.3055,4.708,0.7077,11.908-1.7415,17.785-1.5235,3.824-5.875,9.52-11.3665,12.803-5.4915,3.284-11.006,3.065-19.5091,3.258-8.5031,0.194-9.5343,0.188-9.5343,0.188l39.8101,66.818h16.8311l-33.043-54.111c6.9102-0.767,14.0089-4.673,15.983-6.107,6.4181-4.876,9.5751-6.991,13.1361-13.677,2.7391-6.158,3.7181-12.963,3.9214-19.646,0.2033-10.562-4.1326-23.003-12.4189-31.014-8.4066-8.128-13.27-8.994-19.5166-10.54-6.2467-1.547-15.9304-1.373-29.971-1.373h-25.1945z" fill="#4c5457"/>
    <path style="text-align:start;" d="M157.053-850.649c-16.305,0.396-29.389,6.935-39.236,19.613-8.018,10.292-12.012,22.022-12.012,35.172,0,13.977,4.722,26.523,14.192,37.641,9.47,11.055,22.612,16.579,39.406,16.579,7.576,0,14.37-1.133,20.368-3.42,5.998-2.351,11.609-5.509,16.179-10.192,5.276-5.406,9.986-14.387,13.648-21.629l-14.514,0.085c-4.04,6.798-5.9,9.581-9.373,12.63-3.472,3.05-7.225,5.736-12.213,7.578-4.924,1.842-9.994,2.763-15.234,2.763-10.859,0-19.981-3.863-27.368-11.55-7.387-7.751-11.203-14.286-11.456-26.357l93.094,0.24c-0.126-14.167-4.387-29.598-11.837-39.064-10.48-13.405-24.494-20.089-42.045-20.089-0.533,0-1.073-0.013-1.599,0zm1.55,12.751c0.079-0.001,0.139,0,0.218,0,6.124,0,11.979,1.313,17.535,3.918s9.999,6.026,13.345,10.282c3.409,4.257,6.724,11.88,8.253,20.674l-77.899,0.48c0.802-12.408,7.427-20.76,12.73-25.525,7.204-6.492,15.818-9.779,25.818-9.829z" fill="#4c5457"/>
    <path style="text-align:start;" d="M273.324-850.175c-13.753,0.36-25.62,5.646-35.498,15.854-10.239,10.581-15.342,23.371-15.342,38.257,0,15.2,5.052,28.164,15.166,38.808,10.177,10.581,22.475,15.854,36.812,15.854,8.069,0,15.042-0.601,22.112-3.722,6.817-3.009,12.489-8.124,18.135-14.211v15.045c0,0.064,0.021,0.13,0.066,0.176s0.111,0.067,0.175,0.066h12.803c0.064,0.001,0.13-0.02,0.175-0.066,0.046-0.046,0.067-0.112,0.066-0.176v-103.018c0.001-0.065-0.02-0.131-0.066-0.176-0.045-0.046-0.111-0.067-0.175-0.067h-12.803c-0.064,0-0.13,0.021-0.175,0.067-0.045,0.045-0.066,0.111-0.066,0.176v16.235c-4.989-6.918-10.195-10.756-16.771-14.283-6.719-3.604-14.809-4.818-23.126-4.819-0.5,0-0.981-0.013-1.488,0zm1.313,13.275c0.383-0.011,0.804,0,1.204,0,11.193,0,20.586,3.978,28.21,11.951,7.685,7.972,11.512,17.869,11.512,29.745,0,7.79-1.702,14.781-5.143,20.992-0.007-0.001-0.015-0.001-0.022,0-3.379,6.209-8.222,11.133-14.554,14.773-6.333,3.642-13.045,5.447-20.113,5.447-7.006,0-13.549-1.806-19.697-5.447-6.083-3.701-10.925-8.863-14.554-15.457s-5.449-13.487-5.449-20.705c0-7.281,1.795-14.196,5.362-20.727,3.628-6.53,8.449-11.55,14.532-15.126h0.022c5.752-3.44,11.95-5.258,18.69-5.446z" fill="#4c5457"/>
    <path style="text-align:start;" d="M396.169-850.219c-9.854,0.001-18.786,2.41-26.756,7.233-7.969,4.822-14.235,11.552-18.819,20.176-4.526,8.56-6.793,17.856-6.793,27.871,0,14.893,4.88,27.57,14.62,37.97,9.742,10.402,22.025,15.611,36.802,15.611,9.619,0,18.208-2.044,25.722-6.108,7.569-4.125,17.643-11.598,23.745-28.716,0,0-14.1-0.264-14.197-0.142-6.713,15.834-21.14,22.288-34.742,22.287-7.424,0-14.116-1.812-20.116-5.446-5.943-3.633-10.657-8.738-14.114-15.325-3.402-6.588-5.101-13.613-5.101-21.079,0-11.488,3.7-21.21,11.125-29.239,7.478-8.026,16.838-12.039,28.118-12.039,14.118,0,24.853,5.781,34.252,21.475,0.04,0.065,9.221,0.133,14.753,0.108-2.916-11.315-11.875-19.933-15.896-23.303-4.021-3.369-8.945-6.11-14.73-8.203-5.733-2.093-11.684-3.13-17.873-3.131z" fill="#4c5457"/>
    <path style="text-align:start;" d="M473.249-881.947h13.078v34.636l19.562-0.24v13.664h-19.562v89.409h-13.317v-89.409l-19.767,0.24v-13.664h19.528v-34.636" fill="#4c5457"/>
    <path style="text-align:start;" fill="#608194" d="M579.509-884.154c-11.924,0.146-23.028,3.349-33.308,9.57-10.526,6.309-18.833,15.044-24.958,26.24-6.066,11.195-9.103,23.358-9.103,36.47,0,19.67,6.672,36.441,20.053,50.296,13.381,13.856,29.809,20.772,49.256,20.771,19.208,0,35.477-6.964,48.799-20.881,13.38-13.917,20.053-30.868,20.053-50.847,0-20.165-6.673-37.142-20.053-50.936-13.381-13.793-30.009-20.682-49.872-20.683-0.287,0-0.58-0.003-0.867,0zm0.594,13.363c0.302-0.005,0.586,0,0.889,0,9.872,0,19.214,2.636,28.016,7.894,8.801,5.257,15.624,12.274,20.441,21.057,4.877,8.722,7.301,18.48,7.301,29.305,0,10.886-2.424,20.794-7.301,29.701-4.817,8.907-11.576,15.924-20.259,21.058-8.623,5.134-18.028,7.695-28.198,7.695-15.224,0-28.234-5.558-39.057-16.691-10.764-11.196-16.153-24.896-16.152-41.102-0.001-10.948,2.446-20.882,7.323-29.789,4.876-8.907,11.644-15.977,20.327-21.234,8.411-5.093,17.309-7.735,26.67-7.894z"/>
    <path style="text-align:start;" d="M674.739-783.874c0.651,20.51,13.628,28.607,24.824,28.607,4.789,0,9.287-1.032,13.493-3.097,4.207-2.125,7.477-5.253,9.371-8.949,3.157-6.16,5.748-17.699,0.599-27.286-3.521-6.557-13.902-13.564-26.853-17.656-12.885-4.07-18.84-7.586-24.86-14.948-5.048-6.314-5.42-11.945-5.42-19.292,0-5.828,2.445-16.178,5.422-20.974,2.977-4.797,7.151-8.561,12.522-11.293,5.436-2.793,11.325-4.189,17.668-4.19,6.73,0.001,13.007,1.579,18.832,4.736,5.889,3.097,15.449,14.111,14.812,30.884l-12.127-0.107c-0.111-9.796-5.423-17.556-9.241-19.681-3.754-2.125-8.341-3.427-12.807-3.428-5.759,0.001-10.962,2.359-14.651,5.638-8.406,8.075-8.376,18.09-6.603,23.461,0.948,2.871,3.417,8.825,10.673,12.282,8.334,4.099,13.525,5.683,18.922,7.632,16.187,4.244,25.621,14.742,27.346,22.14,1.843,7.901,2.236,15.36,1.393,22.046-1.196,9.474-5.144,19.113-9.213,23.399-7.83,7.164-17.137,11.946-28.397,11.946-8.672,0-16.057-2.395-23.111-6.706-7.053-4.372-14.992-18.373-15.924-35.289" fill="#608194"/>
   </g>
  </g>
  <path d="m517.107,249.494c0,64.9536-55.2886,117.609-123.491,117.609-68.202,0-123.491-52.6553-123.491-117.609,0-64.9536,55.2886-117.609,123.491-117.609,68.202,0,123.491,52.6553,123.491,117.609z" fill-rule="nonzero" transform="matrix(0.2659517,-0.135874,0.1166617,0.2234081,114.12269,97.998262)" filter="url(#filter4779)" fill="url(#radialGradient4591)"/>
  <path d="m517.107,249.494c0,64.9536-55.2886,117.609-123.491,117.609-68.202,0-123.491-52.6553-123.491-117.609,0-64.9536,55.2886-117.609,123.491-117.609,68.202,0,123.491,52.6553,123.491,117.609z" fill-rule="nonzero" transform="matrix(0.1851454,-9.4773037e-2,8.121552e-2,0.155829,148.89172,92.525691)" filter="url(#filter4775)" fill="url(#radialGradient4591)"/>
  <path d="m517.107,249.494c0,64.9536-55.2886,117.609-123.491,117.609-68.202,0-123.491-52.6553-123.491-117.609,0-64.9536,55.2886-117.609,123.491-117.609,68.202,0,123.491,52.6553,123.491,117.609z" fill-rule="nonzero" transform="matrix(0.1179718,-0.1725887,0.1434543,6.711177e-2,160.36562,144.13895)" filter="url(#filter4771)" fill="url(#radialGradient4589)"/>
  <path opacity="0.2" d="m400.774,118.281c0,6.41022-5.19651,11.6067-11.6067,11.6067-6.41022,0-11.6067-5.19651-11.6067-11.6067,0-6.41022,5.19651-11.6067,11.6067-11.6067,4.77724,0,9.06654,2.9271,10.808,7.37561" fill-rule="nonzero" transform="matrix(1.1169813,0,0,1.0293749,-152.65758,-28.85876)" filter="url(#filter4546)" fill="url(#radialGradient2765)"/>
  <path opacity="0.1" d="m299.727,293.747c0,7.54143-3.82096,13.655-8.53436,13.655-4.71339,0-8.53436-6.11354-8.53436-13.655,0-7.54143,3.82097-13.655,8.53436-13.655,3.51268,0,6.66658,3.44365,7.94709,8.67719" fill-rule="nonzero" transform="matrix(0.618684,-0.4144155,0.4144155,0.618684,-95.083142,162.75035)" filter="url(#filter5237)" fill="#FFF"/>
  <path d="m299.727,293.747c0,7.54143-3.82096,13.655-8.53436,13.655-4.71339,0-8.53436-6.11354-8.53436-13.655,0-7.54143,3.82097-13.655,8.53436-13.655,3.51268,0,6.66658,3.44365,7.94709,8.67719" fill-rule="nonzero" transform="matrix(0.5373899,-0.3110615,0.3599617,0.464386,3.5378497,218.88062)" filter="url(#filter7267)" fill="#d9dfe4"/>
  <path d="m299.962,293.747c0,7.54143-3.92637,13.655-8.76979,13.655s-8.76979-6.11354-8.76979-13.655c0-7.54143,3.92637-13.655,8.76979-13.655,3.60958,0,6.85048,3.44365,8.16632,8.67719" fill-rule="nonzero" transform="matrix(-0.4164211,0.3397726,-0.2799645,-0.3389628,486.19936,277.81172)" filter="url(#filter10578)" fill="#a3b1be"/>
  <path d="m299.727,293.747c0,7.54143-3.82096,13.655-8.53436,13.655-4.71339,0-8.53436-6.11354-8.53436-13.655,0-7.54143,3.82097-13.655,8.53436-13.655,3.51268,0,6.66658,3.44365,7.94709,8.67719" fill-rule="nonzero" transform="matrix(0.3951251,-0.2077075,0.2646681,0.3100882,114.18081,204.75074)" filter="url(#filter7267)" fill="#e1e6ea"/>
  <path d="m299.727,293.747c0,7.54143-3.82096,13.655-8.53436,13.655-4.71339,0-8.53436-6.11354-8.53436-13.655,0-7.54143,3.82097-13.655,8.53436-13.655,3.51268,0,6.66658,3.44365,7.94709,8.67719" fill-rule="nonzero" transform="matrix(0.3857728,-0.1685415,0.2584035,0.2516172,135.61611,224.80627)" filter="url(#filter7267)" fill="#a2b1be"/>
  <path opacity="0.36089603" d="M413.041,92.8733c-11.659,0.38-20.677,5.4231-21.531,12.8747-0.732,6.383,4.742,12.87,13.343,17-7.268,9.529-10.746,21.619-8.687,34,4.122,24.793,28.842,41.439,55.187,37.157,26.345-4.283,44.404-27.895,40.282-52.688-3.771-22.677-24.783-38.516-48.5-37.781-4.656-4.8142-12.477-8.6761-21.657-10.0627-2.903-0.4386-5.747-0.5877-8.437-0.5z" fill-rule="nonzero" transform="matrix(0.7446541,0,0,0.7446541,-0.2254903,0.7509507)" filter="url(#filter4518)" fill="url(#radialGradient2767)"/>
  <path d="m523.462,249.494c0,64.9536-58.1339,117.609-129.846,117.609-71.7118,0-129.846-52.6553-129.846-117.609,0-64.9536,58.1339-117.609,129.846-117.609,71.7118,0,129.846,52.6553,129.846,117.609z" fill-rule="nonzero" transform="matrix(0.2183368,0.1682831,-0.1130197,0.1827096,293.29874,8.7998507)" filter="url(#filter4666)" fill="url(#radialGradient2769)"/>
  <path d="m606.236,55.0655c0,23.6133-17.2754,42.7557-38.5858,42.7557-21.3103,0-38.5858-19.1424-38.5858-42.7557s17.2754-42.7557,38.5858-42.7557c21.3103,0,38.5858,19.1424,38.5858,42.7557z" fill-rule="nonzero" transform="matrix(0.2439121,9.0456251e-2,1.0444686e-2,0.2004205,202.13732,46.396385)" fill="url(#radialGradient2683)"/>
  <path opacity="0.2" d="m606.236,55.0655c0,23.6133-17.2754,42.7557-38.5858,42.7557-21.3103,0-38.5858-19.1424-38.5858-42.7557s17.2754-42.7557,38.5858-42.7557c21.3103,0,38.5858,19.1424,38.5858,42.7557z" fill-rule="nonzero" transform="matrix(0.2589117,2.5300899e-2,6.1182536e-2,0.1911392,183.04008,77.362837)" fill="url(#radialGradient2747)"/>
  <path opacity="0.44086022" d="m400.774,118.281c0,6.41022-5.19651,11.6067-11.6067,11.6067-6.41022,0-11.6067-5.19651-11.6067-11.6067,0-6.41022,5.19651-11.6067,11.6067-11.6067,4.77724,0,9.06654,2.9271,10.808,7.37561" fill-rule="nonzero" transform="matrix(0.6707658,0,0,0.7085892,118.85152,147.94297)" filter="url(#filter4546)" fill="url(#radialGradient2695)"/>
  <path opacity="0.2" d="m606.236,55.0655c0,23.6133-17.2754,42.7557-38.5858,42.7557-21.3103,0-38.5858-19.1424-38.5858-42.7557s17.2754-42.7557,38.5858-42.7557c21.3103,0,38.5858,19.1424,38.5858,42.7557z" fill-rule="nonzero" transform="matrix(0.2589117,2.5300899e-2,6.1182536e-2,0.1911392,182.07558,84.329794)" fill="url(#radialGradient2747)"/>
  <path opacity="0.54" d="m400.774,118.281c0,6.41022-5.19651,11.6067-11.6067,11.6067-6.41022,0-11.6067-5.19651-11.6067-11.6067,0-6.41022,5.19651-11.6067,11.6067-11.6067,4.77724,0,9.06654,2.9271,10.808,7.37561" fill-rule="nonzero" transform="matrix(0.902831,-0.73413,0.3898079,0.5286978,-45.046635,458.37787)" filter="url(#filter4636)" fill="url(#radialGradient4602)"/>
  <path d="M389.05,81.1347c-24.496-25.0716-58.533-40.7872-96.293-41.1911s-72.125,14.5802-97.152,39.1221l16.594,16.9931c20.689-20.2841,49.097-32.6691,80.303-32.3353,31.207,0.3338,59.335,13.3235,79.578,34.0454" fill-rule="evenodd" fill="url(#radialGradient2632)"/>
  <path opacity="0.2" d="m606.236,55.0655c0,23.6133-17.2754,42.7557-38.5858,42.7557-21.3103,0-38.5858-19.1424-38.5858-42.7557s17.2754-42.7557,38.5858-42.7557c21.3103,0,38.5858,19.1424,38.5858,42.7557z" fill-rule="nonzero" transform="matrix(0.2589117,2.5300899e-2,6.1182536e-2,0.1911392,208.07558,102.32979)" fill="url(#radialGradient2747)"/>
 </g>
</svg>
