<?xml version="1.0" encoding="UTF-8" standalone="no"?>
<svg
   width="512"
   height="512"
   version="1.1"
   id="svg16"
   sodipodi:docname="salentos.svg"
   inkscape:version="1.1.1 (3bf5ae0d25, 2021-09-20)"
   xmlns:inkscape="http://www.inkscape.org/namespaces/inkscape"
   xmlns:sodipodi="http://sodipodi.sourceforge.net/DTD/sodipodi-0.dtd"
   xmlns="http://www.w3.org/2000/svg"
   xmlns:svg="http://www.w3.org/2000/svg">
  <defs
     id="defs20" />
  <sodipodi:namedview
     id="namedview18"
     pagecolor="#ffffff"
     bordercolor="#666666"
     borderopacity="1.0"
     inkscape:pageshadow="2"
     inkscape:pageopacity="0.0"
     inkscape:pagecheckerboard="0"
     showgrid="false"
     inkscape:zoom="1.7050781"
     inkscape:cx="251.30813"
     inkscape:cy="256"
     inkscape:window-width="3440"
     inkscape:window-height="1417"
     inkscape:window-x="0"
     inkscape:window-y="0"
     inkscape:window-maximized="1"
     inkscape:current-layer="svg16" />
  <path
     d="m 257.29942,7.5541787 c -10.61609,-0.24841 -21.09817,2.32932 -30.29764,7.4507303 L 56.789435,109.8872 c -17.89778,9.97666 -28.92347,28.41412 -28.92398,48.36744 v 189.76811 c 5.1e-4,19.95333 11.0262,38.39078 28.92398,48.36745 l 170.217605,94.88405 c 9.21333,5.13573 19.52718,7.62779 29.80855,7.47617 9.6917,-0.14289 7.62256,-10.75711 16.30746,-15.59828 l 169.31517,-93.07915 c 17.90542,-9.9785 32.54396,-19.39977 32.53906,-39.36041 V 161.84693 c -5.3e-4,-6.78508 7.74864,-17.00463 5.3617,-23.16593 -4.63284,-11.95859 -13.45302,-22.22789 -25.26636,-28.81134 L 284.86553,14.987359 C 276.47,10.314119 266.993,7.7521287 257.30468,7.5366387 Z"
     style="fill:#53d953;stroke-width:8.77189"
     id="path2" />
  <path
     d="m 32.456985,136.61598 a 57.847956,55.851505 0 0 0 -4.59154,21.63846 v 189.76061 a 57.847956,55.851505 0 0 0 28.91982,48.38245 l 170.229455,94.8803 a 57.847956,55.851505 0 0 0 28.91982,7.43555 v -243.3685 z"
     style="fill:#ef2b2f;stroke-width:8.77189"
     id="path4" />
  <path
     d="M 479.46349,136.58171 255.93454,255.34485 v 243.3685 a 57.847956,55.851505 0 0 0 28.91982,-7.43555 l 170.21231,-94.8803 a 57.847956,55.851505 0 0 0 28.93695,-48.39958 V 158.23731 a 57.847956,55.851505 0 0 0 -4.54013,-21.6556 z"
     style="fill:#ffbb1f;stroke-width:8.77189"
     id="path6" />
  <path
     d="M 257.30515,7.5561487 A 57.848624,55.893886 0 0 0 227.01472,15.025959 L 56.785265,109.97479 a 57.848624,55.893886 0 0 0 -28.91982,48.41671 v 8.78902 a 57.848624,55.893886 0 0 1 28.91982,-48.43385 L 227.01472,23.797849 a 57.848624,55.893886 0 0 1 30.29043,-7.46982 57.848624,55.893886 0 0 1 27.54921,7.46982 L 455.0838,118.74667 a 57.848624,55.893886 0 0 1 28.91982,48.43385 V 158.3915 A 57.848624,55.893886 0 0 0 455.0838,109.97479 L 284.85436,15.025959 A 57.848624,55.893886 0 0 0 257.30515,7.5561487 Z"
     style="opacity:0.2;fill:#ffffff;stroke-width:8.77189"
     id="path8" />
  <path
     d="m 27.865445,339.12392 a 57.847956,55.895554 0 0 0 0.0171,0.65105 v -0.65105 z m 0.0171,8.77189 v 8.77188 a 57.847956,55.895554 0 0 0 28.91982,48.39958 l 170.229475,94.9831 a 57.847956,55.895554 0 0 0 57.83964,0 l 170.21231,-94.9831 a 57.847956,55.895554 0 0 0 28.91982,-48.39958 v -8.77188 a 57.847956,55.895554 0 0 1 -28.91982,48.39957 l -170.21231,94.9831 a 57.847956,55.895554 0 0 1 -57.83964,0 L 56.802395,396.29538 a 57.847956,55.895554 0 0 1 -28.91982,-48.39957 z"
     style="opacity:0.2;stroke-width:8.77189"
     id="path10" />
  <path
     d="m 32.456985,136.61598 a 57.847956,55.851505 0 0 0 -4.59154,21.63846 v 8.77189 a 57.847956,55.851505 0 0 1 4.59154,-21.63847 L 255.93453,264.11674 v -8.77189 z"
     style="opacity:0.2;fill:#ffffff;stroke-width:8.77189"
     id="path12" />
  <path
     d="M 479.46349,136.58171 255.93454,255.34485 v 8.77189 L 479.46349,145.3536 a 57.847956,55.851505 0 0 1 4.54013,21.6556 v -8.77189 a 57.847956,55.851505 0 0 0 -4.54013,-21.6556 z"
     style="opacity:0.2;fill:#ffffff;stroke-width:8.77189"
     id="path14" />
</svg>
