<?xml version="1.0" encoding="UTF-8" standalone="no"?>
<svg
   width="512"
   height="512"
   version="1.1"
   id="svg20"
   sodipodi:docname="steamos.svg"
   inkscape:version="1.1.1 (3bf5ae0d25, 2021-09-20)"
   xmlns:inkscape="http://www.inkscape.org/namespaces/inkscape"
   xmlns:sodipodi="http://sodipodi.sourceforge.net/DTD/sodipodi-0.dtd"
   xmlns="http://www.w3.org/2000/svg"
   xmlns:svg="http://www.w3.org/2000/svg">
  <defs
     id="defs24" />
  <sodipodi:namedview
     id="namedview22"
     pagecolor="#ffffff"
     bordercolor="#666666"
     borderopacity="1.0"
     inkscape:pageshadow="2"
     inkscape:pageopacity="0.0"
     inkscape:pagecheckerboard="0"
     showgrid="false"
     inkscape:zoom="1.7050781"
     inkscape:cx="251.30813"
     inkscape:cy="256"
     inkscape:window-width="3440"
     inkscape:window-height="1417"
     inkscape:window-x="0"
     inkscape:window-y="0"
     inkscape:window-maximized="1"
     inkscape:current-layer="svg20" />
  <circle
     style="opacity:0.2;stroke-width:8.77193"
     cx="255.87822"
     cy="262.16858"
     r="245.61403"
     id="circle2" />
  <path
     style="fill:#e69cf7;stroke-width:8.77193"
     d="m 501.49226,253.39665 c 0,135.64888 -109.96515,245.61403 -245.61404,245.61403 -114.79688,0 -211.199358,-78.75585 -238.124758,-185.18489 -4.8908,-19.33205 10.60361,-5.88694 10.60361,-26.73894 0,-2.31536 -18.06085,-38.31343 -17.99719,-40.61341 C 14.025602,114.02586 122.54469,7.7826103 255.87822,7.7826103 c 135.64889,0 245.61404,109.9651497 245.61404,245.6140397 z"
     id="path4" />
  <path
     style="opacity:0.1;stroke-width:8.77193"
     d="m 326.05366,113.04577 a 96.491228,96.491228 0 0 0 -96.49123,96.49123 96.491228,96.491228 0 0 0 0.1028,2.15872 l -46.12117,76.87431 a 74.561404,74.561404 0 0 0 -2.22724,-0.0857 74.561404,74.561404 0 0 0 -49.66762,19.05154 L 10.675372,254.08195 a 245.61404,245.61404 0 0 0 -0.41119,8.08663 245.61404,245.61404 0 0 0 8.22369,62.48286 l 88.301808,39.02824 a 74.561404,74.561404 0 0 0 74.52714,73.92749 74.561404,74.561404 0 0 0 74.5614,-74.5614 74.561404,74.561404 0 0 0 -0.29125,-5.70519 l 82.51096,-52.15186 A 96.491228,96.491228 0 0 0 422.54489,209.537 96.491228,96.491228 0 0 0 326.05366,113.04577 Z m 0,35.08772 a 61.403509,61.403509 0 0 1 61.40351,61.40351 61.403509,61.403509 0 0 1 -61.40351,61.40351 61.403509,61.403509 0 0 1 -61.40351,-61.40351 61.403509,61.403509 0 0 1 61.40351,-61.40351 z m 0,17.54386 a 43.859649,43.859649 0 0 0 -43.85965,43.85965 43.859649,43.859649 0 0 0 43.85965,43.85965 43.859649,43.859649 0 0 0 43.85965,-43.85965 43.859649,43.859649 0 0 0 -43.85965,-43.85965 z m -144.73684,149.1228 a 48.245614,48.245614 0 0 1 48.24561,48.24562 48.245614,48.245614 0 0 1 -48.24561,48.24561 48.245614,48.245614 0 0 1 -46.42955,-35.20765 l 34.0255,15.04249 a 30.704825,30.704825 0 1 0 24.8081,-56.16091 l -34.02549,-15.04249 a 48.245614,48.245614 0 0 1 21.62144,-5.12267 z"
     id="path6" />
  <path
     style="fill:#635ad6;stroke-width:8.77193"
     d="m 243.59752,179.71244 36.84211,85.96491 86.8421,12.2807 -135.96491,85.96491 v -61.40351 h -61.40351 z"
     id="path8" />
  <path
     style="fill:#635ad6;stroke-width:8.77193"
     d="m 326.05366,104.27384 a 96.491228,96.491228 0 0 0 -96.49123,96.49123 96.491228,96.491228 0 0 0 96.49123,96.49122 96.491228,96.491228 0 0 0 96.49123,-96.49122 96.491228,96.491228 0 0 0 -96.49123,-96.49123 z m 0,35.08772 a 61.403509,61.403509 0 0 1 61.40351,61.40351 61.403509,61.403509 0 0 1 -61.40351,61.40351 61.403509,61.403509 0 0 1 -61.40351,-61.40351 61.403509,61.403509 0 0 1 61.40351,-61.40351 z"
     id="path10" />
  <path
     style="fill:#635ad6;stroke-width:8.77193"
     d="m 181.31682,279.71244 a 74.561404,74.561404 0 0 0 -74.56141,74.5614 74.561404,74.561404 0 0 0 74.56141,74.5614 74.561404,74.561404 0 0 0 74.5614,-74.5614 74.561404,74.561404 0 0 0 -74.5614,-74.5614 z m 0,26.31578 a 48.245614,48.245614 0 0 1 48.24561,48.24562 48.245614,48.245614 0 0 1 -48.24561,48.24561 48.245614,48.245614 0 0 1 -48.24562,-48.24561 48.245614,48.245614 0 0 1 48.24562,-48.24562 z"
     id="path12" />
  <circle
     style="fill:#635ad6;stroke-width:8.77193"
     cx="326.05365"
     cy="200.76506"
     r="43.85965"
     id="circle14" />
  <path
     style="fill:#635ad6;stroke-width:8.77193"
     d="m 10.675372,245.31002 a 245.61404,245.61404 0 0 0 -0.41119,8.08663 245.61404,245.61404 0 0 0 8.22369,62.48286 l 150.424898,66.47478 a 30.704825,30.704825 0 1 0 24.8081,-56.16091 z"
     id="path16" />
  <path
     style="opacity:0.2;fill:#ffffff;stroke-width:8.77193"
     d="m 255.87822,7.7826103 c -130.69854,0 -237.560688,102.0785597 -245.185718,230.8627997 -0.0254,0.42821 0.28274,1.36011 0.54825,2.22725 C 22.040802,115.20115 127.40846,16.55454 255.87822,16.55454 c 134.17838,0 243.14558,107.61031 245.49411,241.22807 0.0257,-1.46437 0.11993,-2.91546 0.11993,-4.38596 0,-135.64889 -109.96515,-245.6140397 -245.61404,-245.6140397 z"
     id="path18" />
</svg>
