<?xml version="1.0" encoding="UTF-8" standalone="no"?>
<svg
   width="512"
   height="512"
   version="1.1"
   id="svg12"
   sodipodi:docname="trueos.svg"
   inkscape:version="1.1.1 (3bf5ae0d25, 2021-09-20)"
   xmlns:inkscape="http://www.inkscape.org/namespaces/inkscape"
   xmlns:sodipodi="http://sodipodi.sourceforge.net/DTD/sodipodi-0.dtd"
   xmlns="http://www.w3.org/2000/svg"
   xmlns:svg="http://www.w3.org/2000/svg">
  <defs
     id="defs16" />
  <sodipodi:namedview
     id="namedview14"
     pagecolor="#ffffff"
     bordercolor="#666666"
     borderopacity="1.0"
     inkscape:pageshadow="2"
     inkscape:pageopacity="0.0"
     inkscape:pagecheckerboard="0"
     showgrid="false"
     inkscape:zoom="1.7050781"
     inkscape:cx="251.30813"
     inkscape:cy="256"
     inkscape:window-width="3440"
     inkscape:window-height="1417"
     inkscape:window-x="0"
     inkscape:window-y="0"
     inkscape:window-maximized="1"
     inkscape:current-layer="svg12" />
  <circle
     cx="253.07152"
     cy="319.52277"
     r="184.21053"
     style="opacity:0.2;stroke-width:8.77193"
     id="circle2" />
  <circle
     cx="253.07152"
     cy="310.75082"
     r="184.21053"
     style="fill:#e4e4e4;stroke-width:8.77193"
     id="circle4" />
  <path
     d="m 253.07152,126.5403 a 184.21053,184.21053 0 0 0 -184.210529,184.21053 184.21053,184.21053 0 0 0 0.18846,5.1398 184.21053,184.21053 0 0 1 184.022069,-180.5784 184.21053,184.21053 0 0 1 184.02207,179.07072 184.21053,184.21053 0 0 0 0.18846,-3.63212 A 184.21053,184.21053 0 0 0 253.07152,126.5403 Z"
     style="opacity:0.1;fill:#ffffff;stroke-width:8.77193"
     id="path6" />
  <path
     d="m 279.38731,12.507053 c 0,0 8.77193,24.56141 8.77193,49.12281 0,37.74081 -36.36405,57.726737 -61.40351,85.964907 -36.84211,41.54857 -35.08772,84.21053 -47.36842,84.21053 -24.56141,0 -36.84211,-35.08772 -36.84211,-35.08772 0,0 1.73698,35.94313 12.2807,49.12281 49.12281,61.40351 12.28071,73.68421 12.28071,73.68421 0,0 -49.12281,6.5862 -49.12281,-36.84211 0,-24.5614 12.2807,-32.2446 12.2807,-49.1228 0,-12.28071 -18.0133,-24.56141 -18.0133,-24.56141 0,0 9.24137,12.2807 9.24137,24.56141 0,12.2807 -26.315789,12.2807 -26.315789,73.68421 0,36.8421 47.368419,49.1228 59.649119,61.4035 9.15349,9.15349 12.28071,36.84211 -12.2807,36.84211 -9.15349,0 -12.2807,-12.2807 -12.2807,-24.56141 v -17.54386 c 0,0 -12.46372,17.52836 -12.2807,29.82457 0.73123,49.1228 82.45614,84.21052 82.45614,84.21052 0,0 -8.77193,-35.08772 -8.77193,-59.64912 0,-49.12281 26.31579,-39.30567 26.31579,-73.68421 0,-49.1228 -14.03509,-61.40351 -14.03509,-61.40351 0,0 31.19143,24.56141 31.83765,61.40351 0.37421,21.33267 -24.82684,40.72863 -19.55695,61.40351 2.85981,11.21962 12.2807,24.5614 24.56141,24.5614 24.5614,0 28.20087,-11.67523 31.03756,-24.5614 4.93066,-22.39849 -27.47586,-38.4688 -27.52667,-61.40351 -0.0211,-9.15347 18.0133,-24.5614 18.0133,-24.5614 0,0 -5.7326,12.2807 -5.7326,24.5614 0,26.21162 45.61191,31.29095 45.61191,61.40351 0,28.39156 -41.61286,43.85965 -40.96457,68.42105 0.12036,4.53733 1.44388,11.30426 5.87651,12.2807 57.53385,4.40084 133.33368,-56.14035 133.33368,-117.54386 0,-61.4035 -49.12281,-90.88198 -49.12281,-90.88198 0,0 36.84211,-19.64433 36.84211,-56.48644 0,-24.5614 -18.8584,-39.03133 -38.59649,-98.24561 -12.2807,-36.842107 8.77193,-57.894737 8.77193,-57.894737 0,0 -35.08772,21.05263 -35.08772,45.614037 0,49.12281 21.88186,49.12281 21.88186,85.96491 0,14.75956 -6.09239,36.84211 -18.37309,36.84211 -8.57771,0 -12.96483,-8.77193 -14.28948,-21.05263 -0.91982,-8.52825 10.78071,-24.56141 10.78071,-24.56141 0,0 -26.30827,12.2807 -26.31579,36.84211 -0.003,8.18714 17.54386,21.05263 -7.01755,21.05263 -24.5614,0 -36.8421,-12.2807 -36.8421,-36.84211 0,-27.46048 36.8421,-73.68421 36.8421,-73.68421 0,0 24.56141,-35.513517 24.56141,-61.403507 0,-24.5614 -35.08772,-61.40351 -35.08772,-61.40351 z m 35.08772,257.894737 c 0,0 36.8421,24.56141 36.8421,61.40351 0,11.57836 -12.2807,24.5614 -24.5614,24.5614 -17.77856,0 -38.59649,-9.80184 -38.59649,-24.5614 0,-24.5614 21.17011,-36.8421 32.24027,-36.8421 6.35211,-12.2807 -5.92448,-24.56141 -5.92448,-24.56141 z"
     style="opacity:0.1;stroke-width:8.77193"
     id="path8" />
  <path
     d="m 279.38731,3.7332832 c 0,0 8.77193,24.5613998 8.77193,49.1228098 0,37.74081 -36.36405,57.726727 -61.40351,85.964907 -36.84211,41.54856 -35.08772,84.21053 -47.36842,84.21053 -24.56141,0 -36.84211,-35.08772 -36.84211,-35.08772 0,0 1.73698,35.94313 12.2807,49.12281 49.12281,61.40351 12.28071,73.68421 12.28071,73.68421 0,0 -49.12281,6.5862 -49.12281,-36.84211 0,-24.5614 12.2807,-32.2446 12.2807,-49.12281 0,-12.2807 -18.0133,-24.5614 -18.0133,-24.5614 0,0 9.24137,12.2807 9.24137,24.5614 0,12.28071 -26.315789,12.28071 -26.315789,73.68422 0,36.8421 47.368419,49.1228 59.649119,61.4035 9.15349,9.15349 12.28071,36.84211 -12.2807,36.84211 -9.15349,0 -12.2807,-12.28071 -12.2807,-24.56141 v -17.54386 c 0,0 -12.46372,17.52835 -12.2807,29.82456 0.73123,49.12281 82.45614,84.21053 82.45614,84.21053 0,0 -8.77193,-35.08772 -8.77193,-59.64912 0,-49.12281 26.31579,-39.30567 26.31579,-73.68421 0,-49.12281 -14.03509,-61.40351 -14.03509,-61.40351 0,0 31.19143,24.56141 31.83765,61.40351 0.37421,21.33267 -24.82684,40.72863 -19.55695,61.40351 2.85981,11.21962 12.2807,24.5614 24.56141,24.5614 24.5614,0 28.20087,-11.67523 31.03756,-24.5614 4.93066,-22.3985 -27.47586,-38.4688 -27.52667,-61.40351 -0.0211,-9.15348 18.0133,-24.5614 18.0133,-24.5614 0,0 -5.7326,12.2807 -5.7326,24.5614 0,26.21162 45.61191,31.29094 45.61191,61.40351 0,28.39156 -41.61286,43.85965 -40.96457,68.42105 0.12036,4.53732 1.44388,11.30426 5.87651,12.2807 57.53385,4.40083 133.33368,-56.14035 133.33368,-117.54386 0,-61.4035 -49.12281,-90.88199 -49.12281,-90.88199 0,0 36.84211,-19.64432 36.84211,-56.48643 0,-24.5614 -18.8584,-39.03133 -38.59649,-98.24561 -12.2807,-36.842107 8.77193,-57.894737 8.77193,-57.894737 0,0 -35.08772,21.05263 -35.08772,45.614027 0,49.12281 21.88186,49.12281 21.88186,85.96492 0,14.75956 -6.09239,36.8421 -18.37309,36.8421 -8.57771,0 -12.96483,-8.77192 -14.28948,-21.05263 -0.91982,-8.52824 10.78071,-24.5614 10.78071,-24.5614 0,0 -26.30827,12.2807 -26.31579,36.84211 -0.003,8.18714 17.54386,21.05263 -7.01755,21.05263 -24.5614,0 -36.8421,-12.28071 -36.8421,-36.84211 0,-27.46048 36.8421,-73.68421 36.8421,-73.68421 0,0 24.56141,-35.513517 24.56141,-61.403507 0,-24.5614 -35.08772,-61.4035098 -35.08772,-61.4035098 z M 314.47503,261.62802 c 0,0 36.8421,24.5614 36.8421,61.40351 0,11.57836 -12.2807,24.5614 -24.5614,24.5614 -17.77856,0 -38.59649,-9.80184 -38.59649,-24.5614 0,-24.5614 21.17011,-36.84211 32.24027,-36.84211 6.35211,-12.2807 -5.92448,-24.5614 -5.92448,-24.5614 z"
     style="fill:#f34235;stroke-width:8.77193"
     id="path10" />
</svg>
