<?xml version="1.0" encoding="UTF-8" standalone="no"?>
<svg
   width="512"
   height="512"
   version="1.1"
   id="svg20"
   sodipodi:docname="ultimate-edition.svg"
   inkscape:version="1.1.1 (3bf5ae0d25, 2021-09-20)"
   xmlns:inkscape="http://www.inkscape.org/namespaces/inkscape"
   xmlns:sodipodi="http://sodipodi.sourceforge.net/DTD/sodipodi-0.dtd"
   xmlns="http://www.w3.org/2000/svg"
   xmlns:svg="http://www.w3.org/2000/svg">
  <defs
     id="defs24" />
  <sodipodi:namedview
     id="namedview22"
     pagecolor="#ffffff"
     bordercolor="#666666"
     borderopacity="1.0"
     inkscape:pageshadow="2"
     inkscape:pageopacity="0.0"
     inkscape:pagecheckerboard="0"
     showgrid="false"
     inkscape:zoom="1.7050781"
     inkscape:cx="251.30813"
     inkscape:cy="256"
     inkscape:window-width="3440"
     inkscape:window-height="1417"
     inkscape:window-x="0"
     inkscape:window-y="0"
     inkscape:window-maximized="1"
     inkscape:current-layer="svg20" />
  <circle
     cx="255.66066"
     cy="259.82935"
     r="245.61403"
     style="opacity:0.2;stroke-width:8.77193"
     id="circle2" />
  <circle
     cx="255.66066"
     cy="251.0574"
     r="245.61403"
     style="fill:#989898;stroke-width:8.77193"
     id="circle4" />
  <path
     d="M 255.66065,67.309461 A 192.98246,192.98246 0 0 0 101.39804,144.74915 l 38.06881,76.15475 a 122.80702,122.80702 0 0 1 116.1938,-83.419 H 404.32088 A 192.98246,192.98246 0 0 0 255.66065,67.309461 Z m 73.99603,95.172009 a 122.80702,122.80702 0 0 1 48.81099,97.81044 122.80702,122.80702 0 0 1 -68.10239,109.88899 l -41.30687,82.63089 a 192.98246,192.98246 0 0 0 179.5847,-192.51988 192.98246,192.98246 0 0 0 -26.8983,-97.81044 z m -243.198327,5.03701 a 192.98246,192.98246 0 0 0 -23.78016,92.77343 192.98246,192.98246 0 0 0 180.150087,192.34855 l 35.89295,-71.82018 a 122.80702,122.80702 0 0 1 -23.06058,2.27865 122.80702,122.80702 0 0 1 -122.80702,-122.80702 z"
     style="opacity:0.2;stroke-width:8.77193"
     id="path6" />
  <path
     d="M 255.66065,58.537531 A 192.98246,192.98246 0 0 0 101.39804,135.97722 l 38.06881,76.15475 a 122.80702,122.80702 0 0 1 116.1938,-83.419 H 404.32088 A 192.98246,192.98246 0 0 0 255.66065,58.537531 Z m 73.99603,95.172009 a 122.80702,122.80702 0 0 1 48.81099,97.81044 122.80702,122.80702 0 0 1 -68.10239,109.88899 l -41.30687,82.63089 a 192.98246,192.98246 0 0 0 179.5847,-192.51988 192.98246,192.98246 0 0 0 -26.8983,-97.81044 z m -243.198327,5.03701 a 192.98246,192.98246 0 0 0 -23.78016,92.77343 192.98246,192.98246 0 0 0 180.150087,192.34855 l 35.89295,-71.82018 A 122.80702,122.80702 0 0 1 255.66065,374.327 122.80702,122.80702 0 0 1 132.85363,251.51998 Z"
     style="fill:#ffffff;stroke-width:8.77193"
     id="path8" />
  <path
     d="M 220.57293,198.88841 V 304.15156 H 194.25714 V 198.88841 h -26.31579 v 105.26315 c 0,26.31579 26.31579,26.31579 26.31579,26.31579 h 26.31579 c 0,0 26.31579,0 26.31579,-26.31579 V 198.88841 Z"
     style="opacity:0.2;stroke-width:8.77193"
     id="path10" />
  <path
     d="M 220.57293,190.11648 V 295.37963 H 194.25714 V 190.11648 h -26.31579 v 105.26315 c 0,26.31579 26.31579,26.31579 26.31579,26.31579 h 26.31579 c 0,0 26.31579,0 26.31579,-26.31579 V 190.11648 Z"
     style="fill:#ffffff;stroke-width:8.77193"
     id="path12" />
  <path
     d="m 290.74837,225.2042 h 52.63158 v -26.31579 h -78.94737 v 131.57894 h 78.94737 v -26.31579 h -52.63158 v -26.31579 h 52.63158 v -26.31579 h -52.63158 z"
     style="opacity:0.2;stroke-width:8.77193"
     id="path14" />
  <path
     d="m 290.74837,216.43227 h 52.63158 v -26.31579 h -78.94737 v 131.57894 h 78.94737 v -26.31579 h -52.63158 v -26.31579 h 52.63158 v -26.31579 h -52.63158 z"
     style="fill:#ffffff;stroke-width:8.77193"
     id="path16" />
  <path
     d="M 255.66065,5.4433706 A 245.61404,245.61404 0 0 0 10.046613,251.05741 a 245.61404,245.61404 0 0 0 0.1886,5.14035 A 245.61404,245.61404 0 0 1 255.66065,14.215301 245.61404,245.61404 0 0 1 501.09047,254.68898 245.61404,245.61404 0 0 0 501.27469,251.05741 245.61404,245.61404 0 0 0 255.66065,5.4433706 Z"
     style="opacity:0.2;fill:#ffffff;stroke-width:8.77193"
     id="path18" />
</svg>
